<svg xmlns="http://www.w3.org/2000/svg" width="481" height="632" viewBox="0 0 481 632" fill="none"><path d="M366.957 124.699C366.957 124.699 354.054 100.072 333.777 113.989C313.5 127.906 321.998 147.169 312.376 150.395C302.754 153.621 295.252 141.823 285.611 147.169C275.97 152.515 279.178 161.086 272.708 161.086C266.238 161.086 254.514 155.74 249.15 157.879C243.786 160.017 236.247 171.796 236.247 171.796C236.247 171.796 181.666 175.003 188.08 181.436C194.495 187.87 347.584 181.436 347.584 181.436C347.584 181.436 312.265 189.99 331.528 194.34C350.791 198.69 436.451 194.34 436.451 194.34C436.451 194.34 449.354 178.284 442.865 167.575C436.377 156.865 411.824 168.644 406.46 162.229C401.095 155.814 415.031 151.519 403.252 138.671C391.473 125.823 377.648 128.975 366.957 124.699Z" fill="white" stroke="#2E353A" stroke-width="0.759358" stroke-linecap="round" stroke-linejoin="round"></path><g style="mix-blend-mode:multiply" opacity="0.51"><path d="M444.69 175.814C444.552 175.139 444.552 174.443 444.69 173.768C444.61 171.563 443.976 169.414 442.847 167.519C436.432 156.809 411.805 168.588 406.441 162.174C401.077 155.759 415.013 151.464 403.234 138.616C395.215 129.86 386.22 128.57 377.907 127.279C376.178 128.005 374.529 128.907 372.985 129.971C352.708 143.888 361.206 163.15 351.565 166.358C341.925 169.565 334.441 157.805 324.8 163.151C315.16 168.496 318.385 177.068 311.897 177.068C305.408 177.068 293.703 171.722 288.358 173.86C285.095 175.169 280.984 180.054 278.367 183.667C314.422 182.819 347.51 181.436 347.51 181.436C347.51 181.436 312.192 189.989 331.455 194.34C350.717 198.69 436.377 194.34 436.377 194.34C436.377 194.34 443.972 184.976 444.69 175.814Z" fill="#2D95D7"></path></g><path d="M111.361 9.63396C111.361 9.63396 103.416 -5.59196 90.8263 3.0164C78.2363 11.6247 83.453 23.5511 77.5728 25.5419C71.6926 27.5327 66.9736 20.2331 60.9828 23.5511C54.992 26.8691 57.0012 32.1595 53.038 32.1595C49.0749 32.1595 41.7753 28.8415 38.4573 30.1687C35.1393 31.4959 30.5126 38.7954 30.5126 38.7954C30.5126 38.7954 -3.27568 40.7678 0.705909 44.7494C4.6875 48.731 99.3978 44.7494 99.3978 44.7494C99.3978 44.7494 77.5359 50.0397 89.4622 52.6941C101.389 55.3485 154.384 52.6941 154.384 52.6941C154.384 52.6941 162.329 42.7586 158.366 36.1042C154.403 29.4498 139.14 36.7678 135.84 32.7862C132.541 28.8046 141.131 26.1686 133.85 18.2239C126.568 10.2791 117.979 12.2884 111.361 9.63396Z" fill="white" stroke="#2E353A" stroke-width="0.759358" stroke-linecap="round" stroke-linejoin="round"></path><g style="mix-blend-mode:multiply" opacity="0.51"><path d="M154.421 52.6941C154.421 52.6941 162.366 42.7585 158.403 36.1041C154.44 29.4497 139.177 36.7677 135.878 32.7861C132.578 28.8045 141.168 26.1685 133.887 18.2238C127.878 11.6615 120.983 11.8643 115.011 10.6477C102.956 19.2376 108.043 30.9243 102.108 32.8783C96.1723 34.8322 91.5087 27.5695 85.5178 30.8875C79.527 34.2055 81.5547 39.4958 77.5731 39.4958C73.5915 39.4958 66.3103 36.1778 62.9924 37.505C59.6744 38.8322 55.0476 46.1318 55.0476 46.1318C77.9602 45.6157 99.4165 44.7125 99.4165 44.7125C99.4165 44.7125 77.5546 50.0028 89.481 52.6572C90.5758 52.8907 91.6839 53.0569 92.799 53.1549C110.126 52.6756 124.007 52.0858 124.007 52.0858C124.007 52.0858 121.113 52.7862 118.016 53.8001C135.73 53.6342 154.421 52.6941 154.421 52.6941Z" fill="#2D95D7"></path></g><path d="M431.787 554.21C431.787 554.21 423.842 538.984 411.252 547.592C398.662 556.201 403.971 568.127 398.017 570.118C392.063 572.109 387.418 564.809 381.427 568.127C375.436 571.445 377.464 576.735 373.482 576.735C369.501 576.735 362.22 573.417 358.902 574.745C355.584 576.072 350.957 583.353 350.957 583.353C350.957 583.353 317.169 585.344 321.15 589.325C325.132 593.307 419.842 589.325 419.842 589.325C419.842 589.325 397.999 594.616 409.907 597.27C421.814 599.924 474.829 597.27 474.829 597.27C474.829 597.27 482.773 587.334 478.81 580.68C474.847 574.026 459.603 581.344 456.285 577.362C452.967 573.38 461.575 570.744 454.294 562.781C447.013 554.818 438.423 556.864 431.787 554.21Z" fill="white" stroke="#2E353A" stroke-width="0.759358" stroke-linecap="round" stroke-linejoin="round"></path><g style="mix-blend-mode:multiply" opacity="0.51"><path d="M474.848 222.911C474.848 222.911 482.792 212.976 478.829 206.322C474.866 199.667 459.622 206.985 456.304 203.004C452.986 199.022 461.041 196.533 454.884 189.123C454.139 188.937 453.406 188.703 452.691 188.423C452.047 187.27 451.301 186.178 450.46 185.16C445.041 181.621 439.216 181.842 434.221 180.589C433.503 180.943 432.813 181.35 432.156 181.805C419.566 190.414 424.783 202.34 418.902 204.312C413.022 206.285 408.303 199.022 402.313 202.34C396.322 205.658 398.331 210.948 394.349 210.948C390.368 210.948 383.087 207.63 379.787 208.957C377.299 209.953 374.073 214.285 372.616 216.331C396.58 215.833 419.824 214.856 419.824 214.856C419.824 214.856 397.981 220.147 409.889 222.801C415.727 223.668 421.627 224.056 427.529 223.962L440.727 223.464C440.727 223.464 439.99 223.63 438.884 223.944C456.47 223.833 474.848 222.911 474.848 222.911Z" fill="#2D95D7"></path></g><path d="M184.45 154.708V161.51" stroke="white" stroke-width="0.759358" stroke-linecap="round" stroke-linejoin="round"></path><path d="M290.146 365.235L352.819 488.738C353.281 489.655 353.501 490.676 353.458 491.702C353.414 492.728 353.109 493.726 352.572 494.601C352.035 495.477 351.283 496.2 350.387 496.703C349.492 497.206 348.482 497.472 347.455 497.475H263.584C261.328 497.49 259.159 496.609 257.552 495.027C255.945 493.444 255.032 491.288 255.012 489.033V368.24L290.146 365.235Z" fill="#2E353A" stroke="#2E353A" stroke-width="0.759358" stroke-linecap="round" stroke-linejoin="round"></path><path d="M338.699 497.273L272.34 366.765L255.068 368.239V489.033C255.068 491.291 255.965 493.458 257.562 495.055C259.159 496.652 261.325 497.549 263.584 497.549H338.81C338.782 497.454 338.745 497.361 338.699 497.273Z" fill="white" stroke="black" stroke-width="0.759358" stroke-miterlimit="10"></path><path d="M124.025 365.235L61.3517 488.738C60.8899 489.655 60.6703 490.676 60.7136 491.702C60.7569 492.728 61.0617 493.726 61.5991 494.601C62.1364 495.477 62.8885 496.2 63.784 496.703C64.6795 497.206 65.6887 497.472 66.7158 497.475H150.624C152.873 497.48 155.033 496.595 156.632 495.014C158.231 493.432 159.139 491.282 159.159 489.033V368.24L124.025 365.235Z" fill="#2E353A" stroke="#2E353A" stroke-width="0.759358" stroke-linecap="round" stroke-linejoin="round"></path><path d="M75.4532 497.273L141.813 366.765L159.067 368.239V489.033C159.067 491.291 158.169 493.458 156.572 495.055C154.975 496.652 152.809 497.549 150.55 497.549H75.3427L75.4532 497.273Z" fill="white" stroke="black" stroke-width="0.759358" stroke-miterlimit="10"></path><g style="mix-blend-mode:multiply"><path d="M141.832 366.765L91.14 466.452C108.928 453.77 132.117 441.014 159.085 434.95V368.239L141.832 366.765Z" fill="#2D95D7"></path></g><path d="M178.016 447.06L155.675 485.733H200.339L178.016 447.06Z" fill="#2D95D7" stroke="#2E353A" stroke-width="0.759358" stroke-linecap="round" stroke-linejoin="round"></path><path d="M236.487 447.06L214.164 485.733H258.828L236.487 447.06Z" fill="#2D95D7" stroke="#2E353A" stroke-width="0.759358" stroke-linecap="round" stroke-linejoin="round"></path><path d="M200.929 485.328H154.754V493.66H200.929V485.328Z" fill="#2E353A" stroke="#2E353A" stroke-width="0.759358" stroke-linecap="round" stroke-linejoin="round"></path><path d="M259.362 485.328H213.187V493.66H259.362V485.328Z" fill="#2E353A" stroke="#2E353A" stroke-width="0.759358" stroke-linecap="round" stroke-linejoin="round"></path><path d="M215.086 55.5C214.075 54.3391 212.828 53.4083 211.427 52.7706C210.026 52.1328 208.505 51.8027 206.966 51.8027C205.427 51.8027 203.906 52.1328 202.505 52.7706C201.104 53.4083 199.856 54.3391 198.846 55.5C177.592 79.961 121.776 150.413 121.776 216.92V411.336L152.523 467.466H261.851L292.598 411.336V216.92C292.598 150.395 236.468 79.9241 215.086 55.5Z" fill="white" stroke="black" stroke-width="0.759358" stroke-miterlimit="10"></path><path d="M206.496 59.5371C206.496 56.0717 196.689 76.7354 189.777 85.7677C189.887 84.9935 190.016 84.2378 190.127 83.4636C190.127 83.4636 149.039 135.851 136.67 185.16C135.374 190.233 134.346 195.371 133.592 200.552C132.67 206.745 131.527 345.29 130.919 428.129L152.523 467.466H205.887C204.818 463.429 207.731 444.83 206.496 439.964V59.5371Z" fill="#2D95D7"></path><path d="M141.445 407.963C142.961 407.963 144.191 406.734 144.191 405.217C144.191 403.7 142.961 402.47 141.445 402.47C139.928 402.47 138.698 403.7 138.698 405.217C138.698 406.734 139.928 407.963 141.445 407.963Z" stroke="#2E353A" stroke-width="0.759358" stroke-linecap="round" stroke-linejoin="round"></path><path d="M156.412 407.963C157.929 407.963 159.159 406.734 159.159 405.217C159.159 403.7 157.929 402.47 156.412 402.47C154.896 402.47 153.666 403.7 153.666 405.217C153.666 406.734 154.896 407.963 156.412 407.963Z" stroke="#2E353A" stroke-width="0.759358" stroke-linecap="round" stroke-linejoin="round"></path><path d="M171.38 407.963C172.897 407.963 174.127 406.734 174.127 405.217C174.127 403.7 172.897 402.47 171.38 402.47C169.863 402.47 168.634 403.7 168.634 405.217C168.634 406.734 169.863 407.963 171.38 407.963Z" stroke="#2E353A" stroke-width="0.759358" stroke-linecap="round" stroke-linejoin="round"></path><path d="M186.348 407.963C187.865 407.963 189.095 406.734 189.095 405.217C189.095 403.7 187.865 402.47 186.348 402.47C184.831 402.47 183.602 403.7 183.602 405.217C183.602 406.734 184.831 407.963 186.348 407.963Z" stroke="#2E353A" stroke-width="0.759358" stroke-linecap="round" stroke-linejoin="round"></path><path d="M227.565 407.963C229.082 407.963 230.312 406.734 230.312 405.217C230.312 403.7 229.082 402.47 227.565 402.47C226.048 402.47 224.818 403.7 224.818 405.217C224.818 406.734 226.048 407.963 227.565 407.963Z" stroke="#2E353A" stroke-width="0.759358" stroke-linecap="round" stroke-linejoin="round"></path><path d="M242.533 407.963C244.05 407.963 245.279 406.734 245.279 405.217C245.279 403.7 244.05 402.47 242.533 402.47C241.016 402.47 239.786 403.7 239.786 405.217C239.786 406.734 241.016 407.963 242.533 407.963Z" stroke="#2E353A" stroke-width="0.759358" stroke-linecap="round" stroke-linejoin="round"></path><path d="M257.501 407.963C259.018 407.963 260.247 406.734 260.247 405.217C260.247 403.7 259.018 402.47 257.501 402.47C255.984 402.47 254.754 403.7 254.754 405.217C254.754 406.734 255.984 407.963 257.501 407.963Z" stroke="#2E353A" stroke-width="0.759358" stroke-linecap="round" stroke-linejoin="round"></path><path d="M272.469 407.963C273.985 407.963 275.215 406.734 275.215 405.217C275.215 403.7 273.985 402.47 272.469 402.47C270.952 402.47 269.722 403.7 269.722 405.217C269.722 406.734 270.952 407.963 272.469 407.963Z" stroke="#2E353A" stroke-width="0.759358" stroke-linecap="round" stroke-linejoin="round"></path><path d="M131.786 227.041V409.346" stroke="#2E353A" stroke-width="0.759358" stroke-linecap="round" stroke-linejoin="round"></path><path d="M148.339 153.16C140.284 171.04 134.127 190.266 132.32 209.4" stroke="#2E353A" stroke-width="0.759358" stroke-linecap="round" stroke-linejoin="round"></path><path d="M215.491 68.0902C214.633 66.9455 213.519 66.0164 212.24 65.3765C210.96 64.7366 209.549 64.4035 208.118 64.4035C206.687 64.4035 205.276 64.7366 203.996 65.3765C202.716 66.0164 201.603 66.9455 200.744 68.0902C183.977 89.1417 169.297 111.774 156.91 135.667" stroke="#2E353A" stroke-width="0.759358" stroke-linecap="round" stroke-linejoin="round"></path><path fill-rule="evenodd" clip-rule="evenodd" d="M258.256 219.096C258.111 215.703 256.668 212.496 254.227 210.135C251.785 207.775 248.531 206.442 245.135 206.411C241.739 206.381 238.461 207.654 235.977 209.97C233.493 212.286 231.993 215.467 231.786 218.856C231.786 219.059 231.786 219.243 231.786 219.428C231.77 221.82 232.407 224.172 233.629 226.229L231.233 233.271L238.606 230.948C240.574 232.022 242.779 232.586 245.021 232.589C246.754 232.594 248.472 232.257 250.075 231.598C251.678 230.94 253.136 229.971 254.365 228.749C255.594 227.527 256.57 226.075 257.238 224.475C257.905 222.876 258.252 221.161 258.256 219.428V219.096ZM245.021 230.488C242.838 230.492 240.702 229.851 238.883 228.644L234.606 230.008L235.989 225.898C234.616 224.012 233.874 221.741 233.869 219.409C233.851 219.053 233.851 218.696 233.869 218.34C233.898 215.407 235.092 212.605 237.187 210.552C239.282 208.498 242.106 207.361 245.04 207.391C247.973 207.42 250.774 208.613 252.828 210.708C254.881 212.803 256.018 215.628 255.989 218.561C255.989 218.838 255.989 219.133 255.989 219.409C255.994 222.33 254.844 225.134 252.789 227.209C250.734 229.285 247.942 230.463 245.021 230.488Z" fill="white"></path><path fill-rule="evenodd" clip-rule="evenodd" d="M251.086 222.082C250.754 221.934 249.243 221.142 248.874 221.05C248.506 220.957 248.358 220.884 248.137 221.197C247.916 221.51 247.289 222.248 247.105 222.469C247.011 222.561 246.886 222.613 246.754 222.613C246.623 222.613 246.497 222.561 246.404 222.469C245.443 222.094 244.557 221.551 243.787 220.865C243.061 220.221 242.439 219.469 241.943 218.635C241.759 218.321 241.943 218.156 242.091 217.99C242.238 217.824 242.404 217.603 242.57 217.418L242.699 217.271L242.902 216.884C242.952 216.797 242.978 216.698 242.978 216.598C242.978 216.498 242.952 216.399 242.902 216.312C242.902 216.165 242.183 214.469 241.906 213.916C241.63 213.363 241.372 213.381 241.169 213.381H240.561C240.396 213.383 240.233 213.421 240.084 213.491C239.935 213.561 239.802 213.662 239.694 213.787C239.323 214.128 239.029 214.545 238.832 215.009C238.635 215.473 238.539 215.974 238.552 216.478C238.56 216.846 238.616 217.212 238.717 217.566C238.966 218.374 239.359 219.129 239.879 219.796C241.226 221.908 243.143 223.595 245.409 224.662C248.708 225.953 248.708 225.529 249.298 225.474C249.752 225.39 250.183 225.211 250.561 224.947C250.939 224.683 251.257 224.341 251.492 223.944C251.704 223.463 251.775 222.932 251.695 222.414C251.512 222.269 251.306 222.157 251.086 222.082Z" fill="white"></path><path d="M209.371 273.888C203.937 273.888 198.555 272.818 193.534 270.738C188.513 268.658 183.95 265.61 180.107 261.767C176.264 257.924 173.216 253.361 171.136 248.34C169.056 243.319 167.986 237.937 167.986 232.503C167.994 221.532 172.358 211.013 180.118 203.259C187.879 195.504 198.401 191.148 209.371 191.148C220.339 191.148 230.858 195.505 238.613 203.261C246.369 211.016 250.726 221.535 250.726 232.503C250.726 243.473 246.37 253.995 238.615 261.756C230.861 269.516 220.342 273.88 209.371 273.888Z" fill="#2E353A" stroke="#2E353A" stroke-width="1.27706" stroke-linecap="round" stroke-linejoin="round"></path><path d="M209.371 276.306C200.708 276.306 192.239 273.737 185.035 268.924C177.832 264.111 172.217 257.27 168.902 249.266C165.586 241.262 164.719 232.454 166.409 223.957C168.099 215.46 172.271 207.655 178.397 201.529C184.523 195.403 192.328 191.231 200.825 189.541C209.322 187.851 218.13 188.718 226.134 192.034C234.138 195.349 240.979 200.963 245.792 208.167C250.606 215.37 253.175 223.839 253.175 232.503C253.158 244.115 248.538 255.247 240.327 263.458C232.116 271.67 220.983 276.29 209.371 276.306ZM209.371 193.566C199.044 193.566 189.141 197.668 181.839 204.97C174.537 212.272 170.435 222.176 170.435 232.503C170.435 242.829 174.537 252.733 181.839 260.035C189.141 267.337 199.044 271.439 209.371 271.439C219.698 271.439 229.601 267.337 236.903 260.035C244.205 252.733 248.307 242.829 248.307 232.503C248.307 222.176 244.205 212.272 236.903 204.97C229.601 197.668 219.698 193.566 209.371 193.566Z" fill="white" stroke="#2E353A" stroke-width="0.957794" stroke-miterlimit="10"></path><path d="M198.366 248.61L222.152 234.368C223.144 233.771 224.469 232.711 224.469 230.815V243.861C224.469 246.443 223.3 247.134 222.152 247.815L198.366 262.067V248.61Z" fill="#2D95D7"></path><path d="M188.317 237.517C188.317 239.388 189.346 240.38 190.619 241.165C191.907 241.949 195.997 244.37 195.997 244.37L207.536 237.517L196.064 230.726L190.603 233.963C189.621 234.545 188.302 235.621 188.302 237.517H188.312H188.317Z" fill="#94C9EB"></path><path d="M224.521 200.399V213.845L190.624 233.974C189.632 234.571 188.307 235.636 188.307 237.528V224.481C188.307 221.899 189.476 221.208 190.624 220.527L224.521 200.399Z" fill="#2D95D7"></path><path d="M224.531 230.804C224.531 228.934 223.502 227.941 222.23 227.157C220.941 226.372 216.852 223.951 216.852 223.951L205.312 230.804L216.784 237.595L222.245 234.358C223.227 233.776 224.547 232.695 224.547 230.804H224.536H224.531Z" fill="#94C9EB"></path><path d="M207.196 501.623C206.219 501.623 205.281 501.235 204.589 500.543C203.898 499.852 203.51 498.914 203.51 497.936L199.712 368.756C199.71 367.767 199.903 366.788 200.28 365.875C200.657 364.961 201.211 364.131 201.91 363.432C202.609 362.734 203.439 362.18 204.352 361.803C205.266 361.425 206.245 361.233 207.233 361.235C208.22 361.235 209.197 361.43 210.108 361.808C211.02 362.186 211.848 362.74 212.545 363.439C213.242 364.138 213.794 364.967 214.17 365.879C214.546 366.791 214.738 367.769 214.736 368.756L210.901 497.936C210.901 498.422 210.805 498.903 210.619 499.351C210.433 499.8 210.159 500.207 209.815 500.55C209.471 500.892 209.062 501.164 208.613 501.348C208.163 501.532 207.682 501.625 207.196 501.623Z" fill="#2E353A" stroke="#2E353A" stroke-width="0.759358" stroke-linecap="round" stroke-linejoin="round"></path><path d="M207.325 567.651V576.259" stroke="#2E353A" stroke-width="0.759358" stroke-linecap="round" stroke-linejoin="round"></path><path d="M198.846 55.5186C185.139 71.2973 172.584 88.041 161.279 105.62H252.874C241.507 88.0037 228.878 71.2345 215.086 55.4449C214.07 54.2886 212.818 53.3635 211.414 52.732C210.011 52.1006 208.488 51.7775 206.949 51.7845C205.41 51.7915 203.89 52.1284 202.492 52.7725C201.095 53.4167 199.851 54.3531 198.846 55.5186Z" fill="#2E353A" stroke="#2E353A" stroke-width="0.759358" stroke-linecap="round" stroke-linejoin="round"></path><path d="M184.542 103.114C186.059 103.114 187.288 101.884 187.288 100.367C187.288 98.8502 186.059 97.6205 184.542 97.6205C183.025 97.6205 181.795 98.8502 181.795 100.367C181.795 101.884 183.025 103.114 184.542 103.114Z" fill="white"></path><path d="M202.256 100.367C202.256 100.915 202.093 101.45 201.789 101.905C201.484 102.36 201.051 102.714 200.545 102.923C200.039 103.132 199.482 103.186 198.945 103.077C198.408 102.969 197.915 102.704 197.529 102.316C197.143 101.927 196.882 101.433 196.777 100.895C196.672 100.357 196.73 99.8009 196.942 99.296C197.154 98.7911 197.511 98.3606 197.968 98.059C198.425 97.7574 198.962 97.5983 199.51 97.602C199.872 97.602 200.23 97.6736 200.565 97.8128C200.899 97.952 201.203 98.1559 201.458 98.4129C201.713 98.6699 201.915 98.9749 202.052 99.3103C202.189 99.6456 202.259 100.005 202.256 100.367Z" fill="white"></path><path d="M214.459 103.114C215.976 103.114 217.205 101.884 217.205 100.367C217.205 98.8502 215.976 97.6205 214.459 97.6205C212.942 97.6205 211.712 98.8502 211.712 100.367C211.712 101.884 212.942 103.114 214.459 103.114Z" fill="white"></path><path d="M229.427 103.114C230.944 103.114 232.174 101.884 232.174 100.367C232.174 98.8502 230.944 97.6205 229.427 97.6205C227.91 97.6205 226.681 98.8502 226.681 100.367C226.681 101.884 227.91 103.114 229.427 103.114Z" fill="white"></path><path d="M177.795 100.699C177.795 100.699 196.228 71.0394 203.731 61.9886" stroke="white" stroke-width="0.759358" stroke-linecap="round" stroke-linejoin="round"></path><path d="M261.851 467.466L292.598 411.337H121.776L152.523 467.466H261.851Z" fill="#2E353A" stroke="#2E353A" stroke-width="0.759358" stroke-linecap="round" stroke-linejoin="round"></path><path d="M157.205 437.033C157.093 437.081 156.992 437.151 156.908 437.238C156.823 437.325 156.757 437.428 156.712 437.542C156.668 437.655 156.646 437.775 156.648 437.897C156.651 438.018 156.677 438.138 156.726 438.25L159.491 444.72C159.563 444.884 159.681 445.025 159.832 445.123C159.983 445.221 160.159 445.273 160.339 445.273C160.46 445.3 160.586 445.3 160.707 445.273C160.819 445.225 160.92 445.155 161.004 445.068C161.089 444.98 161.155 444.877 161.2 444.764C161.245 444.651 161.266 444.53 161.264 444.409C161.262 444.287 161.235 444.167 161.187 444.056L158.422 437.586C158.379 437.469 158.313 437.362 158.228 437.271C158.144 437.18 158.042 437.107 157.929 437.056C157.815 437.004 157.693 436.976 157.569 436.972C157.445 436.968 157.321 436.989 157.205 437.033Z" fill="white"></path><path d="M161.906 426.047C161.981 426.209 162.101 426.347 162.251 426.444C162.401 426.542 162.575 426.596 162.754 426.6C162.882 426.597 163.008 426.566 163.122 426.507C163.234 426.459 163.335 426.39 163.42 426.302C163.504 426.215 163.571 426.112 163.615 425.999C163.66 425.886 163.681 425.765 163.679 425.644C163.677 425.522 163.65 425.402 163.602 425.291L157.463 411.337H155.473L161.906 426.047Z" fill="white"></path><path d="M249.962 441.899C250.089 441.925 250.221 441.925 250.349 441.899C250.522 441.904 250.694 441.857 250.841 441.766C250.989 441.674 251.106 441.541 251.178 441.383L265.261 411.263H263.215L249.482 440.664C249.431 440.776 249.402 440.898 249.398 441.021C249.394 441.145 249.415 441.268 249.46 441.383C249.505 441.498 249.572 441.603 249.658 441.692C249.745 441.78 249.848 441.851 249.962 441.899Z" fill="white"></path><path d="M160.099 465.807C160.171 465.972 160.29 466.112 160.44 466.21C160.591 466.309 160.767 466.361 160.947 466.36C161.069 466.386 161.194 466.386 161.316 466.36C161.427 466.312 161.528 466.242 161.613 466.155C161.697 466.068 161.764 465.965 161.808 465.851C161.853 465.738 161.875 465.618 161.872 465.496C161.87 465.375 161.844 465.255 161.795 465.143L138.366 411.41H136.357L160.099 465.807Z" fill="white"></path><path d="M275.842 411.337L251.602 460.978C251.548 461.087 251.517 461.205 251.509 461.326C251.502 461.447 251.518 461.569 251.557 461.683C251.597 461.798 251.659 461.904 251.739 461.995C251.819 462.086 251.917 462.16 252.026 462.213C252.15 462.28 252.29 462.312 252.431 462.305C252.602 462.306 252.769 462.258 252.913 462.167C253.057 462.075 253.171 461.944 253.243 461.789L277.888 411.337H275.842Z" fill="white"></path><path d="M154.938 434.102C155.01 434.267 155.128 434.407 155.279 434.505C155.43 434.603 155.606 434.655 155.786 434.655C155.907 434.682 156.033 434.682 156.154 434.655C156.266 434.607 156.367 434.537 156.452 434.45C156.536 434.362 156.603 434.259 156.647 434.146C156.692 434.033 156.713 433.912 156.711 433.791C156.709 433.669 156.683 433.549 156.634 433.438L147.214 411.41H145.205L154.938 434.102Z" fill="white"></path><path d="M296.469 251.115V257.197" stroke="#2E353A" stroke-width="0.759358" stroke-linecap="round" stroke-linejoin="round"></path><path d="M296.469 215.317V247.059" stroke="#2E353A" stroke-width="0.759358" stroke-linecap="round" stroke-linejoin="round"></path><path d="M300.082 282.138V307.391" stroke="#2E353A" stroke-width="0.759358" stroke-linecap="round" stroke-linejoin="round"></path><path d="M299.455 223.778V277.677C299.455 277.677 300.837 277.677 301.538 273.824C302.238 269.972 300.837 262.285 302.589 259.078C304.34 255.87 306.791 253.824 307.842 250.672C308.893 247.52 305.391 245.142 306.791 239.815C308.192 234.488 314.165 237.363 313.096 230.359C312.543 226.672 308.45 225.382 305.593 223.759C304.648 223.345 303.869 222.624 303.381 221.713C302.81 220.276 304.616 216.994 303.381 215.925C302.146 214.856 300.303 216.57 299.695 217.769C298.939 219.52 299.455 221.99 299.455 223.778Z" fill="white" stroke="#2E353A" stroke-width="0.759358" stroke-miterlimit="10"></path><path d="M65.7944 530.692V599.983" stroke="#2E353A" stroke-width="0.759358" stroke-linecap="round" stroke-linejoin="round"></path><path d="M65.9049 500.572V527.448C65.9049 527.448 65.2229 527.448 64.8727 525.605C64.5224 523.761 65.2229 519.853 64.3381 518.231C63.3414 516.918 62.4653 515.518 61.7206 514.047C61.2044 512.48 62.9372 511.245 62.2367 508.628C61.5362 506.01 58.55 507.411 59.103 503.909C59.3795 502.065 61.4256 501.439 62.7897 500.628C63.2632 500.416 63.6526 500.053 63.8957 499.595C64.1722 498.876 63.2874 497.254 63.8957 496.72C64.504 496.185 65.4257 497.033 65.739 497.641C65.9751 498.6 66.0313 499.593 65.9049 500.572Z" fill="white" stroke="#2E353A" stroke-width="0.759358" stroke-miterlimit="10"></path><path d="M114.753 225.75V254.008" stroke="#2E353A" stroke-width="0.759358" stroke-linecap="round" stroke-linejoin="round"></path><path d="M114.753 260.202V270.543" stroke="#2E353A" stroke-width="0.759358" stroke-linecap="round" stroke-linejoin="round"></path><path d="M111.38 320.534V330.875" stroke="#2E353A" stroke-width="0.759358" stroke-linecap="round" stroke-linejoin="round"></path><path d="M112.099 227.925V316.405C112.099 316.405 110.698 316.405 109.997 310.082C109.297 303.76 110.698 291.096 108.947 285.935C107.195 280.773 104.744 277.308 103.693 272.128C102.642 266.948 106.145 262.912 104.744 254.303C103.343 245.695 97.3705 250.266 98.4396 238.764C98.9926 232.663 103.085 230.58 105.942 227.907C107.012 227.047 107.786 225.874 108.154 224.552C108.725 222.192 106.919 216.791 108.154 215.059C109.389 213.326 111.251 216.109 111.841 218.119C112.596 220.921 112.099 224.994 112.099 227.925Z" fill="white" stroke="#2E353A" stroke-width="0.759358" stroke-miterlimit="10"></path><path d="M207.325 509.605V561.199" stroke="#2E353A" stroke-width="0.759358" stroke-linecap="round" stroke-linejoin="round"></path><path d="M121.039 471.448V477.531" stroke="#2E353A" stroke-width="0.759358" stroke-linecap="round" stroke-linejoin="round"></path><path d="M121.039 435.65V467.393" stroke="#2E353A" stroke-width="0.759358" stroke-linecap="round" stroke-linejoin="round"></path><path d="M117.407 502.452V561.9" stroke="#2E353A" stroke-width="0.759358" stroke-linecap="round" stroke-linejoin="round"></path><path d="M118.053 444.111V498.01C118.053 498.01 116.652 498.01 115.951 494.157C115.251 490.305 116.652 482.6 114.901 479.411C113.149 476.222 110.698 474.157 109.647 471.005C108.596 467.853 112.099 465.475 110.698 460.148C109.297 454.821 103.324 457.696 104.394 450.692C104.947 447.005 109.039 445.715 111.896 444.074C112.845 443.673 113.626 442.957 114.108 442.047C114.679 440.609 112.873 437.328 114.108 436.258C115.343 435.189 117.205 436.904 117.795 438.102C118.606 439.853 118.053 442.323 118.053 444.111Z" fill="white" stroke="#2E353A" stroke-width="0.759358" stroke-miterlimit="10"></path><path d="M346.774 530.692V559.19" stroke="#2E353A" stroke-width="0.759358" stroke-linecap="round" stroke-linejoin="round"></path><path d="M346.663 500.572V527.448C346.663 527.448 347.363 527.448 347.713 525.605C348.063 523.761 347.363 519.853 348.229 518.231C349.226 516.918 350.102 515.518 350.847 514.047C351.363 512.48 349.63 511.245 350.331 508.628C351.031 506.01 354.017 507.411 353.464 503.909C353.188 502.065 351.16 501.439 349.778 500.628C349.304 500.416 348.915 500.053 348.672 499.595C348.395 498.876 349.298 497.254 348.672 496.72C348.045 496.185 347.142 497.033 346.828 497.641C346.583 498.598 346.527 499.594 346.663 500.572Z" fill="white" stroke="#2E353A" stroke-width="0.759358" stroke-miterlimit="10"></path><path d="M289.427 496.167V502.25" stroke="#2E353A" stroke-width="0.759358" stroke-linecap="round" stroke-linejoin="round"></path><path d="M289.427 460.369V492.111" stroke="#2E353A" stroke-width="0.759358" stroke-linecap="round" stroke-linejoin="round"></path><path d="M293.04 527.19V631.246" stroke="#2E353A" stroke-width="0.759358" stroke-linecap="round" stroke-linejoin="round"></path><path d="M292.413 468.757V522.674C292.413 522.674 293.814 522.674 294.515 518.821C295.215 514.969 293.814 507.264 295.565 504.075C297.316 500.886 299.768 498.821 300.819 495.669C301.869 492.517 298.367 490.139 299.768 484.83C301.169 479.522 307.141 482.379 306.054 475.374C305.501 471.687 301.427 470.379 298.57 468.757C297.624 468.344 296.84 467.631 296.34 466.729C295.768 465.273 297.575 461.992 296.34 460.941C295.104 459.89 293.243 461.586 292.653 462.784C291.879 464.572 292.413 467.061 292.413 468.757Z" fill="white" stroke="#2E353A" stroke-width="0.759358" stroke-miterlimit="10"></path></svg>