<?xml version="1.0" encoding="UTF-8"?><svg id="Laag_1" xmlns="http://www.w3.org/2000/svg" viewBox="0 0 511.03 100.74"><defs><style>.cls-1{fill:#0350d8;}.cls-2{fill:#0c214c;}</style></defs><path class="cls-1" d="m471.3,7.38l-21.62,12.71h26.27c.44-5.07-1.39-9.61-4.65-12.71Z"/><path class="cls-2" d="m389.2,73.81c3.95-.63,7.83-1.26,11.77-1.89.17.34.35.57.41.83.72,3.52,3.56,6.03,8.04,6.26,6.65.35,12-3.64,13.64-10.09.44-1.72.72-3.48,1.07-5.23-.13-.08-.26-.15-.39-.23-.47.35-.94.7-1.4,1.06-6.16,4.88-12.96,6.26-20.36,3.39-5.12-1.99-8.09-6.04-8.83-11.36-1.29-9.23,1.15-17.52,7.7-24.26,5.37-5.53,12.13-7.47,19.74-6.12,3.26.58,5.82,2.4,7.84,4.99.34.44.79.8,1.47,1.47.44-2.11.8-3.79,1.18-5.6h11.63c-.27,1.77-.49,3.47-.78,5.15-2.11,11.99-4.33,23.96-6.34,35.96-1.99,11.93-10.98,19.05-21.69,20.29-5.31.61-10.49.34-15.51-1.62-5.58-2.18-9.18-6.63-9.18-13.03Zm24.92-14.41c.61-.07,1.24-.1,1.84-.22,6.74-1.38,11.07-6.25,11.6-13.15.5-6.48-4.07-11.11-11.3-9.61-5.78,1.2-10.23,6.35-10.99,12.18-.82,6.33,2.81,10.75,8.84,10.81Z"/><path class="cls-2" d="m205.96,63.7c-1.41,7.86-2.82,15.71-4.24,23.6h-12.17c3.56-20.13,7.09-40.1,10.65-60.23h12.14c-.25,1.69-.48,3.22-.71,4.76.1.06.2.12.3.19.35-.3.73-.58,1.06-.9,5.59-5.41,12.23-6.69,19.48-4.45,5.49,1.7,8.87,5.81,9.8,11.36,1.81,10.75-1.16,20.09-9.66,27.21-4.92,4.12-10.8,5.57-17.19,4.46-3.38-.59-6.14-2.22-8.03-5.17-.25-.38-.61-.69-.92-1.03-.16.06-.33.13-.49.19Zm2.05-13.11c-.04,6.19,4.9,10.16,10.98,8.85,6.23-1.35,10.63-6.29,11.37-12.95.74-6.7-3.97-11.75-11.51-9.98-6.38,1.5-10.8,7.44-10.84,14.08Z"/><path class="cls-2" d="m148.09,51.47h-32.62c-.75,3.67,1.77,7.82,5.47,8.95,4.89,1.49,9.13.09,12.83-3.23.63-.56,1.15-1.23,1.89-2.03,3.2.93,6.49,1.88,9.9,2.87-1.43,3.05-3.52,5.33-6.12,7.08-7.04,4.73-14.84,6.13-23.02,4.16-9.57-2.3-13.96-9.66-13.35-19.1.37-5.72,2.35-10.89,6.15-15.29,5.01-5.8,11.45-8.66,19.03-9.13,3.13-.2,6.22.06,9.24.96,7.07,2.11,11.7,8.13,11.7,15.48,0,2.52-.4,5.05-.65,7.57-.05.54-.28,1.07-.45,1.72Zm-11.17-7.75c.46-4.05-1.81-7.54-5.41-8.53-3.9-1.07-7.39-.16-10.46,2.38-1.97,1.63-3.49,3.6-4.24,6.15h20.11Z"/><path class="cls-2" d="m277.76,55.14c3.29.95,6.53,1.89,9.93,2.88-1,2.31-2.47,4.06-4.22,5.57-4.86,4.2-10.6,6.13-16.95,6.41-4.66.21-9.13-.41-13.23-2.86-4.47-2.67-7.08-6.62-7.8-11.71-2.21-15.6,9.4-29.24,25.2-29.71,3.48-.1,6.92.11,10.19,1.42,6.39,2.56,9.88,7.33,10.46,14.15.29,3.39-.04,6.75-1.1,10.19-5.51,0-11,0-16.48,0s-10.84,0-16.23,0c-.53,5.07,3.28,9.33,8.32,9.5,4.89.17,8.75-1.84,11.92-5.84Zm1.38-11.38c.27-4.95-2.5-8.31-7.03-8.91-5.15-.68-10.41,2.48-12.75,7.68-.17.38-.25.81-.37,1.23h20.15Z"/><path class="cls-2" d="m390.46,45.18c-.25,7.53-3.5,15.16-11.22,20.17-8.48,5.5-17.68,6.52-27,2.27-5.91-2.69-8.59-7.88-8.78-14.21-.25-8.25,2.39-15.46,8.61-21.08,4.72-4.27,10.42-6.28,16.73-6.57,2.08-.09,4.2.02,6.27.27,9.61,1.17,15.57,8.05,15.39,19.14Zm-21.3-8.98c-2.77-.08-5.2.87-7.39,2.48-4.09,3-5.88,7.2-6.11,12.09-.18,3.81,2.1,7.07,5.49,8.32,2.93,1.08,5.82.73,8.56-.54,5.04-2.33,7.75-6.48,8.38-11.88.73-6.36-2.9-10.5-8.92-10.47Z"/><path class="cls-2" d="m504.19,68.65h-13.93c-2.18-4.73-4.38-9.47-6.74-14.59-1.8,1.53-2.89,3.3-4.2,4.84-1.36,1.59-2.64,3.25-3.96,4.87-1.32,1.62-2.64,3.24-3.99,4.89h-14.15c6.3-7.31,12.39-14.39,18.63-21.64-3.42-6.59-6.84-13.18-10.37-19.98h13.52c2.15,4.32,4.31,8.69,6.69,13.48,4.05-4.76,7.8-9.17,11.51-13.54h13.83c-6,6.83-11.75,13.37-17.63,20.07,3.57,7.14,7.13,14.28,10.78,21.59Z"/><path class="cls-2" d="m179.44,47.06c3.58,7.17,7.13,14.27,10.76,21.54h-13.93c-2.16-4.67-4.39-9.48-6.62-14.3-.18-.01-.35-.03-.53-.04-3.9,4.8-7.81,9.59-11.71,14.38h-14.15c6.33-7.35,12.46-14.46,18.64-21.63-3.46-6.65-6.87-13.19-10.39-19.97h13.53c2.14,4.31,4.3,8.64,6.64,13.35,4.19-4.45,7.68-9.06,11.58-13.38h13.79c-6.01,6.84-11.77,13.4-17.61,20.03Z"/><path class="cls-2" d="m334.12,8.27h12.2c-3.57,20.19-7.11,40.23-10.66,60.35h-12.21c3.57-20.18,7.12-40.26,10.67-60.35Z"/><path class="cls-2" d="m310.78,32.68c4.25-5.27,9.3-8.01,16.27-5.52-.58,3.67-1.13,7.14-1.69,10.73-1.54-.38-2.87-.8-4.23-1.02-4.81-.76-8.61,1.07-11.2,5.21-1.42,2.27-1.89,4.81-2.35,7.37-1.1,6.15-2.21,12.3-3.32,18.46-.04.21-.11.42-.18.71h-12.18c2.47-13.89,4.91-27.67,7.38-41.57h12.09c-.32,1.85-.61,3.59-.91,5.33.1.1.21.2.31.3Z"/><path class="cls-2" d="m442.25,68.63c2.47-13.99,4.89-27.74,7.33-41.6h12.2c-2.46,13.96-4.88,27.75-7.32,41.6h-12.21Z"/><path class="cls-1" d="m73.04,75.29c-7.97,8.75-19.37,14.34-31.59,14.34-21.68,0-37.72-17.58-35.82-39.26H.2c-2.43,27.82,18.15,50.37,45.96,50.37,15.13,0,29.27-6.67,39.43-17.22l-12.55-8.23Z"/><path class="cls-1" d="m91.39,17.22C83.08,6.67,70.1,0,54.97,0,27.15,0,2.63,22.55.2,50.37h22.23c1.36-15.54,15.06-28.14,30.6-28.14,7.11,0,13.37,2.64,17.95,7l20.41-12.01Z"/><path class="cls-1" d="m71.32,29.02l-36.3,21.35h43.68c.74-8.42-2.16-16.01-7.38-21.35Z"/></svg>