<?xml version="1.0" encoding="utf-8"?>
<!-- Generator: Adobe Illustrator 25.0.1, SVG Export Plug-In . SVG Version: 6.00 Build 0)  -->
<svg version="1.0" id="Layer_1" xmlns="http://www.w3.org/2000/svg" xmlns:xlink="http://www.w3.org/1999/xlink" x="0px" y="0px"
	 viewBox="0 0 1000 611.1" style="enable-background:new 0 0 1000 611.1;" xml:space="preserve">
<style type="text/css">
	.st0{fill:#0C3E5A;}
	.st1{fill:#F4992A;}
	.st2{fill:#ED7203;}
	.st3{fill:#FDDF63;}
	.st4{fill:#DD4914;}
</style>
<path id="Fill-11" class="st0" d="M670.3,512.1c-34.3,0-35.9-15.8-35.9-46s1.6-46,35.9-46c34.1,0,35.7,15.8,35.7,46
	C706,496.3,704.4,512.1,670.3,512.1 M670.3,401.1c-21.3,0-35,4.3-44.5,14c-10.4,10.6-12.5,26.8-12.5,51s2,40.4,12.5,51
	c9.5,9.7,23.3,14,44.5,14c21.1,0,34.7-4.3,44.2-14c10.5-10.6,12.5-26.7,12.5-51s-2-40.4-12.5-51C705,405.4,691.4,401.1,670.3,401.1"
	/>
<path id="Fill-13" class="st0" d="M839.2,529h20.8v-69c0-1.7,0-3.4,0-5.2c0.1-15.8,0.3-32.1-9.9-42.6c-7.4-7.6-19.4-11.3-36.8-11.3
	c-16.9,0-29.2,4.7-37.8,14.2l-1,1.1v-13.2h-18.7V529h20.8v-60.1c0-16,0-31,8.8-40c5.5-5.6,14-8.3,25.9-8.3c11.1,0,18.2,2,22.4,6.2
	c5.8,6,5.7,16,5.6,29.8c0,1.9,0,3.9,0,6L839.2,529z"/>
<path id="Fill-15" class="st0" d="M440.9,512.1c-31.6,0-34.9-14.1-34.9-46.3c0-32.5,3.2-45.7,34.9-45.7c13.2,0,23.4,1.1,30.8,10.6
	l15.4-10.9c-7.1-12.6-22.6-18.8-46.7-18.8c-51.3,0-55.4,29.3-55.4,64.8c0,35.7,4.2,65.3,55.4,65.3c24.1,0,39.6-6.2,46.7-18.7
	l-15.4-10.8C465.2,509.6,454.1,512.1,440.9,512.1"/>
<path id="Fill-17" class="st0" d="M339,470v0.6c0,29-3.8,42.6-38.8,42.6c-21.1,0-29-5.8-29-21.3c0-18.6,9.3-21.8,29-21.8L339,470z
	 M349.4,413.4c-8.1-8.3-21.5-12.3-40.9-12.3c-26.9,0-43.2,5.9-50.4,18.9l15.7,11c7-11.4,22.4-11.4,32.9-11.4c15.4,0,23.8,2.3,28,7.6
	c4.1,5.2,4.1,12.8,4.1,23.4v1.6h-37.5c-24.7,0-51.1,3.1-51.1,39.8c0,27,14.8,39,48,39c18.6,0,33.5-5.2,41.1-14.2l1-1.2V529h19v-78.8
	C359.3,438.3,359.3,423.4,349.4,413.4z"/>
<path id="Fill-19" class="st0" d="M204.2,513.2c-16.4,0-22.8-5.9-22.8-21.1v-70.9h44v-18h-44v-48h-20.8v48H140v18h20.6v70.9
	c0,26.3,13.9,39.1,42.5,39.1c16.5,0,26.8-4.2,32.6-12.6L220.9,508C216.7,511.7,213,513.1,204.2,513.2"/>
<path id="Fill-21" class="st0" d="M568,513.2c-16.4,0-22.8-5.9-22.8-21.1v-70.9h44v-18h-44v-48h-20.8v48h-20.7v18h20.7v70.9
	c0,26.3,13.9,39.1,42.5,39.1c16.5,0,26.8-4.2,32.6-12.6L584.6,508C580.4,511.7,576.7,513.1,568,513.2"/>
<path id="Fill-1" class="st1" d="M388.5,163.5c-0.6,1.2-1,2.6-1,4v72.4c0,1.4,0.4,2.8,1.1,4.1c0.7,1.4,1.6,2.6,2.9,3.6L502.6,326
	c1.2,0.8,2.5,1.2,3.9,1.2v-82c-1.4,0-2.8-0.4-3.9-1.2L388.5,163.5z"/>
<g id="Group-5">
	<g>
		<path id="Fill-3" class="st1" d="M506.3,327.2c1.4,0,2.8-0.4,3.9-1.2l111.1-78.6c1.5-0.9,2.1-2.8,1.2-4.4
			c-0.3-0.5-0.7-0.9-1.2-1.2l-50.2-35.4c-2.4-1.5-5.5-1.5-7.9,0l-53,37.5c-1.2,0.8-2.5,1.2-3.9,1.2V327.2z"/>
	</g>
</g>
<path id="Fill-6" class="st2" d="M388.5,163.5c-0.6,1.2-1,2.6-1,4v72.4c0,1.4,0.4,2.8,1.1,4.1c0.7,1.4,1.6,2.6,2.9,3.6L502.6,326
	c1.2,0.8,2.5,1.2,3.9,1.2v-82c-1.4,0-2.8-0.4-3.9-1.2L388.5,163.5z"/>
<g id="Group-10">
	<g>
		<path id="Fill-8" class="st1" d="M506.5,327.2c1.4,0,2.8-0.4,3.9-1.2l111.1-78.6c1.5-0.9,2.1-2.8,1.2-4.4
			c-0.3-0.5-0.7-0.9-1.2-1.2l-50.2-35.4c-2.4-1.5-5.5-1.5-7.9,0l-53,37.5c-1.2,0.8-2.5,1.2-3.9,1.2L506.5,327.2z"/>
	</g>
</g>
<path id="Fill-23" class="st1" d="M506.5,162.4c1.4,0,2.8,0.4,3.9,1.1l25.6,18.1c2.4,1.5,5.5,1.5,7.9,0l50.2-35.7
	c1.5-0.9,2.1-2.8,1.2-4.4c-0.3-0.5-0.7-0.9-1.2-1.2l-83.7-59.2c-1.2-0.8-2.5-1.2-3.9-1.1V162.4z"/>
<path id="Fill-25" class="st3" d="M445.6,203.8l57-40.3c1.2-0.8,2.5-1.2,3.9-1.1V80c-1.4,0-2.8,0.4-3.9,1.1l-111.1,78.8
	c-1.2,0.9-2.3,2.1-3,3.5L445.6,203.8z"/>
<path id="Fill-27" class="st4" d="M445.6,203.8l-57.1-40.3c-0.6,1.2-1,2.6-1,4v72.4c0,1.4,0.4,2.8,1.1,4.1L445.6,203.8z"/>
</svg>
