<svg xmlns="http://www.w3.org/2000/svg" width="654" height="521" viewBox="0 0 654 521" fill="none"><path d="M654 494.758H16.9587V520.893H654V494.758Z" fill="#2D95D7"></path><path opacity="0.5" d="M654 494.758H16.9587V520.893H654V494.758Z" fill="white"></path><path d="M175.598 214.444C172.481 215.457 169.422 216.641 166.434 217.988C168.068 216.78 169.701 215.555 171.335 214.297C178.619 208.456 185.547 202.183 192.079 195.512C184.418 202.969 176.23 209.863 167.578 216.143C168.759 214.066 169.807 211.917 170.714 209.707C172.266 205.64 172.641 201.54 168.754 199.367C163.984 196.688 158.185 200.69 159.721 207.534C160.643 211.354 162.444 214.906 164.981 217.907C159.342 221.809 153.454 225.339 147.356 228.475L146.768 228.769C148.064 226.536 149.205 224.217 150.182 221.827C151.733 217.776 152.109 213.66 148.221 211.504C143.452 208.808 137.653 212.827 139.189 219.671C140.101 223.443 141.873 226.954 144.367 229.929C137.032 233.539 129.437 236.61 121.907 239.942L120.812 240.432C122.287 238.851 123.652 237.17 124.896 235.401C127.362 231.824 128.669 227.936 125.402 224.898C121.384 221.174 114.818 223.738 114.703 230.795C114.705 234.691 115.617 238.534 117.366 242.016C110.32 245.287 103.621 249.26 97.3725 253.875L97.1765 254.038C98.0206 252.699 98.7895 251.314 99.4796 249.89C101.325 245.953 102.011 241.902 98.3035 239.435C97.5477 238.912 96.6826 238.567 95.7738 238.427C94.865 238.288 93.9363 238.356 93.0581 238.629C92.1798 238.901 91.3751 239.37 90.7047 239.999C90.0344 240.628 89.516 241.402 89.189 242.261C88.6953 241.492 88.0228 240.853 87.2288 240.399C83.4883 238.243 79.813 240.579 76.6768 243.878C75.8601 244.744 75.0434 245.659 74.341 246.59C76.7692 239.834 79.8262 233.32 83.4719 227.136C86.9314 228.662 90.6673 229.463 94.4486 229.488C101.897 229.488 105.05 223.281 101.391 219.426C98.4179 216.306 94.2363 217.498 90.2834 219.785C88.9764 220.544 87.7114 221.373 86.4938 222.268C90.285 216.564 94.5879 211.217 99.3489 206.293C102.414 208.824 105.983 210.673 109.819 211.716C117.055 213.496 121.613 208.253 118.983 203.63C116.859 199.874 112.449 200.021 108.121 201.278C106.059 201.907 104.036 202.655 102.06 203.516C104.037 201.605 106.079 199.759 108.137 197.93C110.865 195.61 113.674 193.372 116.516 191.184C119.591 193.635 123.147 195.41 126.954 196.394C134.19 198.175 138.731 192.931 136.118 188.309C133.994 184.552 129.584 184.699 125.255 185.957C124.226 186.251 123.214 186.61 122.201 186.986C125.974 184.29 129.813 181.661 133.635 179.047L137.196 176.613C140.388 179.291 144.138 181.222 148.172 182.265C155.409 184.045 159.95 178.802 157.336 174.179C155.213 170.423 150.802 170.57 146.474 171.827C144.76 172.341 143.075 172.946 141.426 173.64C142.161 173.118 142.896 172.595 143.615 172.007C144.971 171.043 146.294 170.047 147.617 169.034C149.251 167.809 150.786 166.437 152.387 165.147C153.285 164.428 154.167 163.66 155.033 162.876C158.24 165.58 162.014 167.528 166.075 168.577C173.311 170.357 177.852 165.114 175.239 160.491C173.115 156.734 168.705 156.881 164.376 158.139C161.949 158.889 159.57 159.789 157.254 160.834C160.211 158.09 163.069 155.232 165.765 152.259L166.304 151.638C167.463 150.348 168.623 149.024 169.734 147.685C170.845 146.346 172.266 144.533 173.474 142.915C178.454 136.41 182.541 129.269 185.627 121.681C182.388 129.174 178.169 136.204 173.082 142.589C168.048 149 162.432 154.933 156.307 160.312L155.637 160.883C157.047 158.471 158.291 155.966 159.362 153.386C160.995 149.335 161.289 145.219 157.401 143.062C152.632 140.367 146.833 144.386 148.368 151.23C149.349 155.284 151.319 159.033 154.102 162.141L152.664 163.382L151.031 164.787C150.067 165.555 149.104 166.29 148.123 167.025L146.49 168.217C145.102 169.246 143.681 170.243 142.259 171.223L140.234 172.611L137.914 174.245C139.26 171.925 140.449 169.519 141.475 167.041C143.027 162.974 143.403 158.874 139.515 156.702C134.746 154.023 128.947 158.041 130.482 164.869C131.434 168.798 133.31 172.444 135.954 175.503L134.239 176.613L127.869 180.779L126.627 181.595L123.083 183.964L121.547 184.993C119.914 186.12 118.281 187.263 116.647 188.439C118.021 186.086 119.232 183.641 120.273 181.122C121.825 177.071 122.201 172.954 118.313 170.798C113.544 168.103 107.745 172.121 109.28 178.965C110.25 182.946 112.166 186.633 114.867 189.714C112.09 191.755 109.362 193.846 106.699 196.035C104.756 197.668 102.828 199.302 100.966 201.066C101.785 199.555 102.511 197.995 103.139 196.394C104.772 192.327 105.066 188.227 101.178 186.071C96.4088 183.376 90.6101 187.394 92.1455 194.238C93.0652 198.008 94.8366 201.517 97.3235 204.496C92.0334 209.758 87.2634 215.518 83.0799 221.696C83.5575 219.913 83.923 218.102 84.1743 216.273C84.697 211.961 84.0763 207.91 79.7804 206.734C74.488 205.28 69.8327 210.573 72.9852 216.878C74.8032 220.346 77.3969 223.347 80.5644 225.649C76.4664 232.379 73.031 239.491 70.3064 246.884C70.2503 245.341 70.0976 243.802 69.849 242.278C69.1303 237.982 67.3825 234.274 62.9232 234.355C57.4512 234.47 54.4947 240.889 59.297 246.018C61.8754 248.695 65.0166 250.765 68.4933 252.078C66.6399 257.794 65.1236 263.614 63.9523 269.507C63.7726 270.438 63.6256 271.369 63.446 272.3C63.2499 272.48 63.0539 272.66 62.8742 272.856C62.6782 272.055 62.4496 271.222 62.1882 270.455C60.8161 266.338 58.513 262.924 54.1353 263.708C48.7287 264.639 46.7849 271.418 52.3386 275.78C55.1698 277.93 58.4277 279.45 61.8942 280.239L62.0902 280.713C61.5022 285.139 61.0448 289.599 60.7671 294.074C60.5548 297.341 60.4404 300.755 60.3751 304.103C55.7034 304.103 52.4039 309.232 55.6218 314.786C56.9827 317.087 58.7223 319.141 60.7671 320.863C61.1591 327.151 61.7798 333.44 62.6129 339.68C61.9515 339.07 61.1431 338.643 60.2669 338.44C59.3908 338.236 58.4768 338.264 57.6146 338.52C54.6744 339.32 53.3513 341.689 52.8613 344.597C51.8305 345.689 51.2476 347.129 51.2278 348.631C49.039 345.364 46.9809 342.097 44.9718 338.634C48.0331 336.289 50.5702 333.329 52.4202 329.945C55.9485 323.411 51.9792 317.677 46.8502 319.066C42.6849 320.193 41.7539 324.456 41.9499 329.013C42.0129 330.742 42.1765 332.466 42.4399 334.175C41.7049 332.917 40.9862 331.643 40.2838 330.386C38.487 327.119 37.0169 323.852 35.2528 320.585C34.8281 319.784 34.4524 318.951 34.0931 318.135C37.5396 316.409 40.584 313.977 43.028 310.997C47.7159 305.214 44.8901 298.86 39.5977 299.268C35.3018 299.612 33.5867 303.613 32.868 308.122C32.5671 310.085 32.3925 312.066 32.3453 314.051L30.8098 310.507C27.5445 302.464 24.8535 294.2 22.757 285.776C26.649 284.39 30.1857 282.158 33.113 279.242C38.3563 273.934 36.1839 267.351 30.8752 267.22C26.5629 267.122 24.4558 270.928 23.2797 275.388C22.7021 277.755 22.2658 280.155 21.9729 282.575C20.8458 277.674 19.8658 272.856 19.0491 267.955C18.4937 264.917 18.1343 261.83 17.7423 258.759C21.9339 257.929 25.8825 256.159 29.2907 253.581C35.1711 249.007 33.8644 242.147 28.621 241.379C24.3577 240.71 21.7769 244.221 20.0455 248.452C19.0254 251.12 18.169 253.847 17.481 256.619C17.1543 253.058 16.7786 249.481 16.6152 245.904C16.1497 238.516 16.1824 231.105 16.7133 223.722C15.9592 231.101 15.7027 238.523 15.9455 245.937C15.9455 249.35 16.2396 252.748 16.4519 256.162C15.5149 253.843 14.4235 251.589 13.185 249.416C10.9472 245.675 7.99069 242.882 3.85809 244.516C-1.20558 246.606 -1.64661 253.63 4.70747 256.701C8.45038 258.415 12.5536 259.194 16.6643 258.971C16.9583 262.01 17.2033 265.064 17.677 268.086C18.314 272.905 19.1307 277.691 20.0781 282.444C19.0445 280.619 17.8876 278.868 16.6152 277.201C13.9201 273.787 10.6042 271.369 6.81461 273.574C2.0613 276.302 2.535 283.375 9.2321 285.548C13.0306 286.73 17.0546 286.998 20.9765 286.332C22.8348 294.85 25.2854 303.228 28.3107 311.405L29.2907 313.855C28.4261 312.711 27.4934 311.62 26.4976 310.588C23.4757 307.452 19.9638 305.378 16.3049 307.975C11.8456 311.16 13.038 318.102 19.9148 319.638C23.7276 320.413 27.6678 320.301 31.4305 319.311C31.7572 320.144 32.1166 320.944 32.525 321.794C34.1584 325.159 35.6121 328.605 37.3273 331.905L38.8137 334.73C37.9686 333.988 37.0854 333.29 36.1675 332.64C32.6066 330.141 28.7517 328.768 25.6645 331.986C21.8913 335.956 24.3414 342.555 31.3979 342.767C35.0081 342.862 38.5962 342.177 41.9172 340.758C43.9264 344.417 46.0172 348.027 48.2713 351.571C49.1044 352.927 49.9047 354.266 50.8521 355.606C49.5702 354.403 48.2116 353.284 46.7849 352.257C43.2403 349.758 39.3691 348.386 36.2982 351.604C32.5086 355.573 34.9751 362.172 42.0316 362.385C46.0645 362.431 50.0507 361.519 53.6616 359.722C54.8159 361.356 56.0247 362.989 57.2879 364.622C54.658 367.677 55.5074 372.79 60.8488 375.126C63.4444 376.202 66.2086 376.816 69.016 376.939L70.0287 377.706L70.2084 377.837C73.5803 390.454 77.5818 402.895 82.1978 415.112C84.1689 420.328 86.2488 425.495 88.4376 430.614H68.8363V507.924H128.718V430.597H96.7191C93.9913 424.635 91.3778 418.608 88.9276 412.515C84.9257 402.502 81.2994 392.358 78.1306 382.051C78.6662 382.212 79.2119 382.338 79.764 382.427C80.4899 382.571 81.2334 382.604 81.9692 382.525L81.1198 377.151H81.0054H80.5481C80.254 377.151 79.862 377.004 79.519 376.955C78.7685 376.742 78.0365 376.469 77.3302 376.138L76.4808 375.746C79.6287 374.649 82.551 372.988 85.1054 370.846C90.7897 365.946 89.1726 359.248 83.8966 358.677C79.6007 358.203 77.1832 361.829 75.7294 366.125C75.2884 367.35 74.929 368.624 74.6023 369.866C74.3083 368.722 73.9816 367.579 73.704 366.436C72.8382 363.054 72.0705 359.64 71.2865 356.227C74.6996 355.14 77.8678 353.398 80.6134 351.098C86.2978 346.197 84.6807 339.517 79.4047 338.945C75.1087 338.471 72.6912 342.097 71.2375 346.393C70.7922 347.642 70.4106 348.912 70.0941 350.199C69.604 347.7 69.114 345.217 68.6893 342.718C68.3626 340.856 68.0849 339.01 67.8072 337.148C67.6929 334.502 67.6602 331.856 67.6929 329.193C67.6929 327.739 67.6929 326.286 67.8236 324.815C71.0233 325.841 74.3835 326.273 77.7386 326.09C85.1707 325.6 87.9312 319.229 84.0436 315.619C80.8747 312.663 76.7748 314.133 72.9689 316.648C71.2594 317.804 69.6229 319.064 68.0686 320.422C68.5206 314.205 69.46 308.033 70.8781 301.964C71.7247 298.39 72.7718 294.867 74.0143 291.412C77.4284 292.594 81.0405 293.099 84.648 292.898C92.0801 292.424 94.8407 286.054 90.9531 282.428C87.7842 279.488 83.6843 280.941 79.8784 283.473C78.5268 284.385 77.2237 285.366 75.9744 286.413C77.4035 283.031 79.0739 279.756 80.9728 276.613C84.7733 270.295 89.5222 264.598 95.053 259.723C97.8944 262.355 101.255 264.364 104.919 265.62C111.992 267.939 116.925 263.039 114.72 258.236C112.89 254.333 108.529 254.153 104.07 255.084C102.373 255.45 100.699 255.914 99.0549 256.472L99.1529 256.374C105.248 251.618 111.816 247.502 118.754 244.091C121.194 247.303 124.304 249.945 127.869 251.833C134.484 255.247 140.136 251.196 138.666 246.1C137.473 241.951 133.21 241.085 128.637 241.2C126.853 241.303 125.075 241.499 123.312 241.788C130.662 238.308 138.192 235.025 145.428 231.187L145.575 231.105C148.826 233.903 152.677 235.915 156.83 236.985C164.066 238.782 168.623 233.522 166.01 228.9C163.87 225.143 159.476 225.306 155.131 226.548C153.906 226.907 152.681 227.348 151.505 227.805C156.341 224.988 161.03 221.924 165.552 218.625L165.944 219.034C165.935 218.974 165.935 218.914 165.944 218.854C169.218 221.681 173.096 223.721 177.28 224.816C184.516 226.597 189.057 221.353 186.444 216.731C184.337 213.023 179.992 213.186 175.598 214.444ZM61.3878 362.45C59.9177 360.702 58.513 358.905 57.1245 357.076C57.4676 356.782 57.8269 356.455 58.1863 356.096C60.2218 356.732 62.329 357.111 64.4587 357.223C64.4587 357.337 64.4587 357.452 64.4587 357.566L65.4551 357.354C65.9614 359.935 66.5168 362.499 67.0885 365.064C66.4209 364.199 65.5533 363.509 64.5603 363.054C63.5673 362.599 62.4786 362.392 61.3878 362.45ZM66.7292 300.951C66.2228 302.862 65.7818 304.806 65.3897 306.75C65.316 306.626 65.2283 306.511 65.1284 306.407C65.1284 302.421 65.1937 298.446 65.3244 294.483C65.4387 291.706 65.6348 288.945 65.8798 286.168C67.2167 287.545 68.6949 288.777 70.2901 289.843C68.8852 293.473 67.6961 297.182 66.7292 300.951ZM73.4263 282.656C73.4263 281.938 73.5896 281.203 73.6386 280.484C73.6386 280.108 73.6386 279.749 73.6386 279.389C74.2267 279.21 74.8147 278.997 75.4191 278.752C74.733 280.043 74.0633 281.333 73.4263 282.656ZM81.9365 268.837C81.6467 268.195 81.2315 267.617 80.7154 267.138C80.1993 266.658 79.5926 266.286 78.931 266.044C74.9127 264.411 71.6295 267.351 69.0323 271.108L68.918 271.288H68.6566C68.3827 271.226 68.104 271.187 67.8236 271.173C67.8236 270.945 67.8236 270.716 67.9379 270.487C68.9744 264.594 70.3653 258.768 72.1032 253.042C75.853 253.515 79.6598 253.22 83.2922 252.176C85.5138 251.605 87.4595 250.262 88.7806 248.387C89.5066 251.675 90.8719 254.789 92.7989 257.55C88.7921 260.939 85.1515 264.739 81.9365 268.886V268.837Z" fill="#2D95D7"></path><path opacity="0.5" d="M175.598 214.444C172.481 215.457 169.422 216.641 166.434 217.988C168.068 216.78 169.701 215.555 171.335 214.297C178.619 208.456 185.547 202.183 192.079 195.512C184.418 202.969 176.23 209.863 167.578 216.143C168.759 214.066 169.807 211.917 170.714 209.707C172.266 205.64 172.641 201.54 168.754 199.367C163.984 196.688 158.185 200.69 159.721 207.534C160.643 211.354 162.444 214.906 164.981 217.907C159.342 221.809 153.454 225.339 147.356 228.475L146.768 228.769C148.064 226.536 149.205 224.217 150.182 221.827C151.733 217.776 152.109 213.66 148.221 211.504C143.452 208.808 137.653 212.827 139.189 219.671C140.101 223.443 141.873 226.954 144.367 229.929C137.032 233.539 129.437 236.61 121.907 239.942L120.812 240.432C122.287 238.851 123.652 237.17 124.896 235.401C127.362 231.824 128.669 227.936 125.402 224.898C121.384 221.174 114.818 223.738 114.703 230.795C114.705 234.691 115.617 238.534 117.366 242.016C110.32 245.287 103.621 249.26 97.3725 253.875L97.1765 254.038C98.0206 252.699 98.7895 251.314 99.4796 249.89C101.325 245.953 102.011 241.902 98.3035 239.435C97.5477 238.912 96.6826 238.567 95.7738 238.427C94.865 238.288 93.9363 238.356 93.0581 238.629C92.1798 238.901 91.3751 239.37 90.7047 239.999C90.0344 240.628 89.516 241.402 89.189 242.261C88.6953 241.492 88.0228 240.853 87.2288 240.399C83.4883 238.243 79.813 240.579 76.6768 243.878C75.8601 244.744 75.0434 245.659 74.341 246.59C76.7692 239.834 79.8262 233.32 83.4719 227.136C86.9314 228.662 90.6673 229.463 94.4486 229.488C101.897 229.488 105.05 223.281 101.391 219.426C98.4179 216.306 94.2363 217.498 90.2834 219.785C88.9764 220.544 87.7114 221.373 86.4938 222.268C90.285 216.564 94.5879 211.217 99.3489 206.293C102.414 208.824 105.983 210.673 109.819 211.716C117.055 213.496 121.613 208.253 118.983 203.63C116.859 199.874 112.449 200.021 108.121 201.278C106.059 201.907 104.036 202.655 102.06 203.516C104.037 201.605 106.079 199.759 108.137 197.93C110.865 195.61 113.674 193.372 116.516 191.184C119.591 193.635 123.147 195.41 126.954 196.394C134.19 198.175 138.731 192.931 136.118 188.309C133.994 184.552 129.584 184.699 125.255 185.957C124.226 186.251 123.214 186.61 122.201 186.986C125.974 184.29 129.813 181.661 133.635 179.047L137.196 176.613C140.388 179.291 144.138 181.222 148.172 182.265C155.409 184.045 159.95 178.802 157.336 174.179C155.213 170.423 150.802 170.57 146.474 171.827C144.76 172.341 143.075 172.946 141.426 173.64C142.161 173.118 142.896 172.595 143.615 172.007C144.971 171.043 146.294 170.047 147.617 169.034C149.251 167.809 150.786 166.437 152.387 165.147C153.285 164.428 154.167 163.66 155.033 162.876C158.24 165.58 162.014 167.528 166.075 168.577C173.311 170.357 177.852 165.114 175.239 160.491C173.115 156.734 168.705 156.881 164.376 158.139C161.949 158.889 159.57 159.789 157.254 160.834C160.211 158.09 163.069 155.232 165.765 152.259L166.304 151.638C167.463 150.348 168.623 149.024 169.734 147.685C170.845 146.346 172.266 144.533 173.474 142.915C178.454 136.41 182.541 129.269 185.627 121.681C182.388 129.174 178.169 136.204 173.082 142.589C168.048 149 162.432 154.933 156.307 160.312L155.637 160.883C157.047 158.471 158.291 155.966 159.362 153.386C160.995 149.335 161.289 145.219 157.401 143.062C152.632 140.367 146.833 144.386 148.368 151.23C149.349 155.284 151.319 159.033 154.102 162.141L152.664 163.382L151.031 164.787C150.067 165.555 149.104 166.29 148.123 167.025L146.49 168.217C145.102 169.246 143.681 170.243 142.259 171.223L140.234 172.611L137.914 174.245C139.26 171.925 140.449 169.519 141.475 167.041C143.027 162.974 143.403 158.874 139.515 156.702C134.746 154.023 128.947 158.041 130.482 164.869C131.434 168.798 133.31 172.444 135.954 175.503L134.239 176.613L127.869 180.779L126.627 181.595L123.083 183.964L121.547 184.993C119.914 186.12 118.281 187.263 116.647 188.439C118.021 186.086 119.232 183.641 120.273 181.122C121.825 177.071 122.201 172.954 118.313 170.798C113.544 168.103 107.745 172.121 109.28 178.965C110.25 182.946 112.166 186.633 114.867 189.714C112.09 191.755 109.362 193.846 106.699 196.035C104.756 197.668 102.828 199.302 100.966 201.066C101.785 199.555 102.511 197.995 103.139 196.394C104.772 192.327 105.066 188.227 101.178 186.071C96.4088 183.376 90.6101 187.394 92.1455 194.238C93.0652 198.008 94.8366 201.517 97.3235 204.496C92.0334 209.758 87.2634 215.518 83.0799 221.696C83.5575 219.913 83.923 218.102 84.1743 216.273C84.697 211.961 84.0763 207.91 79.7804 206.734C74.488 205.28 69.8327 210.573 72.9852 216.878C74.8032 220.346 77.3969 223.347 80.5644 225.649C76.4664 232.379 73.031 239.491 70.3064 246.884C70.2503 245.341 70.0976 243.802 69.849 242.278C69.1303 237.982 67.3825 234.274 62.9232 234.355C57.4512 234.47 54.4947 240.889 59.297 246.018C61.8754 248.695 65.0166 250.765 68.4933 252.078C66.6399 257.794 65.1236 263.614 63.9523 269.507C63.7726 270.438 63.6256 271.369 63.446 272.3C63.2499 272.48 63.0539 272.66 62.8742 272.856C62.6782 272.055 62.4496 271.222 62.1882 270.455C60.8161 266.338 58.513 262.924 54.1353 263.708C48.7287 264.639 46.7849 271.418 52.3386 275.78C55.1698 277.93 58.4277 279.45 61.8942 280.239L62.0902 280.713C61.5022 285.139 61.0448 289.599 60.7671 294.074C60.5548 297.341 60.4404 300.755 60.3751 304.103C55.7034 304.103 52.4039 309.232 55.6218 314.786C56.9827 317.087 58.7223 319.141 60.7671 320.863C61.1591 327.151 61.7798 333.44 62.6129 339.68C61.9515 339.07 61.1431 338.643 60.2669 338.44C59.3908 338.236 58.4768 338.264 57.6146 338.52C54.6744 339.32 53.3513 341.689 52.8613 344.597C51.8305 345.689 51.2476 347.129 51.2278 348.631C49.039 345.364 46.9809 342.097 44.9718 338.634C48.0331 336.289 50.5702 333.329 52.4202 329.945C55.9485 323.411 51.9792 317.677 46.8502 319.066C42.6849 320.193 41.7539 324.456 41.9499 329.013C42.0129 330.742 42.1765 332.466 42.4399 334.175C41.7049 332.917 40.9862 331.643 40.2838 330.386C38.487 327.119 37.0169 323.852 35.2528 320.585C34.8281 319.784 34.4524 318.951 34.0931 318.135C37.5396 316.409 40.584 313.977 43.028 310.997C47.7159 305.214 44.8901 298.86 39.5977 299.268C35.3018 299.612 33.5867 303.613 32.868 308.122C32.5671 310.085 32.3925 312.066 32.3453 314.051L30.8098 310.507C27.5445 302.464 24.8535 294.2 22.757 285.776C26.649 284.39 30.1857 282.158 33.113 279.242C38.3563 273.934 36.1839 267.351 30.8752 267.22C26.5629 267.122 24.4558 270.928 23.2797 275.388C22.7021 277.755 22.2658 280.155 21.9729 282.575C20.8458 277.674 19.8658 272.856 19.0491 267.955C18.4937 264.917 18.1343 261.83 17.7423 258.759C21.9339 257.929 25.8825 256.159 29.2907 253.581C35.1711 249.007 33.8644 242.147 28.621 241.379C24.3577 240.71 21.7769 244.221 20.0455 248.452C19.0254 251.12 18.169 253.847 17.481 256.619C17.1543 253.058 16.7786 249.481 16.6152 245.904C16.1497 238.516 16.1824 231.105 16.7133 223.722C15.9592 231.101 15.7027 238.523 15.9455 245.937C15.9455 249.35 16.2396 252.748 16.4519 256.162C15.5149 253.843 14.4235 251.589 13.185 249.416C10.9472 245.675 7.99069 242.882 3.85809 244.516C-1.20558 246.606 -1.64661 253.63 4.70747 256.701C8.45038 258.415 12.5536 259.194 16.6643 258.971C16.9583 262.01 17.2033 265.064 17.677 268.086C18.314 272.905 19.1307 277.691 20.0781 282.444C19.0445 280.619 17.8876 278.868 16.6152 277.201C13.9201 273.787 10.6042 271.369 6.81461 273.574C2.0613 276.302 2.535 283.375 9.2321 285.548C13.0306 286.73 17.0546 286.998 20.9765 286.332C22.8348 294.85 25.2854 303.228 28.3107 311.405L29.2907 313.855C28.4261 312.711 27.4934 311.62 26.4976 310.588C23.4757 307.452 19.9638 305.378 16.3049 307.975C11.8456 311.16 13.038 318.102 19.9148 319.638C23.7276 320.413 27.6678 320.301 31.4305 319.311C31.7572 320.144 32.1166 320.944 32.525 321.794C34.1584 325.159 35.6121 328.605 37.3273 331.905L38.8137 334.73C37.9686 333.988 37.0854 333.29 36.1675 332.64C32.6066 330.141 28.7517 328.768 25.6645 331.986C21.8913 335.956 24.3414 342.555 31.3979 342.767C35.0081 342.862 38.5962 342.177 41.9172 340.758C43.9264 344.417 46.0172 348.027 48.2713 351.571C49.1044 352.927 49.9047 354.266 50.8521 355.606C49.5702 354.403 48.2116 353.284 46.7849 352.257C43.2403 349.758 39.3691 348.386 36.2982 351.604C32.5086 355.573 34.9751 362.172 42.0316 362.385C46.0645 362.431 50.0507 361.519 53.6616 359.722C54.8159 361.356 56.0247 362.989 57.2879 364.622C54.658 367.677 55.5074 372.79 60.8488 375.126C63.4444 376.202 66.2086 376.816 69.016 376.939L70.0287 377.706L70.2084 377.837C73.5803 390.454 77.5818 402.895 82.1978 415.112C84.1689 420.328 86.2488 425.495 88.4376 430.614H68.8363V507.924H128.718V430.597H96.7191C93.9913 424.635 91.3778 418.608 88.9276 412.515C84.9257 402.502 81.2994 392.358 78.1306 382.051C78.6662 382.212 79.2119 382.338 79.764 382.427C80.4899 382.571 81.2334 382.604 81.9692 382.525L81.1198 377.151H81.0054H80.5481C80.254 377.151 79.862 377.004 79.519 376.955C78.7685 376.742 78.0365 376.469 77.3302 376.138L76.4808 375.746C79.6287 374.649 82.551 372.988 85.1054 370.846C90.7897 365.946 89.1726 359.248 83.8966 358.677C79.6007 358.203 77.1832 361.829 75.7294 366.125C75.2884 367.35 74.929 368.624 74.6023 369.866C74.3083 368.722 73.9816 367.579 73.704 366.436C72.8382 363.054 72.0705 359.64 71.2865 356.227C74.6996 355.14 77.8678 353.398 80.6134 351.098C86.2978 346.197 84.6807 339.517 79.4047 338.945C75.1087 338.471 72.6912 342.097 71.2375 346.393C70.7922 347.642 70.4106 348.912 70.0941 350.199C69.604 347.7 69.114 345.217 68.6893 342.718C68.3626 340.856 68.0849 339.01 67.8072 337.148C67.6929 334.502 67.6602 331.856 67.6929 329.193C67.6929 327.739 67.6929 326.286 67.8236 324.815C71.0233 325.841 74.3835 326.273 77.7386 326.09C85.1707 325.6 87.9312 319.229 84.0436 315.619C80.8747 312.663 76.7748 314.133 72.9689 316.648C71.2594 317.804 69.6229 319.064 68.0686 320.422C68.5206 314.205 69.46 308.033 70.8781 301.964C71.7247 298.39 72.7718 294.867 74.0143 291.412C77.4284 292.594 81.0405 293.099 84.648 292.898C92.0801 292.424 94.8407 286.054 90.9531 282.428C87.7842 279.488 83.6843 280.941 79.8784 283.473C78.5268 284.385 77.2237 285.366 75.9744 286.413C77.4035 283.031 79.0739 279.756 80.9728 276.613C84.7733 270.295 89.5222 264.598 95.053 259.723C97.8944 262.355 101.255 264.364 104.919 265.62C111.992 267.939 116.925 263.039 114.72 258.236C112.89 254.333 108.529 254.153 104.07 255.084C102.373 255.45 100.699 255.914 99.0549 256.472L99.1529 256.374C105.248 251.618 111.816 247.502 118.754 244.091C121.194 247.303 124.304 249.945 127.869 251.833C134.484 255.247 140.136 251.196 138.666 246.1C137.473 241.951 133.21 241.085 128.637 241.2C126.853 241.303 125.075 241.499 123.312 241.788C130.662 238.308 138.192 235.025 145.428 231.187L145.575 231.105C148.826 233.903 152.677 235.915 156.83 236.985C164.066 238.782 168.623 233.522 166.01 228.9C163.87 225.143 159.476 225.306 155.131 226.548C153.906 226.907 152.681 227.348 151.505 227.805C156.341 224.988 161.03 221.924 165.552 218.625L165.944 219.034C165.935 218.974 165.935 218.914 165.944 218.854C169.218 221.681 173.096 223.721 177.28 224.816C184.516 226.597 189.057 221.353 186.444 216.731C184.337 213.023 179.992 213.186 175.598 214.444ZM61.3878 362.45C59.9177 360.702 58.513 358.905 57.1245 357.076C57.4676 356.782 57.8269 356.455 58.1863 356.096C60.2218 356.732 62.329 357.111 64.4587 357.223C64.4587 357.337 64.4587 357.452 64.4587 357.566L65.4551 357.354C65.9614 359.935 66.5168 362.499 67.0885 365.064C66.4209 364.199 65.5533 363.509 64.5603 363.054C63.5673 362.599 62.4786 362.392 61.3878 362.45ZM66.7292 300.951C66.2228 302.862 65.7818 304.806 65.3897 306.75C65.316 306.626 65.2283 306.511 65.1284 306.407C65.1284 302.421 65.1937 298.446 65.3244 294.483C65.4387 291.706 65.6348 288.945 65.8798 286.168C67.2167 287.545 68.6949 288.777 70.2901 289.843C68.8852 293.473 67.6961 297.182 66.7292 300.951ZM73.4263 282.656C73.4263 281.938 73.5896 281.203 73.6386 280.484C73.6386 280.108 73.6386 279.749 73.6386 279.389C74.2267 279.21 74.8147 278.997 75.4191 278.752C74.733 280.043 74.0633 281.333 73.4263 282.656ZM81.9365 268.837C81.6467 268.195 81.2315 267.617 80.7154 267.138C80.1993 266.658 79.5926 266.286 78.931 266.044C74.9127 264.411 71.6295 267.351 69.0323 271.108L68.918 271.288H68.6566C68.3827 271.226 68.104 271.187 67.8236 271.173C67.8236 270.945 67.8236 270.716 67.9379 270.487C68.9744 264.594 70.3653 258.768 72.1032 253.042C75.853 253.515 79.6598 253.22 83.2922 252.176C85.5138 251.605 87.4595 250.262 88.7806 248.387C89.5066 251.675 90.8719 254.789 92.7989 257.55C88.7921 260.939 85.1515 264.739 81.9365 268.886V268.837Z" fill="white"></path><path d="M639.919 511.176C639.919 515.096 550.21 518.265 439.561 518.265C328.912 518.265 239.187 515.096 239.187 511.176C239.187 507.256 328.896 504.103 439.561 504.103C550.227 504.103 639.919 507.272 639.919 511.176Z" fill="#2D95D7"></path><path opacity="0.3" d="M639.919 511.176C639.919 515.096 550.21 518.265 439.561 518.265C328.912 518.265 239.187 515.096 239.187 511.176C239.187 507.256 328.896 504.103 439.561 504.103C550.227 504.103 639.919 507.272 639.919 511.176Z" fill="#2E353A"></path><path d="M425.138 447.568C425.138 447.568 434.939 489.45 430.643 496.343C425.105 505.343 366.057 510.766 366.057 510.766H496.258C496.258 510.766 512.592 506.193 507.692 493.076C503.886 482.916 485.673 447.568 485.673 447.568H425.138Z" fill="white" stroke="#2E353A" stroke-linecap="round" stroke-linejoin="round"></path><path d="M422.296 447.568C422.296 447.568 432.684 489.809 427.801 496.343C422.917 502.877 366.057 507.859 366.057 507.859H496.862C496.862 507.859 507.872 503.416 504.817 493.076C501.763 482.736 482.815 447.568 482.815 447.568H422.296Z" fill="white" stroke="#2E353A" stroke-linecap="round" stroke-linejoin="round"></path><g style="mix-blend-mode:multiply"><path d="M482.814 447.569H422.377C422.377 447.569 428.519 472.593 429.123 487.098H502.628C496.6 473.149 482.814 447.569 482.814 447.569Z" fill="#2D95D7"></path></g><path d="M496.258 508.071H366.057V510.766H496.258V508.071Z" fill="white" stroke="#2E353A" stroke-linecap="round" stroke-linejoin="round"></path><path d="M639.561 157.044H274.406C266.756 157.044 260.554 163.246 260.554 170.896V437.849C260.554 445.499 266.756 451.701 274.406 451.701H639.561C647.211 451.701 653.413 445.499 653.413 437.849V170.896C653.413 163.246 647.211 157.044 639.561 157.044Z" fill="#2D95D7" stroke="#2E353A" stroke-linecap="round" stroke-linejoin="round"></path><path d="M630.3 157.044H265.144C257.494 157.044 251.293 163.246 251.293 170.896V437.849C251.293 445.499 257.494 451.701 265.144 451.701H630.3C637.95 451.701 644.151 445.499 644.151 437.849V170.896C644.151 163.246 637.95 157.044 630.3 157.044Z" fill="#2E353A" stroke="#2E353A" stroke-linecap="round" stroke-linejoin="round"></path><path d="M251.292 405.883H644.151V437.817C644.151 441.49 642.692 445.013 640.094 447.611C637.496 450.209 633.973 451.668 630.299 451.668H265.144C261.47 451.668 257.947 450.209 255.35 447.611C252.752 445.013 251.292 441.49 251.292 437.817V405.883Z" fill="white" stroke="#2E353A" stroke-linecap="round" stroke-linejoin="round"></path><path d="M624.402 175.372H271.056V383.537H624.402V175.372Z" fill="#2D95D7" stroke="#2E353A" stroke-linecap="round" stroke-linejoin="round"></path><path d="M454.964 428.783C454.964 427.348 454.538 425.945 453.74 424.752C452.943 423.559 451.809 422.63 450.483 422.081C449.157 421.533 447.698 421.39 446.29 421.671C444.883 421.952 443.591 422.645 442.577 423.661C441.564 424.677 440.874 425.97 440.596 427.378C440.318 428.786 440.464 430.245 441.016 431.57C441.567 432.895 442.499 434.026 443.694 434.821C444.889 435.616 446.293 436.039 447.728 436.036C448.679 436.036 449.622 435.848 450.501 435.483C451.38 435.119 452.178 434.584 452.85 433.911C453.522 433.237 454.055 432.437 454.418 431.557C454.78 430.678 454.966 429.735 454.964 428.783Z" fill="#2E353A" stroke="#2E353A" stroke-linecap="round" stroke-linejoin="round"></path><path d="M621.086 190.041H273.834V208.286H621.086V190.041Z" fill="#2E353A" stroke="#2E353A" stroke-linecap="round" stroke-linejoin="round"></path><path d="M331.118 208.302L326.969 197.031H273.834V208.302V223.248V374.668H621.086V208.302H331.118Z" fill="white" stroke="#2E353A" stroke-linecap="round" stroke-linejoin="round"></path><path d="M523.144 512.367C523.144 512.367 525.382 517.774 537.714 519.652C550.047 521.531 633.221 511.795 633.221 511.795C633.221 511.795 638.448 510.489 638.824 507.875C639.2 505.262 625.365 497.601 599.769 494.416C577.494 491.859 554.93 494.417 533.794 501.897C517.917 507.696 523.144 512.367 523.144 512.367Z" fill="white" stroke="#2E353A" stroke-linecap="round" stroke-linejoin="round"></path><g style="mix-blend-mode:multiply"><path d="M618.863 503.204C613.309 503.204 600.748 503.792 590.523 504.674C580.297 505.556 563.359 511.976 554.015 515.177C544.672 518.379 529.775 517.529 529.775 517.529C532.322 518.566 534.989 519.279 537.714 519.653C550.046 521.515 633.221 511.796 633.221 511.796C635.044 511.341 636.727 510.443 638.121 509.182C632.845 505.36 623.404 503.204 618.863 503.204Z" fill="#2D95D7"></path></g><path d="M635.05 507.369C635.777 507.751 636.471 508.194 637.124 508.692" stroke="#2E353A" stroke-linecap="round" stroke-linejoin="round"></path><path d="M532.306 518.345C540.974 518.603 549.606 517.143 557.706 514.05C574.888 507.286 593.147 503.672 611.61 503.383C622.342 503.301 628.908 504.772 632.845 506.258" stroke="#2E353A" stroke-linecap="round" stroke-linejoin="round"></path><path d="M601.319 295.104H493.055V360.997H600.813" stroke="#2E353A" stroke-width="0.5" stroke-linecap="round" stroke-linejoin="round"></path><path d="M493.545 313.888H601.809" stroke="#2E353A" stroke-width="0.5" stroke-linecap="round" stroke-linejoin="round"></path><path d="M493.545 332.624H601.809" stroke="#2E353A" stroke-width="0.5" stroke-linecap="round" stroke-linejoin="round"></path><path d="M493.545 351.359H601.809" stroke="#2E353A" stroke-width="0.5" stroke-linecap="round" stroke-linejoin="round"></path><path d="M490.084 295.544H485.641" stroke="#2E353A" stroke-width="0.5" stroke-linecap="round" stroke-linejoin="round"></path><path d="M490.084 304.822H485.641" stroke="#2E353A" stroke-width="0.5" stroke-linecap="round" stroke-linejoin="round"></path><path d="M490.084 314.116H485.641" stroke="#2E353A" stroke-width="0.5" stroke-linecap="round" stroke-linejoin="round"></path><path d="M490.084 323.411H485.641" stroke="#2E353A" stroke-width="0.5" stroke-linecap="round" stroke-linejoin="round"></path><path d="M490.084 332.689H485.641" stroke="#2E353A" stroke-width="0.5" stroke-linecap="round" stroke-linejoin="round"></path><path d="M490.084 341.983H485.641" stroke="#2E353A" stroke-width="0.5" stroke-linecap="round" stroke-linejoin="round"></path><path d="M490.084 351.277H485.641" stroke="#2E353A" stroke-width="0.5" stroke-linecap="round" stroke-linejoin="round"></path><path d="M490.084 360.556H485.641" stroke="#2E353A" stroke-width="0.5" stroke-linecap="round" stroke-linejoin="round"></path><path d="M501.974 321.484H496.992V360.735H501.974V321.484Z" fill="#2E353A" stroke="#2E353A" stroke-linecap="round" stroke-linejoin="round"></path><path d="M510.812 302.699H505.83V360.735H510.812V302.699Z" fill="#2D95D7" stroke="#2E353A" stroke-linecap="round" stroke-linejoin="round"></path><path d="M519.664 321.484H514.682V360.735H519.664V321.484Z" fill="white" stroke="#2E353A" stroke-linecap="round" stroke-linejoin="round"></path><path d="M539.56 308.775H534.578V360.735H539.56V308.775Z" fill="#2E353A" stroke="#2E353A" stroke-linecap="round" stroke-linejoin="round"></path><path d="M548.396 316.517H543.414V360.734H548.396V316.517Z" fill="#2D95D7" stroke="#2E353A" stroke-linecap="round" stroke-linejoin="round"></path><path d="M557.25 338.619H552.268V360.735H557.25V338.619Z" fill="white" stroke="#2E353A" stroke-linecap="round" stroke-linejoin="round"></path><path d="M577.144 321.484H572.162V360.735H577.144V321.484Z" fill="#2E353A" stroke="#2E353A" stroke-linecap="round" stroke-linejoin="round"></path><path d="M585.982 302.699H581V360.735H585.982V302.699Z" fill="#2D95D7" stroke="#2E353A" stroke-linecap="round" stroke-linejoin="round"></path><path d="M594.836 321.484H589.854V360.735H594.836V321.484Z" fill="white" stroke="#2E353A" stroke-linecap="round" stroke-linejoin="round"></path><path opacity="0.4" d="M461.627 233.082L516.87 274.424V216.698L461.627 1.13281V233.082Z" fill="#2D95D7" stroke="white" stroke-linecap="round" stroke-linejoin="round"></path><path opacity="0.4" d="M516.873 274.424H337.195L45.6423 233.082H461.63L516.873 274.424Z" fill="#2D95D7" stroke="white" stroke-linecap="round" stroke-linejoin="round"></path><path d="M461.63 1.13281H45.6423V210.213H461.63V1.13281Z" fill="black" stroke="#2E353A" stroke-linecap="round" stroke-linejoin="round"></path><path d="M61.6833 11.979H141.183" stroke="white" stroke-width="2" stroke-linecap="round" stroke-linejoin="round"></path><path d="M451.044 10.9982C451.044 9.91843 450.724 8.86298 450.124 7.96544C449.523 7.06791 448.67 6.36865 447.672 5.9562C446.675 5.54376 445.577 5.43668 444.518 5.64851C443.459 5.86035 442.487 6.38159 441.725 7.14622C440.963 7.91085 440.444 8.88448 440.236 9.94385C440.027 11.0032 440.137 12.1007 440.553 13.0973C440.968 14.0939 441.67 14.9448 442.569 15.5424C443.469 16.1399 444.525 16.4571 445.605 16.4539C446.32 16.4539 447.029 16.3126 447.69 16.0383C448.351 15.7639 448.952 15.3618 449.457 14.8549C449.962 14.3481 450.362 13.7466 450.635 13.0847C450.907 12.4229 451.046 11.7138 451.044 10.9982Z" fill="white"></path><path d="M427.734 10.9992C427.731 9.9241 427.409 8.87406 426.81 7.98171C426.21 7.08936 425.359 6.39473 424.365 5.98555C423.371 5.57636 422.278 5.47097 421.224 5.68269C420.17 5.89441 419.202 6.41374 418.443 7.1751C417.684 7.93645 417.167 8.90567 416.959 9.96036C416.75 11.015 416.859 12.1079 417.271 13.1008C417.683 14.0938 418.38 14.9424 419.275 15.5393C420.169 16.1363 421.22 16.4549 422.295 16.4549C423.01 16.4549 423.719 16.3137 424.38 16.0393C425.041 15.7649 425.641 15.3628 426.147 14.856C426.652 14.3491 427.052 13.7476 427.325 13.0858C427.597 12.4239 427.736 11.7149 427.734 10.9992Z" fill="white"></path><path d="M461.63 24.001H45.6423V233.082H461.63V24.001Z" fill="white" stroke="#2E353A" stroke-linecap="round" stroke-linejoin="round"></path><path d="M442.028 45.791H75.0427V213.48H440.933" stroke="#2E353A" stroke-width="0.5" stroke-linecap="round" stroke-linejoin="round"></path><path d="M76.1384 93.5854H443.107" stroke="#2E353A" stroke-width="0.5" stroke-linecap="round" stroke-linejoin="round"></path><path d="M76.1384 141.283H443.107" stroke="#2E353A" stroke-width="0.5" stroke-linecap="round" stroke-linejoin="round"></path><path d="M76.1384 188.979H443.107" stroke="#2E353A" stroke-width="0.5" stroke-linecap="round" stroke-linejoin="round"></path><path d="M68.5113 46.8691H58.7107" stroke="#2E353A" stroke-width="0.5" stroke-linecap="round" stroke-linejoin="round"></path><path d="M68.5113 70.522H58.7107" stroke="#2E353A" stroke-width="0.5" stroke-linecap="round" stroke-linejoin="round"></path><path d="M68.5113 94.1733H58.7107" stroke="#2E353A" stroke-width="0.5" stroke-linecap="round" stroke-linejoin="round"></path><path d="M68.5113 117.81H58.7107" stroke="#2E353A" stroke-width="0.5" stroke-linecap="round" stroke-linejoin="round"></path><path d="M68.5113 141.461H58.7107" stroke="#2E353A" stroke-width="0.5" stroke-linecap="round" stroke-linejoin="round"></path><path d="M68.5113 165.098H58.7107" stroke="#2E353A" stroke-width="0.5" stroke-linecap="round" stroke-linejoin="round"></path><path d="M68.5113 188.75H58.7107" stroke="#2E353A" stroke-width="0.5" stroke-linecap="round" stroke-linejoin="round"></path><path d="M68.5113 212.402H58.7107" stroke="#2E353A" stroke-width="0.5" stroke-linecap="round" stroke-linejoin="round"></path><path d="M77.7712 94.4679C77.7712 94.4679 109.885 95.8726 116.418 91.5277C122.952 87.1827 131.675 78.4601 137.114 79.5382C143.011 81.0636 148.828 82.8845 154.543 84.9939C154.543 84.9939 167.61 77.3657 170.877 77.3657C174.144 77.3657 185.023 82.8051 193.745 82.8051H218.786L228.587 90.4333L247.094 84.9939L267.789 93.7001L280.857 91.5277L299.364 101.328H308.086L325.499 108.94H348.367L361.434 116.568L382.13 117.663L398.464 133.997L411.532 131.808L425.694 137.264L438.761 136.17" stroke="#2D95D7" stroke-width="3" stroke-linecap="round" stroke-linejoin="round"></path><path d="M77.2167 100.234H117.514L141.476 103.501L161.077 104.596L178.49 116.569L203.547 108.94L234.027 119.836L267.79 114.396L279.763 119.836L306.993 89.3392H334.222L350.556 71.9267L367.969 79.5385L378.864 69.7379L393.026 77.366L401.732 66.471L407.171 67.5654L421.333 63.2041L427.867 67.5654L438.762 65.3929" stroke="#2E353A" stroke-width="3" stroke-linecap="round" stroke-linejoin="round"></path><path d="M78.3103 206.946H120.78L153.449 188.439L177.411 199.334H194.824L203.546 202.601L223.147 192.8L249.282 176.466L257.989 188.439L274.323 186.267L283.029 188.439L304.819 189.533L328.766 169.932L340.755 184.078L355.995 183L364.701 188.439L377.769 185.172L395.198 191.706L419.16 188.439L432.228 190.612L439.839 188.439" stroke="#2D95D7" stroke-width="3" stroke-linecap="round" stroke-linejoin="round"></path><path opacity="0.4" d="M338.287 248.338L435.199 289.664V362.63L338.287 468.297V248.338Z" fill="#2D95D7" stroke="white" stroke-linecap="round" stroke-linejoin="round"></path><path d="M338.288 248.338H124.047V457.418H338.288V248.338Z" fill="black" stroke="#2E353A" stroke-linecap="round" stroke-linejoin="round"></path><path d="M338.288 271.206H124.047V468.313H338.288V271.206Z" fill="white" stroke="#2E353A" stroke-linecap="round" stroke-linejoin="round"></path><path d="M229.633 368.951L144.694 368.869C144.549 357.449 146.784 346.124 151.255 335.615C155.726 325.106 162.337 315.642 170.665 307.828L229.633 368.951Z" fill="black" stroke="white" stroke-miterlimit="10"></path><path d="M229.632 368.951L207.581 450.934C189.447 446.236 173.408 435.604 162.019 420.731C150.631 405.858 144.549 387.601 144.742 368.87L229.632 368.951Z" fill="black" stroke="white" stroke-miterlimit="10"></path><path d="M233.439 371.337L273.377 296.411C291.729 306.259 305.822 322.507 312.979 342.066C320.136 361.625 319.858 383.131 312.196 402.498C304.535 421.865 290.025 437.743 271.425 447.112C252.824 456.482 231.429 458.691 211.306 453.319L233.439 371.337Z" fill="#2D95D7" stroke="white" stroke-miterlimit="10"></path><path d="M229.634 368.951L225.273 284.159C240.672 283.131 256.044 286.531 269.572 293.96L229.634 368.951Z" fill="black" stroke="white" stroke-miterlimit="10"></path><path d="M229.633 368.952L170.714 307.828C185.212 293.264 204.731 284.796 225.271 284.16L229.633 368.952Z" fill="black" stroke="white" stroke-miterlimit="10"></path><path d="M329.564 260.262C329.564 259.186 329.245 258.135 328.648 257.24C328.05 256.346 327.2 255.649 326.206 255.237C325.213 254.825 324.119 254.717 323.064 254.927C322.009 255.137 321.039 255.655 320.279 256.416C319.518 257.177 319 258.146 318.79 259.201C318.58 260.256 318.688 261.35 319.1 262.344C319.511 263.338 320.208 264.187 321.103 264.785C321.997 265.382 323.049 265.701 324.125 265.701C324.839 265.701 325.547 265.561 326.206 265.287C326.866 265.014 327.466 264.613 327.971 264.108C328.476 263.603 328.877 263.004 329.15 262.344C329.424 261.684 329.564 260.976 329.564 260.262Z" fill="white"></path><path d="M306.274 260.263C306.278 259.183 305.96 258.126 305.363 257.227C304.765 256.328 303.914 255.626 302.918 255.211C301.921 254.795 300.824 254.685 299.764 254.893C298.705 255.102 297.731 255.62 296.967 256.383C296.202 257.145 295.681 258.117 295.469 259.176C295.257 260.235 295.364 261.332 295.777 262.33C296.189 263.328 296.888 264.181 297.786 264.781C298.683 265.382 299.739 265.702 300.819 265.702C302.263 265.702 303.648 265.129 304.671 264.11C305.693 263.09 306.27 261.707 306.274 260.263Z" fill="white"></path><g style="mix-blend-mode:multiply" opacity="0.73"><path d="M338.288 271.206H124.047V296.475H338.288V271.206Z" fill="#2D95D7"></path><path d="M338.288 271.206H124.047V296.475H338.288V271.206Z" stroke="white" stroke-linecap="round" stroke-linejoin="round"></path></g></svg>