<svg xmlns="http://www.w3.org/2000/svg" width="99" height="29" viewBox="0 0 99 29" fill="none"><path d="M16.9661 27.4994C19.8352 26.9935 22.7041 26.4858 25.5726 25.9763L25.6534 25.959L21.2264 20.6933C18.7917 17.7972 16.7996 15.4164 16.7996 15.4029C16.7996 15.3769 21.3707 2.78882 21.3964 2.74394C21.405 2.72911 24.5158 8.0998 28.9372 15.7632C33.0767 22.9376 36.4894 28.8529 36.5211 28.9083L36.5788 29.009L22.5098 29.0072L8.44061 29.0053L16.9661 27.4994ZM70.9194 26.2259C68.7777 26.0886 67.5323 24.8692 67.2022 22.5866C67.1144 21.9795 67.114 21.9635 67.1051 18.0218L67.0964 14.2065H68.992L68.9995 17.8966C69.0061 21.2227 69.0104 21.6127 69.0421 21.8465C69.1712 22.7961 69.4282 23.4347 69.8654 23.8929C70.2155 24.2597 70.6253 24.4746 71.1926 24.5885C71.4603 24.6423 72.2217 24.6423 72.4656 24.5887C73.0406 24.4622 73.5016 24.2119 73.9082 23.8054C74.3718 23.3422 74.7145 22.6848 74.8805 21.9418L74.9363 21.6911L74.9426 17.9697L74.9487 14.2482H76.8841V25.9486H74.9687V25.0205C74.9687 24.3899 74.9619 24.0945 74.9472 24.0995C74.9354 24.1034 74.886 24.1787 74.8378 24.2668C74.5077 24.8685 73.9579 25.419 73.3555 25.7506C72.6332 26.148 71.9091 26.2893 70.9194 26.2259ZM92.6566 26.2166C91.9006 26.1597 91.1045 25.8997 90.454 25.4971C89.0828 24.6491 88.2715 23.251 88.0338 21.3267C87.9516 20.661 87.9418 19.7665 88.0104 19.2007C88.1636 17.9366 88.6604 16.6955 89.3678 15.8095C89.5491 15.5826 89.9606 15.1711 90.1876 14.9899C90.7993 14.5009 91.5152 14.1592 92.28 13.991C92.7237 13.894 93.5053 13.8484 93.9767 13.8922C95.1613 14.0019 96.2468 14.5595 96.9844 15.4372C97.7341 16.3291 98.1462 17.5752 98.1988 19.1095C98.207 19.35 98.209 19.7715 98.2033 20.0463L98.1927 20.5461L94.0446 20.5512L89.8963 20.5564V20.7417C89.8963 21.3052 90.0331 21.947 90.2701 22.4931C90.4743 22.9641 90.8258 23.4783 91.1138 23.7272C91.704 24.2375 92.4263 24.5429 93.2168 24.6163C93.5098 24.6436 94.2571 24.6148 94.5909 24.5635C95.544 24.417 96.4498 24.0433 97.1814 23.4948C97.2416 23.449 97.3027 23.4043 97.3646 23.3607C97.3859 23.3474 97.3911 23.5159 97.3905 24.2249L97.3898 25.1055L97.1938 25.2268C96.366 25.7385 95.4179 26.0673 94.4141 26.1903C94.1143 26.227 93.0151 26.2437 92.6566 26.2166ZM96.267 18.7891C96.267 17.845 95.8691 16.7964 95.3061 16.2564C94.9044 15.8711 94.4188 15.6356 93.8413 15.5462C93.5682 15.504 92.9926 15.5203 92.7046 15.5783C92.0959 15.7014 91.5924 15.969 91.1531 16.4029C90.691 16.8596 90.3445 17.4145 90.1266 18.0464C90.0481 18.2738 89.9565 18.6469 89.9282 18.8545L89.9144 18.9534H96.2668L96.267 18.7891ZM39.9966 25.9227C40.0015 25.9082 41.4102 22.2077 43.1269 17.6991L46.2485 9.50149H48.2543L48.3376 9.71474C48.5918 10.3669 54.5867 25.9308 54.5867 25.939C54.5867 25.9442 54.1064 25.9486 53.5197 25.9485L52.4527 25.9483L51.5886 23.648L50.7245 21.3475H43.7671L43.7366 21.4256C43.72 21.4686 43.3509 22.5037 42.9163 23.7257L42.1263 25.9479L41.057 25.9483C40.2106 25.9485 39.9896 25.9433 39.9966 25.9227ZM50.0898 19.592C50.0898 19.5883 49.5082 18.0121 48.7975 16.0892C47.4679 12.4918 47.3938 12.2754 47.2886 11.6978C47.2395 11.427 47.2144 11.4196 47.1851 11.6666C47.1644 11.8431 47.0739 12.2385 47.0038 12.4577C46.9691 12.5665 46.3705 14.2096 45.6735 16.1094C44.9763 18.009 44.4061 19.571 44.4061 19.5809C44.4061 19.5907 45.6848 19.5987 47.2478 19.5987C48.8108 19.5987 50.0898 19.5955 50.0898 19.592ZM55.232 25.649V25.3495L58.6981 20.5848L62.164 15.8201L59.026 15.8095L55.8879 15.7992L55.8823 15.0029L55.8769 14.2065H64.9546V14.7444L61.4883 19.5351C59.5817 22.1701 58.0218 24.3304 58.0218 24.3357C58.0218 24.3411 59.563 24.3456 61.4466 24.3456H64.8714V25.9486H55.232V25.649ZM80.6663 25.9347C80.6587 25.9271 80.6524 23.2851 80.6524 20.0637V14.2065H82.547V15.414C82.547 16.0782 82.555 16.6216 82.565 16.6216C82.5748 16.6216 82.6208 16.5129 82.6674 16.3799C82.8804 15.7712 83.2496 15.2023 83.7256 14.75C84.1541 14.3428 84.6441 14.0991 85.2222 14.0058C85.3847 13.9799 85.5221 13.9747 85.8468 13.9832C86.2547 13.9938 86.468 14.0236 86.7161 14.1047L86.794 14.1303V16.0968L86.5703 15.9848C86.175 15.7869 85.7848 15.7085 85.3159 15.733C85.0107 15.7487 84.8104 15.788 84.5664 15.8795C84.071 16.0625 83.6509 16.4056 83.3727 16.8545C82.9607 17.5116 82.667 18.3563 82.5804 19.1327C82.5648 19.2719 82.5557 20.4066 82.552 22.6435L82.5464 25.9486H81.6133C81.1001 25.9486 80.6739 25.9423 80.6663 25.9347ZM0.081665 25.8936C0.081665 25.8862 2.1676 22.2652 4.71712 17.8469L9.35257 9.81357L14.7546 5.28029C17.7256 2.78696 20.1646 0.743678 20.1744 0.73997C20.1841 0.736261 20.1451 0.834541 20.0875 0.95841C20.03 1.08246 17.3903 6.7441 14.2217 13.54L8.46026 25.8963L4.27096 25.9017C1.96696 25.9047 0.081665 25.901 0.081665 25.8936Z" fill="#0089D6"></path></svg>