<svg width="525" height="409" viewBox="0 0 525 409" fill="none" xmlns="http://www.w3.org/2000/svg">
<path d="M524.01 0V409C519.58 407.61 517.68 403.26 513.54 400.97C505.51 396.52 495.79 396.86 487 398.01C486.6 369.91 459.58 355.8 434.14 356.87C432.48 350.32 428.18 337.3 420.03 338.51L421.01 335C416.27 334.27 412.55 330.71 408.02 329.48C391.99 325.11 375.69 333.72 369.95 348.97C367.44 346.98 368.31 349.99 367.51 350.02C352.76 337.74 329.11 339.73 316.48 353.97L315.07 353.92C315.03 351.58 311.1 350.32 308.99 349.5C297.14 344.89 285.11 346.28 276.57 356.05C275.16 357.66 275.24 360.86 272.5 361.04C269.49 361.32 265.59 357.29 262.54 355.96C240.17 346.15 217.09 354.07 205.84 375.32L200.02 387.99C194.85 357.78 168.87 346.6 141.06 356.96C138.39 341.04 119.77 336.67 106.01 336.98C109.18 326.24 111.84 310.99 105.01 301.48L107 300.49C95.69 274.1 69.76 265.82 43.01 271.99C43.89 248.62 21.25 226.81 0 220.99C0.02 218.95 3.45999 216.71 4.98999 215.48C35.56 190.77 83.91 196.12 103.02 231.99L104.45 231.96C118.21 219.39 139.53 217.36 154.47 229.02C160.41 233.65 163.96 240.47 169.4 244.95C191.58 214.49 223.32 192.08 262.84 200.65C284.54 205.36 309.46 223.61 317.05 244.95C318.58 245.99 326.19 239.43 328.68 238.17C347.02 228.88 369.58 232.83 380.82 250.67C382.73 253.7 383.27 257.79 385.99 259.99C389.45 237.34 409.44 218.13 432.01 214.98C431.28 209.92 428.15 205.64 426.85 200.64C417.84 165.87 437.92 122.09 474 112.98C474.71 112.16 470.37 106.77 469.52 104.97C459.86 84.42 464.54 61.83 481.99 47.48C484.49 45.43 494.91 39.78 495.47 38.96C496.66 37.18 498.58 27.6 500.3 23.79C504.91 13.54 513.24 3.95 524.01 0Z" fill="#90D1F2"/>
</svg>
