<svg width="1145" height="351" viewBox="0 0 1145 351" fill="none" xmlns="http://www.w3.org/2000/svg">
<g clip-path="url(#clip0_39_10)">
<mask id="mask0_39_10" style="mask-type:luminance" maskUnits="userSpaceOnUse" x="0" y="0" width="1145" height="351">
<path d="M1145 0H0V351H1145V0Z" fill="white"/>
</mask>
<g mask="url(#mask0_39_10)">
<path d="M1145.01 2V411C1140.58 409.61 1138.68 405.26 1134.54 402.97C1126.51 398.52 1116.79 398.86 1108 400.01C1107.6 371.91 1080.58 357.8 1055.14 358.87C1053.48 352.32 1049.18 339.3 1041.03 340.51L1042.01 337C1037.27 336.27 1033.55 332.71 1029.02 331.48C1012.99 327.11 996.69 335.72 990.95 350.97C988.44 348.98 989.31 351.99 988.51 352.02C973.76 339.74 950.11 341.73 937.48 355.97L936.07 355.92C936.03 353.58 932.1 352.32 929.99 351.5C918.14 346.89 906.11 348.28 897.57 358.05C896.16 359.66 896.24 362.86 893.5 363.04C890.49 363.32 886.59 359.29 883.54 357.96C861.17 348.15 838.09 356.07 826.84 377.32L821.02 389.99C815.85 359.78 789.87 348.6 762.06 358.96C759.39 343.04 740.77 338.67 727.01 338.98C730.18 328.24 732.84 312.99 726.01 303.48L728 302.49C716.69 276.1 690.76 267.82 664.01 273.99C664.89 250.62 642.25 228.81 621 222.99C621.02 220.95 624.46 218.71 625.99 217.48C656.56 192.77 704.91 198.12 724.02 233.99L725.45 233.96C739.21 221.39 760.53 219.36 775.47 231.02C781.41 235.65 784.96 242.47 790.4 246.95C812.58 216.49 844.32 194.08 883.84 202.65C905.54 207.36 930.46 225.61 938.05 246.95C939.58 247.99 947.19 241.43 949.68 240.17C968.02 230.88 990.58 234.83 1001.82 252.67C1003.73 255.7 1004.27 259.79 1006.99 261.99C1010.45 239.34 1030.44 220.13 1053.01 216.98C1052.28 211.92 1049.15 207.64 1047.85 202.64C1038.84 167.87 1058.92 124.09 1095 114.98C1095.71 114.16 1091.37 108.77 1090.52 106.97C1080.86 86.42 1085.54 63.83 1102.99 49.48C1105.49 47.43 1115.91 41.78 1116.47 40.96C1117.66 39.18 1119.58 29.6 1121.3 25.79C1125.91 15.54 1134.24 5.95 1145.01 2Z" fill="#90D1F2"/>
<path d="M578 216C588.02 210.91 600.86 208.5 612.01 208.01C612.01 208.01 619.5 192 636 183C653 176.5 666 178 680 187.5C694.5 199 706.19 218.28 706.19 218.28L707.97 219.99C709.63 203.12 721.7 185.47 736.98 177.99C748.37 172.41 760.74 171.63 772.98 174.99C794.23 180.82 816.87 202.62 815.99 225.99C842.74 219.82 868.68 228.1 879.98 254.49L877.99 255.48C884.81 264.98 882.16 280.23 878.99 290.98C892.75 290.66 911.37 295.04 914.04 310.96C941.85 300.6 967.83 311.78 973 341.99L978.82 329.32C990.07 308.07 1013.15 300.16 1035.52 309.96C1038.57 311.3 1042.47 315.33 1045.48 315.04C1048.22 314.85 1048.15 311.65 1049.55 310.05C1058.1 300.28 1070.13 298.89 1081.97 303.5C1084.08 304.32 1088.01 305.58 1088.05 307.92L1089.46 307.97C1102.08 293.73 1125.74 291.73 1140.49 304.02C1141.29 303.98 1140.42 300.98 1142.93 302.97C1148.68 287.72 1164.97 279.11 1181 283.48C1185.53 284.72 1189.26 288.28 1193.99 289L1193.01 292.51C1201.15 291.3 1205.46 304.32 1207.12 310.87C1232.56 309.8 1259.59 323.9 1259.98 352.01C1268.77 350.86 1278.49 350.52 1286.52 354.97C1290.66 357.26 1292.56 361.61 1296.99 363V368H0C7.69 340.35 31.44 317.68 60.63 315.13C68.11 314.48 80.02 316.99 85.46 315.96C88.1 315.46 93.63 311.55 96.98 310.37C97.28 310.27 101.88 309.04 102.44 308.91C121.84 304.46 136.64 307.61 152.94 318.57C155.34 320.18 158.25 325.11 161.35 324.8C163.64 324.57 167.93 320.11 170.31 318.81C194.9 305.43 217.9 313.88 238.99 329C232.15 298.96 254.15 272.85 284.8 274.79C301.09 241.18 358.69 240.43 378.5 270.9C397.16 253.53 426.24 257.49 441 277.51L439.02 279.99L443 278.99L444.02 283.99L441.01 284.99C444.81 284.59 445.85 284.58 447.5 287.98C452.98 282.77 458.71 278.64 466.51 278.02C468.56 277.86 477.52 277.77 479.24 278.17C481.42 278.68 491.99 286.04 492.99 285C493.27 281.81 493.75 278.26 494.69 275.2C496.34 269.83 502.15 258.32 505.56 254.07C508.04 250.97 509.9 248.63 513.99 251L514.2 246.23C524.72 241.54 531.92 241.56 543 243C546.8 243.5 550.19 244.09 553.91 244.93C558.23 232.39 566.03 222.09 578 216Z" fill="#FDFDFD"/>
</g>
</g>
<defs>
<clipPath id="clip0_39_10">
<rect width="1145" height="351" fill="white"/>
</clipPath>
</defs>
</svg>
