<svg xmlns="http://www.w3.org/2000/svg" width="340" height="115" viewBox="0 0 340 115" fill="none"><path d="M236.754 20.2155C236.754 20.2155 219.761 -12.2157 193.059 6.11184C166.357 24.4393 177.547 49.8065 164.876 54.0546C152.204 58.3027 142.324 42.7668 129.629 49.8065C116.933 56.8462 121.157 68.134 112.636 68.134C104.116 68.134 88.677 61.0944 81.6131 63.9102C74.5491 66.7261 64.6207 82.2377 64.6207 82.2377C64.6207 82.2377 -7.25711 86.4616 1.19053 94.9335C9.63817 103.405 211.241 94.9335 211.241 94.9335C211.241 94.9335 164.73 106.197 190.097 111.926C215.465 117.655 328.27 111.926 328.27 111.926C328.27 111.926 345.262 90.7825 336.717 76.6788C328.173 62.5751 295.838 78.0867 288.774 69.6391C281.711 61.1915 300.062 55.5354 284.551 38.6158C269.039 21.6963 250.833 25.8473 236.754 20.2155Z" fill="white" stroke="#2E353A" stroke-linecap="round" stroke-linejoin="round"></path><g style="mix-blend-mode:multiply" opacity="0.51"><path d="M339.122 87.5295C338.94 86.6405 338.94 85.7239 339.122 84.835C339.016 81.9316 338.181 79.1016 336.694 76.6058C328.247 62.5021 295.816 78.0137 288.752 69.5661C281.688 61.1184 300.039 55.4624 284.528 38.5428C273.968 27.0123 262.122 25.313 251.174 23.6138C248.898 24.57 246.726 25.7576 244.693 27.1579C217.99 45.4854 229.181 70.8526 216.485 75.0765C203.79 79.3003 193.934 63.813 181.238 70.8527C168.543 77.8924 172.791 89.1801 164.246 89.1801C155.701 89.1801 140.287 82.1405 133.247 84.9563C128.95 86.6798 123.537 93.1127 120.09 97.8705C167.572 96.7539 211.145 94.9333 211.145 94.9333C211.145 94.9333 164.634 106.197 190.002 111.926C215.369 117.655 328.174 111.926 328.174 111.926C328.174 111.926 338.175 99.5941 339.122 87.5295Z" fill="#2D95D7"></path></g></svg>