<svg width="315" height="76" viewBox="0 0 315 76" fill="none" xmlns="http://www.w3.org/2000/svg">
<path d="M12.4021 59.4158L41.7162 41.8644C42.9393 41.1281 44.5716 39.8221 44.5716 37.4848V53.5635C44.5716 56.7459 43.131 57.5973 41.7162 58.4361L12.4021 76.0001V59.4158Z" fill="#CAC0A9"/>
<path d="M0.0191802 45.7447C0.0191802 48.0499 1.28705 49.2729 2.85587 50.24C4.44387 51.2065 9.48322 54.1908 9.48322 54.1908L23.7049 45.7447L9.56641 37.3758L2.83663 41.365C1.62642 42.0818 0 43.4074 0 45.7447H0.0128284H0.0191802Z" fill="#00A2E0"/>
<path d="M44.6359 0V16.5716L2.86128 41.3776C1.63824 42.114 0.00540924 43.4269 0.00540924 45.7573V29.6792C0.00540924 26.4968 1.44614 25.6448 2.86128 24.806L44.6359 0Z" fill="#CAC0A9"/>
<path d="M44.6495 37.472C44.6495 35.1668 43.3812 33.9438 41.8129 32.9767C40.2245 32.0096 35.1852 29.0259 35.1852 29.0259L20.9634 37.472L35.1022 45.8409L41.8318 41.8517C43.0422 41.1342 44.6683 39.8024 44.6683 37.472H44.6558H44.6495Z" fill="#00A2E0"/>
<path d="M72.1958 63.0653C72.0682 62.9502 72.0619 62.8351 72.1638 62.7006L72.2921 62.5402C72.3883 62.4189 72.5096 62.4126 72.6574 62.5082C72.8875 62.7132 73.163 62.8672 73.4572 62.9823C73.7647 63.0974 74.0659 63.1489 74.3602 63.1489C74.8086 63.1489 75.1739 63.0332 75.4487 62.8031C75.7241 62.5723 75.865 62.2648 75.865 61.8875C75.865 61.58 75.7757 61.3235 75.5895 61.1191C75.4103 60.9141 75.1802 60.7412 74.9048 60.6004C74.6356 60.4595 74.3351 60.3124 74.0213 60.1841C73.7075 60.0558 73.4126 59.9087 73.1372 59.7357C72.8618 59.5628 72.6379 59.3515 72.4524 59.1145C72.2732 58.8648 72.177 58.5511 72.177 58.1669C72.177 57.8789 72.2342 57.6097 72.3436 57.3727C72.4587 57.13 72.6121 56.925 72.8234 56.7388C73.0347 56.5659 73.2717 56.4251 73.5597 56.3226C73.8484 56.227 74.1552 56.1754 74.4885 56.1754C74.8023 56.1754 75.1286 56.2333 75.4487 56.342C75.782 56.4445 76.0574 56.5854 76.2875 56.7583C76.4158 56.8545 76.4353 56.9759 76.3454 57.1042L76.2492 57.2708C76.1599 57.4179 76.0316 57.4431 75.8844 57.3475C75.404 57.0337 74.9305 56.8734 74.4564 56.8734C74.2256 56.8734 74.0144 56.9055 73.8226 56.9633C73.6371 57.0205 73.4704 57.1042 73.3359 57.2192C73.2013 57.3343 73.0925 57.4689 73.0221 57.616C72.9454 57.7638 72.907 57.9298 72.907 58.1222C72.907 58.4165 72.9963 58.6598 73.1824 58.8523C73.3617 59.0378 73.5981 59.2044 73.8672 59.3453C74.1364 59.4861 74.4369 59.6207 74.7507 59.742C75.0645 59.864 75.3594 60.0174 75.6348 60.1904C75.9102 60.3633 76.1404 60.5746 76.3196 60.8374C76.4988 61.0933 76.5887 61.4134 76.5887 61.8102C76.5887 62.1114 76.5378 62.3868 76.4221 62.6364C76.307 62.8861 76.1599 63.1037 75.9549 63.2829C75.7499 63.4627 75.5128 63.5966 75.2443 63.6991C74.9689 63.7953 74.6677 63.8469 74.3351 63.8469C73.9509 63.8469 73.5729 63.7633 73.1755 63.6287C72.785 63.4948 72.4461 63.3086 72.1638 63.0653H72.1896H72.1958Z" fill="black"/>
<path d="M78.9274 56.5729C78.9274 56.4 79.0104 56.3101 79.1834 56.3101H79.4009C79.5676 56.3101 79.6575 56.4 79.6575 56.5729V63.4496C79.6575 63.6225 79.5739 63.7125 79.4009 63.7125H79.1834C79.0167 63.7125 78.9274 63.6225 78.9274 63.4496V56.5729Z" fill="black"/>
<path d="M82.6777 56.5729C82.6777 56.4 82.7613 56.3101 82.9336 56.3101H84.9382C85.252 56.3101 85.5142 56.3227 85.7255 56.3547C85.9368 56.3868 86.1229 56.4384 86.2826 56.5214C86.6348 56.688 86.9039 56.9376 87.0957 57.2577C87.2881 57.5778 87.3843 57.9557 87.3843 58.3782C87.3843 58.8844 87.2561 59.3259 87.0001 59.6912C86.7436 60.0559 86.4109 60.3056 85.9884 60.4275V60.4533C85.9884 60.4533 86.0267 60.5105 86.0588 60.5684C86.0909 60.6256 86.1355 60.6835 86.1802 60.7539L87.6208 63.4307C87.6723 63.5263 87.6786 63.6037 87.6465 63.6546C87.6082 63.7062 87.544 63.7376 87.4415 63.7376H87.1661C87.019 63.7376 86.9165 63.6804 86.8593 63.5584L85.2772 60.613H83.414V63.4691C83.414 63.642 83.331 63.7313 83.1581 63.7313H82.9405C82.7739 63.7313 82.684 63.642 82.684 63.4691V56.5918H82.6909L82.6777 56.5729ZM85.1621 59.9471C85.6042 59.9471 85.9563 59.8063 86.2254 59.5246C86.4939 59.2492 86.6222 58.8649 86.6222 58.3977C86.6222 58.1028 86.5518 57.8406 86.4172 57.6098C86.2826 57.386 86.0846 57.2131 85.8475 57.098C85.7255 57.0464 85.5979 57.0144 85.457 56.9955C85.3162 56.9697 85.1238 56.9634 84.8804 56.9634H83.4077V59.9471H85.1621Z" fill="black"/>
<path d="M89.3839 59.9665C89.3839 59.4345 89.4801 58.9353 89.6719 58.4744C89.8574 58.0134 90.1202 57.6097 90.4598 57.2708C90.7987 56.9312 91.1961 56.6621 91.6508 56.4703C92.1054 56.2716 92.611 56.1754 93.1492 56.1754C93.6869 56.1754 94.1798 56.2716 94.6408 56.4703C95.0954 56.6621 95.4991 56.9312 95.8317 57.2639C96.1713 57.6034 96.4341 58.0002 96.6259 58.4681C96.8246 58.9353 96.9202 59.4283 96.9202 59.9596C96.9202 60.4916 96.8246 61.0166 96.6259 61.4901C96.4341 61.9642 96.1713 62.3736 95.8317 62.7194C95.4928 63.0653 95.0954 63.3407 94.6408 63.5394C94.1861 63.7312 93.6869 63.8337 93.1492 63.8337C92.611 63.8337 92.1243 63.7375 91.6571 63.5394C91.2024 63.347 90.7987 63.0716 90.4661 62.7194C90.1265 62.3673 89.8643 61.9642 89.6719 61.4901C89.4801 61.0166 89.3776 60.5042 89.3776 59.9596H89.3839V59.9665ZM90.1397 59.9665C90.1397 60.4274 90.2165 60.8437 90.3699 61.2342C90.5302 61.6247 90.7352 61.9643 91.0037 62.246C91.2666 62.534 91.5866 62.7578 91.9583 62.9119C92.323 63.0716 92.7198 63.1552 93.1492 63.1552C93.5781 63.1552 93.9749 63.0716 94.3402 62.9119C94.7049 62.7515 95.025 62.5277 95.2941 62.246C95.5632 61.958 95.7745 61.6247 95.9279 61.2342C96.0883 60.8437 96.1587 60.4211 96.1587 59.9665C96.1587 59.5119 96.0814 59.1082 95.9279 58.7366C95.7676 58.3524 95.5632 58.0323 95.2941 57.7506C95.025 57.4752 94.7112 57.2639 94.3402 57.1042C93.9749 56.9438 93.5718 56.8608 93.1492 56.8608C92.726 56.8608 92.3167 56.9438 91.9451 57.1042C91.5803 57.2639 91.2603 57.4821 90.9911 57.7569C90.722 58.0323 90.5107 58.3593 90.3636 58.7435C90.2102 59.1208 90.1397 59.5308 90.1397 59.9728V59.9665Z" fill="black"/>
<path d="M98.3784 59.9665C98.3784 59.4157 98.4683 58.9164 98.6538 58.4549C98.8393 57.9939 99.0959 57.5972 99.4285 57.2639C99.7618 56.925 100.146 56.6621 100.601 56.4766C101.048 56.2911 101.555 56.1886 102.092 56.1886C102.541 56.1886 102.995 56.2653 103.437 56.4062C103.879 56.547 104.263 56.7457 104.577 56.9759C104.692 57.0784 104.705 57.2004 104.622 57.3412L104.526 57.4752C104.429 57.6097 104.308 57.6229 104.167 57.5204C103.872 57.3154 103.546 57.1614 103.181 57.04C102.822 56.925 102.464 56.8671 102.118 56.8671C101.683 56.8671 101.285 56.9438 100.921 57.091C100.555 57.2387 100.235 57.45 99.9731 57.7317C99.7102 58.0071 99.5053 58.3335 99.3581 58.7177C99.211 59.1019 99.1405 59.5119 99.1405 59.9665C99.1405 60.4211 99.2173 60.8626 99.3644 61.2531C99.5115 61.6442 99.7235 61.99 99.9857 62.2648C100.249 62.5402 100.569 62.771 100.94 62.9244C101.311 63.0785 101.714 63.1678 102.15 63.1678C102.534 63.1678 102.918 63.0974 103.296 62.9565C103.681 62.8157 104.033 62.617 104.346 62.361C104.481 62.2585 104.602 62.2648 104.705 62.3931L104.801 62.5082C104.897 62.6427 104.89 62.7647 104.775 62.8735C104.417 63.1741 104.001 63.4111 103.526 63.5841C103.053 63.757 102.579 63.84 102.124 63.84C101.573 63.84 101.074 63.7444 100.613 63.5457C100.159 63.347 99.7681 63.0848 99.4285 62.7389C99.0959 62.3931 98.8331 61.99 98.6476 61.5159C98.4614 61.0418 98.3721 60.5236 98.3721 59.9596L98.3784 59.9665Z" fill="black"/>
<path d="M106.108 59.9665C106.108 59.4157 106.198 58.9164 106.384 58.4549C106.569 57.9939 106.826 57.5972 107.158 57.2639C107.492 56.925 107.876 56.6621 108.331 56.4766C108.778 56.2911 109.284 56.1886 109.822 56.1886C110.27 56.1886 110.725 56.2653 111.167 56.4062C111.609 56.547 111.993 56.7457 112.307 56.9759C112.422 57.0784 112.435 57.2004 112.352 57.3412L112.256 57.4752C112.159 57.6097 112.038 57.6229 111.897 57.5204C111.602 57.3154 111.276 57.1614 110.911 57.04C110.552 56.925 110.194 56.8671 109.848 56.8671C109.412 56.8671 109.015 56.9438 108.644 57.091C108.279 57.2387 107.959 57.45 107.696 57.7317C107.434 58.0071 107.229 58.3335 107.082 58.7177C106.935 59.1019 106.864 59.5119 106.864 59.9665C106.864 60.4211 106.941 60.8626 107.088 61.2531C107.235 61.6442 107.446 61.99 107.709 62.2648C107.971 62.5402 108.292 62.771 108.663 62.9244C109.029 63.0848 109.438 63.1678 109.874 63.1678C110.258 63.1678 110.642 63.0974 111.019 62.9565C111.404 62.8157 111.756 62.617 112.069 62.361C112.204 62.2585 112.326 62.2648 112.429 62.3931L112.524 62.5082C112.62 62.6427 112.614 62.7647 112.499 62.8735C112.14 63.1741 111.724 63.4111 111.256 63.5841C110.783 63.757 110.309 63.84 109.854 63.84C109.31 63.84 108.804 63.7444 108.349 63.5457C107.895 63.347 107.504 63.0848 107.165 62.7389C106.838 62.3931 106.569 61.99 106.384 61.5159C106.198 61.0418 106.108 60.5236 106.108 59.9596V59.9665Z" fill="black"/>
<path d="M113.832 59.9665C113.832 59.4345 113.928 58.9353 114.12 58.4744C114.305 58.0071 114.568 57.6097 114.908 57.2708C115.246 56.9312 115.644 56.6621 116.099 56.4703C116.559 56.2716 117.059 56.1754 117.596 56.1754C118.135 56.1754 118.621 56.2716 119.089 56.4703C119.543 56.6621 119.947 56.9312 120.279 57.2639C120.619 57.6034 120.881 58.0002 121.074 58.4681C121.265 58.9353 121.368 59.4283 121.368 59.9596C121.368 60.4916 121.272 61.0166 121.074 61.4901C120.881 61.9642 120.619 62.3736 120.279 62.7194C119.941 63.0653 119.543 63.3407 119.089 63.5394C118.628 63.7312 118.135 63.8337 117.596 63.8337C117.059 63.8337 116.566 63.7375 116.105 63.5394C115.644 63.347 115.246 63.0716 114.914 62.7194C114.574 62.3673 114.312 61.9642 114.12 61.4901C113.928 61.0166 113.825 60.5042 113.825 59.9596H113.832V59.9665ZM114.587 59.9665C114.587 60.4274 114.664 60.8437 114.818 61.2342C114.978 61.6247 115.182 61.9643 115.451 62.246C115.714 62.534 116.034 62.7578 116.405 62.9119C116.777 63.0653 117.174 63.1552 117.596 63.1552C118.02 63.1552 118.423 63.0716 118.788 62.9119C119.153 62.7515 119.473 62.5277 119.742 62.246C120.011 61.958 120.222 61.6247 120.376 61.2342C120.536 60.8437 120.606 60.4211 120.606 59.9665C120.606 59.5119 120.529 59.1082 120.376 58.7366C120.215 58.3524 120.011 58.0323 119.742 57.7506C119.473 57.4752 119.159 57.2639 118.788 57.1042C118.423 56.9438 118.026 56.8608 117.596 56.8608C117.168 56.8608 116.764 56.9438 116.393 57.1042C116.028 57.2639 115.707 57.4821 115.439 57.7569C115.17 58.0323 114.958 58.3593 114.811 58.7435C114.657 59.1208 114.587 59.5308 114.587 59.9728V59.9665Z" fill="black"/>
<path d="M130.114 56.1496C131.869 56.1496 132.804 57.0337 132.804 57.0337L132.407 57.5971C132.407 57.5971 131.523 56.8475 130.146 56.8475C128.315 56.8475 127.08 58.263 127.08 60.0557C127.08 61.8485 128.36 63.296 130.082 63.296C131.555 63.296 132.458 62.1817 132.458 62.1817V60.8946H131.171V60.2286H133.175V63.8468H132.484V63.2765C132.484 63.1168 132.49 62.9564 132.49 62.9564H132.465C132.465 62.9564 131.594 63.9808 130.005 63.9808C127.944 63.9808 126.304 62.3163 126.304 60.062C126.304 57.8084 127.944 56.1565 130.108 56.1565H130.114V56.1496Z" fill="black"/>
<path d="M135.216 56.2779H137.451C138.226 56.2779 138.571 56.3546 138.873 56.4829C139.583 56.7966 140.012 57.5204 140.012 58.4297C140.012 59.454 139.436 60.2419 138.578 60.4721V60.4978C138.578 60.4978 138.655 60.594 138.77 60.7984L140.269 63.5715C140.333 63.6991 140.243 63.8469 140.102 63.8469H139.673C139.603 63.8469 139.539 63.8085 139.507 63.7507L137.848 60.6645H135.94V63.8469H135.197V56.2779H135.204H135.216ZM137.752 59.9986C138.668 59.9986 139.244 59.4031 139.244 58.4617C139.244 57.8405 138.994 57.3733 138.553 57.1425C138.328 57.0205 138.06 56.9633 137.477 56.9633H135.946V60.0111H137.746L137.752 59.9986Z" fill="black"/>
<path d="M145.545 56.1496C147.684 56.1496 149.394 57.8404 149.394 60.0174C149.394 62.1943 147.684 63.9745 145.545 63.9745C143.407 63.9745 141.697 62.2327 141.697 60.0174C141.697 57.8021 143.407 56.1496 145.545 56.1496ZM145.545 63.2828C147.242 63.2828 148.619 61.8617 148.619 60.0111C148.619 58.1605 147.248 56.835 145.545 56.835C143.842 56.835 142.466 58.1988 142.466 60.0111C142.466 61.8233 143.829 63.2828 145.545 63.2828Z" fill="black"/>
<path d="M151.436 56.2779H151.775C151.89 56.2779 151.987 56.3679 151.987 56.4892V61.1443C151.987 62.3101 152.915 63.2703 154.081 63.2829C155.406 63.2961 156.27 62.5082 156.27 61.1701V56.4767C156.27 56.3616 156.36 56.2654 156.481 56.2654H156.808C156.923 56.2654 157.02 56.3547 157.02 56.4767V61.2022C157.02 62.8861 155.848 63.9683 154.138 63.9683C152.428 63.9683 151.237 62.8798 151.237 61.2022V56.4767C151.237 56.3616 151.327 56.2654 151.448 56.2654H151.442L151.436 56.2779Z" fill="black"/>
<path d="M159.363 56.2779H161.976C163.333 56.2779 164.307 57.1614 164.307 58.5642C164.307 59.9665 163.333 60.8757 161.976 60.8757H160.106V63.6991C160.106 63.7827 160.042 63.8469 159.959 63.8469H159.511C159.428 63.8469 159.357 63.7764 159.357 63.6991V56.2779H159.363ZM161.88 60.2029C162.892 60.2029 163.544 59.5886 163.544 58.5573C163.544 57.5267 162.892 56.9438 161.886 56.9438H160.1V60.2029H161.88Z" fill="black"/>
<path d="M172.472 56.1496C173.951 56.1496 174.834 56.8092 175.103 57.0462C175.154 57.0909 175.161 57.1682 175.129 57.2254L174.879 57.565C174.834 57.6229 174.751 57.6417 174.693 57.5971C174.424 57.3795 173.631 56.8475 172.497 56.8475C170.717 56.8475 169.449 58.2246 169.449 60.0111C169.449 61.7975 170.717 63.296 172.516 63.296C173.752 63.296 174.597 62.6364 174.873 62.3804C174.93 62.3289 175.013 62.3352 175.065 62.393L175.327 62.7131C175.372 62.7646 175.366 62.8476 175.315 62.8923C175.027 63.1677 174.053 63.9745 172.51 63.9745C170.275 63.9745 168.681 62.2201 168.681 60.0174C168.681 57.8146 170.314 56.1496 172.478 56.1496H172.472Z" fill="black"/>
<path d="M180.526 56.1496C182.664 56.1496 184.374 57.8404 184.374 60.0174C184.374 62.1943 182.664 63.9745 180.526 63.9745C178.387 63.9745 176.677 62.2327 176.677 60.0174C176.677 57.8021 178.387 56.1496 180.526 56.1496ZM180.526 63.2828C182.222 63.2828 183.599 61.8617 183.599 60.0111C183.599 58.1605 182.229 56.835 180.526 56.835C178.822 56.835 177.446 58.1988 177.446 60.0111C177.446 61.8233 178.81 63.2828 180.526 63.2828Z" fill="black"/>
<path d="M186.848 56.2779H187.315C187.392 56.2779 187.462 56.3225 187.494 56.3936L189.421 60.728C189.594 61.1191 189.787 61.6504 189.787 61.6504H189.812C189.812 61.6504 190.017 61.1122 190.19 60.728L192.117 56.3936C192.149 56.3225 192.213 56.2779 192.296 56.2779H192.751C192.853 56.2779 192.937 56.3546 192.943 56.4571L193.513 63.6608C193.519 63.757 193.443 63.8469 193.34 63.8469H192.943C192.853 63.8469 192.777 63.7765 192.77 63.6865L192.367 58.551C192.335 58.148 192.342 57.5009 192.342 57.5009H192.316C192.316 57.5009 192.092 58.1668 191.919 58.551L190.151 62.4314H189.453L187.673 58.551C187.5 58.1731 187.27 57.4751 187.27 57.4751H187.244C187.244 57.4751 187.251 58.141 187.219 58.551L186.816 63.6865C186.816 63.7765 186.732 63.8469 186.643 63.8469H186.245C186.15 63.8469 186.066 63.7632 186.072 63.6608L186.643 56.4571C186.649 56.3615 186.732 56.2779 186.834 56.2779H186.848Z" fill="black"/>
<path d="M195.741 56.4955C195.741 56.3741 195.837 56.2779 195.958 56.2779H198.354C199.711 56.2779 200.684 57.1614 200.684 58.5642C200.684 59.9665 199.711 60.8757 198.354 60.8757H196.484V63.6802C196.484 63.7764 196.407 63.8532 196.311 63.8532H195.914C195.818 63.8532 195.741 63.7764 195.741 63.6802V56.5087V56.4955ZM198.257 60.2029C199.269 60.2029 199.922 59.5886 199.922 58.5573C199.922 57.5267 199.269 56.9438 198.264 56.9438H196.477V60.2029H198.257Z" fill="black"/>
<path d="M205.845 61.4329H202.797L201.977 63.7312C201.952 63.8017 201.888 63.8469 201.811 63.8469H201.388C201.267 63.8469 201.184 63.7249 201.222 63.6162L203.854 56.4251C203.886 56.3358 203.963 56.2842 204.065 56.2842H204.552C204.641 56.2842 204.725 56.3421 204.763 56.4251L207.395 63.6162C207.433 63.7312 207.35 63.8469 207.228 63.8469H206.805C206.729 63.8469 206.671 63.8017 206.639 63.7312L205.807 61.4329H205.833H205.845ZM204.315 57.0595C204.315 57.0595 204.155 57.6802 204.02 58.0323L203.009 60.7796H205.614L204.622 58.0323C204.494 57.6802 204.327 57.0595 204.327 57.0595H204.302H204.308H204.315Z" fill="black"/>
<path d="M209.128 56.2779H209.634C209.678 56.2779 209.724 56.3037 209.756 56.3357L213.572 61.7209C213.828 62.0988 214.193 62.7452 214.193 62.7452H214.218C214.218 62.7452 214.154 62.1239 214.154 61.7209V56.4187C214.154 56.3357 214.218 56.2779 214.296 56.2779H214.743C214.827 56.2779 214.884 56.3483 214.884 56.4187V63.6802C214.884 63.7695 214.808 63.84 214.725 63.84H214.244C214.193 63.84 214.148 63.8148 214.116 63.7695L210.306 58.3913C210.05 58.0134 209.685 57.3664 209.685 57.3664H209.66C209.66 57.3664 209.73 57.9876 209.73 58.3913V63.6802C209.73 63.7695 209.653 63.84 209.57 63.84H209.147C209.058 63.84 208.987 63.7632 208.987 63.6802V56.4187C208.987 56.3357 209.058 56.2779 209.128 56.2779Z" fill="black"/>
<path d="M218.946 60.594L216.462 56.3936C216.43 56.342 216.462 56.2779 216.532 56.2779H217.205C217.205 56.2779 217.256 56.2911 217.276 56.3162L218.857 59.0189C219.081 59.4094 219.324 59.9212 219.324 59.9212H219.35C219.35 59.9212 219.574 59.4156 219.817 59.0189L221.399 56.3162C221.399 56.3162 221.438 56.2779 221.47 56.2779H222.129C222.187 56.2779 222.225 56.3483 222.199 56.3936L219.728 60.594V63.6802C219.728 63.7695 219.651 63.84 219.568 63.84H219.139C219.049 63.84 218.978 63.7632 218.978 63.6802V60.594H218.946Z" fill="black"/>
<path d="M65.5228 61.4391H62.4813L61.6167 63.8532H60.8288L63.6081 56.2911H64.4023L67.181 63.8532H66.3931L65.5228 61.4391ZM63.9923 57.0658C63.9923 57.0658 63.832 57.687 63.6974 58.0392L62.6856 60.7795H65.2921L64.2998 58.0392C64.1715 57.687 64.0049 57.0658 64.0049 57.0658H63.9791H63.986H63.9923Z" fill="black"/>
<path d="M60.4998 14.8554H77.3079V18.2361H64.5273V28.6096H76.3351V31.9454H64.5273V46.071H60.4998V14.8554Z" fill="#00A2E0"/>
<path d="M82.2829 13.1844H86.3551V46.0649H82.2829V13.1844Z" fill="#00A2E0"/>
<path d="M113.575 34.6732C113.575 42.966 107.831 46.5772 102.414 46.5772C96.3503 46.5772 91.6694 42.1334 91.6694 35.0449C91.6694 27.54 96.5811 23.1415 102.786 23.1415C108.99 23.1415 113.575 27.8154 113.575 34.6732ZM95.7932 34.904C95.7932 39.815 98.6172 43.5162 102.6 43.5162C106.583 43.5162 109.406 39.8603 109.406 34.8078C109.406 31.011 107.505 26.1956 102.689 26.1956C97.8745 26.1956 95.7869 30.6394 95.7869 34.904H95.7932Z" fill="#00A2E0"/>
<path d="M118.959 30.6457C118.959 28.0078 118.914 25.7347 118.774 23.6533H122.34L122.481 28.0525H122.667C123.685 25.043 126.138 23.1415 128.872 23.1415C129.333 23.1415 129.659 23.1861 130.031 23.2823V27.1244C129.614 27.0344 129.198 26.9835 128.641 26.9835C125.772 26.9835 123.73 29.1604 123.179 32.2146C123.09 32.7717 122.994 33.4187 122.994 34.1167V46.0648H118.966V30.6457H118.959Z" fill="#00A2E0"/>
<path d="M136.236 35.602C136.326 41.1154 139.848 43.3816 143.926 43.3816C146.846 43.3816 148.601 42.8698 150.131 42.2227L150.822 45.1429C149.388 45.7893 146.929 46.5326 143.369 46.5326C136.466 46.5326 132.349 41.9926 132.349 35.2304C132.349 28.4687 136.332 23.1415 142.863 23.1415C150.182 23.1415 152.123 29.5767 152.123 33.7005C152.123 34.5324 152.033 35.1794 151.982 35.602H136.236ZM148.184 32.6824C148.229 30.0886 147.122 26.061 142.537 26.061C138.413 26.061 136.607 29.8584 136.287 32.6824H148.191H148.184Z" fill="#00A2E0"/>
<path d="M157.245 29.7176C157.245 27.3992 157.201 25.504 157.06 23.6534H160.671L160.902 27.3608H160.991C162.105 25.2285 164.699 23.1478 168.4 23.1478C171.506 23.1478 176.321 24.9984 176.321 32.6888V46.0711H172.248V33.1497C172.248 29.5384 170.904 26.5289 167.062 26.5289C164.379 26.5289 162.291 28.4304 161.6 30.6973C161.414 31.2092 161.324 31.9009 161.324 32.5988V46.078H157.252V29.7302L157.245 29.7176Z" fill="#00A2E0"/>
<path d="M199.249 45.2323C198.186 45.7895 195.823 46.5321 192.814 46.5321C186.052 46.5321 181.653 41.9474 181.653 35.0959C181.653 28.245 186.378 23.1925 193.691 23.1925C196.099 23.1925 198.231 23.7943 199.339 24.3514L198.41 27.5018C197.437 26.9446 195.907 26.4391 193.685 26.4391C188.543 26.4391 185.764 30.2365 185.764 34.9167C185.764 40.1038 189.1 43.2988 193.544 43.2988C195.862 43.2988 197.386 42.697 198.545 42.1845L199.236 45.2393L199.249 45.2323Z" fill="#00A2E0"/>
<path d="M206.339 35.602C206.428 41.1154 209.95 43.3816 214.029 43.3816C216.948 43.3816 218.703 42.8698 220.233 42.2227L220.925 45.1429C219.491 45.7893 217.032 46.5326 213.472 46.5326C206.569 46.5326 202.452 41.9926 202.452 35.2304C202.452 28.4687 206.435 23.1415 212.966 23.1415C220.285 23.1415 222.225 29.5767 222.225 33.7005C222.225 34.5324 222.135 35.1794 222.084 35.602H206.339ZM218.287 32.6824C218.332 30.0886 217.224 26.061 212.639 26.061C208.515 26.061 206.71 29.8584 206.389 32.6824H218.293H218.287Z" fill="#00A2E0"/>
<path d="M227.571 46.0648V14.8554H231.97L241.972 30.6457C244.29 34.3022 246.096 37.5934 247.575 40.7884L247.665 40.7438C247.293 36.5754 247.203 32.778 247.203 27.9179V14.8554H251.001V46.071H246.929L237.016 30.2357C234.839 26.7653 232.758 23.1987 231.182 19.8182L231.042 19.8628C231.272 23.8005 231.369 27.5532 231.369 32.7396V46.0773H227.571V46.0648Z" fill="#00A2E0"/>
<path d="M260.451 35.602C260.541 41.1154 264.063 43.3816 268.141 43.3816C271.061 43.3816 272.816 42.8698 274.346 42.2227L275.037 45.1429C273.603 45.7893 271.144 46.5326 267.584 46.5326C260.682 46.5326 256.564 41.9926 256.564 35.2304C256.564 28.4687 260.547 23.1415 267.079 23.1415C274.397 23.1415 276.338 29.5767 276.338 33.7005C276.338 34.5324 276.248 35.1794 276.197 35.602H260.451ZM272.4 32.6824C272.444 30.0886 271.337 26.061 266.752 26.061C262.628 26.061 260.823 29.8584 260.502 32.6824H272.406H272.4Z" fill="#00A2E0"/>
<path d="M283.216 23.6534L286.411 28.4688C287.243 29.7176 287.941 30.8765 288.677 32.1247H288.818C289.562 30.7803 290.298 29.6214 291.041 28.4172L294.191 23.6471H298.59L290.951 34.4815L298.827 46.0585H294.197L290.912 41.0129C290.035 39.7126 289.292 38.4644 288.505 37.1194H288.415C287.673 38.4644 286.885 39.6679 286.052 41.0129L282.813 46.0585H278.317L286.283 34.6223L278.689 23.6471H283.229L283.216 23.6534Z" fill="#00A2E0"/>
<path d="M308.571 17.2183V23.6534H314.404V26.7591H308.571V38.8486C308.571 41.6273 309.359 43.2025 311.625 43.2025C312.688 43.2025 313.475 43.0617 313.988 42.9271L314.173 45.9818C313.386 46.3082 312.137 46.539 310.562 46.539C308.661 46.539 307.136 45.9366 306.163 44.823C305.004 43.6188 304.588 41.6273 304.588 38.9895V26.7654H301.117V23.6603H304.588V18.2878L308.571 17.2248V17.2183Z" fill="#00A2E0"/>
</svg>
