<svg width="703" height="170" viewBox="0 0 703 170" fill="none" xmlns="http://www.w3.org/2000/svg">
<g clip-path="url(#clip0_0_61)">
<path d="M27.7188 132.855L93.2653 93.6097C95.9999 91.9632 99.651 89.0424 99.651 83.8164V119.768C99.651 126.884 96.4295 128.788 93.2653 130.664L27.7188 169.937V132.855Z" fill="#CAC0A9"/>
<path d="M0.0273282 102.286C0.0273282 107.44 2.86224 110.175 6.37008 112.337C9.92087 114.499 21.1889 121.171 21.1889 121.171L52.9886 102.286L21.375 83.5725L6.32713 92.4924C3.62108 94.096 -0.015625 97.0598 -0.015625 102.286H0.0130104H0.0273282Z" fill="#00A2E0"/>
<path d="M99.7945 0V37.0543L6.3857 92.5211C3.65102 94.1676 0 97.1028 0 102.314V66.3626C0 59.2467 3.22149 57.3425 6.3857 55.4669L99.7945 0Z" fill="#CAC0A9"/>
<path d="M99.8206 83.7873C99.8206 78.6329 96.9857 75.8982 93.4779 73.7363C89.9271 71.5743 78.659 64.9022 78.659 64.9022L46.8594 83.7873L78.4729 102.501L93.5208 93.5806C96.2269 91.977 99.8636 88.9989 99.8636 83.7873H99.8349H99.8206Z" fill="#00A2E0"/>
<path d="M161.418 141.015C161.132 140.758 161.117 140.5 161.346 140.199L161.633 139.841C161.847 139.569 162.119 139.555 162.449 139.77C162.964 140.228 163.58 140.571 164.239 140.829C164.926 141.087 165.599 141.201 166.257 141.201C167.26 141.201 168.076 140.944 168.691 140.428C169.307 139.913 169.622 139.226 169.622 138.381C169.622 137.694 169.422 137.121 169.006 136.663C168.605 136.204 168.09 135.818 167.474 135.503C166.873 135.188 166.2 134.859 165.498 134.572C164.797 134.286 164.138 133.957 163.523 133.57C162.907 133.183 162.406 132.711 161.991 132.181C161.59 131.623 161.375 130.921 161.375 130.062C161.375 129.418 161.504 128.817 161.747 128.287C162.005 127.743 162.349 127.285 162.821 126.869C163.294 126.483 163.823 126.168 164.468 125.939C165.112 125.724 165.799 125.609 166.544 125.609C167.245 125.609 167.975 125.738 168.691 125.982C169.436 126.211 170.052 126.526 170.567 126.912C170.853 127.127 170.896 127.399 170.696 127.685L170.481 128.058C170.281 128.387 169.994 128.444 169.665 128.23C168.591 127.528 167.532 127.17 166.472 127.17C165.957 127.17 165.484 127.242 165.055 127.37C164.639 127.499 164.267 127.685 163.966 127.943C163.666 128.201 163.422 128.502 163.265 128.831C163.093 129.16 163.007 129.532 163.007 129.962C163.007 130.621 163.208 131.165 163.623 131.594C164.024 132.009 164.554 132.382 165.155 132.697C165.756 133.012 166.429 133.312 167.131 133.584C167.832 133.856 168.491 134.2 169.107 134.587C169.722 134.973 170.238 135.446 170.639 136.033C171.039 136.605 171.24 137.321 171.24 138.209C171.24 138.882 171.125 139.498 170.868 140.056C170.61 140.614 170.281 141.101 169.822 141.502C169.364 141.903 168.835 142.204 168.233 142.433C167.617 142.647 166.945 142.762 166.2 142.762C165.341 142.762 164.496 142.576 163.609 142.275C162.735 141.975 161.976 141.559 161.346 141.015H161.404H161.418Z" fill="white"/>
<path d="M176.465 126.497C176.465 126.111 176.651 125.91 177.038 125.91H177.524C177.897 125.91 178.097 126.111 178.097 126.497V141.874C178.097 142.261 177.911 142.461 177.524 142.461H177.038C176.665 142.461 176.465 142.261 176.465 141.874V126.497Z" fill="white"/>
<path d="M184.855 126.497C184.855 126.111 185.042 125.91 185.428 125.91H189.91C190.611 125.91 191.198 125.939 191.671 126.01C192.143 126.082 192.558 126.197 192.916 126.383C193.704 126.755 194.305 127.313 194.735 128.029C195.164 128.745 195.379 129.59 195.379 130.535C195.379 131.666 195.093 132.654 194.52 133.47C193.947 134.286 193.203 134.844 192.258 135.116V135.174C192.258 135.174 192.344 135.303 192.415 135.431C192.487 135.56 192.587 135.689 192.687 135.847L195.909 141.831C196.023 142.046 196.038 142.218 195.966 142.333C195.88 142.447 195.737 142.519 195.508 142.519H194.892C194.563 142.519 194.334 142.39 194.205 142.118L190.668 135.532H186.502V141.917C186.502 142.304 186.316 142.504 185.929 142.504H185.443C185.07 142.504 184.87 142.304 184.87 141.917V126.54H184.884L184.855 126.497ZM190.411 134.043C191.399 134.043 192.186 133.728 192.787 133.098C193.389 132.482 193.675 131.623 193.675 130.578C193.675 129.919 193.518 129.332 193.217 128.817C192.916 128.316 192.472 127.929 191.943 127.671C191.671 127.557 191.384 127.485 191.069 127.442C190.754 127.385 190.325 127.371 189.781 127.371H186.488V134.043H190.411Z" fill="white"/>
<path d="M199.846 134.085C199.846 132.897 200.061 131.78 200.491 130.749C200.906 129.719 201.493 128.817 202.252 128.058C203.011 127.299 203.898 126.698 204.915 126.268C205.931 125.824 207.062 125.609 208.265 125.609C209.468 125.609 210.57 125.824 211.601 126.268C212.618 126.698 213.52 127.299 214.264 128.043C215.023 128.802 215.61 129.69 216.04 130.735C216.484 131.78 216.698 132.883 216.698 134.071C216.698 135.26 216.484 136.434 216.04 137.493C215.61 138.553 215.023 139.469 214.264 140.242C213.505 141.015 212.618 141.631 211.601 142.075C210.585 142.504 209.468 142.733 208.265 142.733C207.062 142.733 205.974 142.519 204.929 142.075C203.913 141.645 203.011 141.03 202.266 140.242C201.507 139.455 200.92 138.553 200.491 137.493C200.061 136.434 199.832 135.288 199.832 134.071H199.846V134.085ZM201.536 134.085C201.536 135.116 201.708 136.047 202.051 136.92C202.409 137.794 202.867 138.553 203.469 139.183C204.056 139.827 204.772 140.328 205.602 140.672C206.418 141.03 207.306 141.216 208.265 141.216C209.224 141.216 210.112 141.03 210.928 140.672C211.744 140.314 212.46 139.813 213.062 139.183C213.663 138.538 214.135 137.794 214.479 136.92C214.837 136.047 214.994 135.102 214.994 134.085C214.994 133.069 214.823 132.167 214.479 131.336C214.121 130.477 213.663 129.762 213.062 129.132C212.46 128.516 211.759 128.043 210.928 127.685C210.112 127.327 209.21 127.141 208.265 127.141C207.32 127.141 206.404 127.327 205.573 127.685C204.757 128.043 204.041 128.53 203.44 129.146C202.839 129.762 202.366 130.492 202.037 131.351C201.693 132.196 201.536 133.112 201.536 134.1V134.085Z" fill="white"/>
<path d="M219.964 134.085C219.964 132.854 220.164 131.737 220.579 130.706C220.994 129.675 221.567 128.788 222.312 128.043C223.056 127.284 223.915 126.697 224.932 126.282C225.934 125.867 227.065 125.638 228.268 125.638C229.27 125.638 230.287 125.81 231.275 126.124C232.262 126.439 233.122 126.883 233.823 127.399C234.081 127.628 234.109 127.9 233.923 128.215L233.709 128.516C233.494 128.816 233.222 128.845 232.907 128.616C232.248 128.158 231.518 127.814 230.702 127.542C229.9 127.284 229.098 127.155 228.325 127.155C227.351 127.155 226.464 127.327 225.648 127.656C224.832 127.986 224.116 128.458 223.529 129.088C222.942 129.704 222.483 130.434 222.154 131.293C221.825 132.152 221.667 133.069 221.667 134.085C221.667 135.102 221.839 136.09 222.168 136.963C222.498 137.836 222.97 138.61 223.557 139.225C224.144 139.841 224.86 140.356 225.691 140.7C226.521 141.044 227.423 141.244 228.397 141.244C229.256 141.244 230.115 141.087 230.96 140.772C231.819 140.457 232.606 140.013 233.308 139.44C233.608 139.211 233.88 139.225 234.109 139.512L234.324 139.769C234.539 140.07 234.525 140.342 234.267 140.585C233.465 141.258 232.534 141.788 231.475 142.175C230.415 142.561 229.356 142.747 228.339 142.747C227.108 142.747 225.991 142.533 224.96 142.089C223.944 141.645 223.07 141.058 222.312 140.285C221.567 139.512 220.98 138.61 220.565 137.55C220.15 136.491 219.949 135.331 219.949 134.071L219.964 134.085Z" fill="white"/>
<path d="M237.246 134.085C237.246 132.854 237.447 131.737 237.862 130.706C238.277 129.675 238.85 128.788 239.594 128.043C240.339 127.284 241.198 126.697 242.214 126.282C243.217 125.867 244.348 125.638 245.55 125.638C246.553 125.638 247.569 125.81 248.557 126.124C249.545 126.439 250.404 126.883 251.106 127.399C251.363 127.628 251.392 127.9 251.206 128.215L250.991 128.516C250.776 128.816 250.504 128.845 250.189 128.616C249.531 128.158 248.8 127.814 247.984 127.542C247.183 127.284 246.381 127.155 245.608 127.155C244.634 127.155 243.746 127.327 242.916 127.656C242.1 127.986 241.384 128.458 240.797 129.088C240.21 129.704 239.752 130.434 239.422 131.293C239.093 132.152 238.936 133.069 238.936 134.085C238.936 135.102 239.107 136.09 239.437 136.963C239.766 137.836 240.238 138.61 240.826 139.225C241.413 139.841 242.128 140.356 242.959 140.7C243.775 141.058 244.691 141.244 245.665 141.244C246.524 141.244 247.383 141.087 248.228 140.772C249.087 140.457 249.874 140.013 250.576 139.44C250.877 139.211 251.149 139.225 251.378 139.512L251.592 139.769C251.807 140.07 251.793 140.342 251.535 140.585C250.733 141.258 249.803 141.788 248.758 142.175C247.698 142.561 246.639 142.747 245.622 142.747C244.405 142.747 243.274 142.533 242.257 142.089C241.241 141.645 240.367 141.058 239.609 140.285C238.878 139.512 238.277 138.61 237.862 137.55C237.447 136.491 237.246 135.331 237.246 134.071V134.085Z" fill="white"/>
<path d="M254.514 134.085C254.514 132.897 254.729 131.78 255.159 130.749C255.574 129.704 256.161 128.817 256.92 128.058C257.679 127.299 258.566 126.698 259.583 126.268C260.614 125.824 261.73 125.609 262.933 125.609C264.136 125.609 265.224 125.824 266.269 126.268C267.286 126.698 268.188 127.299 268.932 128.043C269.691 128.802 270.278 129.69 270.708 130.735C271.137 131.78 271.366 132.883 271.366 134.071C271.366 135.26 271.152 136.434 270.708 137.493C270.278 138.553 269.691 139.469 268.932 140.242C268.173 141.015 267.286 141.631 266.269 142.075C265.238 142.504 264.136 142.733 262.933 142.733C261.73 142.733 260.628 142.519 259.597 142.075C258.566 141.645 257.679 141.03 256.934 140.242C256.175 139.455 255.588 138.553 255.159 137.493C254.729 136.434 254.5 135.288 254.5 134.071H254.514V134.085ZM256.204 134.085C256.204 135.116 256.376 136.047 256.719 136.92C257.077 137.794 257.535 138.553 258.137 139.183C258.724 139.827 259.44 140.328 260.27 140.672C261.1 141.015 261.988 141.216 262.933 141.216C263.878 141.216 264.78 141.03 265.596 140.672C266.412 140.314 267.128 139.813 267.73 139.183C268.331 138.538 268.803 137.794 269.147 136.92C269.505 136.047 269.662 135.102 269.662 134.085C269.662 133.069 269.491 132.167 269.147 131.336C268.789 130.477 268.331 129.762 267.73 129.132C267.128 128.516 266.427 128.043 265.596 127.685C264.78 127.327 263.892 127.141 262.933 127.141C261.974 127.141 261.072 127.327 260.241 127.685C259.425 128.043 258.709 128.53 258.108 129.146C257.507 129.762 257.034 130.492 256.705 131.351C256.361 132.196 256.204 133.112 256.204 134.1V134.085Z" fill="white"/>
<path d="M290.925 125.552C294.848 125.552 296.939 127.528 296.939 127.528L296.051 128.788C296.051 128.788 294.075 127.113 290.997 127.113C286.902 127.113 284.139 130.277 284.139 134.286C284.139 138.295 287.002 141.531 290.854 141.531C294.147 141.531 296.166 139.039 296.166 139.039V136.161H293.288V134.672H297.769V142.762H296.223V141.488C296.223 141.13 296.237 140.772 296.237 140.772H296.18C296.18 140.772 294.233 143.063 290.682 143.063C286.072 143.063 282.406 139.34 282.406 134.3C282.406 129.26 286.072 125.566 290.911 125.566H290.925V125.552Z" fill="white"/>
<path d="M302.332 125.839H307.329C309.061 125.839 309.835 126.01 310.508 126.297C312.097 126.998 313.056 128.616 313.056 130.649C313.056 132.94 311.768 134.701 309.849 135.217V135.274C309.849 135.274 310.021 135.489 310.278 135.947L313.629 142.146C313.772 142.433 313.572 142.762 313.257 142.762H312.297C312.14 142.762 311.997 142.676 311.925 142.547L308.217 135.646H303.95V142.762H302.289V125.839H302.303H302.332ZM308.002 134.157C310.049 134.157 311.338 132.826 311.338 130.721C311.338 129.332 310.78 128.287 309.792 127.771C309.291 127.499 308.689 127.371 307.386 127.371H303.964V134.186H307.988L308.002 134.157Z" fill="white"/>
<path d="M325.425 125.552C330.207 125.552 334.03 129.332 334.03 134.2C334.03 139.068 330.207 143.048 325.425 143.048C320.643 143.048 316.82 139.154 316.82 134.2C316.82 129.246 320.643 125.552 325.425 125.552ZM325.425 141.502C329.219 141.502 332.298 138.323 332.298 134.185C332.298 130.048 329.234 127.084 325.425 127.084C321.617 127.084 318.538 130.134 318.538 134.185C318.538 138.237 321.588 141.502 325.425 141.502Z" fill="white"/>
<path d="M338.596 125.838H339.355C339.613 125.838 339.828 126.039 339.828 126.311V136.72C339.828 139.326 341.904 141.473 344.509 141.502C347.473 141.531 349.406 139.77 349.406 136.777V126.282C349.406 126.025 349.607 125.81 349.879 125.81H350.609C350.866 125.81 351.081 126.01 351.081 126.282V136.849C351.081 140.614 348.461 143.034 344.638 143.034C340.815 143.034 338.152 140.6 338.152 136.849V126.282C338.152 126.025 338.353 125.81 338.625 125.81H338.611L338.596 125.838Z" fill="white"/>
<path d="M356.323 125.839H362.165C365.2 125.839 367.376 127.814 367.376 130.95C367.376 134.086 365.2 136.119 362.165 136.119H357.984V142.433C357.984 142.619 357.841 142.762 357.654 142.762H356.652C356.466 142.762 356.309 142.605 356.309 142.433V125.839H356.323ZM361.95 134.615C364.212 134.615 365.672 133.241 365.672 130.936C365.672 128.631 364.212 127.328 361.964 127.328H357.969V134.615H361.95Z" fill="white"/>
<path d="M385.632 125.552C388.94 125.552 390.916 127.027 391.517 127.556C391.631 127.657 391.646 127.828 391.574 127.957L391.016 128.716C390.916 128.845 390.729 128.888 390.601 128.788C389.999 128.301 388.224 127.113 385.69 127.113C381.709 127.113 378.874 130.191 378.874 134.185C378.874 138.18 381.709 141.53 385.733 141.53C388.496 141.53 390.386 140.056 391.001 139.483C391.13 139.368 391.316 139.383 391.431 139.512L392.018 140.228C392.118 140.342 392.104 140.528 391.989 140.628C391.345 141.244 389.169 143.048 385.718 143.048C380.721 143.048 377.156 139.125 377.156 134.2C377.156 129.274 380.807 125.552 385.647 125.552H385.632Z" fill="white"/>
<path d="M403.648 125.552C408.43 125.552 412.253 129.332 412.253 134.2C412.253 139.068 408.43 143.048 403.648 143.048C398.866 143.048 395.043 139.154 395.043 134.2C395.043 129.246 398.866 125.552 403.648 125.552ZM403.648 141.502C407.442 141.502 410.52 138.323 410.52 134.186C410.52 130.048 407.456 127.084 403.648 127.084C399.839 127.084 396.761 130.134 396.761 134.186C396.761 138.237 399.811 141.502 403.648 141.502Z" fill="white"/>
<path d="M417.776 125.839H418.822C418.993 125.839 419.151 125.939 419.223 126.096L423.532 135.789C423.919 136.663 424.348 137.851 424.348 137.851H424.406C424.406 137.851 424.864 136.648 425.25 135.789L429.56 126.096C429.632 125.939 429.775 125.839 429.961 125.839H430.977C431.206 125.839 431.393 126.01 431.407 126.239L432.681 142.347C432.696 142.562 432.524 142.762 432.295 142.762H431.407C431.206 142.762 431.035 142.605 431.02 142.404L430.118 130.921C430.047 130.019 430.061 128.573 430.061 128.573H430.004C430.004 128.573 429.503 130.062 429.116 130.921L425.164 139.598H423.604L419.623 130.921C419.237 130.077 418.721 128.516 418.721 128.516H418.664C418.664 128.516 418.678 130.005 418.607 130.921L417.705 142.404C417.705 142.605 417.519 142.762 417.318 142.762H416.431C416.216 142.762 416.03 142.576 416.044 142.347L417.318 126.239C417.333 126.025 417.519 125.839 417.748 125.839H417.776Z" fill="white"/>
<path d="M437.668 126.325C437.668 126.053 437.883 125.839 438.155 125.839H443.51C446.545 125.839 448.721 127.814 448.721 130.95C448.721 134.086 446.545 136.119 443.51 136.119H439.329V142.39C439.329 142.605 439.157 142.776 438.942 142.776H438.055C437.84 142.776 437.668 142.605 437.668 142.39V126.354V126.325ZM443.295 134.615C445.557 134.615 447.017 133.241 447.017 130.936C447.017 128.631 445.557 127.328 443.309 127.328H439.314V134.615H443.295Z" fill="white"/>
<path d="M460.257 137.364H453.442L451.609 142.504C451.552 142.662 451.409 142.762 451.237 142.762H450.292C450.02 142.762 449.834 142.49 449.92 142.247L455.804 126.168C455.876 125.967 456.048 125.853 456.277 125.853H457.365C457.565 125.853 457.751 125.982 457.837 126.168L463.722 142.247C463.808 142.504 463.622 142.762 463.35 142.762H462.405C462.233 142.762 462.104 142.662 462.032 142.504L460.171 137.364H460.228H460.257ZM456.835 127.585C456.835 127.585 456.477 128.974 456.176 129.762L453.914 135.904H459.742L457.522 129.762C457.236 128.974 456.864 127.585 456.864 127.585H456.806H456.821H456.835Z" fill="white"/>
<path d="M467.604 125.839H468.735C468.835 125.839 468.936 125.896 469.007 125.967L477.541 138.009C478.113 138.853 478.929 140.299 478.929 140.299H478.987C478.987 140.299 478.843 138.911 478.843 138.009V126.154C478.843 125.967 478.987 125.839 479.158 125.839H480.161C480.347 125.839 480.476 125.996 480.476 126.154V142.39C480.476 142.59 480.304 142.748 480.118 142.748H479.044C478.929 142.748 478.829 142.691 478.758 142.59L470.239 130.563C469.666 129.719 468.85 128.273 468.85 128.273H468.792C468.792 128.273 468.95 129.661 468.95 130.563V142.39C468.95 142.59 468.778 142.748 468.592 142.748H467.647C467.447 142.748 467.289 142.576 467.289 142.39V126.154C467.289 125.967 467.447 125.839 467.604 125.839Z" fill="white"/>
<path d="M489.552 135.489L483.997 126.096C483.925 125.982 483.997 125.839 484.154 125.839H485.657C485.657 125.839 485.772 125.867 485.815 125.925L489.351 131.967C489.853 132.84 490.397 133.985 490.397 133.985H490.454C490.454 133.985 490.955 132.854 491.499 131.967L495.036 125.925C495.036 125.925 495.121 125.839 495.193 125.839H496.668C496.797 125.839 496.883 125.996 496.825 126.096L491.299 135.489V142.39C491.299 142.59 491.127 142.748 490.941 142.748H489.981C489.781 142.748 489.623 142.576 489.623 142.39V135.489H489.552Z" fill="white"/>
<path d="M146.499 137.379H139.698L137.765 142.777H136.004L142.218 125.867H143.993L150.207 142.777H148.446L146.499 137.379ZM143.077 127.6C143.077 127.6 142.719 128.989 142.418 129.776L140.156 135.904H145.983L143.764 129.776C143.478 128.989 143.105 127.6 143.105 127.6H143.048H143.063H143.077Z" fill="white"/>
<path d="M135.258 33.2173H172.842V40.777H144.264V63.9717H170.666V71.4313H144.264V103.016H135.258V33.2173Z" fill="#00A2E0"/>
<path d="M183.969 29.48H193.075V103.001H183.969V29.48Z" fill="#00A2E0"/>
<path d="M253.938 77.5305C253.938 96.0719 241.095 104.147 228.982 104.147C215.423 104.147 204.957 94.2106 204.957 78.3609C204.957 61.5805 215.939 51.7443 229.813 51.7443C243.686 51.7443 253.938 62.1962 253.938 77.5305ZM214.178 78.0459C214.178 89.0276 220.492 97.3032 229.397 97.3032C238.303 97.3032 244.617 89.1278 244.617 77.8312C244.617 69.3407 240.365 58.5738 229.598 58.5738C218.831 58.5738 214.163 68.5103 214.163 78.0459H214.178Z" fill="#00A2E0"/>
<path d="M265.981 68.5246C265.981 62.6257 265.881 57.5429 265.566 52.8897H273.541L273.856 62.726H274.271C276.548 55.9966 282.032 51.7443 288.145 51.7443C289.176 51.7443 289.906 51.8445 290.737 52.0593V60.6499C289.806 60.4494 288.875 60.3349 287.63 60.3349C281.215 60.3349 276.648 65.2029 275.417 72.0325C275.216 73.2781 275.002 74.7242 275.002 76.2848V103.002H265.996V68.5246H265.981Z" fill="#00A2E0"/>
<path d="M304.609 79.6065C304.809 91.9341 312.684 97.0026 321.804 97.0026C328.333 97.0026 332.256 95.8572 335.678 94.4111L337.225 100.94C334.017 102.386 328.519 104.047 320.559 104.047C305.124 104.047 295.918 93.8956 295.918 78.7761C295.918 63.6566 304.824 51.7443 319.428 51.7443C335.793 51.7443 340.131 66.1336 340.131 75.3542C340.131 77.2155 339.931 78.6616 339.816 79.6065H304.609ZM331.326 73.0777C331.426 67.279 328.949 58.2731 318.697 58.2731C309.477 58.2731 305.439 66.7636 304.723 73.0777H331.34H331.326Z" fill="#00A2E0"/>
<path d="M351.587 66.4484C351.587 61.2654 351.487 57.0273 351.172 52.8895H359.247L359.763 61.1795H359.963C362.454 56.4117 368.253 51.7584 376.529 51.7584C383.473 51.7584 394.24 55.8962 394.24 73.0918V103.016H385.134V74.1227C385.134 66.0475 382.127 59.3182 373.536 59.3182C367.537 59.3182 362.87 63.5705 361.323 68.639C360.908 69.7844 360.708 71.3307 360.708 72.8914V103.03H351.602V66.477L351.587 66.4484Z" fill="#00A2E0"/>
<path d="M445.513 101.14C443.136 102.386 437.853 104.047 431.124 104.047C416.004 104.047 406.168 93.7955 406.168 78.4755C406.168 63.1556 416.734 51.8589 433.085 51.8589C438.469 51.8589 443.237 53.2047 445.714 54.4504L443.637 61.4947C441.461 60.2491 438.039 59.118 433.071 59.118C421.574 59.118 415.36 67.6084 415.36 78.0746C415.36 89.672 422.819 96.8165 432.756 96.8165C437.939 96.8165 441.347 95.4706 443.938 94.3252L445.484 101.155L445.513 101.14Z" fill="#00A2E0"/>
<path d="M461.363 79.6065C461.563 91.9341 469.438 97.0026 478.558 97.0026C485.087 97.0026 489.01 95.8572 492.432 94.4111L493.979 100.94C490.771 102.386 485.273 104.047 477.313 104.047C461.878 104.047 452.672 93.8956 452.672 78.7761C452.672 63.6566 461.577 51.7443 476.182 51.7443C492.547 51.7443 496.885 66.1336 496.885 75.3542C496.885 77.2155 496.685 78.6616 496.57 79.6065H461.363ZM488.08 73.0777C488.18 67.279 485.703 58.2731 475.451 58.2731C466.231 58.2731 462.193 66.7636 461.477 73.0777H488.094H488.08Z" fill="#00A2E0"/>
<path d="M508.84 103.002V33.2173H518.676L541.04 68.5248C546.223 76.7002 550.261 84.0595 553.568 91.2041L553.769 91.1038C552.938 81.783 552.738 73.2926 552.738 62.4254V33.2173H561.228V103.016H552.122L529.958 67.6084C525.09 59.8482 520.437 51.8733 516.915 44.3135L516.6 44.4137C517.115 53.2191 517.33 61.6093 517.33 73.2067V103.03H508.84V103.002Z" fill="#00A2E0"/>
<path d="M582.359 79.6067C582.559 91.9342 590.434 97.0027 599.554 97.0027C606.083 97.0027 610.006 95.8573 613.428 94.4112L614.975 100.94C611.767 102.386 606.269 104.047 598.309 104.047C582.874 104.047 573.668 93.8958 573.668 78.7762C573.668 63.6567 582.574 51.7444 597.178 51.7444C613.543 51.7444 617.881 66.1337 617.881 75.3543C617.881 77.2156 617.681 78.6617 617.566 79.6067H582.359ZM609.076 73.0778C609.176 67.2791 606.699 58.2733 596.447 58.2733C587.227 58.2733 583.189 66.7637 582.473 73.0778H609.09H609.076Z" fill="#00A2E0"/>
<path d="M633.258 52.8896L640.402 63.6565C642.264 66.4484 643.824 69.0399 645.471 71.8319H645.786C647.447 68.8252 649.093 66.2337 650.754 63.5419L657.798 52.8752H667.635L650.554 77.1008L668.164 102.987H657.813L650.468 91.7049C648.506 88.7984 646.845 86.0065 645.084 82.9997H644.884C643.223 86.0065 641.462 88.6982 639.6 91.7049L632.356 102.987H622.305L640.116 77.4158L623.135 52.8752H633.286L633.258 52.8896Z" fill="#00A2E0"/>
<path d="M689.955 38.5005V52.8898H702.998V59.8339H689.955V86.8657C689.955 93.0796 691.716 96.6018 696.784 96.6018C699.161 96.6018 700.922 96.2868 702.068 95.9861L702.483 102.816C700.722 103.546 697.93 104.061 694.408 104.061C690.155 104.061 686.748 102.715 684.571 100.224C681.98 97.5324 681.049 93.0796 681.049 87.1807V59.8482H673.289V52.9041H681.049V40.8915L689.955 38.5148V38.5005Z" fill="#00A2E0"/>
</g>
<defs>
<clipPath id="clip0_0_61">
<rect width="703" height="169.937" fill="white"/>
</clipPath>
</defs>
</svg>
