<svg version="1.1" id="Layer_1" xmlns:x="ns_extend;" xmlns:i="ns_ai;" xmlns:graph="ns_graphs;" xmlns="http://www.w3.org/2000/svg" xmlns:xlink="http://www.w3.org/1999/xlink" x="0px" y="0px" viewBox="0 0 125.9 40" style="enable-background:new 0 0 125.9 40;" xml:space="preserve">
 <style type="text/css">
  .st0{fill:url(#SVGID_1_);}
	.st1{fill:url(#SVGID_2_);}
	.st2{fill:url(#SVGID_3_);}
	.st3{fill:url(#SVGID_4_);}
	.st4{fill-rule:evenodd;clip-rule:evenodd;fill:#181C1F;}
 </style>
 <metadata>
  <sfw xmlns="ns_sfw;">
   <slices>
   </slices>
   <sliceSourceBounds bottomLeftOrigin="true" height="40" width="125.9" x="-83.2" y="-219.8">
   </sliceSourceBounds>
  </sfw>
 </metadata>
 <g>
  <g>
   <linearGradient id="SVGID_1_" gradientUnits="userSpaceOnUse" x1="144.2044" y1="-171.9437" x2="114.7323" y2="-202.0692" gradientTransform="matrix(1 0 0 -1 -106 -153.5263)">
    <stop offset="0" style="stop-color:#11A06B">
    </stop>
    <stop offset="1" style="stop-color:#286FEB">
    </stop>
   </linearGradient>
   <path class="st0" d="M14.7,32.9l-1.1,1.4l2.5,3.9L15.8,40h10.6l0.7-1.8l-4.2-5.3H14.7z">
   </path>
   <linearGradient id="SVGID_2_" gradientUnits="userSpaceOnUse" x1="144.1071" y1="-171.8486" x2="114.635" y2="-201.9741" gradientTransform="matrix(1 0 0 -1 -106 -153.5263)">
    <stop offset="0" style="stop-color:#11A06B">
    </stop>
    <stop offset="1" style="stop-color:#286FEB">
    </stop>
   </linearGradient>
   <path class="st1" d="M20.5,9.4L16.7,16L35.3,38l-0.5,2h8.5l1.5-7.1L24.9,9.4L20.5,9.4z">
   </path>
   <linearGradient id="SVGID_3_" gradientUnits="userSpaceOnUse" x1="135.4391" y1="-163.3685" x2="105.967" y2="-193.494" gradientTransform="matrix(1 0 0 -1 -106 -153.5263)">
    <stop offset="0" style="stop-color:#11A06B">
    </stop>
    <stop offset="1" style="stop-color:#286FEB">
    </stop>
   </linearGradient>
   <path class="st2" d="M23,4.4l-1.8,3.3h4.5l7.7,9.2l4.6-3.8v-2.4l-1.6-2.2l1.2-1.2L28.4,0L23,4.4z">
   </path>
   <linearGradient id="SVGID_4_" gradientUnits="userSpaceOnUse" x1="136.2907" y1="-164.2017" x2="106.8186" y2="-194.3272" gradientTransform="matrix(1 0 0 -1 -106 -153.5263)">
    <stop offset="0" style="stop-color:#11A06B">
    </stop>
    <stop offset="1" style="stop-color:#286FEB">
    </stop>
   </linearGradient>
   <path class="st3" d="M9.1,22.9H6.6L0,31.3V40h7.1l1.3-1.6l5.5-7.1h7.9l2.4-3.7l-8.6-10.2L9.1,22.9z">
   </path>
  </g>
  <path class="st4" d="M77.1,27.4h6.2v-9.5h-6.2V27.4z M77.3,31.2c-1.7,0-2.6-0.3-3.4-1c-1.1-1.1-1.5-2.7-1.5-7.4s0.4-6.3,1.5-7.5
		c0.7-0.7,1.6-1,3.4-1h5.8c1.7,0,2.6,0.3,3.4,1c1.1,1.1,1.5,2.7,1.5,7.5s-0.4,6.3-1.5,7.4c-0.7,0.8-1.6,1-3.4,1H77.3z">
  </path>
  <path class="st4" d="M102,19.6v0.2v11.4h4.7v-12c0-2.5-0.3-3.4-1-4.1c-0.6-0.6-1.6-0.9-3-0.9l-4.1,0l-2.4,2.1v-2.1h-1.6h-3.1v17
		h4.7V17.9h5.8L102,19.6L102,19.6z">
  </path>
  <path class="st4" d="M65.1,9.5h5.6l-8.1,10.2L71,31.2h-5.9l-6.4-9l-1.5,0v9h-5V9.5h5v8.4h1.5L65.1,9.5z">
  </path>
  <path class="st4" d="M121.2,14.2v2.1l-2.4-2.1l-3.5,0c-1.7,0-2.7,0.3-3.5,1c-1,1-1.5,3.3-1.5,7.5c0,4.2,0.4,6.4,1.4,7.4
		c0.8,0.7,1.7,1.1,3.5,1.1h6l0,2.4l-8.3,0l0,1L115,37h6.5c1.7,0,2.7-0.3,3.3-1c0.8-0.8,1.1-1.3,1.1-4.2V14.2L121.2,14.2L121.2,14.2z
		 M121.2,27.4H115v-9.4h6.2L121.2,27.4L121.2,27.4z">
  </path>
 </g>
</svg>