<svg width="302" height="765" viewBox="0 0 302 765" fill="none" xmlns="http://www.w3.org/2000/svg">
<path d="M152.75 442.88C130.009 440.261 115.076 442.365 110.67 446.423C42.7395 508.967 114.753 676.857 122.479 694.399C125.716 681.105 128.963 667.811 132.2 654.516C133.912 673.108 137.076 694.179 142.62 717.01C146.901 734.623 151.955 750.616 157.207 764.88C160.454 749.097 163.492 732.693 166.238 715.681C169.726 694.05 172.461 673.188 174.57 653.187C176.419 664.712 178.277 676.237 180.125 687.752C196.936 665.462 230.25 550.88 213.25 477.38C207.486 441.785 192.803 447.488 152.75 442.88Z" fill="#16385E"/>
<path d="M149.403 447.16C149.403 447.16 132.272 435.506 113.187 447.16C86.3485 463.545 93.3991 536.767 126.887 629.377C129.183 619.611 131.47 609.845 133.767 600.079C140.185 627.967 146.594 655.855 153.013 683.75C160.575 654.915 168.137 626.079 175.699 597.244C177.855 606.911 180.001 616.579 182.157 626.246C207.21 532.969 208.965 460.77 183.2 445.621C166.993 436.09 149.403 447.16 149.403 447.16Z" fill="#00A2E0"/>
<path d="M122.473 430.75C117.939 433.41 114.5 436.481 111.855 439.643C84.6941 472.101 120.69 538.546 122.473 541.75C124.79 537.481 159.554 471.755 132.485 439.335C129.935 436.282 126.683 433.336 122.473 430.75Z" fill="white"/>
<path d="M180.473 430.75C175.939 433.41 172.5 436.481 169.855 439.643C142.694 472.101 178.69 538.546 180.473 541.75C182.79 537.481 217.554 471.755 190.485 439.335C187.935 436.282 184.683 433.336 180.473 430.75Z" fill="white"/>
<path d="M128.391 105.5V112.422" stroke="white" stroke-width="1.5" stroke-linecap="round" stroke-linejoin="round"/>
<path d="M235.96 319.761L299.745 445.456C300.215 446.389 300.439 447.428 300.395 448.472C300.351 449.516 300.041 450.532 299.494 451.423C298.947 452.314 298.181 453.05 297.27 453.562C296.359 454.074 295.332 454.344 294.286 454.348H208.927C206.631 454.363 204.424 453.467 202.788 451.856C201.153 450.245 200.223 448.051 200.203 445.756V322.819L235.96 319.761Z" fill="#2E353A" stroke="#2E353A" stroke-width="1.5" stroke-linecap="round" stroke-linejoin="round"/>
<path d="M285.377 454.141L217.84 321.318L200.262 322.819V445.756C200.262 448.054 201.175 450.259 202.8 451.884C204.426 453.51 206.63 454.423 208.929 454.423H285.49C285.462 454.326 285.424 454.231 285.377 454.141Z" fill="white" stroke="black" stroke-width="1.5" stroke-miterlimit="10"/>
<path d="M66.8931 319.761L3.10796 445.455C2.63805 446.389 2.41451 447.428 2.45858 448.472C2.50265 449.516 2.81286 450.532 3.35975 451.423C3.90665 452.314 4.6721 453.05 5.58348 453.562C6.49486 454.074 7.52193 454.344 8.56723 454.348H93.9643C96.2533 454.353 98.4514 453.452 100.079 451.843C101.706 450.233 102.631 448.045 102.65 445.756V322.819L66.8931 319.761Z" fill="#2E353A" stroke="#2E353A" stroke-width="1.5" stroke-linecap="round" stroke-linejoin="round"/>
<path d="M17.4602 454.141L84.9974 321.318L102.557 322.819V445.756C102.557 448.054 101.644 450.259 100.019 451.884C98.3931 453.51 96.1885 454.423 93.8898 454.423H17.3477L17.4602 454.141Z" fill="white" stroke="black" stroke-width="1.5" stroke-miterlimit="10"/>
<path d="M85.0166 321.318L33.4257 422.774C51.5294 409.867 75.1299 396.885 102.576 390.713V322.819L85.0166 321.318Z" fill="#2D95D7"/>
<path d="M121.843 403.039L99.1057 442.398H144.562L121.843 403.039Z" fill="#2D95D7" stroke="#2E353A" stroke-width="1.5" stroke-linecap="round" stroke-linejoin="round"/>
<path d="M181.352 403.039L158.633 442.398H204.089L181.352 403.039Z" fill="#2D95D7" stroke="#2E353A" stroke-width="1.5" stroke-linecap="round" stroke-linejoin="round"/>
<path d="M145.163 441.985H98.168V450.464H145.163V441.985Z" fill="#2E353A" stroke="#2E353A" stroke-width="1.5" stroke-linecap="round" stroke-linejoin="round"/>
<path d="M204.631 441.985H157.637V450.464H204.631V441.985Z" fill="#2E353A" stroke="#2E353A" stroke-width="1.5" stroke-linecap="round" stroke-linejoin="round"/>
<path d="M159.57 4.5315C158.542 3.35001 157.272 2.40277 155.847 1.75367C154.421 1.10456 152.873 0.768677 151.306 0.768677C149.74 0.768677 148.192 1.10456 146.766 1.75367C145.341 2.40277 144.071 3.35001 143.042 4.5315C121.412 29.4265 64.6055 101.128 64.6055 168.816V366.681L95.8977 423.806H207.165L238.458 366.681V168.816C238.458 101.11 181.332 29.3889 159.57 4.5315Z" fill="white" stroke="black" stroke-width="1.5" stroke-miterlimit="10"/>
<path d="M150.828 8.6402C150.828 5.11326 140.847 26.1436 133.812 35.3361C133.925 34.5482 134.056 33.779 134.168 32.9911C134.168 32.9911 92.3516 86.3079 79.7634 136.492C78.4441 141.655 77.3983 146.884 76.6304 152.157C75.6924 158.46 74.5292 299.463 73.9102 383.772L95.8973 423.806H150.208C149.12 419.698 152.084 400.768 150.828 395.816V8.6402Z" fill="#2D95D7"/>
<path d="M84.6234 363.248C86.1672 363.248 87.4187 361.996 87.4187 360.452C87.4187 358.909 86.1672 357.657 84.6234 357.657C83.0796 357.657 81.8281 358.909 81.8281 360.452C81.8281 361.996 83.0796 363.248 84.6234 363.248Z" stroke="#2E353A" stroke-width="1.5" stroke-linecap="round" stroke-linejoin="round"/>
<path d="M99.8539 363.248C101.398 363.248 102.649 361.996 102.649 360.452C102.649 358.909 101.398 357.657 99.8539 357.657C98.3101 357.657 97.0586 358.909 97.0586 360.452C97.0586 361.996 98.3101 363.248 99.8539 363.248Z" stroke="#2E353A" stroke-width="1.5" stroke-linecap="round" stroke-linejoin="round"/>
<path d="M115.088 363.248C116.632 363.248 117.884 361.996 117.884 360.452C117.884 358.909 116.632 357.657 115.088 357.657C113.544 357.657 112.293 358.909 112.293 360.452C112.293 361.996 113.544 363.248 115.088 363.248Z" stroke="#2E353A" stroke-width="1.5" stroke-linecap="round" stroke-linejoin="round"/>
<path d="M130.323 363.248C131.866 363.248 133.118 361.996 133.118 360.452C133.118 358.909 131.866 357.657 130.323 357.657C128.779 357.657 127.527 358.909 127.527 360.452C127.527 361.996 128.779 363.248 130.323 363.248Z" stroke="#2E353A" stroke-width="1.5" stroke-linecap="round" stroke-linejoin="round"/>
<path d="M172.272 363.248C173.816 363.248 175.067 361.996 175.067 360.452C175.067 358.909 173.816 357.657 172.272 357.657C170.728 357.657 169.477 358.909 169.477 360.452C169.477 361.996 170.728 363.248 172.272 363.248Z" stroke="#2E353A" stroke-width="1.5" stroke-linecap="round" stroke-linejoin="round"/>
<path d="M187.502 363.248C189.046 363.248 190.298 361.996 190.298 360.452C190.298 358.909 189.046 357.657 187.502 357.657C185.959 357.657 184.707 358.909 184.707 360.452C184.707 361.996 185.959 363.248 187.502 363.248Z" stroke="#2E353A" stroke-width="1.5" stroke-linecap="round" stroke-linejoin="round"/>
<path d="M202.737 363.248C204.281 363.248 205.532 361.996 205.532 360.452C205.532 358.909 204.281 357.657 202.737 357.657C201.193 357.657 199.941 358.909 199.941 360.452C199.941 361.996 201.193 363.248 202.737 363.248Z" stroke="#2E353A" stroke-width="1.5" stroke-linecap="round" stroke-linejoin="round"/>
<path d="M217.971 363.248C219.515 363.248 220.766 361.996 220.766 360.452C220.766 358.909 219.515 357.657 217.971 357.657C216.427 357.657 215.176 358.909 215.176 360.452C215.176 361.996 216.427 363.248 217.971 363.248Z" stroke="#2E353A" stroke-width="1.5" stroke-linecap="round" stroke-linejoin="round"/>
<path d="M74.793 179.115V364.655" stroke="#2E353A" stroke-width="1.5" stroke-linecap="round" stroke-linejoin="round"/>
<path d="M91.6387 103.924C83.4404 122.121 77.1745 141.688 75.3359 161.161" stroke="#2E353A" stroke-width="1.5" stroke-linecap="round" stroke-linejoin="round"/>
<path d="M159.984 17.3451C159.11 16.1801 157.977 15.2345 156.674 14.5833C155.372 13.9321 153.936 13.593 152.48 13.593C151.023 13.593 149.587 13.9321 148.285 14.5833C146.982 15.2345 145.849 16.1801 144.975 17.3451C127.911 38.7701 112.97 61.8036 100.363 86.1204" stroke="#2E353A" stroke-width="1.5" stroke-linecap="round" stroke-linejoin="round"/>
<path fill-rule="evenodd" clip-rule="evenodd" d="M203.507 171.03C203.358 167.577 201.89 164.312 199.405 161.91C196.921 159.508 193.608 158.151 190.152 158.12C186.696 158.089 183.36 159.385 180.832 161.742C178.304 164.099 176.777 167.336 176.567 170.786C176.567 170.992 176.567 171.18 176.567 171.367C176.55 173.803 177.199 176.196 178.443 178.29L176.004 185.456L183.508 183.093C185.511 184.186 187.755 184.76 190.037 184.762C191.801 184.767 193.548 184.425 195.18 183.754C196.811 183.084 198.295 182.098 199.546 180.854C200.797 179.611 201.79 178.133 202.47 176.505C203.149 174.877 203.502 173.131 203.507 171.367V171.03ZM190.037 182.624C187.815 182.628 185.641 181.976 183.789 180.747L179.437 182.136L180.844 177.952C179.447 176.034 178.692 173.722 178.687 171.349C178.668 170.986 178.668 170.623 178.687 170.26C178.716 167.275 179.931 164.424 182.063 162.334C184.195 160.244 187.07 159.087 190.055 159.117C193.041 159.147 195.892 160.361 197.982 162.493C200.072 164.625 201.229 167.5 201.199 170.486C201.199 170.767 201.199 171.067 201.199 171.349C201.204 174.321 200.033 177.175 197.942 179.287C195.851 181.399 193.009 182.599 190.037 182.624Z" fill="white"/>
<path fill-rule="evenodd" clip-rule="evenodd" d="M196.211 174.069C195.874 173.919 194.335 173.112 193.96 173.018C193.585 172.924 193.435 172.849 193.21 173.168C192.984 173.487 192.347 174.238 192.159 174.463C192.064 174.557 191.936 174.609 191.803 174.609C191.669 174.609 191.541 174.557 191.446 174.463C190.468 174.081 189.566 173.528 188.782 172.831C188.044 172.175 187.411 171.409 186.906 170.56C186.718 170.242 186.906 170.073 187.056 169.904C187.206 169.735 187.375 169.51 187.544 169.322L187.675 169.172L187.882 168.778C187.933 168.69 187.96 168.59 187.96 168.487C187.96 168.385 187.933 168.285 187.882 168.197C187.882 168.047 187.15 166.321 186.869 165.758C186.587 165.195 186.324 165.214 186.118 165.214H185.499C185.331 165.216 185.166 165.254 185.014 165.325C184.862 165.396 184.727 165.499 184.617 165.627C184.24 165.974 183.94 166.398 183.74 166.87C183.539 167.343 183.442 167.852 183.454 168.366C183.463 168.74 183.52 169.112 183.623 169.472C183.876 170.295 184.276 171.064 184.805 171.742C186.176 173.891 188.127 175.608 190.433 176.695C193.791 178.008 193.791 177.577 194.391 177.521C194.853 177.436 195.292 177.253 195.677 176.984C196.062 176.716 196.385 176.368 196.624 175.963C196.84 175.475 196.912 174.934 196.83 174.406C196.645 174.259 196.435 174.145 196.211 174.069Z" fill="white"/>
<path d="M153.753 226.794C148.221 226.794 142.744 225.705 137.634 223.588C132.524 221.471 127.881 218.369 123.969 214.457C120.058 210.546 116.956 205.903 114.839 200.793C112.722 195.683 111.633 190.206 111.633 184.674C111.641 173.509 116.082 162.804 123.981 154.912C131.879 147.019 142.587 142.586 153.753 142.586C164.915 142.586 175.62 147.02 183.513 154.914C191.406 162.807 195.841 173.512 195.841 184.674C195.841 195.84 191.407 206.548 183.515 214.446C175.623 222.344 164.918 226.786 153.753 226.794Z" fill="#2E353A" stroke="#2E353A" stroke-width="1.5" stroke-linecap="round" stroke-linejoin="round"/>
<path d="M153.753 229.255C144.935 229.255 136.316 226.64 128.985 221.742C121.654 216.843 115.94 209.881 112.565 201.735C109.191 193.589 108.308 184.625 110.029 175.977C111.749 167.329 115.995 159.386 122.229 153.151C128.464 146.916 136.408 142.671 145.055 140.95C153.703 139.23 162.667 140.113 170.813 143.487C178.959 146.861 185.922 152.575 190.82 159.907C195.719 167.238 198.333 175.857 198.333 184.674C198.317 196.493 193.614 207.822 185.258 216.179C176.901 224.536 165.571 229.238 153.753 229.255ZM153.753 145.047C143.243 145.047 133.163 149.222 125.732 156.654C118.3 164.085 114.125 174.165 114.125 184.674C114.125 195.184 118.3 205.264 125.732 212.695C133.163 220.127 143.243 224.302 153.753 224.302C164.262 224.302 174.342 220.127 181.773 212.695C189.205 205.264 193.38 195.184 193.38 184.674C193.38 174.165 189.205 164.085 181.773 156.654C174.342 149.222 164.262 145.047 153.753 145.047Z" fill="white" stroke="#2E353A" stroke-width="1.5" stroke-miterlimit="10"/>
<path d="M142.555 201.067L166.763 186.573C167.773 185.965 169.121 184.887 169.121 182.956V196.234C169.121 198.862 167.931 199.566 166.763 200.258L142.555 214.763V201.067Z" fill="#CAC0A9"/>
<path d="M132.328 189.778C132.328 191.682 133.375 192.692 134.671 193.49C135.982 194.289 140.144 196.753 140.144 196.753L151.888 189.778L140.213 182.867L134.655 186.161C133.656 186.753 132.312 187.848 132.312 189.778H132.323H132.328Z" fill="#94C9EB"/>
<path d="M169.173 152.001V165.686L134.675 186.172C133.665 186.78 132.316 187.864 132.316 189.789V176.511C132.316 173.883 133.506 173.179 134.675 172.487L169.173 152.001Z" fill="#CAC0A9"/>
<path d="M169.185 182.946C169.185 181.042 168.138 180.032 166.842 179.234C165.531 178.435 161.369 175.971 161.369 175.971L149.625 182.946L161.301 189.857L166.858 186.563C167.858 185.971 169.201 184.871 169.201 182.946H169.19H169.185Z" fill="#94C9EB"/>
<path d="M151.542 458.569C150.547 458.569 149.593 458.174 148.889 457.47C148.186 456.766 147.79 455.812 147.79 454.817L143.926 323.345C143.923 322.339 144.12 321.342 144.503 320.413C144.887 319.483 145.451 318.638 146.162 317.927C146.873 317.216 147.718 316.652 148.648 316.268C149.578 315.884 150.574 315.688 151.58 315.69C152.584 315.69 153.579 315.889 154.506 316.273C155.434 316.658 156.276 317.222 156.986 317.933C157.695 318.644 158.257 319.488 158.64 320.417C159.022 321.345 159.218 322.34 159.215 323.345L155.313 454.817C155.313 455.311 155.216 455.801 155.026 456.257C154.836 456.714 154.558 457.128 154.208 457.477C153.857 457.825 153.442 458.101 152.984 458.289C152.527 458.476 152.037 458.572 151.542 458.569Z" fill="#2E353A" stroke="#2E353A" stroke-width="1.5" stroke-linecap="round" stroke-linejoin="round"/>
<path d="M151.672 525.768V534.529" stroke="#2E353A" stroke-width="1.5" stroke-linecap="round" stroke-linejoin="round"/>
<path d="M143.042 4.55051C129.092 20.6091 116.315 37.6499 104.809 55.5411H198.029C186.46 37.6119 173.607 20.5452 159.57 4.47547C158.536 3.29862 157.262 2.35714 155.834 1.71449C154.405 1.07185 152.855 0.743001 151.289 0.750113C149.723 0.757225 148.176 1.10013 146.753 1.75572C145.331 2.4113 144.065 3.36433 143.042 4.55051Z" fill="#2E353A" stroke="#2E353A" stroke-width="1.5" stroke-linecap="round" stroke-linejoin="round"/>
<path d="M128.483 52.9897C130.027 52.9897 131.278 51.7382 131.278 50.1945C131.278 48.6507 130.027 47.3992 128.483 47.3992C126.939 47.3992 125.688 48.6507 125.688 50.1945C125.688 51.7382 126.939 52.9897 128.483 52.9897Z" fill="white"/>
<path d="M146.515 50.1945C146.515 50.7518 146.349 51.2966 146.039 51.7598C145.729 52.223 145.289 52.5836 144.773 52.7961C144.258 53.0085 143.691 53.0631 143.145 52.953C142.598 52.8429 142.097 52.573 141.704 52.1776C141.312 51.7822 141.045 51.279 140.939 50.7319C140.832 50.1848 140.89 49.6184 141.106 49.1045C141.322 48.5907 141.686 48.1525 142.151 47.8455C142.616 47.5386 143.162 47.3767 143.72 47.3804C144.088 47.3804 144.453 47.4533 144.794 47.595C145.134 47.7366 145.443 47.9442 145.703 48.2058C145.963 48.4673 146.168 48.7777 146.307 49.119C146.447 49.4603 146.517 49.8258 146.515 50.1945Z" fill="white"/>
<path d="M158.932 52.9897C160.476 52.9897 161.727 51.7382 161.727 50.1945C161.727 48.6507 160.476 47.3992 158.932 47.3992C157.388 47.3992 156.137 48.6507 156.137 50.1945C156.137 51.7382 157.388 52.9897 158.932 52.9897Z" fill="white"/>
<path d="M174.166 52.9897C175.71 52.9897 176.962 51.7382 176.962 50.1945C176.962 48.6507 175.71 47.3992 174.166 47.3992C172.623 47.3992 171.371 48.6507 171.371 50.1945C171.371 51.7382 172.623 52.9897 174.166 52.9897Z" fill="white"/>
<path d="M121.617 50.5319C121.617 50.5319 140.378 20.3466 148.013 11.1353" stroke="white" stroke-width="1.5" stroke-linecap="round" stroke-linejoin="round"/>
<path d="M207.165 423.806L238.458 366.681H64.6055L95.8977 423.806H207.165Z" fill="#2E353A" stroke="#2E353A" stroke-width="1.5" stroke-linecap="round" stroke-linejoin="round"/>
<path d="M100.664 392.833C100.551 392.882 100.448 392.953 100.362 393.042C100.276 393.131 100.208 393.236 100.163 393.351C100.118 393.466 100.095 393.589 100.098 393.712C100.1 393.836 100.127 393.958 100.177 394.071L102.991 400.656C103.064 400.824 103.185 400.967 103.338 401.067C103.491 401.167 103.671 401.22 103.854 401.219C103.977 401.247 104.105 401.247 104.229 401.219C104.342 401.17 104.445 401.099 104.531 401.01C104.617 400.921 104.685 400.816 104.73 400.701C104.776 400.586 104.798 400.463 104.795 400.34C104.793 400.216 104.766 400.094 104.717 399.981L101.903 393.396C101.859 393.277 101.792 393.168 101.706 393.076C101.62 392.983 101.516 392.908 101.401 392.856C101.286 392.804 101.161 392.775 101.035 392.771C100.909 392.767 100.783 392.788 100.664 392.833Z" fill="white"/>
<path d="M105.446 381.652C105.523 381.817 105.644 381.957 105.797 382.057C105.949 382.156 106.127 382.211 106.309 382.215C106.439 382.212 106.568 382.18 106.684 382.121C106.798 382.072 106.9 382.001 106.986 381.912C107.072 381.823 107.14 381.718 107.185 381.603C107.231 381.488 107.253 381.365 107.251 381.242C107.248 381.118 107.221 380.996 107.172 380.883L100.925 366.681H98.8984L105.446 381.652Z" fill="white"/>
<path d="M195.066 397.785C195.196 397.812 195.33 397.812 195.46 397.785C195.637 397.79 195.811 397.743 195.961 397.65C196.111 397.556 196.231 397.421 196.304 397.26L210.637 366.606H208.555L194.578 396.528C194.526 396.643 194.497 396.766 194.493 396.892C194.489 397.018 194.51 397.143 194.556 397.26C194.601 397.378 194.67 397.484 194.758 397.575C194.845 397.665 194.95 397.737 195.066 397.785Z" fill="white"/>
<path d="M103.609 422.118C103.682 422.286 103.803 422.428 103.956 422.528C104.109 422.628 104.289 422.681 104.472 422.681C104.595 422.707 104.723 422.707 104.847 422.681C104.96 422.632 105.063 422.561 105.149 422.472C105.235 422.383 105.303 422.278 105.348 422.163C105.394 422.048 105.416 421.925 105.413 421.801C105.411 421.678 105.384 421.556 105.335 421.442L81.4902 366.756H79.4453L103.609 422.118Z" fill="white"/>
<path d="M221.403 366.681L196.733 417.203C196.678 417.314 196.646 417.434 196.639 417.557C196.631 417.681 196.647 417.804 196.688 417.921C196.728 418.038 196.79 418.145 196.872 418.238C196.954 418.33 197.053 418.406 197.164 418.46C197.291 418.528 197.433 418.561 197.577 418.554C197.751 418.555 197.921 418.506 198.067 418.413C198.214 418.32 198.33 418.186 198.402 418.028L223.485 366.681H221.403Z" fill="white"/>
<path d="M98.3546 389.85C98.4278 390.018 98.5485 390.161 98.7019 390.261C98.8552 390.361 99.0345 390.413 99.2175 390.413C99.341 390.441 99.4693 390.441 99.5927 390.413C99.7063 390.364 99.8091 390.293 99.8952 390.204C99.9812 390.115 100.049 390.01 100.094 389.895C100.14 389.78 100.162 389.657 100.159 389.534C100.157 389.41 100.13 389.288 100.081 389.175L90.494 366.756H88.4491L98.3546 389.85Z" fill="white"/>
<path d="M242.395 203.616V209.807" stroke="#2E353A" stroke-width="1.5" stroke-linecap="round" stroke-linejoin="round"/>
<path d="M242.395 167.184V199.489" stroke="#2E353A" stroke-width="1.5" stroke-linecap="round" stroke-linejoin="round"/>
<path d="M246.074 235.19V260.892" stroke="#2E353A" stroke-width="1.5" stroke-linecap="round" stroke-linejoin="round"/>
<path d="M245.437 175.795V230.65C245.437 230.65 246.844 230.65 247.557 226.729C248.27 222.808 246.844 214.985 248.626 211.721C250.408 208.457 252.903 206.374 253.973 203.166C255.042 199.958 251.478 197.538 252.903 192.116C254.329 186.695 260.408 189.621 259.319 182.492C258.757 178.74 254.592 177.427 251.684 175.776C250.721 175.354 249.929 174.62 249.433 173.694C248.851 172.23 250.69 168.891 249.433 167.803C248.176 166.715 246.3 168.46 245.681 169.679C244.912 171.461 245.437 173.975 245.437 175.795Z" fill="white" stroke="#2E353A" stroke-width="1.5" stroke-miterlimit="10"/>
<path d="M7.63281 488.154V558.674" stroke="#2E353A" stroke-width="1.5" stroke-linecap="round" stroke-linejoin="round"/>
<path d="M7.74166 457.5V484.852C7.74166 484.852 7.04754 484.852 6.69109 482.976C6.33464 481.1 7.04752 477.123 6.14702 475.472C5.13261 474.136 4.241 472.71 3.48306 471.214C2.95777 469.619 4.72124 468.362 4.00835 465.698C3.29545 463.034 0.256285 464.46 0.819095 460.895C1.1005 459.019 3.1829 458.381 4.57116 457.556C5.0531 457.341 5.44935 456.971 5.69679 456.505C5.9782 455.774 5.0777 454.123 5.69679 453.579C6.31589 453.035 7.2539 453.898 7.57283 454.517C7.81305 455.492 7.87029 456.504 7.74166 457.5Z" fill="white" stroke="#2E353A" stroke-width="1.5" stroke-miterlimit="10"/>
<path d="M57.457 177.802V206.562" stroke="#2E353A" stroke-width="1.5" stroke-linecap="round" stroke-linejoin="round"/>
<path d="M57.457 212.865V223.39" stroke="#2E353A" stroke-width="1.5" stroke-linecap="round" stroke-linejoin="round"/>
<path d="M54.0234 274.267V284.792" stroke="#2E353A" stroke-width="1.5" stroke-linecap="round" stroke-linejoin="round"/>
<path d="M54.7576 180.016V270.065C54.7576 270.065 53.3318 270.065 52.6189 263.63C51.906 257.196 53.3318 244.307 51.5496 239.054C49.7674 233.801 47.2722 230.275 46.2029 225.003C45.1336 219.731 48.698 215.623 47.2722 206.862C45.8464 198.101 39.7681 202.753 40.8562 191.047C41.419 184.837 45.5838 182.717 48.4917 179.997C49.5807 179.122 50.368 177.928 50.7429 176.582C51.3245 174.181 49.486 168.684 50.7429 166.921C51.9998 165.157 53.8946 167.99 54.495 170.035C55.2641 172.887 54.7576 177.033 54.7576 180.016Z" fill="white" stroke="#2E353A" stroke-width="1.5" stroke-miterlimit="10"/>
<path d="M151.672 466.692V519.202" stroke="#2E353A" stroke-width="1.5" stroke-linecap="round" stroke-linejoin="round"/>
<path d="M63.8555 427.858V434.049" stroke="#2E353A" stroke-width="1.5" stroke-linecap="round" stroke-linejoin="round"/>
<path d="M63.8555 391.426V423.731" stroke="#2E353A" stroke-width="1.5" stroke-linecap="round" stroke-linejoin="round"/>
<path d="M60.1602 459.413V519.915" stroke="#2E353A" stroke-width="1.5" stroke-linecap="round" stroke-linejoin="round"/>
<path d="M60.8162 400.037V454.892C60.8162 454.892 59.3904 454.892 58.6775 450.971C57.9646 447.05 59.3904 439.208 57.6082 435.963C55.826 432.717 53.3308 430.616 52.2615 427.408C51.1922 424.2 54.7566 421.78 53.3309 416.358C51.9051 410.936 45.8267 413.863 46.9148 406.734C47.4776 402.982 51.6424 401.669 54.5503 399.999C55.5156 399.591 56.3107 398.862 56.8015 397.936C57.3831 396.472 55.5446 393.133 56.8015 392.045C58.0584 390.957 59.9532 392.701 60.5536 393.921C61.379 395.703 60.8162 398.217 60.8162 400.037Z" fill="white" stroke="#2E353A" stroke-width="1.5" stroke-miterlimit="10"/>
<path d="M293.594 488.154V517.158" stroke="#2E353A" stroke-width="1.5" stroke-linecap="round" stroke-linejoin="round"/>
<path d="M293.479 457.5V484.852C293.479 484.852 294.192 484.852 294.549 482.976C294.905 481.1 294.192 477.123 295.074 475.472C296.088 474.136 296.98 472.71 297.738 471.214C298.263 469.619 296.5 468.362 297.213 465.698C297.926 463.034 300.965 464.46 300.402 460.895C300.121 459.019 298.057 458.381 296.65 457.556C296.168 457.341 295.772 456.971 295.524 456.505C295.243 455.774 296.162 454.123 295.524 453.579C294.886 453.035 293.967 453.898 293.648 454.517C293.399 455.491 293.342 456.504 293.479 457.5Z" fill="white" stroke="#2E353A" stroke-width="1.5" stroke-miterlimit="10"/>
<path d="M235.23 453.016V459.207" stroke="#2E353A" stroke-width="1.5" stroke-linecap="round" stroke-linejoin="round"/>
<path d="M235.23 416.583V448.889" stroke="#2E353A" stroke-width="1.5" stroke-linecap="round" stroke-linejoin="round"/>
<path d="M238.906 484.589V590.491" stroke="#2E353A" stroke-width="1.5" stroke-linecap="round" stroke-linejoin="round"/>
<path d="M238.269 425.12V479.994C238.269 479.994 239.695 479.994 240.408 476.073C241.12 472.152 239.695 464.31 241.477 461.064C243.259 457.819 245.754 455.718 246.824 452.51C247.893 449.302 244.329 446.882 245.754 441.479C247.18 436.076 253.258 438.983 252.152 431.855C251.589 428.102 247.443 426.771 244.535 425.12C243.572 424.7 242.775 423.974 242.265 423.056C241.683 421.574 243.522 418.235 242.265 417.165C241.008 416.096 239.113 417.822 238.513 419.041C237.725 420.861 238.269 423.394 238.269 425.12Z" fill="white" stroke="#2E353A" stroke-width="1.5" stroke-miterlimit="10"/>
</svg>
