<svg xmlns="http://www.w3.org/2000/svg" width="719" height="592" viewBox="0 0 719 592" fill="none"><circle cx="234.157" cy="364.715" r="197.631" fill="#2E353A"></circle><circle cx="463.648" cy="354.792" r="223.877" fill="#2E353A"></circle><path d="M592.524 516.539C595.957 517.772 599.403 519.033 602.648 520.253H602.621C665.589 541.5 707.589 578.711 718.589 591.711H366.589H1.58856C8.49809 579.048 35.1819 562.235 69.217 546.669C69.217 546.669 85.2276 519.542 98.7172 514.661C104.631 512.529 126.286 513.749 139.293 509.981C152.3 506.213 156.538 498.611 165.441 504.162C171.395 507.876 179.333 509.566 188.17 510.116C244.167 498.999 306.975 492.778 373.324 492.778C396.308 492.778 418.862 493.542 440.866 494.977C447.517 494.185 456.823 492.59 460.538 489.599C466.371 484.92 476.039 477.719 482.113 476.66C491.446 475.037 514.523 486.019 527.195 483.163C539.866 480.32 555.032 481.353 561.2 489.841C567.355 498.329 579.169 511.751 592.524 516.539Z" fill="white"></path><path d="M0.588562 591.216C7.49809 578.553 35.1819 561.74 69.217 546.174C69.217 546.174 85.2276 519.047 98.7172 514.166C104.631 512.034 126.286 513.254 139.293 509.486C152.3 505.718 156.538 498.115 165.441 503.667C171.395 507.381 179.333 509.071 188.17 509.62C244.167 498.504 306.975 492.282 373.324 492.282C396.308 492.282 418.862 493.047 440.866 494.481C447.517 493.69 456.823 492.095 460.538 489.104C466.371 484.425 476.039 477.224 482.113 476.165C491.446 474.542 514.523 485.524 527.195 482.668C539.866 479.825 555.032 480.858 561.2 489.346C567.355 497.834 579.169 511.256 592.524 516.043C595.957 517.277 599.403 518.538 602.648 519.758H602.621C666.539 540.996 709.699 578.646 717.964 589.666" stroke="#2E353A" stroke-width="1.34092" stroke-miterlimit="10"></path><circle cx="379.586" cy="250.997" r="250.997" fill="#2E353A"></circle><path d="M554.536 520.937C554.536 528.459 486.27 526.207 401.363 523.82C316.456 521.433 247.036 519.824 247.036 512.301C247.036 504.779 316.442 494.199 401.363 496.586C486.283 498.972 554.536 513.414 554.536 520.937Z" fill="#2E353A"></path><path d="M448.067 307.61L435.998 431.712C435.355 438.336 432.311 444.37 427.752 449.063C421.825 455.205 413.31 459.08 404.192 459.08H269.134C253.043 459.08 238.83 447.012 237.341 431.712L225.26 307.61C223.65 291.076 233.01 276.796 247.224 272.464C250.093 271.593 253.151 271.123 256.369 271.123H416.971C436.106 271.123 450.011 287.737 448.067 307.61Z" fill="white" stroke="#2E353A" stroke-width="1.34092" stroke-miterlimit="10"></path><path d="M448.067 307.61L435.999 431.712C435.355 438.336 432.311 444.37 427.752 449.063C424.52 450.136 421.074 450.713 417.548 450.713H282.49C266.399 450.713 252.185 438.645 250.697 423.345L238.615 299.243C237.596 288.757 240.989 279.182 247.224 272.464C250.094 271.593 253.151 271.123 256.369 271.123H416.971C436.106 271.123 450.011 287.737 448.067 307.61Z" fill="#8ACEEC"></path><path d="M212.172 385.933L197.516 383.251V345.344L212.172 348.012V385.933Z" fill="#2E353A"></path><path d="M302.751 364.331C302.751 364.331 302.698 364.411 302.658 364.465C301.491 366.195 278.575 399.262 242.035 399.262C220.231 399.262 208.9 388.213 206.5 385.571C206.178 385.222 206.004 384.766 206.004 384.297V347.757C206.004 346.657 206.943 345.772 208.056 345.88C216.517 346.604 249.048 348.816 264.723 341.039C281.23 332.846 302.765 332.095 306.466 332.015C306.841 332.015 307.19 332.095 307.498 332.296C309.671 333.731 310.609 336.198 310.743 339.135C311.199 348.655 303.382 363.178 302.751 364.331Z" fill="white"></path><path d="M202.558 345.477V382.795C202.558 383.908 201.686 384.833 200.573 384.887C195.223 385.142 180.312 384.753 171.516 373.865C168.056 369.574 166.031 364.88 165.186 360.281C162.961 348.065 169.089 336.641 178.703 335.943C185.314 335.461 186.293 334.053 192.193 334.455C197.369 334.817 201.365 342.554 202.343 344.566C202.491 344.847 202.558 345.156 202.558 345.477Z" fill="white" stroke="#2E353A" stroke-width="1.34092" stroke-miterlimit="10"></path><path d="M161.325 157.91L202.558 525.925" stroke="white" stroke-width="1.34092" stroke-miterlimit="10"></path><path d="M172.575 341.186C172.575 341.186 186.373 338.183 187.687 346.148C189.002 354.113 190.383 369.44 186.4 374.106C182.418 378.772 176.477 374.87 176.477 374.87L172.589 341.173L172.575 341.186Z" fill="white"></path><path d="M188.143 341.911C188.143 341.911 172.803 347.636 176.785 353.228C180.768 358.82 192.903 355.105 192.903 355.105" fill="white"></path><path d="M188.143 341.911C188.143 341.911 172.803 347.636 176.785 353.228C180.768 358.82 192.903 355.105 192.903 355.105" stroke="#2E353A" stroke-width="1.34092" stroke-miterlimit="10" stroke-linecap="round"></path><path d="M179.816 340.731C182.283 340.945 185.287 341.736 185.435 342.487" stroke="#2E353A" stroke-width="1.34092" stroke-miterlimit="10"></path><path d="M188.935 356.326C188.935 356.326 190.906 374.683 186.923 378.826C184.496 381.36 179.561 380.435 179.561 380.435" fill="white"></path><path d="M174.68 277.131H116.418L103.075 157.91H161.325L174.68 277.131Z" fill="white" stroke="#2E353A" stroke-width="1.34092" stroke-linejoin="round"></path><path d="M201.981 366.114L202.035 381.91C202.035 383.023 201.525 384.19 200.412 384.244C195.062 384.498 180.674 384.203 171.878 373.315C168.418 369.024 166.742 365.109 165.897 360.509C168.686 363.473 171.502 365.216 175.391 365.645C185.488 366.758 189.403 358.069 189.403 358.069C189.403 358.069 189.015 366.758 195.773 369.721C198.937 371.103 200.547 368.756 201.968 366.114H201.981Z" fill="#8ACEEC"></path><path d="M302.751 364.331C302.751 364.331 302.698 364.411 302.658 364.465C301.491 366.195 278.575 399.262 242.035 399.262C220.231 399.262 208.9 388.213 206.5 385.571C206.178 385.222 206.004 384.766 206.004 384.297V358.551L206.138 356.272C206.138 356.272 214.68 377.847 238.441 376.412C256.677 375.313 294.263 350.573 310.743 339.135C311.199 348.655 303.382 363.178 302.751 364.331Z" fill="#8ACEEC"></path><path d="M302.751 364.331C302.751 364.331 302.698 364.411 302.658 364.465C301.491 366.195 278.575 399.262 242.035 399.262C220.231 399.262 208.9 388.213 206.5 385.571C206.178 385.222 206.004 384.766 206.004 384.297V347.757C206.004 346.657 206.943 345.772 208.056 345.88C216.517 346.604 249.048 348.816 264.723 341.039C281.23 332.846 302.765 332.095 306.466 332.015C306.841 332.015 307.19 332.095 307.498 332.296C309.671 333.731 310.609 336.198 310.743 339.135C311.199 348.655 303.382 363.178 302.751 364.331Z" stroke="#2E353A" stroke-width="1.34092" stroke-miterlimit="10"></path><path d="M188.935 356.326C188.935 356.326 190.906 374.683 186.923 378.826C184.496 381.36 179.561 380.435 179.561 380.435" stroke="#2E353A" stroke-width="1.34092" stroke-miterlimit="10"></path><path d="M446.673 271.687C446.673 282.79 443.588 292.954 437.983 301.951C436.361 304.579 434.524 307.1 432.472 309.527C414.732 330.553 382.04 343.64 344.092 345.156C341.638 345.25 339.158 345.303 336.663 345.303C295.564 345.303 259.735 331.907 240.855 309.514C238.803 307.1 236.966 304.566 235.344 301.951C229.739 292.954 226.654 282.79 226.654 271.687C226.654 260.021 230.06 248.475 236.215 237.788C237.663 235.241 239.286 232.733 241.056 230.293C257.791 207.162 287.653 189.354 322.637 185.533C327.223 185.023 331.917 184.768 336.663 184.768C377.615 184.768 413.337 204.118 432.271 230.293C434.041 232.733 435.65 235.227 437.112 237.775C443.253 248.462 446.673 260.007 446.673 271.687Z" fill="white"></path><path d="M277.985 380.529C277.985 380.529 267.834 396.5 266.909 413.797C266.399 423.465 270.221 442.158 270.221 442.158L318.615 457.672L327.29 437.129L277.985 380.529Z" fill="#2E353A"></path><path d="M395.583 380.529C395.583 380.529 405.734 396.5 406.659 413.797C407.169 423.465 403.347 442.158 403.347 442.158L354.953 457.672L346.278 437.129L395.583 380.529Z" fill="#2E353A"></path><path d="M406.007 409.807L446.016 401.391L441.365 379.28L401.356 387.697L406.007 409.807Z" fill="#2E353A"></path><path d="M445.519 387.596L439.753 389.205L403.025 399.423L386.116 352.692L380.243 336.48L383.206 334.67L387.001 332.35L389.603 330.768C389.603 330.768 394.269 330.647 401.349 333.087C408.08 335.394 416.984 340.02 426.116 349.259C444.835 368.206 445.519 387.596 445.519 387.596Z" fill="white" stroke="#2E353A" stroke-width="1.34092" stroke-miterlimit="10"></path><path d="M439.753 427.14C427.765 447.347 397.809 438.953 397.809 438.953L397.34 422.205L396.897 406.543L440.37 394.059L446.337 392.343C446.337 392.343 450.588 408.876 439.753 427.14Z" fill="white" stroke="#2E353A" stroke-width="1.34092" stroke-miterlimit="10"></path><path d="M403.025 399.423L386.116 352.692L380.243 336.078L383.917 334.106L387.001 332.35L390.944 330.258C390.944 330.258 417.306 337.351 430.487 361.233C434.886 369.185 438.144 379.067 439.753 389.205L403.025 399.423Z" fill="#8ACEEC"></path><path d="M438.425 418.129C433.223 435.507 412.331 438.725 412.331 438.725L399.324 434.501L397.34 422.205L396.897 406.543L440.37 394.059C441.188 402.198 440.718 410.445 438.425 418.129Z" fill="#8ACEEC"></path><path d="M403.2 407.897C396.656 411.585 388.208 417.136 379.291 423.774C364.97 434.434 353.653 444.719 350.22 449.908H324.072C320.639 444.719 309.322 434.434 295.001 423.774C286.084 417.136 277.636 411.585 271.092 407.897C268.424 406.395 266.949 403.419 267.324 400.375C268.048 394.689 269.818 385.195 274.163 371.397C282.142 346.054 291.501 332.135 291.501 332.135H382.791C382.791 332.135 392.151 346.054 400.129 371.397C404.474 385.195 406.244 394.689 406.968 400.375C407.343 403.419 405.868 406.395 403.2 407.897Z" fill="white"></path><path d="M602.302 533.128C602.06 541.838 523.085 537.032 424.846 531.535C326.608 526.038 246.277 521.94 246.519 513.229C246.761 504.519 327.469 494.503 425.723 500C523.978 505.498 602.544 524.417 602.302 533.128Z" fill="#2E353A"></path><path d="M320.278 468.252L310.931 511.269C310.422 513.589 308.129 515.479 305.796 515.479H247.533L247.747 511.979C248.257 503.518 253.929 495.017 262.229 490.619C262.336 490.552 262.444 490.498 262.564 490.444C263.302 490.055 262.725 488.647 262.725 488.647C262.725 488.647 248.324 466.67 262.564 421.132C263.221 419 265.662 417.592 267.539 418.289C270.516 419.389 275.062 421.199 280.238 423.734C287.21 427.153 295.31 431.886 302.269 437.987C308.933 443.847 313.519 448.5 316.59 451.933C320.318 456.09 321.645 462.017 320.291 468.225L320.278 468.252Z" fill="white"></path><path d="M420.686 512.475V515.989H362.409C360.076 515.989 357.904 514.098 357.542 511.751L350.891 468.507C349.925 462.231 351.655 456.278 355.651 452.094C358.454 449.144 362.396 445.322 367.867 440.616C368.805 439.811 369.784 438.98 370.803 438.108C383.596 427.408 399.62 420.877 406.767 418.303C408.684 417.605 411.031 419.013 411.567 421.159C422.952 466.924 407.183 489.023 407.183 489.023C407.183 489.023 406.512 490.431 407.236 490.82C407.343 490.873 407.437 490.927 407.545 490.994C415.59 495.419 420.726 503.961 420.712 512.475H420.686Z" fill="white"></path><path d="M293.767 281.931C299.314 281.931 303.811 273.346 303.811 262.756C303.811 252.166 299.314 243.581 293.767 243.581C288.22 243.581 283.724 252.166 283.724 262.756C283.724 273.346 288.22 281.931 293.767 281.931Z" fill="#2E353A"></path><path d="M354.565 273.993C354.565 280.416 346.559 285.632 336.677 285.632C326.794 285.632 318.789 280.416 318.789 273.993" stroke="#2E353A" stroke-width="1.34092" stroke-miterlimit="10"></path><path d="M334.223 312.223H285.239C271.428 312.223 258.877 304.15 253.151 291.572L244.314 270.104" stroke="#2E353A" stroke-width="1.34092" stroke-miterlimit="10"></path><path d="M318.306 302.058H327.545C331.232 302.058 334.223 305.049 334.223 308.736V312.907H311.628V308.736C311.628 305.049 314.618 302.058 318.306 302.058Z" fill="#2E353A"></path><path d="M219.574 300.181C214.479 299.591 210.59 294.616 210.59 288.703V251.13C210.59 245.204 214.479 240.242 219.574 239.652" fill="white"></path><path d="M219.574 300.181C214.479 299.591 210.59 294.616 210.59 288.703V251.13C210.59 245.204 214.479 240.242 219.574 239.652" stroke="#2E353A" stroke-width="1.34092" stroke-linejoin="round"></path><path d="M235.343 301.951C236.966 304.566 238.803 307.1 240.855 309.514L237.73 309.165L227.754 308.039C224.133 307.637 221.103 304.539 219.574 300.181C219.44 299.806 219.319 299.43 219.212 299.041C218.756 297.405 218.515 295.622 218.515 293.745V246.088C218.515 243.769 218.89 241.583 219.574 239.652C221.103 235.294 224.133 232.197 227.754 231.794L237.985 230.641L241.056 230.292C239.286 232.733 237.663 235.24 236.215 237.788C230.06 248.475 226.654 260.021 226.654 271.687C226.654 275.294 226.976 278.793 227.62 282.186V282.199C228.92 289.266 231.562 295.877 235.343 301.951Z" fill="white" stroke="#2E353A" stroke-width="1.34092" stroke-linejoin="round"></path><path d="M462.737 251.13V288.703C462.737 294.616 458.848 299.591 453.739 300.181C454.423 298.25 454.799 296.065 454.799 293.745V246.088C454.799 243.769 454.423 241.583 453.739 239.652C458.848 240.242 462.737 245.204 462.737 251.13Z" fill="white" stroke="#2E353A" stroke-width="1.34092" stroke-linejoin="round"></path><path d="M459.304 251.13V288.703C459.304 294.616 455.415 299.591 450.306 300.181C450.99 298.25 451.366 296.065 451.366 293.745V246.088C451.366 243.769 450.99 241.583 450.306 239.652C455.415 240.242 459.304 245.204 459.304 251.13Z" fill="#8ACEEC"></path><path d="M454.799 246.088V293.745C454.799 296.065 454.423 298.25 453.739 300.181V239.652C454.423 241.583 454.799 243.769 454.799 246.088Z" fill="white" stroke="#2E353A" stroke-width="1.34092" stroke-linejoin="round"></path><path d="M454.799 246.088V293.745C454.799 296.065 454.423 298.25 453.739 300.181C452.224 304.539 449.18 307.637 445.573 308.039L442.637 308.374L432.472 309.527C434.524 307.1 436.361 304.579 437.984 301.951C443.589 292.954 446.673 282.789 446.673 271.687C446.673 260.007 443.253 248.462 437.112 237.775C435.65 235.227 434.041 232.733 432.271 230.292L442.69 231.472L445.573 231.794C449.18 232.197 452.224 235.294 453.739 239.652C454.423 241.583 454.799 243.769 454.799 246.088Z" fill="white"></path><path d="M287.146 231.223C290.625 230.611 293.294 229.257 293.108 228.199C292.922 227.142 289.951 226.781 286.472 227.393C282.993 228.005 280.323 229.359 280.509 230.416C280.695 231.474 283.667 231.835 287.146 231.223Z" fill="#2E353A"></path><path d="M419.451 417.458C419.451 417.458 415.657 428.185 411.728 431.605L419.451 417.458Z" fill="white"></path><path d="M419.451 417.458C419.451 417.458 415.657 428.185 411.728 431.605" stroke="#2E353A" stroke-width="1.34092" stroke-miterlimit="10"></path><path d="M423.555 423.546C423.555 423.546 421.785 422.218 415.992 425.423L423.555 423.546Z" fill="white"></path><path d="M423.555 423.546C423.555 423.546 421.785 422.218 415.992 425.423" stroke="#2E353A" stroke-width="1.34092" stroke-miterlimit="10"></path><path d="M296.248 258.009C298.514 258.009 300.351 256.172 300.351 253.906C300.351 251.64 298.514 249.803 296.248 249.803C293.982 249.803 292.145 251.64 292.145 253.906C292.145 256.172 293.982 258.009 296.248 258.009Z" fill="white"></path><path d="M429.013 262.622V270.869C429.013 302.005 403.777 327.254 372.64 327.254H364.836C389.536 301.321 395.905 244.949 348.879 205.915L372.64 206.236C403.777 206.236 429.013 231.486 429.013 262.622Z" fill="#8ACEEC"></path><path d="M446.672 271.687C446.672 282.79 443.588 292.954 437.983 301.951C436.361 304.579 434.524 307.1 432.472 309.527C414.732 330.553 382.04 343.64 344.092 345.156C349.576 341.401 357.206 335.273 364.836 327.254H372.64C403.776 327.254 429.012 302.005 429.012 270.869V262.622C429.012 231.486 403.776 206.236 372.64 206.236H366.686C353.291 192.345 336.771 187.517 322.637 185.533C327.223 185.023 331.916 184.768 336.663 184.768C377.615 184.768 413.337 204.118 432.271 230.293C434.041 232.733 435.65 235.227 437.112 237.775C443.253 248.462 446.672 260.007 446.672 271.687Z" fill="#8ACEEC"></path><path d="M449.65 300.181C449.368 301.965 446.203 305.223 442.637 308.374L432.472 309.527C434.524 307.1 436.361 304.579 437.984 301.951C443.589 292.954 446.673 282.789 446.673 271.687C446.673 260.007 443.253 248.462 437.112 237.775C435.65 235.227 434.041 232.733 432.271 230.292L442.69 231.472C446.069 234.811 449.086 238.995 449.65 243.581C451.017 254.764 450.333 295.957 449.65 300.181Z" fill="#8ACEEC"></path><path d="M372.64 206.236H300.7C269.564 206.236 244.314 231.486 244.314 262.622V270.869C244.314 302.005 269.564 327.254 300.7 327.254H372.64C403.777 327.254 429.013 302.005 429.013 270.869V262.622C429.013 231.486 403.777 206.236 372.64 206.236Z" stroke="#2E353A" stroke-width="1.34092" stroke-miterlimit="10"></path><path d="M320.586 468.333L311.427 511.778C310.971 513.91 308.879 515.64 306.747 515.64H260.298C260.097 513.629 259.869 513.173 260.365 509.271C262.135 495.231 274.941 489.345 274.941 489.345C274.941 489.345 272.956 467.89 277.556 437.934C278.36 432.718 279.272 427.998 280.264 423.76C287.25 427.18 295.39 431.927 302.376 438.041C309.081 443.914 313.68 448.567 316.777 452.014C320.532 456.17 321.886 462.111 320.572 468.333H320.586Z" fill="#8ACEEC"></path><path d="M420.685 512.475V515.989H392.566C391.976 512.1 390.327 504.51 386.009 500.528C380.042 495.044 376.368 496.921 376.368 496.921C376.368 496.921 376.328 479.918 373.176 461.708C372.05 455.165 370.012 447.602 367.866 440.629C368.805 439.824 369.784 438.993 370.803 438.122C383.595 427.421 399.619 420.891 406.766 418.316C408.684 417.619 411.031 419.027 411.567 421.172C422.951 466.938 407.182 489.036 407.182 489.036C407.182 489.036 406.512 490.444 407.236 490.833C407.343 490.887 407.437 490.94 407.544 491.007C415.59 495.432 420.725 503.974 420.712 512.489L420.685 512.475Z" fill="#8ACEEC"></path><path d="M446.673 271.687C446.673 282.79 443.588 292.954 437.983 301.951C436.361 304.579 434.524 307.1 432.472 309.527C426.478 316.634 418.768 322.829 409.744 327.979C403.294 331.653 396.174 332.323 388.503 334.871H284.824C276.791 332.202 269.349 331.358 262.672 327.442C254.036 322.4 246.648 316.38 240.855 309.514C238.803 307.1 236.966 304.566 235.344 301.951C229.739 292.954 226.654 282.79 226.654 271.687C226.654 260.021 230.06 248.475 236.215 237.788C237.663 235.24 239.286 232.733 241.056 230.293C257.791 207.162 287.653 189.354 322.637 185.533C327.223 185.023 331.917 184.768 336.663 184.768C377.615 184.768 413.337 204.118 432.271 230.293C434.041 232.733 435.65 235.227 437.112 237.775C443.253 248.462 446.673 260.007 446.673 271.687Z" stroke="#2E353A" stroke-width="1.34092" stroke-miterlimit="10"></path><path d="M320.586 468.333L311.494 511.416C310.998 513.749 308.719 515.64 306.385 515.64H248.122L248.31 512.14C248.766 503.666 254.384 495.151 262.671 490.739C262.779 490.672 262.886 490.619 263.007 490.565C263.744 490.176 263.154 488.768 263.154 488.768C263.154 488.768 248.619 466.75 262.577 421.146C263.235 419.013 265.662 417.606 267.539 418.303C270.529 419.402 275.075 421.213 280.264 423.76C287.25 427.18 295.39 431.927 302.376 438.041C309.081 443.914 313.68 448.567 316.777 452.014C320.532 456.17 321.886 462.111 320.572 468.333H320.586Z" stroke="#2E353A" stroke-width="1.34092" stroke-miterlimit="10"></path><path d="M420.028 512.811L419.988 516.337H361.725C359.392 516.337 357.233 514.433 356.884 512.087L350.528 468.694C349.603 462.406 351.373 456.425 355.396 452.215C358.225 449.251 362.194 445.416 367.692 440.696C368.631 439.891 369.623 439.047 370.655 438.189C383.528 427.448 399.593 420.891 406.753 418.316C408.671 417.619 411.017 419.027 411.527 421.172C422.589 467.099 406.673 489.264 406.673 489.264C406.673 489.264 405.989 490.686 406.713 491.074C406.82 491.128 406.914 491.182 407.021 491.249C415.04 495.687 420.109 504.269 420.028 512.797V512.811Z" stroke="#2E353A" stroke-width="1.34092" stroke-miterlimit="10"></path><path d="M384.856 493.046C384.856 493.046 392.982 487.481 406.069 490.498" stroke="#2E353A" stroke-width="1.34092" stroke-miterlimit="10"></path><path d="M284.341 492.777C284.341 492.777 276.536 487.239 263.275 490.23" stroke="#2E353A" stroke-width="1.34092" stroke-miterlimit="10" stroke-linecap="round"></path><path d="M389.087 230.435C389.273 229.378 386.603 228.024 383.124 227.412C379.645 226.8 376.674 227.161 376.488 228.218C376.302 229.276 378.971 230.63 382.45 231.242C385.929 231.854 388.9 231.493 389.087 230.435Z" fill="#2E353A"></path><path d="M379.586 281.931C385.133 281.931 389.63 273.346 389.63 262.756C389.63 252.166 385.133 243.581 379.586 243.581C374.039 243.581 369.543 252.166 369.543 262.756C369.543 273.346 374.039 281.931 379.586 281.931Z" fill="#2E353A"></path><path d="M382.791 258.009C385.057 258.009 386.894 256.172 386.894 253.906C386.894 251.64 385.057 249.803 382.791 249.803C380.525 249.803 378.688 251.64 378.688 253.906C378.688 256.172 380.525 258.009 382.791 258.009Z" fill="white"></path><path d="M240.855 309.514L237.73 309.165L227.754 308.039C224.133 307.637 221.103 304.539 219.574 300.181C219.44 299.806 219.319 299.43 219.212 299.041C221.773 297.204 223.932 294.657 225.085 291.157C226.051 288.22 226.896 285.163 227.62 282.199C228.92 289.266 231.562 295.877 235.343 301.951C236.966 304.566 238.803 307.1 240.855 309.514Z" fill="#8ACEEC"></path><path d="M218.957 274.61L219.038 299.886C215.431 299.47 212.95 296.373 211.421 292.028C211.287 291.653 211.167 291.277 211.059 290.888C213.62 289.051 215.779 286.504 216.932 283.004C217.898 280.067 218.126 277.01 218.85 274.047C218.89 274.234 218.917 274.422 218.957 274.61Z" fill="#8ACEEC"></path><path d="M403.2 407.897C396.656 411.585 388.208 417.136 379.291 423.774C364.97 434.434 353.653 444.719 350.22 449.908H324.072C320.639 444.719 309.322 434.434 295.001 423.774C286.084 417.136 277.636 411.585 271.092 407.897C268.424 406.395 266.949 403.419 267.324 400.375C267.391 399.825 267.472 399.248 267.566 398.631C268.411 392.825 270.234 383.868 274.163 371.397C280.197 352.222 287.022 339.591 289.986 334.576C290.951 332.967 291.501 332.135 291.501 332.135H382.791C382.791 332.135 392.151 346.054 400.129 371.397C404.474 385.195 406.244 394.689 406.968 400.375C407.343 403.419 405.868 406.395 403.2 407.897Z" fill="white"></path><path d="M403.2 407.897C396.656 411.585 388.208 417.136 379.291 423.774C364.97 434.434 355.57 441.38 352.138 446.569H340.23C333.15 446.569 326.539 443.123 322.463 437.331C319.996 433.831 316.496 429.66 311.628 425.423C299.252 414.629 287.036 412.926 296.235 371.156C303.811 336.788 309.349 332.551 311.065 332.122C311.441 332.041 311.628 332.122 311.628 332.122H382.791C382.791 332.122 392.151 346.041 400.129 371.384C404.474 385.182 406.244 394.676 406.968 400.361C407.343 403.405 405.868 406.382 403.2 407.884V407.897Z" fill="#8ACEEC"></path><path d="M410.28 329.789V333.999C410.28 335.85 408.778 337.351 406.928 337.351H265.072C263.221 337.351 261.72 335.85 261.72 333.999V329.789C261.72 328.877 262.082 328.059 262.672 327.442C263.289 326.825 264.133 326.436 265.072 326.436H406.928C408.108 326.436 409.154 327.053 409.744 327.978C410.079 328.501 410.28 329.118 410.28 329.789Z" fill="#2E353A"></path><path d="M235.343 301.951C236.966 304.566 238.803 307.1 240.855 309.514L237.73 309.165L227.754 308.039C224.133 307.637 221.103 304.539 219.574 300.181C219.44 299.806 219.319 299.43 219.212 299.041C218.756 297.405 218.515 295.622 218.515 293.745V246.088C218.515 243.769 218.89 241.583 219.574 239.652C221.103 235.294 224.133 232.197 227.754 231.794L237.985 230.641L241.056 230.292C239.286 232.733 237.663 235.24 236.215 237.788C230.06 248.475 226.654 260.021 226.654 271.687C226.654 275.294 226.976 278.793 227.62 282.186V282.199C228.92 289.266 231.562 295.877 235.343 301.951Z" stroke="#2E353A" stroke-width="1.34092" stroke-linejoin="round"></path><path d="M252.682 507.997H308.33" stroke="#2E353A" stroke-width="1.34092" stroke-miterlimit="10" stroke-linecap="round"></path><path d="M362.543 508.319H418.191" stroke="#2E353A" stroke-width="1.34092" stroke-miterlimit="10" stroke-linecap="round"></path><path d="M403.2 407.897C396.656 411.585 388.208 417.136 379.291 423.774C364.97 434.434 353.653 444.719 350.22 449.908H324.072C320.639 444.719 309.322 434.434 295.001 423.774C286.084 417.136 277.636 411.585 271.092 407.897C268.424 406.395 266.949 403.419 267.324 400.375C267.391 399.825 267.472 399.248 267.566 398.631C268.411 392.825 270.234 383.868 274.163 371.397C280.197 352.222 287.022 339.591 289.986 334.576C290.951 332.967 291.501 332.135 291.501 332.135H382.791C382.791 332.135 392.151 346.054 400.129 371.397C404.474 385.195 406.244 394.689 406.968 400.375C407.343 403.419 405.868 406.395 403.2 407.897Z" stroke="#2E353A" stroke-width="1.34092" stroke-miterlimit="10"></path><path d="M270.985 489.345C270.985 489.345 277.823 487.226 285.252 488.419L270.985 489.345Z" fill="white"></path><path d="M270.985 489.345C270.985 489.345 277.823 487.226 285.252 488.419" stroke="#2E353A" stroke-width="1.34092" stroke-miterlimit="10" stroke-linecap="round"></path><path d="M454.799 246.088V293.745C454.799 296.065 454.423 298.25 453.739 300.181C452.224 304.539 449.18 307.637 445.573 308.039L442.637 308.374L432.472 309.527C434.524 307.1 436.361 304.579 437.984 301.951C443.589 292.954 446.673 282.789 446.673 271.687C446.673 260.007 443.253 248.462 437.112 237.775C435.65 235.227 434.041 232.733 432.271 230.292L442.69 231.472L445.573 231.794C449.18 232.197 452.224 235.294 453.739 239.652C454.423 241.583 454.799 243.769 454.799 246.088Z" stroke="#2E353A" stroke-width="1.34092" stroke-linejoin="round"></path><path d="M150.718 517.732C151.805 517.678 150.826 519.73 142.847 522.036C130.645 525.576 111.644 527.427 105.865 523.203C101.386 519.931 119.569 517.008 129.398 515.707C130.336 515.587 130.779 516.847 129.974 517.33C126.944 519.127 134.601 518.59 150.718 517.732Z" fill="#2E353A"></path><path d="M529.447 495.392C530.507 495.62 530.292 497.176 529.22 497.095C516.4 496.076 494.02 494.467 489.716 489.546C485.868 485.147 506.531 486.649 515.864 487.521C516.762 487.601 516.937 488.848 516.092 489.184C512.538 490.592 515.663 492.455 529.461 495.392H529.447Z" fill="#2E353A"></path><path d="M55.419 557.799C55.419 557.799 65.4223 554.862 73.9371 539.227" stroke="#2E353A" stroke-width="1.34092" stroke-miterlimit="10"></path><path d="M207.654 511.175C207.654 511.175 195.492 510.893 188.17 510.129" stroke="#2E353A" stroke-width="1.34092" stroke-miterlimit="10"></path><path d="M431.788 496.237C431.788 496.237 441.657 495.929 452.103 493.032" stroke="#2E353A" stroke-width="1.34092" stroke-miterlimit="10"></path><path d="M131.486 235.207L155.67 217.062C156.679 216.301 157.995 215.001 157.78 212.944L159.26 227.095C159.553 229.896 158.363 230.778 157.195 231.647L133.012 249.803L131.486 235.207Z" fill="#CAC0A9"></path><path d="M119.328 224.314C119.54 226.343 120.768 227.303 122.238 228.01C123.725 228.714 128.434 230.877 128.434 230.877L140.174 222.135L126.96 216.07L121.404 220.2C120.405 220.943 119.096 222.259 119.311 224.316L119.322 224.315L119.328 224.314Z" fill="#00A2E0"></path><path d="M154.387 179.948L155.912 194.533L121.429 220.209C120.42 220.97 119.104 222.275 119.318 224.327L117.838 210.176C117.546 207.375 118.735 206.493 119.903 205.624L154.387 179.948Z" fill="#CAC0A9"></path><path d="M157.846 212.926C157.634 210.897 156.405 209.938 154.936 209.231C153.449 208.526 148.739 206.364 148.739 206.364L137 215.106L150.213 221.17L155.769 217.04C156.768 216.297 158.077 214.976 157.863 212.924L157.851 212.925L157.846 212.926Z" fill="#00A2E0"></path><circle cx="464.953" cy="88.3781" r="4.75664" fill="white"></circle><circle cx="475.672" cy="108.579" r="2.65506" fill="white"></circle><circle cx="230.281" cy="115.889" r="6.80789" fill="#D9D9D9"></circle><circle cx="593.247" cy="339.859" r="5.29684" fill="#D9D9D9"></circle><circle cx="146.271" cy="454.286" r="3.38654" fill="#D9D9D9"></circle><circle cx="120.866" cy="427.789" r="2.50269" fill="#D9D9D9"></circle><path d="M425.17 124.684C428.317 128.39 561.664 289.112 559.407 291.029C557.151 292.945 420.145 135.33 416.998 131.624C413.85 127.918 413.128 123.36 415.385 121.444C417.642 119.527 422.022 120.978 425.17 124.684Z" fill="#8ACEEC"></path><path d="M420.706 119.428C421.388 120.231 448.85 156.275 446.593 158.191C444.336 160.108 413.216 127.171 412.534 126.368C411.852 125.565 413.128 123.36 415.385 121.444C417.642 119.527 420.024 118.625 420.706 119.428Z" fill="white"></path><circle cx="417.106" cy="123.628" r="5.51294" fill="white"></circle><path d="M518.817 199.519C520.757 201.804 621.836 322.335 620.445 323.517C619.053 324.699 515.718 206.083 513.778 203.798C511.837 201.513 511.392 198.703 512.784 197.521C514.175 196.34 516.876 197.234 518.817 199.519Z" fill="#8ACEEC"></path><path d="M516.064 196.278C516.485 196.773 533.417 218.997 532.026 220.179C530.635 221.361 511.446 201.053 511.026 200.558C510.605 200.062 511.392 198.703 512.784 197.521C514.175 196.34 515.644 195.783 516.064 196.278Z" fill="white"></path><circle cx="513.844" cy="198.868" r="3.39917" fill="white"></circle></svg>