<svg xmlns="http://www.w3.org/2000/svg" width="1407" height="838" viewBox="0 0 1407 838" fill="none"><g opacity="0.2"><path d="M178.999 15.9353C184.005 15.7078 183.123 26.0899 184.574 27.0855C185.541 27.7397 194.358 26.1184 196.406 30.5557C186.536 29.9868 180.25 46.5699 178.999 46.5699C174.988 46.5983 175.955 36.8419 174.817 35.4197C173.452 33.7415 165.317 34.5379 162.984 31.9495C171.688 24.9237 174.191 27.7397 178.999 15.9353Z" fill="white"></path><path d="M802.414 185.89C801.988 185.976 796.725 183.586 794.052 187.284C790.269 181.794 785.149 187.056 781.508 181.026C793.056 181.567 795.958 165.524 797.522 165.012C806.368 171.327 799.2 177.641 814.93 179.633C815.812 182.932 804.377 185.521 802.386 185.89H802.414Z" fill="white"></path><path d="M69.6562 86.9889C70.3104 86.932 79.8677 86.9889 80.8063 86.9889C106.776 86.9889 80.0383 94.9533 79.4126 96.0342C78.4455 97.684 80.4365 106.815 74.5485 109.261C69.4854 106.644 72.9273 97.5986 68.9736 95.3231C67.5229 94.4982 59.4162 96.4324 57.1406 91.8529C57.1406 89.7765 67.466 87.2165 69.6847 86.9889H69.6562Z" fill="white"></path><path d="M786.367 27.0856C789.78 26.602 790.861 41.4215 800.988 40.3122C792.54 45.5744 791.516 44.8917 787.761 54.9325C780.508 46.9112 787.647 44.0384 773.141 41.7059C774.165 35.7326 779.541 40.2837 782.897 36.1309C783.21 35.7611 783.238 27.5122 786.367 27.0856Z" fill="white"></path><path d="M366.392 468.683C365.937 468.74 358.855 464.104 359.424 470.077C357.404 467.546 348.359 467.46 348.273 465.213C356.721 460.605 357.859 461.629 361.5 451.987C368.924 459.098 365.425 461.458 377.514 463.819C377.571 465.469 368.042 468.484 366.364 468.683H366.392Z" fill="white"></path><path d="M1220.32 279.216C1221.43 279.131 1233.55 279.131 1234.26 279.216C1237.59 279.586 1240.35 279.87 1242.62 282.686C1242.62 283.454 1230.82 288.859 1230.08 288.944C1229.65 289.001 1222.14 289.001 1221.72 288.944C1221.03 288.83 1209.14 283.369 1209.17 282.686C1212.04 279.586 1216.45 279.472 1220.32 279.216Z" fill="white"></path><path d="M1307.39 131.561C1309.89 131.789 1316.38 141.118 1315.04 144.788C1312.68 151.301 1296.72 147.518 1298.31 139.213C1298.43 138.644 1306.79 131.504 1307.36 131.561H1307.39Z" fill="white"></path><path d="M1370.07 360.026C1370.84 366.597 1380.45 369.669 1380.51 370.465C1380.57 371.262 1370.13 376.012 1370.07 382.298C1370.36 375.301 1359.55 371.29 1359.63 370.465C1359.72 369.64 1370.41 366.739 1370.07 360.026Z" fill="white"></path><path d="M263.986 417.143C267.286 424.083 266.347 425.192 274.425 427.582L263.986 438.021C260.487 431.08 260.942 430.54 253.547 427.582L263.986 417.143Z" fill="white"></path><path d="M929.873 128.774C933.144 128.091 933.742 138.388 940.312 137.819C937.184 138.872 931.893 146.751 931.267 146.864C928.935 147.376 925.578 137.904 920.828 137.819C926.204 138.132 928.65 129.03 929.873 128.774Z" fill="white"></path><path d="M971.658 8.96643C970.918 17.1299 982.154 18.2108 982.097 19.4055C982.068 20.1735 971.942 23.8144 970.264 28.4508C969.553 22.0508 967.761 20.1166 961.219 19.4055C968.927 16.6748 967.448 15.1104 971.658 8.96643Z" fill="white"></path><path d="M1296.23 40.9946C1298.56 49.727 1298.51 51.0923 1308.06 51.4336C1299.64 53.8798 1299.19 54.591 1294.84 61.8727C1294.72 51.007 1291 55.7003 1284.4 51.4336C1296 51.1776 1292.08 49.1581 1296.23 40.9946Z" fill="white"></path><path d="M1273.94 497.924C1276.05 497.924 1277.64 507.225 1284.38 505.575L1273.94 514.621C1273.4 509.33 1266.32 506.201 1266.29 505.575C1266.26 505.035 1273.4 497.924 1273.94 497.924Z" fill="white"></path><path d="M1117.93 535.527C1122.79 539.965 1116.65 545.91 1126.97 545.966C1119.8 547.161 1120.09 554.528 1119.32 555.012C1118.64 555.438 1113.55 544.715 1107.49 547.36C1115.31 543.606 1116.62 545.853 1117.93 535.527Z" fill="white"></path><path d="M80.8064 86.9893C79.8677 86.9893 70.3105 86.9325 69.6562 86.9893L74.5203 74.4454L80.7779 86.9893H80.8064Z" fill="white"></path><path d="M745.984 226.281C746.78 226.224 750.506 234.274 756.423 233.933L747.377 242.978L738.332 233.933C742.855 234.274 745.443 226.31 745.984 226.281Z" fill="white"></path><path d="M599.721 619.125C603.618 624.132 600.034 627.915 608.766 628.171C605.467 628.967 600.318 637.444 599.721 637.216C598.925 636.932 598.726 627.687 590.676 629.564C597.901 626.037 596.365 625.952 599.721 619.125Z" fill="white"></path><path d="M180.398 107.867C181.336 107.924 183.157 116.543 189.443 116.912C184.351 120.297 183.157 118.022 180.398 124.564L172.746 116.912C176.359 115.917 179.829 107.839 180.398 107.867Z" fill="white"></path><path d="M1234.26 279.216C1233.58 279.13 1221.43 279.13 1220.32 279.216L1226.58 266.672L1234.23 279.216H1234.26Z" fill="white"></path><path d="M1158.34 685.998L1167.38 693.65C1162.12 696.38 1161.83 697.063 1159.73 702.695C1152.99 689.156 1148.12 698.855 1158.34 685.97V685.998Z" fill="white"></path><path d="M276.546 24.2979C279.988 29.0196 278.196 31.6649 285.591 31.9494L277.94 40.9947L268.895 33.3431L276.546 24.2979Z" fill="white"></path><path d="M116.339 550.859C119.354 550.603 117.42 560.132 125.384 558.511L117.733 567.556L108.688 558.511C115.514 558.17 113.58 555.894 116.339 550.859Z" fill="white"></path><path d="M48.0702 333.544C51.3413 333.63 48.9235 342.59 57.1155 341.196L48.0702 348.847C49.0089 343.016 40.504 341.708 40.4187 341.196C40.3333 340.684 48.0133 337.584 48.0702 333.544Z" fill="white"></path><path d="M1264.21 808.565C1266.51 808.28 1266.82 816.358 1273.25 814.823C1269.47 814.794 1266.11 822.389 1265.6 822.474C1264.21 822.702 1260.91 814.965 1257.95 814.823C1262.53 815.534 1263.44 808.65 1264.21 808.565Z" fill="white"></path><path d="M1339.44 236.032L1331.77 243.695L1339.44 251.358L1347.1 243.695L1339.44 236.032Z" fill="white"></path><path d="M928.473 237.431C931.858 242.124 931.089 243.148 937.518 245.083C932.455 244.059 930.464 252.677 929.866 252.734C929.326 252.791 925.913 245.395 922.215 245.083C927.989 244.201 927.477 242.437 928.473 237.431Z" fill="white"></path><path d="M802.41 185.89C798.513 208.759 797.403 192.148 794.047 187.284C796.721 183.586 801.983 185.975 802.41 185.89Z" fill="white"></path><path d="M1077.52 3.39114C1083.98 4.50047 1081.22 15.2524 1071.95 13.1475C1067.23 12.0667 1072.77 2.56626 1077.52 3.39114Z" fill="white"></path><path d="M286.264 77.2328L293.915 84.8843C279.551 99.1634 281.627 77.3181 286.264 77.2328Z" fill="white"></path><path d="M1230.07 288.972L1225.2 298.729L1221.73 288.972C1222.16 289.029 1229.67 289.029 1230.1 288.972H1230.07Z" fill="white"></path><path d="M366.388 468.683C361.268 490.984 360.073 470.874 359.419 470.077C358.85 464.104 365.933 468.74 366.388 468.683Z" fill="white"></path><path d="M481.312 421.295C483.189 421.039 482.678 428.349 487.57 427.553C477.728 444.534 475.765 422.006 481.312 421.295Z" fill="white"></path><path d="M1063.59 270.854L1071.27 278.533L1064.99 284.791L1057.34 278.533L1063.59 270.854Z" fill="white"></path><path d="M1338.02 439.414C1341.49 443.539 1338.85 445.302 1345.67 445.672L1339.42 451.93L1331.77 445.672L1338.02 439.414Z" fill="white"></path><path d="M1174.35 465.896L1177.14 464.502C1177.31 464.417 1176.34 461.032 1179.21 461.715C1180.58 466.152 1178.56 467.204 1184.08 467.972C1179.93 478.127 1172.87 469.139 1174.32 465.896H1174.35Z" fill="white"></path><path d="M640.11 340.514C641.333 340.343 649.326 347.824 641.504 351.664L635.246 346.8C636.498 345.719 639.74 340.599 640.11 340.542V340.514Z" fill="white"></path><path d="M963.29 665.092L969.547 672.743C961.754 669.614 964.541 679.57 961.896 679.001C959.962 678.603 964.513 671.406 958.426 671.349L963.29 665.092Z" fill="white"></path><path d="M684.684 372.542C683.945 376.78 689.463 378.43 689.548 378.799C690.06 381.018 683.404 380.933 684.684 386.451C685.196 377.463 678.484 380.705 678.427 380.193C678.142 378.259 684.883 376.837 684.684 372.542Z" fill="white"></path><path d="M1389.56 59.1139C1394.17 67.6756 1391.01 63.8641 1386.77 71.6578L1389.56 59.1139Z" fill="white"></path><path d="M73.1343 731.964C74.1867 732.391 78.425 741.607 71.7405 741.721C68.4126 739.018 71.2285 731.196 73.1343 731.964Z" fill="white"></path><path d="M1127.67 453.352C1131.25 462.795 1128.1 458.102 1124.88 464.502L1127.67 453.352Z" fill="white"></path><path d="M522.405 510.469C521.238 508.762 521.125 507.795 521.011 507.681C520.584 507.226 522.092 503.528 519.617 503.5C520.954 502.191 520.414 498.949 523.087 499.318C520.584 503.358 526.728 506.316 526.558 506.97C526.358 507.852 524.652 506.23 522.376 510.44L522.405 510.469Z" fill="white"></path><path d="M1035.03 706.876C1035.03 709.692 1040.55 713.134 1035.72 716.633C1036.48 713.191 1032.19 709.38 1032.25 708.981C1032.33 707.929 1034.98 707.047 1035.03 706.905V706.876Z" fill="white"></path><path d="M510.538 489.562L511.932 499.318C506.67 500.655 509.998 489.476 510.538 489.562Z" fill="white"></path><path d="M651.269 649.761C654.995 650.415 650.387 657.014 648.481 656.729C646.86 654.283 649.619 649.476 651.269 649.761Z" fill="white"></path><path d="M1058.01 631.669L1055.23 640.032C1055.28 635.481 1053.32 633.661 1058.01 631.669Z" fill="white"></path><path d="M312.738 740.327C317.688 739.985 311.287 744.423 311.344 747.295C308.87 744.536 308.785 740.611 312.738 740.327Z" fill="white"></path><path d="M1396.53 587.069L1399.32 592.644C1395.17 593.526 1394.94 590.397 1396.53 587.069Z" fill="white"></path><path d="M519.617 503.499L514.753 510.468C514.071 501.821 518.906 504.21 519.617 503.499Z" fill="white"></path><path d="M521.014 511.862C522.578 512.09 522.18 510.895 522.407 510.469C524.114 513 531.538 508.733 520.331 516.044C518.112 514.28 521.213 513.199 521.014 511.862Z" fill="white"></path><path d="M103.797 613.55L107.978 619.125C105.02 620.889 101.863 614.233 103.797 613.55Z" fill="white"></path><path d="M619.206 582.915C622.022 584.025 615.849 588.974 615.025 589.884C612.578 587.609 618.58 582.688 619.206 582.915Z" fill="white"></path><path d="M1404.21 486.774H1402.82C1402.56 485.067 1399.8 482.422 1402.14 479.805C1405.44 481.74 1403.62 484.499 1404.21 486.774Z" fill="white"></path><path d="M562.081 529.981C564.356 531.29 561.711 537.519 560.687 536.95C558.411 535.642 561.057 529.412 562.081 529.981Z" fill="white"></path><path d="M6.28871 535.528C8.64959 534.646 9.47459 540.932 9.07637 541.103C6.99994 541.814 4.66739 536.012 6.28871 535.528Z" fill="white"></path><path d="M638.721 464.502C641.025 468.285 638.437 468.171 635.934 470.077L638.721 464.502Z" fill="white"></path><path d="M1244.69 28.4791C1246.63 27.5973 1249.16 33.5422 1247.48 34.0542C1245.12 34.9359 1244.3 28.6497 1244.69 28.4791Z" fill="white"></path><path d="M1258.64 378.117C1261.03 377.576 1260.2 384.829 1257.24 383.692C1255.57 383.037 1258.35 378.173 1258.64 378.117Z" fill="white"></path><path d="M872.057 642.792H869.269C865.543 641.227 869.269 640.146 869.269 640.004C870.976 642.65 872.939 640.488 874.845 642.081C874.93 646.12 872.91 642.28 872.057 642.763V642.792Z" fill="white"></path><path d="M1385.38 574.554C1388.19 573.814 1390.3 579.247 1388.17 580.129C1387.74 580.299 1384.41 575.834 1385.38 574.554Z" fill="white"></path><path d="M897.14 102.292C895.063 107.981 890.086 106.787 894.352 100.899L897.14 102.292Z" fill="white"></path><path d="M50.8594 15.9352L54.3295 19.4054L52.2531 21.5103L50.8594 15.9352Z" fill="white"></path><path d="M105.187 300.123C105.471 300.179 108.259 305.043 106.58 305.698C103.622 306.835 102.797 299.582 105.187 300.123Z" fill="white"></path><path d="M1358.22 88.383C1358.02 88.1554 1358.33 86.4772 1358.22 85.5955L1362.4 89.0657C1362 90.687 1358.76 88.9803 1358.22 88.383Z" fill="white"></path><path d="M843.49 132.955C844.031 133.979 846.733 138.189 844.884 138.53C842.04 139.071 842.182 135.089 843.49 132.955Z" fill="white"></path><path d="M12.5322 750.083C12.5037 750.851 10.7403 754.919 9.06206 754.265C8.80607 754.151 9.60248 749.429 9.7447 748.689L12.5322 750.083Z" fill="white"></path><path d="M1268.39 220.706C1272.01 221.957 1263.76 227.988 1264.92 222.782C1265.12 221.872 1267.77 222.27 1268.39 220.706Z" fill="white"></path><path d="M794.049 752.842L792.655 751.448C792.94 751.05 792.456 748.974 792.655 747.978H795.443C794.902 749.656 794.447 751.136 794.049 752.842Z" fill="white"></path><path d="M468.77 102.292C469.538 105.023 471.728 107.583 468.77 109.261C467.604 108.066 467.718 102.463 468.77 102.292Z" fill="white"></path><path d="M635.928 0.603882C639.54 1.85543 631.292 7.88563 632.458 2.68032C632.657 1.7701 635.302 2.16832 635.928 0.603882Z" fill="white"></path><path d="M127.461 461.715C129.908 460.861 129.31 463.478 129.538 463.791C133.179 468.996 123.593 463.023 127.461 461.715Z" fill="white"></path><path d="M635.939 240.219C639.096 238.683 636.763 244.4 634.545 245.794C632.98 244.827 635.569 240.389 635.939 240.219Z" fill="white"></path><path d="M1056.63 31.2667C1057.11 30.9254 1059.7 31.0392 1060.1 31.9494C1061.15 34.2534 1052.13 34.2818 1056.63 31.2667Z" fill="white"></path><path d="M1250.27 425.477C1254.02 424.652 1255.7 427.894 1251.66 428.264C1251.52 428.264 1248.82 426.188 1250.27 425.477Z" fill="white"></path><path d="M1035.04 706.876C1035.04 705.596 1034.64 702.98 1035.72 702.695L1037.8 706.165C1037.43 707.388 1035.07 706.706 1035.01 706.848L1035.04 706.876Z" fill="white"></path><path d="M464.581 297.335C465.491 297.051 469.303 297.107 469.445 298.018C466.515 300.891 460.968 298.473 464.581 297.335Z" fill="white"></path><path d="M1405.61 489.562C1405.66 490.899 1406 494.938 1404.92 495.137C1404.47 493.089 1403.42 491.297 1402.85 489.562H1405.64H1405.61Z" fill="white"></path><path d="M12.5472 750.083L9.75971 748.689C9.75971 748.689 7.22814 747.836 10.4423 745.902C12.0921 747.267 12.6325 747.808 12.5187 750.083H12.5472Z" fill="white"></path><path d="M309.954 362.814C311.916 364.15 309.755 368.446 308.56 368.389C306.74 368.303 309.356 363.752 309.954 362.814Z" fill="white"></path><path d="M585.784 287.579C588.771 285.417 587.491 292.499 585.784 291.76C584.703 291.305 584.618 288.432 585.784 287.579Z" fill="white"></path><path d="M369.86 212.343C372.05 211.632 374.724 215.899 372.647 216.525C372.391 216.61 368.693 213.31 369.86 212.343Z" fill="white"></path><path d="M3.49562 461.715C4.8325 461.942 7.73388 461.06 8.35966 462.397C8.53032 462.767 2.21562 466.01 3.49562 461.715Z" fill="white"></path><path d="M791.269 754.236H792.663C792.407 754.748 791.44 759.981 790.586 759.811C788.396 757.592 791.013 755.772 791.269 754.236Z" fill="white"></path><path d="M502.21 17.329C504.571 16.9023 505.681 17.6134 507.074 19.4054C506.534 20.9414 501.158 18.865 502.21 17.329Z" fill="white"></path><path d="M27.1656 256.916C27.706 256.66 30.6642 260.67 28.5593 261.097C25.7433 261.666 25.8287 257.57 27.1656 256.916Z" fill="white"></path><path d="M1132.57 826.684C1132.23 826.172 1127.93 824.949 1130.49 822.502C1133.96 822.047 1132 825.688 1132.57 826.684Z" fill="white"></path><path d="M562.083 89.7767C564.188 89.0087 565.155 91.8247 563.477 92.5643C561.429 93.4745 560.405 90.3741 562.083 89.7767Z" fill="white"></path><path d="M861.595 683.211C864.155 682.699 864.44 685.515 862.989 687.392C862.619 686.254 860.657 684.178 861.595 683.211Z" fill="white"></path><path d="M518.9 268.066C521.005 267.298 521.972 270.114 520.293 270.853C518.245 271.763 517.221 268.663 518.9 268.066Z" fill="white"></path><path d="M1370.07 102.292C1372.18 101.524 1373.14 104.34 1371.47 105.08C1369.42 105.99 1368.39 102.89 1370.07 102.292Z" fill="white"></path><path d="M1365.9 275.035C1368 274.267 1368.97 277.083 1367.29 277.822C1365.24 278.733 1364.22 275.632 1365.9 275.035Z" fill="white"></path><path d="M1007.86 125.987C1008.94 125.987 1008.92 131.562 1007.86 131.562C1006.81 131.562 1006.81 125.987 1007.86 125.987Z" fill="white"></path><path d="M585.782 282.004C587.887 281.236 588.854 284.052 587.176 284.791C585.128 285.701 584.104 282.601 585.782 282.004Z" fill="white"></path><path d="M35.5285 131.561C37.6334 130.793 38.6005 133.609 36.9223 134.349C34.8743 135.259 33.8503 132.159 35.5285 131.561Z" fill="white"></path><path d="M156.732 835.046C158.837 834.278 159.804 837.094 158.125 837.834C156.077 838.744 155.053 835.644 156.732 835.046Z" fill="white"></path><path d="M472.935 307.092C475.04 306.324 476.007 309.14 474.329 309.879C472.281 310.789 471.257 307.689 472.935 307.092Z" fill="white"></path><path d="M1132.58 826.683C1132.66 826.826 1137.24 826.171 1134.65 829.471C1131.64 829.983 1132.98 827.394 1132.58 826.683Z" fill="white"></path><path d="M778.032 307.092C780.137 306.324 781.104 309.14 779.426 309.879C777.378 310.789 776.354 307.689 778.032 307.092Z" fill="white"></path><path d="M967.476 78.6264C969.211 77.4318 969.325 83.974 967.476 82.8077C966.424 82.1251 966.282 79.4513 967.476 78.6264Z" fill="white"></path><path d="M20.2004 339.12C22.3053 338.352 23.2724 341.168 21.5942 341.907C19.5462 342.817 18.5222 339.717 20.2004 339.12Z" fill="white"></path><path d="M492.466 348.876C494.571 348.108 495.538 350.924 493.86 351.663C491.812 352.574 490.788 349.473 492.466 348.876Z" fill="white"></path><path d="M486.874 350.27C488.808 350.526 486.391 354.565 485.48 354.451C483.546 354.195 485.964 350.156 486.874 350.27Z" fill="white"></path><path d="M1239.13 350.27C1241.23 349.502 1242.2 352.318 1240.52 353.057C1238.47 353.967 1237.45 350.867 1239.13 350.27Z" fill="white"></path><path d="M1243.3 396.236C1244.21 396.122 1246.63 400.161 1244.69 400.417C1243.78 400.531 1241.37 396.492 1243.3 396.236Z" fill="white"></path><path d="M794.053 752.842C793.598 754.748 792.716 754.15 792.659 754.236H791.266C791.749 751.334 791.322 753.24 792.659 751.448L794.053 752.842Z" fill="white"></path><path d="M224.997 743.114C227.102 742.346 228.069 745.162 226.391 745.901C224.343 746.812 223.319 743.711 224.997 743.114Z" fill="white"></path><path d="M743.189 736.146C745.294 735.378 746.261 738.194 744.582 738.933C742.534 739.843 741.51 736.743 743.189 736.146Z" fill="white"></path><path d="M2.11448 734.752C4.21936 733.984 5.18644 736.8 3.50823 737.54C1.46024 738.45 0.436268 735.35 2.11448 734.752Z" fill="white"></path><path d="M223.595 397.63C225.7 396.862 226.667 399.677 224.989 400.417C222.941 401.327 221.917 398.227 223.595 397.63Z" fill="white"></path><path d="M960.503 712.452C960.645 712.452 963.319 714.471 961.897 715.239C958.313 717.145 957.886 712.765 960.503 712.452Z" fill="white"></path><path d="M846.267 22.904C848.372 22.136 849.339 24.952 847.661 25.6916C845.613 26.6018 844.589 23.5014 846.267 22.904Z" fill="white"></path><path d="M895.025 247.188C897.13 246.42 898.097 249.236 896.418 249.975C894.37 250.886 893.346 247.785 895.025 247.188Z" fill="white"></path><path d="M371.251 683.211C373.356 682.443 374.323 685.259 372.645 685.998C370.597 686.909 369.573 683.808 371.251 683.211Z" fill="white"></path><path d="M893.642 677.636C895.747 676.868 896.714 679.684 895.036 680.423C892.988 681.333 891.964 678.233 893.642 677.636Z" fill="white"></path><path d="M913.152 190.072C914.887 192.632 913.692 195.817 911.758 192.859C910.762 191.352 912.298 191.181 913.152 190.072Z" fill="white"></path><path d="M1017.62 673.455C1019.55 673.711 1017.14 677.75 1016.23 677.636C1014.29 677.38 1016.71 673.341 1017.62 673.455Z" fill="white"></path><path d="M715.349 669.273C717.454 668.505 718.421 671.321 716.743 672.061C714.695 672.971 713.671 669.87 715.349 669.273Z" fill="white"></path><path d="M690.259 667.879C692.364 667.111 693.331 669.927 691.653 670.667C689.605 671.577 688.581 668.476 690.259 667.879Z" fill="white"></path><path d="M805.884 656.729C807.989 655.961 808.956 658.777 807.278 659.516C805.23 660.427 804.206 657.326 805.884 656.729Z" fill="white"></path><path d="M652.659 425.477C652.801 425.477 655.475 427.496 654.053 428.264C650.469 430.17 650.042 425.789 652.659 425.477Z" fill="white"></path><path d="M103.802 426.87C105.907 426.102 106.874 428.918 105.196 429.658C103.148 430.568 102.124 427.468 103.802 426.87Z" fill="white"></path><path d="M1138.83 443.596C1140.93 442.828 1141.9 445.644 1140.22 446.383C1138.17 447.294 1137.15 444.193 1138.83 443.596Z" fill="white"></path><path d="M869.27 640.032C868.786 639.264 868.758 635.111 871.346 635.851C872.598 637.415 869.298 639.804 869.27 640.032Z" fill="white"></path><path d="M991.165 634.457C993.27 633.689 994.237 636.505 992.559 637.244C990.511 638.155 989.487 635.054 991.165 634.457Z" fill="white"></path><path d="M73.1262 457.533C75.231 456.765 76.1983 459.581 74.5201 460.321C72.4721 461.231 71.4479 458.131 73.1262 457.533Z" fill="white"></path><path d="M440.913 36.8417C442.847 37.0977 440.43 41.1368 439.519 41.023C437.585 40.767 440.003 36.7279 440.913 36.8417Z" fill="white"></path><path d="M1176.43 556.434C1178.54 555.666 1179.5 558.482 1177.82 559.222C1175.78 560.132 1174.75 557.032 1176.43 556.434Z" fill="white"></path><path d="M627.565 472.865C627.708 472.865 630.381 474.885 628.959 475.653C625.375 477.558 624.948 473.178 627.565 472.865Z" fill="white"></path><path d="M1405.61 489.562H1402.82C1402.59 488.907 1402.96 487.656 1402.82 486.774H1404.22C1404.24 486.916 1405.5 486.091 1405.61 489.562Z" fill="white"></path><path d="M198.521 502.106C200.626 501.338 201.593 504.154 199.914 504.893C197.866 505.803 196.843 502.703 198.521 502.106Z" fill="white"></path><path d="M522.412 510.468C522.184 510.895 522.583 512.09 521.018 511.862C521.018 511.663 517.207 509.131 521.018 507.681C521.132 507.794 521.246 508.762 522.412 510.468Z" fill="white"></path><path d="M1207.78 520.225C1207.78 520.225 1205.87 520.31 1206.38 518.831C1206.64 518.063 1205.82 516.669 1207.07 516.043L1207.75 520.225H1207.78Z" fill="white"></path><path d="M127.448 513.256L128.159 515.332L126.054 516.043L125.371 515.332L127.448 513.256Z" fill="white"></path><path d="M1358.22 88.3829C1354.26 88.8096 1355.17 86.7901 1358.22 85.5954C1358.33 86.4772 1358.02 88.1554 1358.22 88.3829Z" fill="white"></path><path d="M1207.78 520.225C1205.82 523.78 1203.2 519.627 1206.39 518.831C1205.87 520.31 1207.84 520.139 1207.78 520.225Z" fill="white"></path><path d="M1159.73 529.981L1161.8 530.663L1159.73 532.74L1159.02 532.057L1159.73 529.981Z" fill="white"></path><path d="M532.851 57.72L534.927 58.4311L532.851 60.5075L532.168 59.8248L532.851 57.72Z" fill="white"></path><path d="M39.7111 546.677L41.7877 547.389L39.7111 549.465L39 548.782L39.7111 546.677Z" fill="white"></path><path d="M914.55 36.8419L916.626 37.5246L914.55 39.601L913.867 38.9184L914.55 36.8419Z" fill="white"></path><path d="M783.59 612.156L785.695 612.868L784.984 614.944L784.301 614.233L783.59 612.156Z" fill="white"></path><path d="M1177.14 464.502L1174.35 465.896C1175.4 463.507 1176.17 464.958 1177.14 464.502Z" fill="white"></path><path d="M676.316 627.488L677.71 628.881V630.275H676.316V627.488Z" fill="white"></path><path d="M493.86 637.244L495.936 637.927L493.86 640.032L493.148 639.32L493.86 637.244Z" fill="white"></path><path d="M399.1 443.596L399.811 445.7L397.706 446.383L397.023 445.7L399.1 443.596Z" fill="white"></path><path d="M7.68315 439.414L8.36579 441.519L6.28923 442.202L5.57812 441.519L7.68315 439.414Z" fill="white"></path><path d="M872.053 642.791C871.228 643.275 869.436 648.565 869.266 642.791H872.053Z" fill="white"></path><path d="M142.785 649.76L144.89 650.471L144.179 652.547L143.496 651.865L142.785 649.76Z" fill="white"></path><path d="M414.428 418.536L415.139 420.613L413.034 421.295L412.352 420.613L414.428 418.536Z" fill="white"></path><path d="M833.766 70.264L835.842 70.9467L833.766 73.0516L833.055 72.3405L833.766 70.264Z" fill="white"></path><path d="M223.605 410.174L225.682 410.856L224.999 412.961L224.288 412.25L223.605 410.174Z" fill="white"></path><path d="M789.164 197.04C789.847 197.012 790.103 198.263 789.847 199.117C789.05 204.294 787.372 197.126 789.164 197.04Z" fill="white"></path><path d="M1039.93 708.27L1041.32 709.664V711.058H1039.93V708.27Z" fill="white"></path><path d="M226.383 403.205L227.777 404.598V405.992H226.383V403.205Z" fill="white"></path><path d="M1227.97 716.633L1228.68 718.738L1226.58 719.42L1225.89 718.738L1227.97 716.633Z" fill="white"></path><path d="M220.82 397.63C221.503 397.601 221.759 398.853 221.503 399.706C220.707 404.883 219.028 397.715 220.82 397.63Z" fill="white"></path><path d="M159.508 762.599L161.585 763.31L159.508 765.386L158.797 764.704L159.508 762.599Z" fill="white"></path><path d="M0.711108 390.661L2.78749 391.372L0.711108 393.448L0 392.766L0.711108 390.661Z" fill="white"></path><path d="M752.947 389.267L753.63 391.372L751.554 392.055L750.871 391.372L752.947 389.267Z" fill="white"></path><path d="M791.957 202.587L793.351 203.981V205.374H791.957V202.587Z" fill="white"></path><path d="M1290.66 365.602L1291.37 367.678L1289.26 368.361L1288.58 367.678L1290.66 365.602Z" fill="white"></path><path d="M1293.45 361.42L1294.16 363.496L1292.05 364.207L1291.37 363.496L1293.45 361.42Z" fill="white"></path><path d="M158.128 766.78L158.811 768.885L156.735 769.567L156.023 768.885L158.128 766.78Z" fill="white"></path><path d="M1136.03 783.505L1138.11 784.188L1136.03 786.293L1135.35 785.582L1136.03 783.505Z" fill="white"></path><path d="M314.143 14.5414L314.826 16.6178L312.749 17.3289L312.066 16.6178L314.143 14.5414Z" fill="white"></path><path d="M222.207 796.049C222.89 796.021 223.146 797.272 222.89 798.126C222.093 803.302 220.415 796.134 222.207 796.049Z" fill="white"></path><path d="M745.984 344.695H747.378C750.137 344.467 750.137 346.316 747.378 346.088L745.984 344.695Z" fill="white"></path><path d="M1350.56 801.624L1351.28 803.701L1349.17 804.412L1348.49 803.701L1350.56 801.624Z" fill="white"></path><path d="M344.772 336.332L346.878 337.043L344.772 339.12L344.09 338.437L344.772 336.332Z" fill="white"></path><path d="M1177.83 230.462L1179.93 231.145L1177.83 233.25L1177.14 232.539L1177.83 230.462Z" fill="white"></path><path d="M708.375 321L710.452 321.712L708.375 323.788L707.664 323.105L708.375 321Z" fill="white"></path><path d="M1404.89 811.352L1407 812.063L1404.89 814.139L1404.21 813.457L1404.89 811.352Z" fill="white"></path><path d="M1129.06 828.077L1131.17 828.788L1129.06 830.865L1128.38 830.182L1129.06 828.077Z" fill="white"></path><path d="M1108.2 287.579L1110.28 288.261L1108.2 290.366L1107.49 289.655L1108.2 287.579Z" fill="white"></path><path d="M1357.53 81.4141L1358.21 83.4905L1356.14 84.2016L1355.43 83.4905L1357.53 81.4141Z" fill="white"></path><path d="M116.336 123.199H117.73C120.489 122.971 120.489 124.82 117.73 124.592L116.336 123.199Z" fill="white"></path><path d="M897.143 102.292L894.355 100.898C896.005 98.6512 897.342 101.695 897.143 102.292Z" fill="white"></path><path d="M1013.44 256.916L1015.54 257.627L1014.83 259.703L1014.15 259.021L1013.44 256.916Z" fill="white"></path><path d="M1155.55 248.582L1157.63 249.264L1155.55 251.369L1154.84 250.658L1155.55 248.582Z" fill="white"></path><path d="M1211.27 507.681L1213.35 508.363L1211.27 510.468L1210.56 509.757L1211.27 507.681Z" fill="white"></path></g></svg>