<svg width="1297" height="368" viewBox="0 0 1297 368" fill="none" xmlns="http://www.w3.org/2000/svg">
<path d="M578 216C588.02 210.91 600.86 208.5 612.01 208.01L622.01 41.01L623.99 43L631.01 4.01L644.27 83.23C645.9 87.64 647.35 90.18 646 95.01L647.98 93.99C646.28 99.83 647.98 107.07 649.51 112.99C649.8 114.13 649.44 116.24 650.98 116L672 4.01L674.91 12.58C674.78 20.42 675.92 28.22 677.7 35.8C678.06 37.33 677.18 39.47 679.47 38.99L691.97 0L706.19 218.28L707.97 219.99C709.63 203.12 721.7 185.47 736.98 177.99C748.37 172.41 760.74 171.63 772.98 174.99C794.23 180.82 816.87 202.62 815.99 225.99C842.74 219.82 868.68 228.1 879.98 254.49L877.99 255.48C884.81 264.98 882.16 280.23 878.99 290.98C892.75 290.66 911.37 295.04 914.04 310.96C941.85 300.6 967.83 311.78 973 341.99L978.82 329.32C990.07 308.07 1013.15 300.16 1035.52 309.96C1038.57 311.3 1042.47 315.33 1045.48 315.04C1048.22 314.85 1048.15 311.65 1049.55 310.05C1058.1 300.28 1070.13 298.89 1081.97 303.5C1084.08 304.32 1088.01 305.58 1088.05 307.92L1089.46 307.97C1102.08 293.73 1125.74 291.73 1140.49 304.02C1141.29 303.98 1140.42 300.98 1142.93 302.97C1148.68 287.72 1164.97 279.11 1181 283.48C1185.53 284.72 1189.26 288.28 1193.99 289L1193.01 292.51C1201.15 291.3 1205.46 304.32 1207.12 310.87C1232.56 309.8 1259.59 323.9 1259.98 352.01C1268.77 350.86 1278.49 350.52 1286.52 354.97C1290.66 357.26 1292.56 361.61 1296.99 363V368H0C7.69 340.35 31.44 317.68 60.63 315.13C68.11 314.48 80.02 316.99 85.46 315.96C88.1 315.46 93.63 311.55 96.98 310.37C97.28 310.27 101.88 309.04 102.44 308.91C121.84 304.46 136.64 307.61 152.94 318.57C155.34 320.18 158.25 325.11 161.35 324.8C163.64 324.57 167.93 320.11 170.31 318.81C194.9 305.43 217.9 313.88 238.99 329C232.15 298.96 254.15 272.85 284.8 274.79C301.09 241.18 358.69 240.43 378.5 270.9C397.16 253.53 426.24 257.49 441 277.51L439.02 279.99L443 278.99L444.02 283.99L441.01 284.99C444.81 284.59 445.85 284.58 447.5 287.98C452.98 282.77 458.71 278.64 466.51 278.02C468.56 277.86 477.52 277.77 479.24 278.17C481.42 278.68 491.99 286.04 492.99 285C493.27 281.81 493.75 278.26 494.69 275.2C496.34 269.83 502.15 258.32 505.56 254.07C508.04 250.97 509.9 248.63 513.99 251L514.2 246.23C524.72 241.54 531.92 241.56 543 243C546.8 243.5 550.19 244.09 553.91 244.93C558.23 232.39 566.03 222.09 578 216Z" fill="#FDFDFD"/>
</svg>
