<svg xmlns="http://www.w3.org/2000/svg" width="66" height="40" viewBox="0 0 66 40" fill="none"><path d="M18.5993 14.674C18.5993 15.4696 18.6854 16.1147 18.8359 16.5877C19.0079 17.0608 19.2229 17.5769 19.524 18.1359C19.6315 18.308 19.6745 18.48 19.6745 18.6305C19.6745 18.8455 19.5455 19.0606 19.2659 19.2756L17.9112 20.1787C17.7177 20.3077 17.5242 20.3722 17.3522 20.3722C17.1371 20.3722 16.9221 20.2647 16.7071 20.0712C16.406 19.7487 16.148 19.4046 15.933 19.0606C15.718 18.695 15.5029 18.2865 15.2664 17.7919C13.5892 19.7702 11.4819 20.7593 8.94453 20.7593C7.13829 20.7593 5.69759 20.2432 4.64395 19.2111C3.59031 18.1789 3.05273 16.8028 3.05273 15.0825C3.05273 13.2548 3.69782 11.7711 5.0095 10.6529C6.32118 9.53478 8.06291 8.9757 10.2777 8.9757C11.0088 8.9757 11.7614 9.04021 12.557 9.14772C13.3526 9.25524 14.1697 9.42726 15.0299 9.62079V8.05107C15.0299 6.41685 14.6858 5.2772 14.0192 4.61061C13.3311 3.94402 12.17 3.62147 10.5142 3.62147C9.76164 3.62147 8.98754 3.70749 8.19193 3.90101C7.39632 4.09454 6.62222 4.33107 5.86962 4.63211C5.52557 4.78263 5.26753 4.86864 5.11701 4.91165C4.96649 4.95465 4.85898 4.97616 4.77297 4.97616C4.47193 4.97616 4.32141 4.76113 4.32141 4.30957V3.25592C4.32141 2.91188 4.36441 2.65384 4.47193 2.50332C4.57944 2.3528 4.77297 2.20228 5.07401 2.05176C5.82661 1.66471 6.72973 1.34216 7.78338 1.08413C8.83702 0.804592 9.95517 0.675574 11.1378 0.675574C13.6967 0.675574 15.5674 1.25615 16.7716 2.41731C17.9543 3.57847 18.5563 5.34171 18.5563 7.70703V14.674H18.5993ZM9.86916 17.9424C10.5788 17.9424 11.3099 17.8134 12.084 17.5554C12.8581 17.2973 13.5462 16.8243 14.1267 16.1792C14.4708 15.7706 14.7288 15.3191 14.8578 14.803C14.9869 14.2869 15.0729 13.6633 15.0729 12.9322V12.0291C14.4493 11.8786 13.7827 11.7496 13.0946 11.6636C12.4065 11.5776 11.7399 11.5345 11.0733 11.5345C9.63263 11.5345 8.57898 11.8141 7.86939 12.3947C7.15979 12.9752 6.81574 13.7924 6.81574 14.8675C6.81574 15.8781 7.07378 16.6307 7.61135 17.1468C8.12742 17.6844 8.88002 17.9424 9.86916 17.9424ZM27.136 20.2647C26.7489 20.2647 26.4909 20.2002 26.3189 20.0497C26.1469 19.9207 25.9963 19.6196 25.8673 19.2111L20.8141 2.58933C20.6851 2.15928 20.6206 1.87974 20.6206 1.72922C20.6206 1.38517 20.7926 1.19164 21.1367 1.19164H23.244C23.6525 1.19164 23.9321 1.25615 24.0826 1.40667C24.2546 1.53569 24.3836 1.83673 24.5126 2.24529L28.1251 16.4802L31.4796 2.24529C31.5871 1.81523 31.7161 1.53569 31.8881 1.40667C32.0602 1.27766 32.3612 1.19164 32.7483 1.19164H34.4685C34.877 1.19164 35.1566 1.25615 35.3286 1.40667C35.5006 1.53569 35.6512 1.83673 35.7372 2.24529L39.1346 16.6522L42.8546 2.24529C42.9836 1.81523 43.1342 1.53569 43.2847 1.40667C43.4567 1.27766 43.7362 1.19164 44.1233 1.19164H46.1231C46.4671 1.19164 46.6606 1.36367 46.6606 1.72922C46.6606 1.83673 46.6391 1.94425 46.6176 2.07326C46.5961 2.20228 46.5531 2.3743 46.4671 2.61084L41.2849 19.2326C41.1559 19.6626 41.0054 19.9422 40.8334 20.0712C40.6613 20.2002 40.3818 20.2862 40.0162 20.2862H38.167C37.7584 20.2862 37.4789 20.2217 37.3069 20.0712C37.1349 19.9207 36.9843 19.6411 36.8983 19.2111L33.5654 5.34171L30.2539 19.1896C30.1464 19.6196 30.0174 19.8992 29.8454 20.0497C29.6733 20.2002 29.3723 20.2647 28.9853 20.2647H27.136ZM54.7672 20.8453C53.6491 20.8453 52.5309 20.7163 51.4558 20.4583C50.3806 20.2002 49.542 19.9207 48.983 19.5981C48.6389 19.4046 48.4024 19.1896 48.3164 18.9961C48.2304 18.8025 48.1874 18.5875 48.1874 18.394V17.2973C48.1874 16.8458 48.3594 16.6307 48.6819 16.6307C48.8109 16.6307 48.94 16.6522 49.069 16.6952C49.198 16.7383 49.3915 16.8243 49.6065 16.9103C50.3376 17.2328 51.1333 17.4909 51.9719 17.6629C52.832 17.8349 53.6706 17.9209 54.5307 17.9209C55.8854 17.9209 56.939 17.6844 57.6701 17.2113C58.4012 16.7383 58.7883 16.0502 58.7883 15.1685C58.7883 14.5665 58.5948 14.0719 58.2077 13.6633C57.8207 13.2548 57.0896 12.8892 56.0359 12.5452L52.918 11.5776C51.3483 11.083 50.1871 10.3519 49.4775 9.38426C48.7679 8.43813 48.4024 7.38448 48.4024 6.26633C48.4024 5.36321 48.5959 4.5676 48.983 3.87951C49.37 3.19142 49.8861 2.58933 50.5312 2.11627C51.1763 1.6217 51.9074 1.25615 52.7675 0.998118C53.6276 0.740083 54.5307 0.632568 55.4768 0.632568C55.9499 0.632568 56.4445 0.654071 56.9175 0.71858C57.4121 0.783089 57.8637 0.8691 58.3152 0.955112C58.7453 1.06263 59.1538 1.17014 59.5409 1.29916C59.9279 1.42818 60.229 1.55719 60.444 1.68621C60.7451 1.85823 60.9601 2.03026 61.0891 2.22378C61.2181 2.39581 61.2826 2.63234 61.2826 2.93338V3.94402C61.2826 4.39558 61.1106 4.63211 60.7881 4.63211C60.616 4.63211 60.3365 4.5461 59.9709 4.37408C58.7453 3.815 57.3691 3.53546 55.8424 3.53546C54.6167 3.53546 53.6491 3.72899 52.9825 4.13754C52.3159 4.5461 51.9719 5.16968 51.9719 6.0513C51.9719 6.65338 52.1869 7.16946 52.617 7.57801C53.047 7.98657 53.8426 8.39512 54.9823 8.76067L58.0357 9.7283C59.5839 10.2229 60.702 10.911 61.3686 11.7926C62.0352 12.6742 62.3578 13.6848 62.3578 14.803C62.3578 15.7276 62.1642 16.5662 61.7987 17.2973C61.4116 18.0284 60.8956 18.6735 60.229 19.1896C59.5624 19.7272 58.7668 20.1142 57.8422 20.3937C56.8745 20.6948 55.8639 20.8453 54.7672 20.8453Z" fill="#252F3E"></path><path fill-rule="evenodd" clip-rule="evenodd" d="M58.8318 31.2959C51.7574 36.5211 41.479 39.2949 32.6413 39.2949C20.2556 39.2949 9.09557 34.7148 0.666427 27.1028C-0.000162989 26.5007 0.601919 25.6836 1.39753 26.1567C10.5148 31.4464 21.7608 34.6503 33.3939 34.6503C41.2424 34.6503 49.8651 33.0161 57.7997 29.6616C58.9823 29.1241 59.993 30.4357 58.8318 31.2959Z" fill="#FF9900"></path><path fill-rule="evenodd" clip-rule="evenodd" d="M61.7777 27.9416C60.8746 26.7804 55.7999 27.3825 53.4991 27.662C52.811 27.748 52.7035 27.146 53.3271 26.6944C57.3696 23.856 64.014 24.6731 64.7881 25.6192C65.5622 26.5869 64.5731 33.2313 60.7886 36.4137C60.208 36.9083 59.6489 36.6502 59.907 36.0052C60.7671 33.8764 62.6809 29.0812 61.7777 27.9416Z" fill="#FF9900"></path></svg>