<svg xmlns="http://www.w3.org/2000/svg" width="690" height="149" viewBox="0 0 690 149" fill="none"><path d="M29.05 98.54L58.19 82.19L58.68 80.77L58.19 79.98H56.77L51.9 79.68L35.25 79.23L20.81 78.63L6.82 77.88L3.3 77.13L0 72.78L0.340004 70.61L3.3 68.62L7.54 68.99L16.91 69.63L30.97 70.6L41.17 71.2L56.28 72.77H58.68L59.02 71.8L58.2 71.2L57.56 70.6L43.01 60.74L27.26 50.32L19.01 44.32L14.55 41.28L12.3 38.43L11.33 32.21L15.38 27.75L20.82 28.12L22.21 28.49L27.72 32.73L39.49 41.84L54.86 53.16L57.11 55.03L58.01 54.39L58.12 53.94L57.11 52.25L48.75 37.14L39.83 21.77L35.86 15.4L34.81 11.58C34.44 10.01 34.17 8.69 34.17 7.08L38.78 0.820007L41.33 0L47.48 0.820007L50.07 3.07001L53.89 11.81L60.08 25.57L69.68 44.28L72.49 49.83L73.99 54.97L74.55 56.54H75.52V55.64L76.31 45.1L77.77 32.16L79.19 15.51L79.68 10.82L82 5.2L86.61 2.16L90.21 3.88L93.17 8.12L92.76 10.86L91 22.3L87.55 40.22L85.3 52.22H86.61L88.11 50.72L94.18 42.66L104.38 29.91L108.88 24.85L114.13 19.26L117.5 16.6H123.87L128.56 23.57L126.46 30.77L119.9 39.09L114.46 46.14L106.66 56.64L101.79 65.04L102.24 65.71L103.4 65.6L121.02 61.85L130.54 60.13L141.9 58.18L147.04 60.58L147.6 63.02L145.58 68.01L133.43 71.01L119.18 73.86L97.96 78.88L97.7 79.07L98 79.44L107.56 80.34L111.65 80.56H121.66L140.3 81.95L145.17 85.17L148.09 89.11L147.6 92.11L140.1 95.93L129.98 93.53L106.36 87.91L98.26 85.89H97.14V86.56L103.89 93.16L116.26 104.33L131.75 118.73L132.54 122.29L130.55 125.1L128.45 124.8L114.84 114.56L109.59 109.95L97.7 99.94H96.91V100.99L99.65 105L114.12 126.75L114.87 133.42L113.82 135.59L110.07 136.9L105.95 136.15L97.48 124.26L88.74 110.87L81.69 98.87L80.83 99.36L76.67 144.17L74.72 146.46L70.22 148.18L66.47 145.33L64.48 140.72L66.47 131.61L68.87 119.72L70.82 110.27L72.58 98.53L73.63 94.63L73.56 94.37L72.7 94.48L63.85 106.63L50.39 124.82L39.74 136.22L37.19 137.23L32.77 134.94L33.18 130.85L35.65 127.21L50.39 108.46L59.28 96.84L65.02 90.13L64.98 89.16H64.64L25.49 114.58L18.52 115.48L15.52 112.67L15.89 108.06L17.31 106.56L29.08 98.46L29.04 98.5L29.05 98.54Z" fill="#D97757"></path><path d="M241.77 125.8C222.95 125.8 210.08 115.3 204.01 99.14C200.84 90.72 199.27 81.78 199.4 72.78C199.4 45.67 211.55 26.84 238.4 26.84C256.44 26.84 267.57 34.71 273.91 53.5H281.63L280.58 27.59C269.78 20.62 256.28 17.09 239.86 17.09C216.72 17.09 197.04 27.44 186.09 46.11C180.43 55.97 177.56 67.18 177.77 78.55C177.77 99.29 187.56 117.66 205.93 127.86C215.99 133.23 227.27 135.9 238.67 135.58C256.59 135.58 270.81 132.17 283.41 126.21L286.67 97.64H278.8C274.08 110.69 268.45 118.53 259.11 122.69C254.54 124.75 248.76 125.8 241.79 125.8H241.77ZM322.95 26.84L323.7 14.09H318.38L294.68 21.21V25.07L305.18 29.94V119.11C305.18 125.18 302.07 126.53 293.93 127.55V134.07H334.24V127.55C326.07 126.54 322.99 125.19 322.99 119.11V26.87L322.95 26.83V26.84ZM483.26 135.59H486.37L513.63 130.42V123.75L509.81 123.45C503.44 122.85 501.79 121.54 501.79 116.33V68.78L502.54 53.52H498.23L472.47 57.23V63.75L474.98 64.2C481.95 65.21 484.02 67.16 484.02 72.04V114.41C477.35 119.58 470.97 122.85 463.4 122.85C455 122.85 449.79 118.58 449.79 108.6V68.81L450.54 53.55H446.12L420.32 57.26V63.78L422.98 64.23C429.95 65.24 432.02 67.19 432.02 72.07V111.18C432.02 127.75 441.39 135.63 456.32 135.63C467.72 135.63 477.06 129.56 484.07 121.12L483.32 135.63L483.28 135.59H483.26ZM408.34 82.83C408.34 61.64 397.09 53.51 376.77 53.51C358.85 53.51 345.83 60.93 345.83 73.23C345.83 76.9 347.14 79.72 349.8 81.67L363.45 79.87C362.85 75.75 362.55 73.23 362.55 72.18C362.55 65.21 366.26 61.68 373.8 61.68C384.94 61.68 390.56 69.52 390.56 82.12V86.24L362.44 94.68C353.07 97.23 347.74 99.44 344.18 104.62C342.29 107.79 341.38 111.44 341.56 115.12C341.56 127.12 349.81 135.59 363.91 135.59C374.11 135.59 383.15 130.98 391.02 122.24C393.83 130.98 398.14 135.59 405.83 135.59C412.05 135.59 417.68 133.08 422.7 128.17L421.2 123C419.03 123.6 416.93 123.9 414.71 123.9C410.4 123.9 408.34 120.49 408.34 113.81V82.84V82.83ZM372.34 123.59C364.65 123.59 359.89 119.13 359.89 111.29C359.89 105.97 362.4 102.85 367.76 101.05L390.56 93.81V115.71C383.29 121.22 379.01 123.58 372.34 123.58V123.59ZM609.7 130.41V123.74L605.84 123.44C599.47 122.84 597.85 121.53 597.85 116.32V26.85L598.6 14.1H593.24L569.54 21.22V25.08L580.04 29.95V59.27C574.13 55.22 567.06 53.19 559.9 53.5C536.35 53.5 517.98 71.42 517.98 98.24C517.98 120.33 531.18 135.59 552.93 135.59C564.18 135.59 573.97 130.12 580.04 121.64L579.29 135.59H582.44L609.7 130.42V130.41ZM560.35 62.39C571.6 62.39 580.04 68.91 580.04 80.91V114.66C574.86 119.82 567.81 122.66 560.5 122.53C544.38 122.53 536.2 109.78 536.2 92.76C536.2 73.64 545.54 62.39 560.35 62.39ZM667.34 79.27C665.24 69.37 659.17 63.75 650.73 63.75C638.13 63.75 629.39 73.24 629.39 86.85C629.39 106.99 640.04 120.04 657.25 120.04C668.73 119.92 679.29 113.71 684.96 103.73L689.98 105.08C687.73 122.55 671.91 135.6 652.48 135.6C629.68 135.6 613.97 118.73 613.97 94.73C613.97 70.73 631.03 53.52 653.83 53.52C670.85 53.52 682.85 63.76 686.72 81.53L627.32 99.75V91.73L667.33 79.32V79.28L667.34 79.27Z" fill="#0F0F0D"></path></svg>