<svg xmlns="http://www.w3.org/2000/svg" width="65" height="37" viewBox="0 0 65 37" fill="none"><path d="M18.1501 33.5637V30.3092C18.1501 30.2239 18.0968 30.1705 18.0114 30.1705H16.9444V28.9008H18.0114C18.0968 28.9008 18.1501 28.8474 18.1501 28.7621V26.7241H19.6653V28.7621C19.6653 28.8474 19.7186 28.9008 19.804 28.9008H21.2978V30.1705H19.804C19.7186 30.1705 19.6653 30.2239 19.6653 30.3092V33.1902C19.6653 34.5453 20.1454 34.6627 20.7643 34.6627C20.9884 34.6627 21.3298 34.6307 21.5219 34.6093V35.9324C21.2658 35.9644 20.8497 36.0178 20.3695 36.0178C19.7826 35.9858 18.1501 35.9858 18.1501 33.5637ZM59.3903 34.3532L60.628 33.7024C60.9055 34.3532 61.439 34.78 62.0579 34.78C62.538 34.78 63.0715 34.5773 63.0715 33.9905C63.0715 33.5957 62.8154 33.3716 62.2286 33.1689L61.3856 32.8914C60.2012 32.5286 59.6144 31.8458 59.6144 30.8854C59.6144 29.669 60.6281 28.7621 62.0045 28.7621C63.1035 28.7621 64.0318 29.3596 64.48 30.2879L63.2422 30.9708C62.9648 30.3733 62.5167 30.0425 61.9832 30.0425C61.4497 30.0425 61.0869 30.3199 61.0869 30.7467C61.0869 31.1095 61.3643 31.3976 61.9298 31.5683L62.7727 31.8458C64.0105 32.2405 64.5974 32.9234 64.5974 33.8517C64.5974 35.3242 63.3383 36.0818 62.0685 36.0818C60.7988 36.0498 59.7851 35.3989 59.3903 34.3532ZM54.7274 33.0835C54.6954 33.1155 54.6741 33.1368 54.6741 33.1689V35.8791H53.1269V25.8491H54.6741V31.3336C54.6741 31.3869 54.7061 31.451 54.7595 31.451C54.8128 31.483 54.8768 31.451 54.8982 31.4189L57.395 28.8794H59.2729L56.36 31.8351C56.3066 31.8884 56.3066 31.9525 56.36 32.0058L59.529 35.8791H57.6511L55.2076 32.8274C55.1756 32.7954 55.1543 32.7741 55.1222 32.7741C55.0902 32.7741 55.0689 32.7741 55.0369 32.8061L54.7274 33.0835ZM52.3693 29.8291L51.3877 30.7574C50.8222 30.3306 50.2673 30.1385 49.6484 30.1385C48.3574 30.1385 47.397 31.0988 47.397 32.4006C47.397 33.7024 48.3574 34.6627 49.6484 34.6627C50.214 34.6627 50.8008 34.4599 51.4197 34.0438L52.2946 34.9721C51.0356 35.9004 50.3527 36.0711 49.4884 36.0711C48.4534 36.0711 47.5251 35.7084 46.8529 35.0255C46.202 34.3746 45.8392 33.4143 45.8392 32.4006C45.8392 30.2772 47.3864 28.7301 49.5204 28.7301C50.2033 28.7301 51.249 28.8368 52.3693 29.8291ZM45.1243 26.8094C45.1243 27.3216 44.7082 27.7377 44.196 27.7377C43.6945 27.7377 43.2677 27.3109 43.2677 26.8094C43.2677 26.2973 43.6838 25.8811 44.196 25.8811C44.6975 25.8705 45.1243 26.2973 45.1243 26.8094ZM44.9749 35.8791H43.4277V28.9008H44.9749V35.8791ZM40.0666 32.8274V35.9111H38.5195V28.9328H40.0346V29.7757C40.0346 29.8291 40.0666 29.8931 40.12 29.9145C40.1733 29.9465 40.2374 29.9145 40.2587 29.8611C40.6535 29.2102 41.3791 28.7834 42.1687 28.7834C42.286 28.7834 42.3607 28.7834 42.4247 28.8154V30.3946C42.3394 30.3626 42.2007 30.3626 42.062 30.3626C40.8242 30.3413 40.0666 31.3016 40.0666 32.8274ZM31.7759 32.4006C31.7759 31.1309 32.7362 30.1385 33.9633 30.1385C35.201 30.1385 36.1507 31.1309 36.1507 32.4006C36.1507 33.6704 35.1904 34.6627 33.9633 34.6627C32.7362 34.6627 31.7759 33.6704 31.7759 32.4006ZM31.9146 35.0575C31.9466 35.0575 31.9466 35.0575 31.968 35.0575C32 35.0575 32.0533 35.0895 32.0853 35.1108C32.6189 35.7297 33.4084 36.0711 34.3047 36.0711C36.2147 36.0711 37.6765 34.4599 37.6765 32.4006C37.6765 31.3869 37.3351 30.48 36.6949 29.7757C36.076 29.0929 35.201 28.7301 34.2834 28.7301C33.4084 28.7301 32.5975 29.0929 32.064 29.7437C32.032 29.7757 31.9786 29.7971 31.9253 29.7757C31.8719 29.7437 31.8399 29.7224 31.8399 29.6584V25.8705H30.2928V35.9004H31.8399V35.1962C31.8293 35.1108 31.8613 35.0895 31.9146 35.0575ZM25.5125 34.6627C24.3068 34.6627 23.3251 33.6704 23.3251 32.4006C23.3251 31.1309 24.2855 30.1385 25.5125 30.1385C26.7503 30.1385 27.6999 31.1309 27.6999 32.4006C27.6999 33.6704 26.7183 34.6627 25.5125 34.6627ZM29.1404 35.8791V28.9008H27.6252V29.605C27.6252 29.6584 27.5932 29.7224 27.5399 29.7224C27.4865 29.7544 27.4225 29.7224 27.4011 29.6904C26.8996 29.0715 26.1101 28.7301 25.1817 28.7301C23.2718 28.7301 21.81 30.3413 21.81 32.4006C21.81 34.4599 23.3038 36.0711 25.1817 36.0711C26.0567 36.0711 26.8676 35.7084 27.4011 35.0575C27.4332 35.0041 27.4865 35.0041 27.5399 35.0255C27.5932 35.0575 27.6252 35.0788 27.6252 35.1428V35.9111H29.1404V35.8791ZM12.5056 34.6627C11.2999 34.6627 10.3182 33.6704 10.3182 32.4006C10.3182 31.1309 11.2785 30.1385 12.5056 30.1385C13.7113 30.1385 14.693 31.1309 14.693 32.4006C14.693 33.6704 13.7113 34.6627 12.5056 34.6627ZM16.1334 35.8791V28.9008H14.6183V29.605C14.6183 29.6584 14.5863 29.7224 14.5329 29.7224C14.4796 29.7544 14.4156 29.7224 14.3942 29.6904C13.8927 29.0715 13.1031 28.7301 12.1748 28.7301C10.2649 28.7301 8.80304 30.3413 8.80304 32.4006C8.80304 34.4599 10.2969 36.0711 12.1748 36.0711C13.0498 36.0711 13.8607 35.7084 14.3942 35.0575C14.4262 35.0041 14.4796 35.0041 14.5329 35.0255C14.5863 35.0575 14.6183 35.0788 14.6183 35.1428V35.9111H16.1334V35.8791ZM4.30023 34.6627C3.06249 34.6627 2.11285 33.6704 2.11285 32.4006C2.11285 31.1309 3.07316 30.1385 4.30023 30.1385C5.50596 30.1385 6.48762 31.1309 6.48762 32.4006C6.49829 33.6704 5.50596 34.6627 4.30023 34.6627ZM7.92809 35.8791V25.8705H6.38092V29.6264C6.38092 29.6797 6.34891 29.7437 6.29555 29.7437C6.2422 29.7757 6.17818 29.7437 6.15684 29.7117C5.62333 29.0928 4.83374 28.7514 3.93745 28.7514C2.02749 28.7514 0.565674 30.3626 0.565674 32.4219C0.565674 33.4356 0.907119 34.3426 1.54733 35.0468C2.1662 35.7297 3.04115 36.0925 3.95879 36.0925C4.83374 36.0925 5.64467 35.7297 6.17818 35.0788C6.21019 35.0468 6.26354 35.0255 6.31689 35.0468C6.37024 35.0788 6.40226 35.1002 6.40226 35.1642V35.9004H7.91742V35.8791H7.92809Z" fill="black"></path><path d="M40.3441 8.54217L31.9681 13.2904L23.0691 8.23273L22.653 8.45681V12.1273L31.9787 17.4411L40.3548 12.6929V14.6455L31.9787 19.3937L23.0691 14.3361L22.653 14.5601V15.179L31.9787 20.4928L41.3365 15.179V11.5085L40.9203 11.2844L31.9681 16.3421L23.624 11.5938V9.67321L31.9681 14.3894L41.3258 9.07568V5.45849L40.8456 5.20241L31.9681 10.2281L24.0721 5.73592L31.9681 1.27579L38.4875 4.94632L39.0744 4.63689V4.18874L31.9681 0.176758L22.6423 5.46916V6.03468L31.9681 11.3484L40.3441 6.6002V8.54217Z" fill="#FF3621"></path></svg>