<svg xmlns="http://www.w3.org/2000/svg" width="51" height="50" viewBox="0 0 51 50" fill="none"><path d="M25.0474 0.83231C24.6056 0.854739 24.1728 0.965128 23.7743 1.157L6.40163 9.52287C5.95199 9.73929 5.5569 10.0542 5.24572 10.4442C4.93454 10.8342 4.71525 11.2892 4.60416 11.7756L0.318205 30.5674C0.219236 31.0004 0.20816 31.4488 0.285633 31.8861C0.363105 32.3235 0.527552 32.7408 0.769241 33.1135C0.827845 33.2046 0.890873 33.2928 0.958098 33.3777L12.9828 48.4457C13.294 48.8356 13.6891 49.1504 14.1388 49.3667C14.5884 49.583 15.0811 49.6953 15.5801 49.6952L34.8636 49.6907C35.3624 49.6911 35.8549 49.5791 36.3046 49.3632C36.7542 49.1473 37.1494 48.8329 37.4609 48.4434L49.4811 33.3732C49.7925 32.9831 50.012 32.5279 50.1231 32.0414C50.2343 31.5548 50.2343 31.0495 50.1232 30.563L45.8306 11.7711C45.7195 11.2848 45.5002 10.8297 45.189 10.4397C44.8779 10.0497 44.4828 9.73481 44.0331 9.5184L26.6583 1.157C26.157 0.91564 25.6031 0.803993 25.0474 0.83231Z" fill="#326CE5"></path><path d="M25.2196 7.22742C24.6453 7.22748 24.1797 7.74878 24.1797 8.39183C24.1797 8.4017 24.1817 8.41113 24.1819 8.42094C24.1811 8.50832 24.1769 8.61358 24.1797 8.68965C24.1934 9.06055 24.2736 9.34441 24.3219 9.68612C24.4094 10.4175 24.4827 11.0238 24.4375 11.5873C24.3935 11.7997 24.2382 11.9941 24.0997 12.1292L24.0753 12.5725C23.4513 12.6246 22.8231 12.72 22.1956 12.8636C19.4956 13.4815 17.171 14.8831 15.4012 16.7756C15.2864 16.6967 15.0854 16.5514 15.0257 16.5069C14.84 16.5322 14.6524 16.5899 14.408 16.4464C13.9427 16.1308 13.5189 15.695 13.006 15.1701C12.7711 14.919 12.6009 14.6799 12.3217 14.4378C12.2583 14.3829 12.1615 14.3085 12.0906 14.252C11.8724 14.0766 11.6149 13.9851 11.3663 13.9765C11.0467 13.9655 10.7389 14.0915 10.5376 14.346C10.1796 14.7986 10.2942 15.4902 10.7931 15.8911C10.7981 15.8952 10.8035 15.8983 10.8086 15.9023C10.8772 15.9583 10.9611 16.0301 11.0241 16.077C11.3204 16.2974 11.591 16.4103 11.8862 16.5853C12.5081 16.9724 13.0237 17.2933 13.4326 17.6803C13.5923 17.8518 13.6202 18.1541 13.6415 18.2849L13.9748 18.5849C12.1906 21.2909 11.3649 24.6334 11.8529 28.0391L11.4174 28.1667C11.3026 28.3161 11.1405 28.5511 10.9708 28.6213C10.4358 28.7911 9.83364 28.8535 9.10668 28.9303C8.76538 28.9589 8.4709 28.9418 8.10907 29.0109C8.02943 29.0261 7.91847 29.0553 7.83134 29.0759C7.82831 29.0765 7.82548 29.0774 7.82245 29.0781C7.8177 29.0792 7.81146 29.0815 7.8069 29.0826C7.19401 29.2318 6.80029 29.7996 6.92705 30.359C7.05383 30.9185 7.65248 31.2587 8.26904 31.1248C8.2735 31.1238 8.27996 31.1236 8.2846 31.1225C8.29156 31.1209 8.29769 31.1175 8.30459 31.1158C8.39054 31.0968 8.49825 31.0757 8.57344 31.0554C8.92917 30.9594 9.18681 30.8183 9.50662 30.6949C10.1946 30.4462 10.7645 30.2384 11.3196 30.1574C11.5515 30.1391 11.7958 30.3016 11.9173 30.3702L12.3706 30.2918C13.4136 33.5509 15.5995 36.1852 18.3674 37.8381L18.1785 38.2949C18.2466 38.4723 18.3217 38.7123 18.2709 38.8874C18.0691 39.4149 17.7234 39.9717 17.3298 40.5924C17.1391 40.8791 16.9441 41.1017 16.7721 41.4299C16.7309 41.5084 16.6785 41.629 16.6388 41.712C16.3715 42.2883 16.5675 42.952 17.0809 43.2011C17.5975 43.4518 18.2387 43.1874 18.5162 42.61C18.5167 42.6091 18.5181 42.6085 18.5184 42.6077C18.5187 42.6071 18.5182 42.6061 18.5184 42.6055C18.558 42.5236 18.614 42.416 18.6473 42.339C18.7946 41.9989 18.8437 41.7074 18.9473 41.3784C19.2224 40.6819 19.3735 39.951 19.7523 39.4957C19.856 39.371 20.0251 39.323 20.2004 39.2757L20.4359 38.8458C22.8489 39.7792 25.5498 40.0297 28.2479 39.4123C28.8634 39.2715 29.4576 39.0892 30.0321 38.8704C30.0983 38.9887 30.2213 39.2162 30.2543 39.2735C30.4324 39.3319 30.6269 39.362 30.7853 39.5982C31.0686 40.0861 31.2624 40.6633 31.4985 41.3605C31.6021 41.6894 31.6533 41.9809 31.8007 42.3211C31.8343 42.3986 31.89 42.5077 31.9295 42.5898C32.2065 43.1691 32.8497 43.4344 33.3671 43.1832C33.8804 42.934 34.0766 42.2703 33.8092 41.6941C33.7695 41.6111 33.7149 41.4905 33.6737 41.412C33.5017 41.0838 33.3066 40.8635 33.116 40.5767C32.7223 39.956 32.3958 39.4404 32.1939 38.9129C32.1095 38.6409 32.2082 38.4717 32.2739 38.2949C32.2346 38.2494 32.1503 37.9925 32.1006 37.8717C34.9771 36.1599 37.0988 33.4275 38.0952 30.2716C38.2297 30.293 38.4636 30.3347 38.5395 30.35C38.6959 30.2461 38.8397 30.1104 39.1217 30.1328C39.6768 30.2137 40.2467 30.4216 40.9347 30.6702C41.2545 30.7937 41.5121 30.937 41.8679 31.033C41.9431 31.0533 42.0508 31.0722 42.1367 31.0912C42.1436 31.0929 42.1498 31.0963 42.1567 31.0979C42.1614 31.099 42.1678 31.0991 42.1723 31.1002C42.7889 31.2339 43.3876 30.8939 43.5143 30.3343C43.6409 29.7749 43.2473 29.207 42.6344 29.058C42.5453 29.0375 42.4188 29.0028 42.3322 28.9863C41.9704 28.9172 41.6759 28.9343 41.3346 28.9057C40.6077 28.8289 40.0055 28.7665 39.4705 28.5967C39.2524 28.5114 39.0972 28.2498 39.0217 28.1421L38.6018 28.0189C38.8195 26.4314 38.7608 24.7793 38.384 23.1262C38.0037 21.4577 37.3317 19.9317 36.4355 18.5872C36.5432 18.4885 36.7466 18.3069 36.8043 18.2535C36.8211 18.0655 36.8067 17.8683 36.9998 17.6601C37.4087 17.2731 37.9243 16.9522 38.5462 16.5651C38.8414 16.3901 39.1143 16.2773 39.4105 16.0568C39.4775 16.007 39.569 15.928 39.6394 15.871C40.1381 15.4699 40.253 14.7783 39.8949 14.3259C39.5368 13.8734 38.8428 13.8308 38.344 14.2318C38.273 14.2885 38.1767 14.3624 38.1129 14.4177C37.8338 14.6597 37.6614 14.8988 37.4264 15.1499C36.9136 15.6749 36.4897 16.1128 36.0244 16.4285C35.8228 16.5468 35.5274 16.5059 35.3934 16.498L34.9979 16.7823C32.7427 14.399 29.6722 12.8752 26.366 12.5792C26.3568 12.4396 26.3447 12.1872 26.3416 12.1112C26.2062 11.9807 26.0427 11.8693 26.0016 11.5873C25.9564 11.0238 26.0319 10.4175 26.1194 9.68612C26.1677 9.34441 26.2479 9.06055 26.2616 8.68965C26.2647 8.60534 26.2597 8.483 26.2594 8.39183C26.2593 7.74878 25.7938 7.22736 25.2196 7.22742ZM23.9176 15.3559L23.6087 20.8533L23.5865 20.8645C23.5658 21.3563 23.1642 21.749 22.6711 21.749C22.4691 21.749 22.2827 21.6836 22.1312 21.5721L22.1223 21.5766L17.6497 18.3812C19.0243 17.0189 20.7825 16.0122 22.8088 15.5485C23.179 15.4638 23.549 15.401 23.9176 15.3559ZM26.5238 15.3559C28.8895 15.6492 31.0773 16.7288 32.7539 18.3834L28.3102 21.5587L28.2946 21.552C27.9002 21.8423 27.3445 21.7703 27.037 21.3818C26.9111 21.2226 26.845 21.0355 26.8371 20.8466L26.8326 20.8444L26.5238 15.3559ZM16.0278 20.4346L20.1115 24.1159L20.1071 24.1383C20.4757 24.4613 20.53 25.0217 20.2226 25.4102C20.0967 25.5694 19.9281 25.6761 19.7471 25.7259L19.7427 25.7438L14.508 27.2665C14.2416 24.8112 14.8158 22.4245 16.0278 20.4346ZM34.3825 20.4368C34.9892 21.428 35.4487 22.5351 35.7222 23.7352C35.9925 24.921 36.0603 26.1047 35.9489 27.2486L30.6875 25.7215L30.6831 25.6991C30.212 25.5693 29.9224 25.0863 30.0321 24.6018C30.077 24.4034 30.1816 24.2355 30.3231 24.1114L30.3209 24.1002L34.3825 20.4368ZM24.3819 24.4003H26.055L27.0948 25.7103L26.7215 27.3449L25.2196 28.0727L23.7131 27.3427L23.3399 25.708L24.3819 24.4003ZM29.7455 28.8833C29.8166 28.8797 29.8874 28.8861 29.9565 28.899L29.9654 28.8878L35.3801 29.8103C34.5876 32.0541 33.0713 33.9979 31.0452 35.2988L28.9434 30.1821L28.95 30.1731C28.757 29.7209 28.9502 29.1907 29.3944 28.9751C29.5081 28.9199 29.627 28.8893 29.7455 28.8833ZM20.6514 28.9057C21.0646 28.9115 21.4353 29.2006 21.5313 29.6245C21.5762 29.8229 21.5544 30.0196 21.4802 30.1933L21.4957 30.2134L19.4161 35.2786C17.4717 34.0211 15.923 32.1383 15.0946 29.8283L20.4626 28.9102L20.4715 28.9214C20.5315 28.9102 20.5924 28.9048 20.6514 28.9057ZM25.1862 31.1248C25.3302 31.1195 25.4762 31.1492 25.615 31.2166C25.797 31.3049 25.9376 31.444 26.0261 31.6107H26.0461L28.6923 36.4296C28.3489 36.5456 27.9958 36.6448 27.6347 36.7274C25.6109 37.1905 23.5935 37.0502 21.7668 36.4229L24.4064 31.6129H24.4108C24.5692 31.3145 24.8696 31.1365 25.1862 31.1248Z" fill="white" stroke="white" stroke-width="0.25"></path></svg>