<svg xmlns="http://www.w3.org/2000/svg" width="108" height="33" viewBox="0 0 108 33" fill="none"><path d="M44.4562 17.8339L40.5512 9.51672H38.5238V22.885H40.5512V13.9471L43.7052 20.4639H45.2072L48.2869 13.9471V22.885H50.3144V9.51672H48.2869L44.4562 17.8339Z" fill="#00A0DF"></path><path d="M57.929 19.1679C57.929 20.6336 57.0205 21.2877 55.9606 21.2877C54.9007 21.2877 54.0452 20.6487 54.0452 19.1679V13.3657H52.1268V19.4465C52.1268 20.5185 52.3524 21.4149 53.0853 22.1341C53.6485 22.6761 54.4556 22.9971 55.4322 22.9971C55.9059 23.0048 56.376 22.9136 56.8124 22.7293C57.2489 22.545 57.6421 22.2716 57.9668 21.9266V22.8836H59.8444V13.3657H57.929V19.1679Z" fill="#00A0DF"></path><path d="M63.5969 20.1444V9.51672H61.6815V20.2565C61.6815 21.6661 62.4704 22.885 64.2919 22.885H65.4729V21.2528H64.6295C63.8588 21.2528 63.5969 20.8758 63.5969 20.1444Z" fill="#00A0DF"></path><path d="M70.079 13.2537C67.6382 13.2537 66.0438 15.0388 66.0438 18.1171C66.0438 21.7404 67.9395 22.9986 70.3243 22.9986C71.9898 22.9986 72.915 22.4899 73.8901 21.5148L72.6697 20.3686C71.9944 21.0469 71.4326 21.3437 70.3606 21.3437C68.8026 21.3437 67.938 20.3126 67.938 18.6788H74.1142V17.8339C74.1142 15.1312 72.6333 13.2537 70.079 13.2537ZM67.9395 17.3418C67.9577 16.7619 67.9955 16.4788 68.1833 16.0472C68.3418 15.6796 68.6075 15.3683 68.9457 15.1541C69.2839 14.9399 69.6789 14.8327 70.079 14.8465C70.4769 14.8332 70.8695 14.9408 71.2049 15.1551C71.5404 15.3695 71.803 15.6806 71.958 16.0472C72.1405 16.4539 72.23 16.8962 72.22 17.3418H67.9395Z" fill="#00A0DF"></path><path d="M83.5689 16.3319C83.0056 15.8262 82.3122 15.5248 81.0706 15.3371L79.5564 15.113C79.0072 15.0494 78.4863 14.835 78.0514 14.4937C77.8824 14.3359 77.7496 14.1433 77.6623 13.9292C77.575 13.7151 77.5352 13.4846 77.5457 13.2536C77.5457 12.0711 78.4087 11.1687 79.9865 11.1687C81.1115 11.1687 82.0699 11.4125 82.8951 12.2013L84.1912 10.9249C83.0465 9.85441 81.808 9.41077 80.0425 9.41077C77.2625 9.41077 75.5727 11.0052 75.5727 13.3339C75.5727 14.4226 75.8937 15.2674 76.5509 15.8882C77.1323 16.4318 77.9954 16.8088 79.084 16.9572L80.6602 17.1843C81.4506 17.2949 81.7883 17.4281 82.1259 17.7476C82.4636 18.0671 82.6513 18.5546 82.6513 19.1376C82.6513 20.4322 81.6369 21.1817 79.8926 21.1817C78.5208 21.1817 77.4518 20.8788 76.4752 19.9052L75.123 21.2392C76.3995 22.5353 77.8485 23.0047 79.8547 23.0047C82.6513 23.0047 84.6606 21.539 84.6606 19.08C84.6576 17.9323 84.3002 16.9708 83.5689 16.3319Z" fill="#00A0DF"></path><path d="M89.7105 13.2537C88.4159 13.2537 87.4968 13.7412 86.876 14.3802C85.9751 15.3174 85.7495 16.5212 85.7495 18.1171C85.7495 19.713 85.9751 20.9334 86.876 21.8706C87.4968 22.5096 88.4159 22.9986 89.7105 22.9986C91.0051 22.9986 91.9469 22.5096 92.5646 21.8706C93.4655 20.9334 93.6911 19.7311 93.6911 18.1171C93.6911 16.503 93.4655 15.3174 92.5646 14.3802C91.9453 13.7412 91.0051 13.2537 89.7105 13.2537ZM91.1201 20.7259C90.9346 20.909 90.7143 21.0531 90.4722 21.1499C90.2301 21.2466 89.9711 21.294 89.7105 21.2892C89.4532 21.2942 89.1976 21.2468 88.9592 21.15C88.7207 21.0532 88.5045 20.9089 88.3235 20.7259C87.7391 20.1445 87.6649 19.1482 87.6649 18.1171C87.6649 17.0859 87.7391 16.0881 88.3235 15.5067C88.5055 15.3264 88.7224 15.185 88.9609 15.0913C89.1993 14.9976 89.4544 14.9534 89.7105 14.9616C89.97 14.9537 90.2284 14.9978 90.4705 15.0914C90.7126 15.1851 90.9335 15.3263 91.1201 15.5067C91.7016 16.0881 91.7773 17.0829 91.7773 18.1171C91.7773 19.1512 91.7001 20.1445 91.1186 20.7259H91.1201Z" fill="#00A0DF"></path><path d="M95.6246 12.0711V13.5413H94.5344V15.007H95.6246V22.8926H97.54V14.9994H99.4357V13.5413H97.54V12.1786C97.54 11.4836 97.8746 11.0702 98.5893 11.0702H99.4357V9.42285H98.2244C96.4498 9.42285 95.6246 10.7008 95.6246 12.0711Z" fill="#00A0DF"></path><path d="M103.621 10.6448H101.709V13.5413H100.611V15.007H101.703V20.2444C101.703 21.6162 102.527 22.8926 104.31 22.8926H105.457V21.2528H104.669C103.958 21.2528 103.609 20.8394 103.609 20.1445V14.9964H105.457V13.5413H103.621V10.6448Z" fill="#00A0DF"></path><path d="M107.836 12.1196C107.782 11.9987 107.707 11.8888 107.613 11.7956C107.519 11.7039 107.408 11.6309 107.286 11.5806C107.16 11.5282 107.025 11.5015 106.889 11.5018C106.752 11.5016 106.616 11.5283 106.49 11.5806C106.367 11.6305 106.256 11.7035 106.161 11.7956C106.066 11.8878 105.99 11.9979 105.937 12.1196C105.882 12.2467 105.854 12.3839 105.855 12.5224C105.853 12.7265 105.912 12.9265 106.026 13.0964C106.139 13.2663 106.3 13.3981 106.49 13.4748C106.616 13.5265 106.752 13.5527 106.889 13.552C107.16 13.5535 107.42 13.4485 107.613 13.2597C107.707 13.1666 107.782 13.0567 107.836 12.9357C107.891 12.8061 107.919 12.6664 107.917 12.5254C107.919 12.3859 107.891 12.2476 107.836 12.1196ZM107.666 12.8767C107.585 13.0843 107.425 13.2514 107.221 13.3415C107.116 13.386 107.003 13.4087 106.889 13.4081C106.774 13.409 106.66 13.3864 106.553 13.3415C106.452 13.2981 106.36 13.2347 106.284 13.1553C106.207 13.0747 106.146 12.9801 106.105 12.8767C106.062 12.7652 106.04 12.6465 106.041 12.5269C106.04 12.4098 106.062 12.2936 106.105 12.1847C106.146 12.0822 106.207 11.9886 106.284 11.9091C106.362 11.8284 106.457 11.7644 106.561 11.7212C106.665 11.678 106.777 11.6564 106.889 11.6578C107.003 11.6572 107.116 11.6799 107.221 11.7244C107.321 11.7683 107.411 11.831 107.487 11.9091C107.564 11.9861 107.625 12.0777 107.666 12.1787C107.71 12.2873 107.732 12.4036 107.731 12.5208C107.733 12.6411 107.711 12.7605 107.666 12.8721V12.8767Z" fill="#00A0DF"></path><path d="M107.283 12.5073C107.315 12.4773 107.339 12.4405 107.355 12.3996C107.371 12.3587 107.377 12.3147 107.373 12.2711C107.377 12.2233 107.371 12.1752 107.354 12.1304C107.336 12.0856 107.31 12.0452 107.275 12.0121C107.182 11.9487 107.07 11.9188 106.957 11.9273H106.494V13.1265H106.669V12.6102H106.868L107.193 13.1265H107.395L107.051 12.5966C107.136 12.5921 107.217 12.5608 107.283 12.5073ZM106.871 12.4603H106.669V12.0788H106.916C106.948 12.0765 106.98 12.0765 107.011 12.0788C107.041 12.0825 107.07 12.0918 107.096 12.106C107.121 12.1183 107.142 12.1372 107.157 12.1605C107.173 12.1896 107.181 12.2226 107.18 12.2559C107.182 12.295 107.173 12.334 107.154 12.368C107.137 12.3937 107.112 12.4142 107.084 12.427C107.052 12.4399 107.019 12.4475 106.984 12.4497C106.952 12.4588 106.913 12.4603 106.871 12.4603Z" fill="#00A0DF"></path><path d="M16.6529 0.36853C13.5235 0.36853 10.4643 1.29652 7.86229 3.03514C5.26026 4.77376 3.23222 7.24493 2.03464 10.1362C0.837056 13.0274 0.523713 16.2088 1.13424 19.2781C1.74476 22.3474 3.25173 25.1667 5.46457 27.3796C7.67742 29.5924 10.4968 31.0994 13.5661 31.7099C16.6354 32.3205 19.8168 32.0071 22.708 30.8095C25.5992 29.6119 28.0704 27.5839 29.809 24.9819C31.5476 22.3798 32.4756 19.3207 32.4756 16.1912C32.4756 11.9948 30.8086 7.97023 27.8413 5.0029C24.8739 2.03556 20.8494 0.36853 16.6529 0.36853ZM16.6529 30.6225C13.7987 30.6225 11.0086 29.7761 8.63536 28.1904C6.26216 26.6046 4.41247 24.3508 3.32021 21.7138C2.22794 19.0769 1.94216 16.1752 2.49899 13.3759C3.05582 10.5765 4.43026 8.00507 6.4485 5.98683C8.46675 3.96859 11.0381 2.59414 13.8375 2.03731C16.6369 1.48048 19.5385 1.76627 22.1755 2.85853C24.8125 3.9508 27.0663 5.80048 28.652 8.17369C30.2378 10.5469 31.0841 13.337 31.0841 16.1912C31.0841 20.0186 29.5637 23.6893 26.8573 26.3957C24.151 29.102 20.4803 30.6225 16.6529 30.6225Z" fill="#00A0DF"></path><path d="M28.0478 13.0445C26.776 8.29764 22.8301 6.12183 22.8301 6.12183L22.3865 6.81681L16.6615 15.7805L10.9245 6.80167L10.4929 6.12183C10.4929 6.12183 6.54711 8.29764 5.27221 13.049C4.83705 14.5688 4.71828 16.1618 4.92324 17.7293C5.1282 19.2969 5.65254 20.8057 6.46384 22.1626C7.67607 24.2349 9.49153 25.8882 11.6679 26.9018L12.7278 22.8651C10.3521 21.7447 8.62905 19.4765 8.62905 16.5497C8.62464 15.0767 9.05725 13.6355 9.87215 12.4085L14.8188 20.1427H18.4997L23.4479 12.4085C24.2628 13.6355 24.6954 15.0767 24.691 16.5497C24.691 19.4765 22.9679 21.7447 20.5922 22.8651L21.6521 26.9018C23.8285 25.8882 25.644 24.2349 26.8562 22.1626C27.6679 20.805 28.1924 19.2954 28.3974 17.7271C28.6023 16.1587 28.4834 14.565 28.0478 13.0445Z" fill="#00A0DF"></path></svg>