<svg xmlns="http://www.w3.org/2000/svg" width="61" height="43" viewBox="0 0 61 43" fill="none"><g clip-path="url(#clip0_47_1210)"><path d="M25.5455 5.11774C27.5028 3.07846 30.2276 1.81365 33.2411 1.81365C37.2471 1.81365 40.7422 4.04744 42.6035 7.36357C44.2209 6.64092 46.0113 6.23889 47.8949 6.23889C55.1202 6.23889 60.9779 12.1476 60.9779 19.436C60.9779 26.7253 55.1202 32.634 47.8949 32.634C47.0295 32.6345 46.1662 32.5485 45.3179 32.3772C43.6789 35.3009 40.5555 37.2762 36.9705 37.2762C35.4697 37.2762 34.0503 36.9296 32.7864 36.3132C31.1249 40.2215 27.2538 42.9619 22.742 42.9619C18.0436 42.9619 14.0393 39.989 12.5023 35.8196C11.8306 35.9622 11.1347 36.0366 10.4206 36.0366C4.82658 36.0366 0.291504 31.4549 0.291504 25.8021C0.291504 22.014 2.32908 18.7064 5.35648 16.9368C4.73321 15.5027 4.38653 13.9198 4.38653 12.2557C4.38653 5.7548 9.66418 0.484985 16.1737 0.484985C19.9956 0.484985 23.3921 2.30211 25.5455 5.11774Z" fill="#00A1E0"></path><path d="M9.08256 22.5125C9.04453 22.6119 9.09641 22.6327 9.1085 22.6499C9.22258 22.7329 9.33848 22.7926 9.45518 22.8591C10.0741 23.1876 10.6586 23.2835 11.2698 23.2835C12.5146 23.2835 13.2874 22.6214 13.2874 21.5555V21.5347C13.2874 20.5492 12.4152 20.1913 11.5965 19.9328L11.4902 19.8983C10.873 19.6977 10.3404 19.5249 10.3404 19.1185V19.097C10.3404 18.7494 10.6517 18.4935 11.134 18.4935C11.67 18.4935 12.3063 18.6716 12.716 18.8981C12.716 18.8981 12.8362 18.9759 12.8803 18.8592C12.9045 18.7969 13.112 18.2385 13.1336 18.178C13.1569 18.1122 13.1154 18.0638 13.0731 18.0379C12.6054 17.7535 11.9588 17.559 11.2897 17.559L11.1652 17.5598C10.0258 17.5598 9.23054 18.248 9.23054 19.2343V19.2551C9.23054 20.295 10.108 20.6322 10.9301 20.8673L11.0624 20.9079C11.6615 21.0921 12.1776 21.2503 12.1776 21.6721V21.6929C12.1776 22.0785 11.8422 22.3655 11.301 22.3655C11.0909 22.3655 10.4209 22.3611 9.69738 21.9038C9.61002 21.8528 9.55906 21.8156 9.49163 21.775C9.45621 21.7525 9.36716 21.7136 9.32828 21.8312L9.08256 22.5125ZM27.3066 22.5125C27.2685 22.6119 27.3204 22.6327 27.3325 22.6499C27.4466 22.7329 27.5625 22.7926 27.6791 22.8591C28.2981 23.1876 28.8826 23.2835 29.4937 23.2835C30.7385 23.2835 31.5114 22.6214 31.5114 21.5555V21.5347C31.5114 20.5492 30.6392 20.1913 29.8205 19.9328L29.7142 19.8983C29.0969 19.6977 28.5643 19.5249 28.5643 19.1185V19.097C28.5643 18.7494 28.8756 18.4935 29.3579 18.4935C29.8939 18.4935 30.5302 18.6716 30.94 18.8981C30.94 18.8981 31.0601 18.9759 31.1042 18.8592C31.1284 18.7969 31.3359 18.2385 31.3575 18.178C31.3809 18.1122 31.3393 18.0638 31.297 18.0379C30.8293 17.7535 30.1826 17.559 29.5136 17.559L29.389 17.5598C28.2497 17.5598 27.4544 18.248 27.4544 19.2343V19.2551C27.4544 20.295 28.3318 20.6322 29.154 20.8673L29.2862 20.9079C29.8853 21.0921 30.4023 21.2503 30.4023 21.6721V21.6929C30.4023 22.0785 30.066 22.3655 29.5248 22.3655C29.3148 22.3655 28.6448 22.3611 27.9213 21.9038C27.8339 21.8528 27.7821 21.8173 27.7164 21.775C27.6939 21.7603 27.5884 21.7197 27.5521 21.8312L27.3066 22.5125ZM39.7476 20.4246C39.7476 21.0271 39.6353 21.5017 39.414 21.8371C39.1952 22.1691 38.8641 22.3308 38.4026 22.3308C37.9401 22.3308 37.6107 22.17 37.3955 21.8371C37.1776 21.5026 37.067 21.0271 37.067 20.4246C37.067 19.8229 37.1776 19.3492 37.3955 19.0172C37.6107 18.6887 37.9401 18.5288 38.4026 18.5288C38.8642 18.5288 39.1953 18.6887 39.4149 19.0172C39.6353 19.3491 39.7476 19.8229 39.7476 20.4246ZM40.7868 19.3077C40.6847 18.9627 40.5257 18.6584 40.3139 18.4052C40.1021 18.151 39.8342 17.947 39.516 17.7983C39.1987 17.6505 38.8236 17.5753 38.4026 17.5753C37.9807 17.5753 37.6055 17.6505 37.2882 17.7983C36.9701 17.947 36.7021 18.1511 36.4895 18.4052C36.2786 18.6593 36.1195 18.9636 36.0166 19.3077C35.9155 19.6508 35.8644 20.026 35.8644 20.4246C35.8644 20.8231 35.9155 21.1992 36.0166 21.5415C36.1195 21.8856 36.2777 22.1899 36.4904 22.444C36.7021 22.6982 36.971 22.9013 37.2883 23.0456C37.6064 23.19 37.9807 23.2635 38.4026 23.2635C38.8236 23.2635 39.1979 23.19 39.516 23.0456C39.8333 22.9013 40.1021 22.6981 40.314 22.444C40.5258 22.1907 40.6848 21.8864 40.7868 21.5415C40.8889 21.1983 40.9399 20.8222 40.9399 20.4246C40.9399 20.0269 40.8888 19.6508 40.7868 19.3077ZM49.3198 22.1699C49.2852 22.0687 49.1875 22.1067 49.1875 22.1067C49.0362 22.1647 48.8754 22.2183 48.7043 22.2451C48.5305 22.2718 48.3394 22.2857 48.1345 22.2857C47.6315 22.2857 47.2321 22.1361 46.9459 21.8405C46.6589 21.5448 46.4981 21.0668 46.4998 20.4202C46.5016 19.8314 46.6433 19.3888 46.8984 19.0517C47.1517 18.7163 47.5373 18.5442 48.0516 18.5442C48.4804 18.5442 48.8072 18.5935 49.1494 18.7016C49.1494 18.7016 49.2315 18.737 49.2704 18.6298C49.3612 18.3773 49.4286 18.1967 49.5254 17.9192C49.5531 17.8405 49.4857 17.8068 49.4615 17.7973C49.3266 17.7445 49.0085 17.659 48.7682 17.6227C48.5434 17.5881 48.2806 17.57 47.9884 17.57C47.5518 17.57 47.1628 17.6443 46.83 17.793C46.4981 17.9408 46.2162 18.1448 45.9932 18.399C45.7702 18.6532 45.6007 18.9574 45.4875 19.3015C45.3751 19.6447 45.3181 20.0216 45.3181 20.4202C45.3181 21.282 45.5506 21.9787 46.0097 22.4888C46.4696 23.0006 47.1603 23.2608 48.0611 23.2608C48.5936 23.2608 49.14 23.1528 49.5325 22.998C49.5325 22.998 49.6077 22.9617 49.5748 22.8745L49.3198 22.1699ZM51.1379 19.8474C51.1871 19.5128 51.2796 19.2344 51.4223 19.0175C51.6376 18.6881 51.966 18.5075 52.4277 18.5075C52.8894 18.5075 53.1945 18.689 53.4132 19.0175C53.5584 19.2344 53.6216 19.525 53.6467 19.8474H51.1379ZM54.6364 19.1117C54.5483 18.7788 54.3295 18.4425 54.186 18.2887C53.9595 18.0449 53.7383 17.8746 53.5187 17.7795C53.2316 17.6567 52.8876 17.5755 52.5107 17.5755C52.0715 17.5755 51.673 17.649 51.3497 17.8011C51.0255 17.9533 50.7533 18.1608 50.5397 18.4193C50.3261 18.6768 50.1654 18.9837 50.0633 19.3321C49.9605 19.6788 49.9086 20.0566 49.9086 20.455C49.9086 20.8605 49.9622 21.2383 50.0685 21.578C50.1757 21.9204 50.3469 22.222 50.5786 22.4718C50.8093 22.7234 51.1068 22.9206 51.4629 23.0579C51.8165 23.1945 52.2462 23.2654 52.7398 23.2645C53.7556 23.2611 54.2906 23.0346 54.5111 22.9127C54.55 22.8911 54.5872 22.8531 54.5404 22.7442L54.3105 22.1001C54.276 22.0041 54.1782 22.0395 54.1782 22.0395C53.9266 22.1329 53.5688 22.3006 52.7345 22.2989C52.1891 22.2981 51.7844 22.1373 51.5311 21.8857C51.271 21.6281 51.1439 21.2494 51.1214 20.7152L54.639 20.7187C54.639 20.7187 54.7314 20.717 54.741 20.627C54.7445 20.5891 54.8621 19.9044 54.6364 19.1117ZM22.9673 19.8474C23.0174 19.5128 23.1091 19.2344 23.2517 19.0175C23.4669 18.6881 23.7954 18.5075 24.2571 18.5075C24.7187 18.5075 25.0239 18.689 25.2434 19.0175C25.3878 19.2344 25.4509 19.525 25.476 19.8474H22.9673ZM26.4649 19.1117C26.3768 18.7788 26.1589 18.4425 26.0155 18.2887C25.7889 18.0449 25.5676 17.8746 25.3481 17.7795C25.0611 17.6567 24.717 17.5755 24.3401 17.5755C23.9018 17.5755 23.5024 17.649 23.1791 17.8011C22.855 17.9533 22.5826 18.1608 22.3691 18.4193C22.1556 18.6768 21.9948 18.9837 21.8928 19.3321C21.7908 19.6788 21.7381 20.0566 21.7381 20.455C21.7381 20.8605 21.7916 21.2383 21.898 21.578C22.0052 21.9204 22.1764 22.222 22.408 22.4718C22.6389 22.7234 22.9362 22.9206 23.2924 23.0579C23.646 23.1945 24.0756 23.2654 24.5692 23.2645C25.585 23.2611 26.1201 23.0346 26.3406 22.9127C26.3795 22.8911 26.4166 22.8531 26.37 22.7442L26.1409 22.1001C26.1054 22.0041 26.0078 22.0395 26.0078 22.0395C25.7562 22.1329 25.3992 22.3006 24.5632 22.2989C24.0186 22.2981 23.6141 22.1373 23.3607 21.8857C23.1005 21.6281 22.9735 21.2494 22.9509 20.7152L26.4685 20.7187C26.4685 20.7187 26.561 20.717 26.5705 20.627C26.5738 20.5891 26.6914 19.9044 26.4649 19.1117ZM15.3641 22.1506C15.2266 22.0408 15.2076 22.0131 15.161 21.9422C15.0918 21.8342 15.0564 21.6803 15.0564 21.4849C15.0564 21.1754 15.1584 20.9533 15.3702 20.8037C15.3676 20.8046 15.6728 20.5401 16.3903 20.5495C16.8942 20.5565 17.3446 20.6308 17.3446 20.6308V22.2301H17.3454C17.3454 22.2301 16.8985 22.326 16.3954 22.3563C15.6796 22.3995 15.3615 22.1497 15.3641 22.1506ZM16.7637 19.679C16.621 19.6686 16.436 19.6626 16.2147 19.6626C15.913 19.6626 15.6217 19.7006 15.3485 19.7741C15.0736 19.8475 14.8264 19.9626 14.6137 20.1147C14.4014 20.2662 14.2268 20.4647 14.1037 20.6947C13.9792 20.9264 13.9161 21.1996 13.9161 21.5056C13.9161 21.8168 13.9697 22.0874 14.0769 22.3088C14.1841 22.5309 14.3388 22.7159 14.5359 22.8586C14.7312 23.0012 14.9725 23.1058 15.2525 23.1689C15.5283 23.232 15.8412 23.264 16.1836 23.264C16.5441 23.264 16.9037 23.2346 17.2521 23.1749C17.597 23.1161 18.0206 23.0305 18.1381 23.0038C18.2206 22.9839 18.3027 22.9629 18.3845 22.9407C18.4719 22.9191 18.4649 22.8257 18.4649 22.8257L18.4632 19.609C18.4632 18.9035 18.2748 18.3805 17.9039 18.0564C17.5347 17.7331 16.991 17.5696 16.2882 17.5696C16.0245 17.5696 15.6001 17.606 15.3459 17.6569C15.3459 17.6569 14.5774 17.8057 14.2609 18.0529C14.2609 18.0529 14.1918 18.0961 14.2298 18.193L14.4788 18.8621C14.5099 18.9486 14.5938 18.9192 14.5938 18.9192C14.5938 18.9192 14.6206 18.9088 14.6518 18.8906C15.3287 18.5224 16.1845 18.5336 16.1845 18.5336C16.5649 18.5336 16.8571 18.6096 17.0542 18.7609C17.2461 18.9079 17.3437 19.13 17.3437 19.5985V19.7473C17.0412 19.7041 16.7637 19.679 16.7637 19.679ZM45.1343 17.8666C45.1611 17.787 45.1049 17.749 45.0815 17.7404C45.022 17.717 44.7228 17.6539 44.492 17.6392C44.0503 17.6124 43.8048 17.6868 43.5852 17.7853C43.3673 17.8838 43.1253 18.0429 42.9904 18.2236V17.7957C42.9904 17.736 42.948 17.6885 42.8892 17.6885H41.9876C41.9288 17.6885 41.8865 17.736 41.8865 17.7957V23.0422C41.8865 23.101 41.9349 23.1494 41.9936 23.1494H42.9178C42.9461 23.1492 42.9732 23.1379 42.9931 23.1178C43.013 23.0977 43.0242 23.0705 43.0241 23.0422V20.4211C43.0241 20.0693 43.063 19.7183 43.1409 19.4979C43.2169 19.28 43.3207 19.1054 43.4486 18.98C43.5774 18.8555 43.7235 18.7683 43.8834 18.719C44.0468 18.6688 44.2274 18.6524 44.3554 18.6524C44.5396 18.6524 44.7418 18.6999 44.7418 18.6999C44.8092 18.7077 44.8473 18.6662 44.8697 18.6048C44.9303 18.444 45.1015 17.9625 45.1343 17.8666Z" fill="white"></path><path d="M36.4601 15.435C36.3477 15.4004 36.2457 15.377 36.1126 15.352C35.9776 15.3278 35.8169 15.3157 35.6345 15.3157C34.9982 15.3157 34.4968 15.4955 34.145 15.8499C33.7949 16.2026 33.5571 16.7395 33.4378 17.4458L33.3945 17.6835H32.5958C32.5958 17.6835 32.499 17.68 32.4782 17.7855L32.3478 18.5177C32.3382 18.5869 32.3685 18.6309 32.4618 18.6309H33.239L32.4506 23.0329C32.3892 23.3873 32.3183 23.6787 32.2396 23.8999C32.1627 24.1178 32.0875 24.2812 31.9941 24.4005C31.9042 24.5146 31.8195 24.5993 31.6725 24.6486C31.5515 24.6892 31.4115 24.7082 31.2584 24.7082C31.1737 24.7082 31.0605 24.6943 30.9766 24.677C30.8937 24.6606 30.8496 24.6425 30.7864 24.6156C30.7864 24.6156 30.6957 24.5811 30.6594 24.6719C30.6308 24.7471 30.4233 25.3167 30.3983 25.3868C30.3741 25.4568 30.4086 25.5113 30.4527 25.5277C30.5564 25.564 30.6334 25.5882 30.7743 25.6219C30.9697 25.6678 31.1348 25.6703 31.2895 25.6703C31.6128 25.6703 31.9084 25.6245 32.1531 25.5364C32.3987 25.4473 32.613 25.2925 32.8032 25.0834C33.0081 24.8569 33.1369 24.62 33.2597 24.2959C33.3816 23.976 33.4862 23.5783 33.5691 23.115L34.3619 18.6309H35.5203C35.5203 18.6309 35.6179 18.6344 35.6379 18.5281L35.7692 17.7968C35.7779 17.7268 35.7485 17.6835 35.6542 17.6835H34.5296C34.5356 17.6585 34.5866 17.2625 34.7154 16.89C34.7708 16.7318 34.8745 16.603 34.9618 16.5148C35.0483 16.4283 35.1477 16.367 35.2567 16.3315C35.3682 16.2952 35.4953 16.2779 35.6345 16.2779C35.7399 16.2779 35.8445 16.29 35.9231 16.3064C36.0321 16.3298 36.0744 16.3419 36.103 16.3506C36.218 16.3851 36.2335 16.3514 36.256 16.2961L36.5249 15.5579C36.5526 15.4782 36.4843 15.4445 36.4601 15.435ZM20.746 23.0424C20.746 23.1012 20.7037 23.1488 20.6449 23.1488H19.7121C19.6533 23.1488 19.6118 23.1012 19.6118 23.0424V15.5353C19.6118 15.4765 19.6533 15.429 19.7121 15.429H20.6449C20.7037 15.429 20.746 15.4765 20.746 15.5353V23.0424Z" fill="white"></path></g><defs><clipPath id="clip0_47_1210"><rect width="60.6864" height="42.4805" fill="white" transform="translate(0.291504 0.483154)"></rect></clipPath></defs></svg>