<svg xmlns="http://www.w3.org/2000/svg" width="542" height="629" viewBox="0 0 542 629" fill="none"><path d="M270.589 628.865C420.031 628.865 541.177 560.044 541.177 475.15C541.177 390.255 420.031 321.434 270.589 321.434C121.147 321.434 0.000244141 390.255 0.000244141 475.15C0.000244141 560.044 121.147 628.865 270.589 628.865Z" fill="black"></path><path d="M383.191 572.069L181.208 455.444C179.431 454.42 177.955 452.946 176.929 451.171C175.903 449.395 175.362 447.381 175.362 445.33C175.362 443.28 175.903 441.265 176.929 439.49C177.955 437.714 179.431 436.24 181.208 435.217L201.133 422.652C204.572 420.671 208.472 419.628 212.441 419.628C216.41 419.628 220.31 420.671 223.749 422.652L425.76 539.291C427.537 540.315 429.013 541.789 430.039 543.564C431.065 545.34 431.605 547.354 431.605 549.405C431.605 551.456 431.065 553.47 430.039 555.245C429.013 557.021 427.537 558.495 425.76 559.518L405.835 572.069C402.394 574.061 398.489 575.11 394.513 575.11C390.537 575.11 386.632 574.061 383.191 572.069Z" fill="#212227"></path><path d="M76.0751 465.743C100.283 465.743 119.908 454.473 119.908 440.572C119.908 426.67 100.283 415.401 76.0751 415.401C51.8671 415.401 32.2427 426.67 32.2427 440.572C32.2427 454.473 51.8671 465.743 76.0751 465.743Z" fill="#212227"></path><path d="M454.819 471.51L474.043 482.564C474.043 482.564 464.225 451.709 469.457 420.606C471.434 408.851 475.677 403.015 477.16 399.87C478.644 396.726 490.137 377.295 479.907 368.397C469.677 359.498 445.879 377.391 447.17 425.275C447.757 440.948 450.327 456.483 454.819 471.51Z" fill="#00A0DF"></path><path opacity="0.5" d="M454.819 471.51L474.043 482.564C474.043 482.564 464.225 451.709 469.457 420.606C471.434 408.851 475.677 403.015 477.16 399.87C478.644 396.726 490.137 377.295 479.907 368.397C469.677 359.498 445.879 377.391 447.17 425.275C447.757 440.948 450.327 456.483 454.819 471.51Z" fill="black"></path><path d="M463.758 477.333C463.618 477.336 463.481 477.295 463.365 477.216C463.25 477.137 463.162 477.024 463.113 476.893C463.044 476.687 455.698 456.611 455.931 424.341C456.165 392.071 473.124 374.549 473.288 374.384C473.352 374.32 473.428 374.269 473.512 374.234C473.595 374.199 473.685 374.181 473.776 374.181C473.867 374.181 473.956 374.199 474.04 374.234C474.124 374.269 474.2 374.32 474.263 374.384C474.328 374.448 474.379 374.524 474.414 374.607C474.448 374.691 474.466 374.781 474.466 374.871C474.466 374.962 474.448 375.052 474.414 375.136C474.379 375.219 474.328 375.295 474.263 375.359C474.099 375.524 457.538 392.524 457.304 424.355C457.071 456.185 464.321 476.234 464.404 476.426C464.466 476.597 464.457 476.786 464.38 476.951C464.302 477.116 464.163 477.243 463.992 477.305C463.916 477.329 463.837 477.338 463.758 477.333Z" fill="white"></path><path d="M462.839 476.234L489.122 491.339C491.86 492.958 495.108 493.485 498.218 492.816C501.328 492.147 504.072 490.33 505.902 487.728C507.642 485.021 508.376 481.789 507.976 478.596C506.712 464.946 500.78 461.802 508.044 455.718C515.309 449.635 517.204 449.209 516.792 443.36C516.38 437.51 512.384 434.956 510.489 432.649C508.594 430.342 503.348 425.508 506.918 418.367C510.489 411.227 515.364 404.32 507.976 401.161C503.568 399.266 496.221 401.793 491.387 407.038C486.554 412.284 482.572 416.06 477.944 417.324C473.316 418.587 463.676 418.793 464.088 426.771C464.5 434.75 466.615 437.482 464.72 441.039C461.15 447.685 445.619 451.461 462.839 476.234Z" fill="#00A0DF"></path><path d="M475.829 484.364C475.658 484.358 475.494 484.291 475.368 484.175C475.242 484.059 475.162 483.902 475.142 483.732C475.142 483.265 471.105 436.137 503.513 404.773C503.646 404.663 503.817 404.607 503.99 404.617C504.163 404.627 504.325 404.702 504.445 404.828C504.565 404.953 504.633 405.118 504.636 405.292C504.639 405.465 504.576 405.633 504.46 405.762C472.519 436.672 476.474 483.141 476.515 483.608C476.531 483.788 476.474 483.967 476.359 484.106C476.243 484.245 476.077 484.332 475.898 484.35L475.829 484.364Z" fill="white"></path><path d="M481.034 443.799C480.861 443.799 480.694 443.735 480.566 443.617C480.439 443.5 480.361 443.34 480.347 443.167C480.059 439.515 479.031 435.96 477.324 432.718C475.617 429.476 473.267 426.617 470.419 424.313C470.344 424.261 470.281 424.195 470.233 424.118C470.184 424.042 470.151 423.956 470.136 423.867C470.121 423.777 470.123 423.686 470.143 423.598C470.164 423.509 470.201 423.426 470.254 423.352C470.305 423.278 470.37 423.215 470.445 423.167C470.52 423.118 470.605 423.086 470.693 423.07C470.781 423.055 470.872 423.057 470.959 423.077C471.046 423.097 471.129 423.135 471.201 423.187C474.237 425.594 476.74 428.606 478.55 432.031C480.361 435.456 481.44 439.22 481.72 443.085C481.735 443.268 481.678 443.451 481.559 443.592C481.441 443.733 481.272 443.823 481.088 443.84L481.034 443.799Z" fill="white"></path><path d="M478.794 451.887C478.628 451.889 478.467 451.83 478.341 451.722C478.205 451.601 478.121 451.431 478.108 451.249C478.096 451.067 478.154 450.887 478.272 450.747C478.602 450.363 486.717 441.41 505.736 443.785C505.916 443.809 506.08 443.904 506.19 444.048C506.301 444.192 506.35 444.374 506.327 444.554C506.303 444.735 506.209 444.9 506.065 445.013C505.921 445.126 505.739 445.178 505.558 445.158C487.294 442.865 479.371 451.571 479.288 451.654C479.226 451.724 479.15 451.78 479.065 451.821C478.98 451.861 478.888 451.883 478.794 451.887Z" fill="white"></path><path d="M377.04 558.131L199.403 455.567C186.866 448.33 176.704 428.913 176.704 412.202V31.8259C176.704 15.1141 186.866 7.43788 199.403 14.6746L377.04 117.239C389.577 124.476 399.739 143.893 399.739 160.604V540.98C399.739 557.678 389.577 565.368 377.04 558.131Z" fill="#455A64"></path><path d="M397.5 105.278L219.849 2.71407C214.494 -0.375623 209.578 -0.732655 205.692 1.16236C205.216 1.40062 204.757 1.67132 204.319 1.97254L184.407 13.5486C188.417 11.1455 193.663 11.324 199.416 14.6472L377.053 117.211C389.59 124.448 399.752 143.865 399.752 160.577V540.953C399.752 549.796 396.91 556.058 392.378 559.024L412.028 547.585C417.041 544.921 420.268 538.398 420.268 529.047V148.671C420.268 131.932 410.037 112.515 397.5 105.278Z" fill="#37474F"></path><path d="M399.739 160.577V540.952C399.739 549.796 396.897 556.058 392.365 559.024L412.029 547.585C417.041 544.921 420.268 538.398 420.268 529.047V148.671L399.808 160.549L399.739 160.577Z" fill="#263238"></path><path d="M420.199 178.181L399.738 189.991V199.219L420.199 187.395V178.181Z" fill="#37474F"></path><path d="M411.232 239.55C409.406 240.607 407.923 239.481 407.923 237.05V217.208C407.941 215.967 408.25 214.748 408.825 213.649C409.4 212.55 410.224 211.6 411.232 210.877C413.058 209.82 414.541 210.877 414.541 213.376V233.219C414.523 234.46 414.214 235.678 413.639 236.778C413.064 237.877 412.24 238.826 411.232 239.55Z" fill="#37474F"></path><path d="M407.909 237.105V217.207C407.927 215.967 408.236 214.748 408.811 213.649C409.386 212.55 410.21 211.6 411.218 210.877C411.519 210.666 411.87 210.538 412.236 210.504C412.602 210.47 412.971 210.533 413.305 210.685L410.82 209.408C410.48 209.244 410.103 209.173 409.727 209.202C409.351 209.231 408.989 209.359 408.678 209.572C407.669 210.296 406.843 211.245 406.266 212.344C405.689 213.443 405.377 214.662 405.355 215.903V235.732C405.303 236.233 405.379 236.739 405.576 237.202C405.773 237.666 406.084 238.072 406.481 238.382L409.076 239.755C408.663 239.458 408.337 239.055 408.132 238.589C407.926 238.123 407.849 237.611 407.909 237.105Z" fill="#455A64"></path><path d="M411.232 287.57C409.406 288.627 407.923 287.57 407.923 285.071V265.228C407.942 263.988 408.252 262.77 408.826 261.67C409.401 260.571 410.225 259.622 411.232 258.898C413.058 257.84 414.541 258.898 414.541 261.411V281.24C414.525 282.48 414.217 283.7 413.642 284.8C413.067 285.899 412.241 286.848 411.232 287.57Z" fill="#37474F"></path><path d="M407.909 285.071V265.228C407.929 263.988 408.239 262.77 408.813 261.67C409.388 260.571 410.212 259.622 411.219 258.898C411.522 258.691 411.872 258.565 412.238 258.531C412.603 258.497 412.971 258.557 413.306 258.706L410.821 257.415C410.483 257.244 410.104 257.169 409.727 257.198C409.349 257.227 408.986 257.359 408.678 257.58C407.667 258.3 406.84 259.249 406.262 260.349C405.685 261.448 405.374 262.668 405.355 263.91V283.794C405.303 284.295 405.378 284.801 405.575 285.265C405.772 285.728 406.084 286.134 406.481 286.444L409.077 287.817C408.647 287.513 408.31 287.095 408.104 286.61C407.898 286.125 407.83 285.592 407.909 285.071Z" fill="#455A64"></path><path d="M370.833 127.909L196.272 27.0884C195.543 26.6693 194.718 26.448 193.877 26.4464C193.037 26.4449 192.211 26.6631 191.48 27.0795C190.75 27.4959 190.142 28.096 189.715 28.8202C189.289 29.5444 189.059 30.3676 189.049 31.208V412.202C189.049 424.918 198.071 440.531 209.084 446.889L379.36 545.251C380.168 545.715 381.083 545.96 382.015 545.959C382.947 545.958 383.862 545.712 384.668 545.246C385.475 544.78 386.145 544.111 386.612 543.304C387.078 542.497 387.324 541.582 387.325 540.651V156.512C387.393 146.021 379.951 133.154 370.833 127.909Z" fill="#00A0DF"></path><path opacity="0.9" d="M370.833 127.909L196.272 27.0884C195.543 26.6693 194.718 26.448 193.877 26.4464C193.037 26.4449 192.211 26.6631 191.48 27.0795C190.75 27.4959 190.142 28.096 189.715 28.8202C189.289 29.5444 189.059 30.3676 189.049 31.208V412.202C189.049 424.918 198.071 440.531 209.084 446.889L379.36 545.251C380.168 545.715 381.083 545.96 382.015 545.959C382.947 545.958 383.862 545.712 384.668 545.246C385.475 544.78 386.145 544.111 386.612 543.304C387.078 542.497 387.324 541.582 387.325 540.651V156.512C387.393 146.021 379.951 133.154 370.833 127.909Z" fill="white"></path><path d="M248.481 53.4125L251.187 64.7963L309.053 98.165L319.05 92.837L248.481 53.4125Z" fill="#455A64"></path><path d="M265.495 64.4118C265.495 66.3068 264.122 67.0621 262.529 66.1283C261.674 65.5606 260.964 64.8002 260.456 63.9083C259.948 63.0163 259.656 62.0177 259.604 60.9925C259.604 59.1113 260.977 58.3423 262.57 59.2898C263.425 59.8546 264.135 60.6124 264.643 61.5021C265.151 62.3919 265.443 63.3886 265.495 64.4118Z" fill="#263238"></path><path d="M304.48 88.5114C304.164 88.5089 303.853 88.4288 303.574 88.278L274.023 71.7996C273.606 71.5546 273.301 71.1561 273.173 70.6893C273.046 70.2226 273.106 69.7245 273.341 69.3014C273.576 68.8783 273.967 68.5639 274.43 68.4251C274.894 68.2864 275.393 68.3344 275.822 68.5589L305.387 85.0373C305.746 85.237 306.029 85.5506 306.191 85.9286C306.352 86.3066 306.384 86.7277 306.28 87.1256C306.176 87.5234 305.943 87.8755 305.617 88.1264C305.292 88.3773 304.892 88.5127 304.48 88.5114Z" fill="#263238"></path><path d="M225.659 106.377C223.86 105.333 222.556 106.239 222.556 108.533C222.556 109.68 222.839 110.809 223.38 111.82C223.922 112.83 224.705 113.692 225.659 114.328C226.17 114.638 226.757 114.802 227.355 114.802C227.953 114.802 228.54 114.638 229.051 114.328L231.921 119.518C230.911 120.075 229.767 120.341 228.615 120.285C227.463 120.229 226.349 119.855 225.398 119.202C223.067 117.776 221.123 115.797 219.738 113.44C218.354 111.083 217.572 108.421 217.461 105.69C217.461 100.596 220.88 98.8242 225.59 101.571C228.25 103.283 230.429 105.647 231.921 108.437L229.051 110.716C228.343 108.984 227.169 107.482 225.659 106.377Z" fill="#00A0DF"></path><path d="M248.44 123.583C248.44 128.719 244.966 130.449 240.201 127.702C237.803 126.269 235.796 124.266 234.358 121.87C232.921 119.475 232.098 116.761 231.962 113.97C231.962 108.835 235.436 107.104 240.201 109.851C242.605 111.278 244.616 113.279 246.054 115.676C247.493 118.073 248.312 120.79 248.44 123.583ZM237.056 117.033C237.08 118.212 237.384 119.368 237.943 120.407C238.501 121.445 239.299 122.336 240.269 123.006C241.972 123.995 243.345 123.006 243.345 120.672C243.341 119.519 243.059 118.385 242.523 117.364C241.988 116.344 241.215 115.467 240.269 114.808C238.539 113.806 237.056 114.657 237.056 117.033Z" fill="#00A0DF"></path><path d="M253.974 118.131L259.906 130.49V121.592L264.396 124.187V141.503L260.277 139.114L254.372 126.865V135.708L249.854 133.099V115.742L253.974 118.131Z" fill="#00A0DF"></path><path d="M279.075 132.619V137.15L274.791 134.678V147.477L269.834 144.607V131.808L265.577 129.35V124.833L279.075 132.619Z" fill="#00A0DF"></path><path d="M288.743 153.079L283.112 149.825L282.343 151.83L277.263 148.891L283.593 135.228L288.688 138.166L294.785 159.012L289.498 155.963L288.743 153.079ZM287.52 148.273L285.982 142.355L284.403 146.474L287.52 148.273Z" fill="#00A0DF"></path><path d="M302.654 150.827C300.855 149.797 299.55 150.69 299.55 152.997C299.553 154.143 299.837 155.271 300.378 156.282C300.92 157.292 301.701 158.154 302.654 158.792C303.169 159.099 303.757 159.261 304.357 159.261C304.956 159.261 305.545 159.099 306.059 158.792L308.929 163.982C307.915 164.533 306.77 164.795 305.617 164.739C304.464 164.683 303.349 164.312 302.393 163.666C300.06 162.239 298.114 160.257 296.73 157.898C295.345 155.538 294.564 152.874 294.456 150.14C294.456 145.046 297.889 143.274 302.585 146.021C305.242 147.742 307.423 150.103 308.929 152.887L306.059 155.153C305.336 153.429 304.159 151.935 302.654 150.827Z" fill="#00A0DF"></path><path d="M322.469 157.679V162.197L318.185 159.726V172.565L313.228 169.695V156.897L308.971 154.439V149.921L322.469 157.679Z" fill="#00A0DF"></path><path d="M337.121 178.936C338.344 179.637 339.277 179.088 339.277 177.371V167.388L344.248 170.244V180.227C344.248 184.827 341.502 186.201 337.108 183.688C334.991 182.512 333.211 180.813 331.939 178.752C330.667 176.691 329.946 174.339 329.843 171.919V161.936L334.814 164.806V174.789C334.834 175.616 335.054 176.425 335.456 177.148C335.858 177.87 336.429 178.484 337.121 178.936Z" fill="#00A0DF"></path><path d="M352.253 178.991C351.69 178.676 351.333 178.662 351.333 179.184C351.333 181.353 359.092 184.484 359.092 190.76C359.092 194.605 356.167 194.618 352.789 192.668C349.819 190.849 347.261 188.431 345.277 185.569L347.118 182.328C348.627 184.666 350.566 186.698 352.83 188.315C353.558 188.741 354.025 188.741 354.025 188.123C354.025 185.871 346.252 182.878 346.252 176.794C346.252 173.334 348.779 172.675 352.679 174.872C355.191 176.391 357.402 178.36 359.202 180.68L357.403 184.004C355.917 182.111 354.185 180.426 352.253 178.991Z" fill="#00A0DF"></path><path d="M200.68 191.707C206.252 184.864 209.057 176.181 208.541 167.372C208.025 158.563 204.226 150.266 197.894 144.12C191.562 137.974 183.156 134.424 174.336 134.171C165.515 133.918 156.919 136.98 150.245 142.753C143.571 148.526 139.303 156.591 138.283 165.356C137.263 174.121 139.565 182.951 144.735 190.102C149.905 197.253 157.568 202.207 166.211 203.987C174.854 205.766 183.851 204.241 191.425 199.713L208.617 207.183L200.68 191.707Z" fill="#00A0DF"></path><path opacity="0.4" d="M200.68 191.707C206.252 184.864 209.057 176.181 208.541 167.372C208.025 158.563 204.226 150.266 197.894 144.12C191.562 137.974 183.156 134.424 174.336 134.171C165.515 133.918 156.919 136.98 150.245 142.753C143.571 148.526 139.303 156.591 138.283 165.356C137.263 174.121 139.565 182.951 144.735 190.102C149.905 197.253 157.568 202.207 166.211 203.987C174.854 205.766 183.851 204.241 191.425 199.713L208.617 207.183L200.68 191.707Z" fill="black"></path><path d="M160.254 167.539C160.254 167.004 159.869 166.701 159.169 166.701C157.545 166.914 156.027 167.63 154.83 168.747L152.88 164.957C154.932 163.413 157.412 162.54 159.979 162.458C163.275 162.458 165.774 164.188 165.774 166.77C165.774 168.61 164.401 170.382 162.643 172.153L160.185 174.584H165.994V178.621H153.512V175.311L159.073 169.558C159.672 169.028 160.086 168.321 160.254 167.539Z" fill="white"></path><path d="M176.155 162.692L172.365 171.782H173.916V168.72H178.695V171.782H180.508V175.531H178.695V178.621H173.916V175.531H167.119V172.126L171.239 162.692H176.155Z" fill="white"></path><path d="M195.255 170.697V178.621H190.147V172.167C190.177 171.957 190.161 171.743 190.1 171.539C190.04 171.336 189.937 171.148 189.797 170.987C189.658 170.827 189.486 170.699 189.293 170.611C189.1 170.523 188.89 170.478 188.678 170.478C187.675 170.478 187.044 171.26 187.044 172.469V178.621H181.935V161.785H187.044V167.979C187.443 167.347 188 166.83 188.66 166.479C189.319 166.127 190.059 165.953 190.806 165.974C191.419 165.958 192.027 166.072 192.593 166.307C193.158 166.543 193.667 166.895 194.087 167.341C194.507 167.787 194.828 168.316 195.029 168.894C195.231 169.473 195.308 170.087 195.255 170.697Z" fill="white"></path><path d="M361.825 298.295V468.915C361.828 470.844 361.322 472.741 360.359 474.413C359.396 476.085 358.01 477.475 356.339 478.441C354.669 479.407 352.773 479.916 350.843 479.917C348.914 479.917 347.018 479.41 345.346 478.445L253.452 425.384L237.166 415.992C231.558 412.749 226.899 408.091 223.656 402.484C220.412 396.876 218.697 390.515 218.683 384.037V213.404C218.68 211.474 219.185 209.578 220.148 207.905C221.111 206.233 222.498 204.844 224.169 203.878C225.839 202.912 227.735 202.403 229.664 202.402C231.594 202.401 233.49 202.909 235.161 203.874L343.369 266.341C348.98 269.578 353.639 274.236 356.879 279.845C360.118 285.454 361.824 291.817 361.825 298.295Z" fill="#00A0DF"></path><path opacity="0.5" d="M361.825 298.295V468.915C361.828 470.844 361.322 472.741 360.359 474.413C359.396 476.085 358.01 477.475 356.339 478.441C354.669 479.407 352.773 479.916 350.843 479.917C348.914 479.917 347.018 479.41 345.346 478.445L253.452 425.384L237.166 415.992C231.558 412.749 226.899 408.091 223.656 402.484C220.412 396.876 218.697 390.515 218.683 384.037V213.404C218.68 211.474 219.185 209.578 220.148 207.905C221.111 206.233 222.498 204.844 224.169 203.878C225.839 202.912 227.735 202.403 229.664 202.402C231.594 202.401 233.49 202.909 235.161 203.874L343.369 266.341C348.98 269.578 353.639 274.236 356.879 279.845C360.118 285.454 361.824 291.817 361.825 298.295Z" fill="white"></path><path d="M308.888 399.252C308.888 399.252 326.094 427.788 313.667 459.962L253.411 425.384L308.888 399.252Z" fill="#263238"></path><path d="M336.329 271.047C337.631 260.471 330.114 250.843 319.538 249.54C308.962 248.238 299.334 255.756 298.031 266.331C296.729 276.907 304.246 286.536 314.822 287.838C325.398 289.14 335.027 281.623 336.329 271.047Z" fill="#263238"></path><path d="M317.278 214.571C317.278 214.571 323.197 204.959 325.009 205.659C326.822 206.36 323.828 215.519 323.828 215.519C323.828 215.519 332.782 217.386 331.12 219.638C329.459 221.89 318.514 221.355 318.514 221.355L317.278 214.571Z" fill="#263238"></path><path d="M321.398 239.344C317.278 270.296 291.188 270.296 291.188 270.296L236.534 246.237C236.534 246.237 232.415 242.626 231.151 234.332C230.667 230.934 230.667 227.485 231.151 224.088C231.151 224.088 231.151 224.019 231.151 223.991C232.895 210.974 242.631 196.981 263.833 192.683C268.48 191.744 273.21 191.284 277.95 191.309C280.243 191.301 282.535 191.416 284.816 191.653C301.294 193.273 312.843 200.963 318.349 212.923C319.588 215.623 320.51 218.457 321.096 221.369C322.213 227.3 322.316 233.378 321.398 239.344Z" fill="#263238"></path><path d="M190.189 299.215C190.189 299.215 170.786 298.542 163.316 317.451C163.316 317.451 171.555 323.013 182.362 317.451C193.169 311.89 190.189 299.215 190.189 299.215Z" fill="#00A0DF"></path><path opacity="0.5" d="M190.189 299.215C190.189 299.215 170.786 298.542 163.316 317.451C163.316 317.451 171.555 323.013 182.362 317.451C193.169 311.89 190.189 299.215 190.189 299.215Z" fill="black"></path><path d="M189.64 308.319C189.64 308.319 184.147 284.453 181.25 284.165C178.352 283.876 177.789 291.443 178.023 295.713L171.157 280.938C170.939 280.479 170.63 280.069 170.247 279.734C169.865 279.399 169.418 279.146 168.935 278.99C168.451 278.835 167.94 278.78 167.435 278.829C166.929 278.878 166.438 279.03 165.994 279.276C159.128 283.052 147.085 294.532 172.475 322.916L189.64 308.319Z" fill="#945959"></path><path d="M259.948 291.813L255.828 291.278C251.676 290.727 247.453 291.292 243.592 292.914C239.73 294.536 236.37 297.156 233.857 300.506L209.345 333.133L190.12 299.215C190.12 299.215 187.813 322.285 163.247 317.451L189.626 361.847C191.295 364.657 193.619 367.023 196.399 368.742C199.179 370.462 202.334 371.485 205.594 371.723C208.854 371.962 212.124 371.41 215.125 370.113C218.126 368.817 220.769 366.815 222.83 364.277L245.405 336.525L259.948 291.813Z" fill="#00A0DF"></path><path d="M312.266 367.957C306.773 381.882 306.169 384.601 309.52 391.563C311.853 396.705 313.692 402.057 315.012 407.547C315.012 407.547 289.553 436.082 253.315 425.398L237.028 416.006C233.642 414.052 230.591 411.567 227.993 408.645L232.95 371.679C233.2 369.733 233.002 367.756 232.373 365.898L227.169 350.641C224.629 343.19 224.251 335.172 226.079 327.514C227.906 319.857 231.864 312.873 237.495 307.372L254.99 290.276L300.937 296.153L307.803 298.117C312.298 299.417 316.173 302.295 318.716 306.223C321.259 310.151 322.299 314.864 321.645 319.497C319.393 335.701 315.713 359.21 312.266 367.957Z" fill="#00A0DF"></path><path opacity="0.5" d="M312.266 367.957C306.773 381.882 306.169 384.601 309.52 391.563C311.853 396.705 313.692 402.057 315.012 407.547C315.012 407.547 289.553 436.082 253.315 425.398L237.028 416.006C233.642 414.052 230.591 411.567 227.993 408.645L232.95 371.679C233.2 369.733 233.002 367.756 232.373 365.898L227.169 350.641C224.629 343.19 224.251 335.172 226.079 327.514C227.906 319.857 231.864 312.873 237.495 307.372L254.99 290.276L300.937 296.153L307.803 298.117C312.298 299.417 316.173 302.295 318.716 306.223C321.259 310.151 322.299 314.864 321.645 319.497C319.393 335.701 315.713 359.21 312.266 367.957Z" fill="black"></path><path d="M284.555 326.363L275.355 318.522C274.381 317.689 273.206 317.124 271.946 316.883C270.687 316.642 269.386 316.734 268.173 317.149L257.05 320.98L255.553 314.746C255.32 313.776 254.892 312.864 254.296 312.064C253.7 311.263 252.949 310.592 252.086 310.09C251.224 309.589 250.269 309.267 249.279 309.144C248.289 309.022 247.284 309.101 246.326 309.377L241.506 310.75L249.662 295.123C252.326 290.034 256.428 285.841 261.458 283.067L264.658 281.309L291.092 282.682C291.092 282.682 300.938 286.802 300.938 296.071L284.555 326.281" fill="#00A0DF"></path><path d="M291.202 294.395L264.699 315.048V249.286H291.202V294.395Z" fill="#945959"></path><path d="M265.111 288.971L257.05 321.035L291.092 294.395L265.111 288.971Z" fill="#945959"></path><path d="M264.7 284.206C270.593 282.018 275.98 278.655 280.534 274.321C285.087 269.987 288.712 264.772 291.189 258.994V249.286H264.686L264.7 284.206Z" fill="#703838"></path><path d="M270.411 200.551C260.359 200.551 238.992 206.153 236.52 232.464C234.049 258.774 236.438 279.153 250.005 281.13C263.572 283.107 295.101 273.262 299.33 239.206C303.56 205.151 280.202 200.551 270.411 200.551Z" fill="#945959"></path><path d="M254.593 243.6V259.104L245.502 256.316L254.593 243.6Z" fill="#703838"></path><path d="M264.699 249.437C266.444 249.437 267.858 248.023 267.858 246.278C267.858 244.534 266.444 243.12 264.699 243.12C262.955 243.12 261.541 244.534 261.541 246.278C261.541 248.023 262.955 249.437 264.699 249.437Z" fill="#263238"></path><path d="M247.067 244.081C247.064 244.705 246.877 245.315 246.528 245.832C246.179 246.35 245.685 246.752 245.108 246.989C244.53 247.226 243.896 247.287 243.284 247.164C242.672 247.04 242.111 246.738 241.67 246.296C241.23 245.854 240.931 245.291 240.81 244.679C240.689 244.066 240.752 243.432 240.992 242.856C241.231 242.279 241.636 241.787 242.155 241.441C242.674 241.094 243.284 240.909 243.909 240.909C244.324 240.909 244.736 240.991 245.12 241.151C245.504 241.31 245.853 241.544 246.147 241.839C246.44 242.134 246.672 242.484 246.83 242.868C246.988 243.253 247.069 243.665 247.067 244.081Z" fill="#263238"></path><path d="M240.051 237.49L246.23 233.823C246.23 233.823 243.868 231.365 241.506 232.835C239.144 234.304 240.051 237.49 240.051 237.49Z" fill="#263238"></path><path d="M250.322 265.393C253.331 265.613 256.326 264.81 258.822 263.114C258.822 263.114 259.413 267.604 255.65 268.456C251.887 269.307 250.322 265.393 250.322 265.393Z" fill="#703838"></path><path d="M244.925 209.504C244.925 209.504 248.701 245.825 298.095 246.965C298.095 246.965 313.022 210.864 283.526 199.137C254.029 187.41 244.925 209.504 244.925 209.504Z" fill="#263238"></path><path d="M312.638 241.527L306.568 238.012C304.261 236.639 301.075 236.831 297.546 238.863C290.543 242.9 284.858 252.746 284.858 260.834C284.858 264.885 286.231 267.7 288.593 269.074L294.553 272.507L294.896 272.699L295.102 272.822C297.354 273.921 300.361 273.66 303.671 271.751C310.674 267.632 316.359 257.868 316.359 249.78C316.318 245.688 314.903 242.859 312.638 241.527Z" fill="#00A0DF"></path><path d="M312.59 262.21C317.542 253.633 317.542 244.361 312.59 241.502C307.638 238.643 299.609 243.279 294.656 251.856C289.704 260.434 289.704 269.705 294.656 272.565C299.608 275.424 307.637 270.788 312.59 262.21Z" fill="#00A0DF"></path><path opacity="0.5" d="M312.59 262.21C317.542 253.633 317.542 244.361 312.59 241.502C307.638 238.643 299.609 243.279 294.656 251.856C289.704 260.434 289.704 269.705 294.656 272.565C299.608 275.424 307.637 270.788 312.59 262.21Z" fill="black"></path><path d="M315.068 249.148L310.948 246.745C309.383 245.812 307.2 245.935 304.783 247.322C302.258 248.972 300.157 251.193 298.649 253.805C297.142 256.417 296.27 259.347 296.104 262.359C296.104 265.105 297.079 267.069 298.658 267.975L302.778 270.323C302.851 270.377 302.929 270.422 303.011 270.46L303.149 270.543C304.114 270.909 305.155 271.033 306.18 270.904C307.204 270.775 308.182 270.396 309.026 269.801C311.549 268.153 313.649 265.934 315.156 263.325C316.664 260.715 317.537 257.788 317.705 254.779C317.595 251.991 316.633 250.055 315.068 249.148Z" fill="#00A0DF"></path><path d="M317.595 254.751C317.428 257.76 316.555 260.687 315.047 263.297C313.54 265.907 311.44 268.125 308.917 269.774C304.111 272.52 300.224 270.296 300.224 264.762C300.387 261.75 301.26 258.819 302.77 256.208C304.281 253.598 306.387 251.381 308.917 249.739C313.709 246.965 317.595 249.203 317.595 254.751Z" fill="#00A0DF"></path><path opacity="0.3" d="M317.595 254.751C317.428 257.76 316.555 260.687 315.047 263.297C313.54 265.907 311.44 268.125 308.917 269.774C304.111 272.52 300.224 270.296 300.224 264.762C300.387 261.75 301.26 258.819 302.77 256.208C304.281 253.598 306.387 251.381 308.917 249.739C313.709 246.965 317.595 249.203 317.595 254.751Z" fill="black"></path><path d="M293.783 193.465C289.847 190.424 285.025 188.751 280.051 188.7H278.829C273.792 188.646 268.763 189.106 263.82 190.073C264.726 190.073 265.633 190.073 266.566 190.073H263.82V192.627H266.374C275.177 192.927 283.518 196.637 289.635 202.974C295.752 209.312 299.165 217.779 299.152 226.587V237.394C299.152 237.821 299.241 238.243 299.415 238.634C299.588 239.024 299.842 239.374 300.159 239.66C300.476 239.946 300.85 240.162 301.256 240.295C301.662 240.427 302.092 240.473 302.517 240.428H302.833L305.579 239.577C305.396 239.635 305.207 239.672 305.016 239.687C305.835 239.576 306.584 239.167 307.121 238.539C307.658 237.911 307.945 237.107 307.927 236.281V226.257C307.9 208.117 300.059 198.367 293.783 193.465Z" fill="#00A0DF"></path><path d="M276.496 280.375C275.363 280.375 274.244 280.132 273.214 279.661L264.631 275.692C264.497 275.644 264.374 275.569 264.27 275.471C264.167 275.373 264.085 275.255 264.029 275.123C263.974 274.992 263.946 274.851 263.948 274.708C263.95 274.566 263.982 274.425 264.041 274.295C264.1 274.166 264.185 274.05 264.292 273.955C264.398 273.86 264.523 273.788 264.658 273.743C264.794 273.699 264.937 273.684 265.079 273.698C265.221 273.712 265.358 273.755 265.482 273.825L274.065 277.793C275.16 278.302 276.386 278.457 277.572 278.235C278.759 278.014 279.847 277.427 280.684 276.557L288.923 268.044C289.116 267.851 289.378 267.742 289.651 267.742C289.924 267.742 290.185 267.851 290.379 268.044C290.568 268.238 290.674 268.5 290.674 268.771C290.674 269.043 290.568 269.304 290.379 269.499L282.139 278.013C281.406 278.766 280.528 279.364 279.558 279.769C278.588 280.175 277.547 280.381 276.496 280.375Z" fill="#00A0DF"></path><path opacity="0.5" d="M276.496 280.375C275.363 280.375 274.244 280.132 273.214 279.661L264.631 275.692C264.497 275.644 264.374 275.569 264.27 275.471C264.167 275.373 264.085 275.255 264.029 275.123C263.974 274.992 263.946 274.851 263.948 274.708C263.95 274.566 263.982 274.425 264.041 274.295C264.1 274.166 264.185 274.05 264.292 273.955C264.398 273.86 264.523 273.788 264.658 273.743C264.794 273.699 264.937 273.684 265.079 273.698C265.221 273.712 265.358 273.755 265.482 273.825L274.065 277.793C275.16 278.302 276.386 278.457 277.572 278.235C278.759 278.014 279.847 277.427 280.684 276.557L288.923 268.044C289.116 267.851 289.378 267.742 289.651 267.742C289.924 267.742 290.185 267.851 290.379 268.044C290.568 268.238 290.674 268.5 290.674 268.771C290.674 269.043 290.568 269.304 290.379 269.499L282.139 278.013C281.406 278.766 280.528 279.364 279.558 279.769C278.588 280.175 277.547 280.381 276.496 280.375Z" fill="black"></path><path d="M266.882 272.808C266.882 273.601 266.647 274.377 266.206 275.036C265.766 275.695 265.139 276.209 264.407 276.513C263.674 276.816 262.868 276.896 262.09 276.741C261.312 276.586 260.598 276.204 260.037 275.644C259.476 275.083 259.094 274.368 258.94 273.591C258.785 272.813 258.864 272.007 259.168 271.274C259.471 270.541 259.985 269.915 260.645 269.474C261.304 269.034 262.079 268.799 262.872 268.799C263.936 268.799 264.956 269.221 265.708 269.973C266.46 270.725 266.882 271.745 266.882 272.808Z" fill="#00A0DF"></path><path opacity="0.5" d="M266.882 272.808C266.882 273.601 266.647 274.377 266.206 275.036C265.766 275.695 265.139 276.209 264.407 276.513C263.674 276.816 262.868 276.896 262.09 276.741C261.312 276.586 260.598 276.204 260.037 275.644C259.476 275.083 259.094 274.368 258.94 273.591C258.785 272.813 258.864 272.007 259.168 271.274C259.471 270.541 259.985 269.915 260.645 269.474C261.304 269.034 262.079 268.799 262.872 268.799C263.936 268.799 264.956 269.221 265.708 269.973C266.46 270.725 266.882 271.745 266.882 272.808Z" fill="black"></path><path d="M307.9 226.257V236.281C307.918 237.107 307.631 237.911 307.094 238.539C306.557 239.167 305.808 239.576 304.989 239.687C304.537 239.735 304.079 239.688 303.647 239.547C303.214 239.407 302.815 239.177 302.477 238.873C302.139 238.568 301.869 238.196 301.684 237.781C301.5 237.365 301.405 236.915 301.405 236.46V226.257C301.413 221.388 300.435 216.567 298.532 212.085C296.628 207.603 293.837 203.553 290.327 200.178C286.817 196.803 282.661 194.172 278.108 192.445C273.555 190.718 268.7 189.93 263.834 190.128C268.778 189.161 273.807 188.701 278.844 188.755H280.038C285.012 188.806 289.834 190.479 293.77 193.52C300.059 198.367 307.9 208.117 307.9 226.257Z" fill="#00A0DF"></path><path opacity="0.5" d="M307.9 226.257V236.281C307.918 237.107 307.631 237.911 307.094 238.539C306.557 239.167 305.808 239.576 304.989 239.687C304.537 239.735 304.079 239.688 303.647 239.547C303.214 239.407 302.815 239.177 302.477 238.873C302.139 238.568 301.869 238.196 301.684 237.781C301.5 237.365 301.405 236.915 301.405 236.46V226.257C301.413 221.388 300.435 216.567 298.532 212.085C296.628 207.603 293.837 203.553 290.327 200.178C286.817 196.803 282.661 194.172 278.108 192.445C273.555 190.718 268.7 189.93 263.834 190.128C268.778 189.161 273.807 188.701 278.844 188.755H280.038C285.012 188.806 289.834 190.479 293.77 193.52C300.059 198.367 307.9 208.117 307.9 226.257Z" fill="black"></path><path d="M292.465 415.168C292.465 415.168 285.818 433.473 309.575 441.712C309.575 441.712 317.333 430.315 309.575 420.991C301.816 411.667 292.465 415.168 292.465 415.168Z" fill="#00A0DF"></path><path opacity="0.7" d="M292.465 415.168C292.465 415.168 285.818 433.473 309.575 441.712C309.575 441.712 317.333 430.315 309.575 420.991C301.816 411.667 292.465 415.168 292.465 415.168Z" fill="black"></path><path d="M300.801 416.006C300.801 416.006 277.594 424.506 277.717 427.801C277.841 431.097 287.577 428.845 287.577 428.845L284.02 431.179C280.275 433.623 277.374 437.162 275.712 441.314C275.35 442.229 275.337 443.246 275.677 444.171C276.016 445.095 276.684 445.862 277.552 446.326L286.368 450.995C286.866 451.259 287.412 451.42 287.973 451.47C288.535 451.519 289.1 451.456 289.637 451.283C290.173 451.11 290.669 450.832 291.096 450.464C291.523 450.096 291.872 449.646 292.122 449.141C292.614 448.17 293.293 447.306 294.12 446.599C294.947 445.892 295.906 445.356 296.942 445.021C301.734 443.428 310.674 438.842 314.258 426.291L300.801 416.006Z" fill="#945959"></path><path d="M307.762 298.089C307.762 298.089 295.404 304.955 301.968 325.8C308.531 346.645 320.849 378.984 320.849 378.984L292.465 415.168C295.497 415.534 298.419 416.535 301.038 418.106C303.657 419.677 305.916 421.783 307.666 424.286C309.343 426.831 310.391 429.739 310.722 432.769C311.054 435.799 310.661 438.864 309.575 441.712L344.811 396.396C348.07 392.209 350.233 387.275 351.106 382.041C351.979 376.807 351.533 371.438 349.81 366.419L334.705 322.312C332.858 316.924 329.79 312.037 325.74 308.032C321.69 304.028 316.768 301.015 311.36 299.229L307.762 298.089Z" fill="#00A0DF"></path><path d="M99.1457 174.954L44.5337 143.371C43.9052 142.935 43.1781 142.663 42.418 142.579C41.658 142.495 40.889 142.602 40.1806 142.89C40.0313 142.959 39.8888 143.042 39.755 143.137L27.8768 150.1H27.9592C26.4624 150.951 25.5149 152.928 25.5149 155.757V216.507C25.5149 221.643 28.6321 227.617 32.4907 229.841L87.1028 261.425C87.7957 261.926 88.6206 262.213 89.475 262.249C90.3294 262.286 91.1757 262.071 91.909 261.631C91.8719 261.645 91.8389 261.669 91.8129 261.699L103.609 254.833C105.147 254.009 106.122 252.005 106.122 249.135V188.288C106.122 183.152 103.059 177.179 99.1457 174.954Z" fill="#00A0DF"></path><path d="M104.172 180.708C103.067 178.358 101.326 176.365 99.1463 174.954L44.5342 143.371C43.9057 142.935 43.1786 142.663 42.4186 142.579C41.6585 142.495 40.8895 142.602 40.1812 142.89C40.0319 142.959 39.8894 143.042 39.7555 143.137L27.8773 150.1C28.6039 149.728 29.4187 149.564 30.2324 149.624C31.0462 149.685 31.8276 149.968 32.4913 150.443L87.1033 182.026C89.3574 183.5 91.1439 185.587 92.2528 188.041L104.172 180.708Z" fill="#00A0DF"></path><path d="M94.0793 256.083C94.0793 258.829 93.2004 260.738 91.8135 261.576L103.609 254.71C105.147 253.886 106.122 251.881 106.122 249.011V188.288C106.064 185.645 105.397 183.051 104.172 180.708L92.2529 188.041C93.3973 190.315 94.0212 192.815 94.0793 195.36V256.083Z" fill="#00A0DF"></path><path opacity="0.3" d="M104.172 180.708C103.067 178.358 101.326 176.365 99.1463 174.954L44.5342 143.371C43.9057 142.935 43.1786 142.663 42.4186 142.579C41.6585 142.495 40.8895 142.602 40.1812 142.89C40.0319 142.959 39.8894 143.042 39.7555 143.137L27.8773 150.1C28.6039 149.728 29.4187 149.564 30.2324 149.624C31.0462 149.685 31.8276 149.968 32.4913 150.443L87.1033 182.026C89.3574 183.5 91.1439 185.587 92.2528 188.041L104.172 180.708Z" fill="black"></path><path opacity="0.6" d="M94.0793 256.083C94.0793 258.829 93.2004 260.738 91.8135 261.576L103.609 254.71C105.147 253.886 106.122 251.881 106.122 249.011V188.288C106.064 185.645 105.397 183.051 104.172 180.708L92.2529 188.041C93.3973 190.315 94.0212 192.815 94.0793 195.36V256.083Z" fill="black"></path><path d="M78.0667 212.758C78.0667 220.627 74.9496 223.305 70.2807 220.599C68.9927 219.866 67.8665 218.88 66.9697 217.7C66.073 216.52 65.4242 215.171 65.0626 213.733C63.6894 215.422 61.5609 215.532 58.5673 213.802C53.6513 210.96 49.7789 204.19 49.7789 197.612C49.7789 191.034 53.6101 188.769 58.5673 191.625C61.0828 193.107 63.1147 195.287 64.4171 197.9V195.305L69.5941 198.299V212.525C69.517 213.274 69.6465 214.029 69.9685 214.709C70.2904 215.39 70.7926 215.969 71.4205 216.384C73.1644 217.4 74.2355 215.683 74.2355 210.589C74.2355 201.677 68.523 192.229 60.0778 187.354C51.6327 182.479 45.9339 185.871 45.9339 195.044C46.0446 199.912 47.3858 204.672 49.8325 208.881C52.2793 213.09 55.7519 216.611 59.9268 219.116C62.1936 220.513 64.7677 221.333 67.4245 221.506L68.6466 226.243C65.5531 225.994 62.5638 225.01 59.9268 223.373C48.9412 217.015 41.677 204.217 41.677 192.627C41.677 181.038 49.0099 176.836 60.0778 183.235C70.775 189.4 78.0667 201.745 78.0667 212.758ZM64.4995 206.153C64.5262 204.412 64.1014 202.694 63.2663 201.165C62.4312 199.637 61.2144 198.352 59.7345 197.434C56.9881 195.827 55.0245 196.953 55.0245 200.688C54.9892 202.432 55.4041 204.156 56.2291 205.693C57.0541 207.23 58.2615 208.528 59.7345 209.463C62.4809 211.014 64.4995 210.012 64.4995 206.153Z" fill="#00A0DF"></path><g opacity="0.9"><path d="M78.0664 212.758C78.0664 220.627 74.9492 223.305 70.2803 220.599C68.9924 219.866 67.8661 218.88 66.9694 217.7C66.0726 216.52 65.4238 215.171 65.0622 213.733C63.689 215.422 61.5605 215.532 58.567 213.802C53.6509 210.96 49.7785 204.19 49.7785 197.612C49.7785 191.034 53.6097 188.769 58.567 191.625C61.0824 193.107 63.1144 195.287 64.4168 197.9V195.305L69.5937 198.299V212.525C69.5166 213.274 69.6461 214.029 69.9681 214.709C70.2901 215.39 70.7922 215.969 71.4201 216.384C73.164 217.4 74.2351 215.683 74.2351 210.589C74.2351 201.677 68.5226 192.229 60.0775 187.354C51.6323 182.479 45.9335 185.871 45.9335 195.044C46.0442 199.912 47.3854 204.672 49.8322 208.881C52.2789 213.09 55.7516 216.611 59.9264 219.116C62.1932 220.513 64.7673 221.333 67.4241 221.506L68.6462 226.243C65.5528 225.994 62.5634 225.01 59.9264 223.373C48.9408 217.015 41.6766 204.217 41.6766 192.627C41.6766 181.038 49.0095 176.836 60.0775 183.235C70.7747 189.4 78.0664 201.745 78.0664 212.758ZM64.4992 206.153C64.5259 204.412 64.101 202.694 63.2659 201.165C62.4308 199.637 61.214 198.352 59.7342 197.434C56.9878 195.827 55.0241 196.953 55.0241 200.688C54.9888 202.432 55.4037 204.156 56.2287 205.693C57.0538 207.23 58.2611 208.528 59.7342 209.463C62.4806 211.014 64.4992 210.012 64.4992 206.153Z" fill="white"></path></g><path d="M99.1457 283.135L44.5337 251.551C43.9061 251.113 43.178 250.841 42.4171 250.759C41.6561 250.677 40.8869 250.789 40.1806 251.084C40.0313 251.153 39.8888 251.236 39.755 251.331L27.8768 258.294H27.9592C26.4624 259.145 25.5149 261.122 25.5149 263.937V324.66C25.5149 329.81 28.6321 335.769 32.4907 337.994L87.1028 369.577C87.7943 370.082 88.6195 370.371 89.4747 370.407C90.3299 370.444 91.1769 370.227 91.909 369.783L91.8129 369.866L103.609 362.931C105.147 362.121 106.122 360.185 106.122 357.232V296.455C106.122 291.319 103.059 285.359 99.1457 283.135Z" fill="#00A0DF"></path><path d="M104.172 288.888C103.071 286.536 101.329 284.542 99.1463 283.135L44.5342 251.551C43.9066 251.113 43.1786 250.841 42.4176 250.759C41.6566 250.677 40.8874 250.789 40.1812 251.084C40.0319 251.153 39.8894 251.236 39.7555 251.331L27.8773 258.294C28.6023 257.919 29.4166 257.751 30.2307 257.809C31.0447 257.867 31.827 258.149 32.4913 258.623L87.1033 290.207C89.361 291.682 91.1481 293.774 92.2528 296.235L104.172 288.888Z" fill="#00A0DF"></path><path d="M94.0793 364.249C94.0793 366.996 93.2004 368.905 91.8135 369.811L103.609 362.876C105.147 362.066 106.122 360.13 106.122 357.178V296.455C106.064 293.816 105.397 291.227 104.172 288.888L92.2529 296.221C93.3971 298.49 94.021 300.986 94.0793 303.527V364.249Z" fill="#00A0DF"></path><path opacity="0.3" d="M104.172 288.888C103.071 286.536 101.329 284.542 99.1463 283.135L44.5342 251.551C43.9066 251.113 43.1786 250.841 42.4176 250.759C41.6566 250.677 40.8874 250.789 40.1812 251.084C40.0319 251.153 39.8894 251.236 39.7555 251.331L27.8773 258.294C28.6023 257.919 29.4166 257.751 30.2307 257.809C31.0447 257.867 31.827 258.149 32.4913 258.623L87.1033 290.207C89.361 291.682 91.1481 293.774 92.2528 296.235L104.172 288.888Z" fill="black"></path><path opacity="0.6" d="M94.0793 364.249C94.0793 366.996 93.2004 368.905 91.8135 369.811L103.609 362.876C105.147 362.066 106.122 360.13 106.122 357.178V296.455C106.064 293.816 105.397 291.227 104.172 288.888L92.2529 296.221C93.3971 298.49 94.021 300.986 94.0793 303.527V364.249Z" fill="black"></path><path d="M53.6928 310.283L40.5238 288.888V317.877L53.6928 310.283Z" fill="#00A0DF"></path><path d="M65.9274 316.449L79.0689 339.202V310.255L65.9274 316.449Z" fill="#00A0DF"></path><path d="M42.5156 287.914L56.0416 309.885C56.0989 309.933 56.1497 309.988 56.1927 310.05C56.2046 310.104 56.2046 310.16 56.1927 310.214L60.2161 316.751L63.6217 315.144C63.6747 315.087 63.7347 315.036 63.8002 314.993C63.9344 314.915 64.0846 314.868 64.2396 314.856L77.9716 308.415L42.5156 287.914Z" fill="#00A0DF"></path><path d="M63.9369 317.382L60.2567 319.113C60.1149 319.179 59.96 319.211 59.8036 319.209C59.614 319.211 59.4272 319.164 59.2611 319.072C59.0951 318.981 58.9556 318.848 58.8561 318.687L54.8326 312.15L41.6224 319.785L77.1745 340.301L63.9369 317.382Z" fill="#00A0DF"></path><g opacity="0.9"><path d="M53.6937 310.283L40.5248 288.889V317.877L53.6937 310.283Z" fill="white"></path><path d="M65.9283 316.449L79.0698 339.202V310.255L65.9283 316.449Z" fill="white"></path><path d="M42.5153 287.914L56.0413 309.885C56.0985 309.933 56.1493 309.988 56.1923 310.05C56.2042 310.104 56.2042 310.16 56.1923 310.214L60.2158 316.751L63.6213 315.144C63.6743 315.087 63.7343 315.036 63.7998 314.993C63.9341 314.915 64.0843 314.868 64.2392 314.856L77.9712 308.415L42.5153 287.914Z" fill="white"></path><path d="M63.9379 317.383L60.2577 319.113C60.1159 319.179 59.9609 319.212 59.8045 319.209C59.615 319.211 59.4281 319.164 59.2621 319.073C59.0961 318.981 58.9565 318.849 58.857 318.687L54.8336 312.151L41.6234 319.786L77.1755 340.301L63.9379 317.383Z" fill="white"></path></g><path d="M99.1457 66.8288L44.5337 35.2452C43.9061 34.8072 43.178 34.5348 42.4171 34.4532C41.6561 34.3716 40.8869 34.4834 40.1806 34.7784C40.0313 34.8473 39.8888 34.93 39.755 35.0255L27.8768 41.9876H27.9592C26.4624 42.8253 25.5149 44.8164 25.5149 47.6315V108.354C25.5149 113.49 28.6321 119.463 32.4907 121.688L87.1028 153.272C87.7943 153.776 88.6195 154.065 89.4747 154.102C90.3299 154.138 91.1769 153.921 91.909 153.478L91.8129 153.546L103.609 146.68C105.147 145.87 106.122 143.934 106.122 140.981V80.1076C106.122 74.9718 103.059 68.9984 99.1457 66.8288Z" fill="#00A0DF"></path><path d="M104.172 72.5413C103.071 70.1853 101.33 68.1866 99.1463 66.7739L44.5342 35.2452C43.9066 34.8072 43.1786 34.5348 42.4176 34.4532C41.6566 34.3716 40.8874 34.4834 40.1812 34.7784C40.0319 34.8473 39.8894 34.93 39.7555 35.0255L27.8773 41.9876C28.6023 41.6128 29.4166 41.4452 30.2307 41.5033C31.0447 41.5615 31.827 41.8431 32.4913 42.3172L87.1033 73.9008C89.361 75.3764 91.1481 77.4686 92.2528 79.9291L104.172 72.5413Z" fill="#00A0DF"></path><path d="M94.0793 147.847C94.0793 150.594 93.2004 152.503 91.8135 153.34L103.609 146.474C105.147 145.664 106.122 143.728 106.122 140.775V80.1076C106.064 77.4689 105.397 74.8794 104.172 72.5413L92.2529 79.8741C93.3971 82.1433 94.021 84.6389 94.0793 87.1795V147.847Z" fill="#00A0DF"></path><path opacity="0.3" d="M104.172 72.5413C103.071 70.1853 101.33 68.1866 99.1463 66.7739L44.5342 35.2452C43.9066 34.8072 43.1786 34.5348 42.4176 34.4532C41.6566 34.3716 40.8874 34.4834 40.1812 34.7784C40.0319 34.8473 39.8894 34.93 39.7555 35.0255L27.8773 41.9876C28.6023 41.6128 29.4166 41.4452 30.2307 41.5033C31.0447 41.5615 31.827 41.8431 32.4913 42.3172L87.1033 73.9008C89.361 75.3764 91.1481 77.4686 92.2528 79.9291L104.172 72.5413Z" fill="black"></path><path opacity="0.6" d="M94.0793 147.847C94.0793 150.594 93.2004 152.503 91.8135 153.34L103.609 146.474C105.147 145.664 106.122 143.728 106.122 140.775V80.1076C106.064 77.4689 105.397 74.8794 104.172 72.5413L92.2529 79.8741C93.3971 82.1433 94.021 84.6389 94.0793 87.1795V147.847Z" fill="black"></path><path d="M76.2133 121.757C74.1123 118.296 71.9975 114.891 69.8965 111.403C69.5633 110.742 69.0974 110.157 68.528 109.685C67.9586 109.212 67.2979 108.862 66.5871 108.656C65.571 108.45 64.5548 108.217 63.5112 107.915C63.1395 107.76 62.8269 107.49 62.6186 107.146C59.1807 101.262 56.4475 94.9935 54.4755 88.4703C54.4336 88.3308 54.4217 88.184 54.4406 88.0396C54.4596 87.8953 54.5089 87.7565 54.5854 87.6326C55.2308 86.9872 55.9586 86.3967 56.6177 85.82C57.2769 85.2432 57.6202 83.9112 57.1395 82.181C56.1234 78.5146 55.1484 74.8481 54.1322 71.1954C53.9356 70.1576 53.4691 69.1898 52.7797 68.3895C52.0903 67.5892 51.2022 66.9845 50.2049 66.6364C47.9904 66.0208 45.6395 66.1071 43.4762 66.8836C42.6386 67.1994 42.1992 67.9547 42.1854 69.2592C42.5425 71.7722 42.7759 74.2577 43.2565 76.8118C46.6437 95.231 54.7914 112.167 67.6994 127.62C68.0364 128.133 68.4891 128.559 69.0211 128.864C69.553 129.169 70.1492 129.345 70.7617 129.378C72.8987 129.327 74.9518 128.536 76.5703 127.139C77.7924 126.041 77.6688 124.091 76.2133 121.757Z" fill="#00A0DF"></path><path d="M76.0487 103.04C75.7614 99.0902 74.6728 95.2403 72.8491 91.7249C71.4875 88.9787 69.7548 86.4327 67.6996 84.1586C67.1641 83.5544 66.7109 83.3621 66.4363 83.8153C66.1616 84.2684 66.4363 84.9138 66.9581 85.5043L67.4936 86.1222C71.2891 90.5035 73.6812 95.9238 74.3596 101.681C74.3529 102.1 74.3944 102.52 74.4832 102.93C74.6557 103.402 74.9326 103.83 75.2934 104.18C75.5818 104.386 75.9113 104.18 76.1448 104.18C76.0624 103.617 76.0761 103.328 76.0487 103.04Z" fill="#00A0DF"></path><path d="M63.6068 91.766C65.3312 93.6626 66.379 96.077 66.5866 98.6319C66.6771 99.0204 66.8203 99.3946 67.0123 99.7442C67.85 100.431 68.2619 100.197 68.2619 99.3323C67.9683 96.0563 66.6135 92.9658 64.4033 90.5301C63.8814 89.9945 63.4558 89.8297 63.2086 90.2829C63.1197 90.5416 63.1101 90.821 63.181 91.0853C63.252 91.3495 63.4002 91.5865 63.6068 91.766Z" fill="#00A0DF"></path><g opacity="0.9"><path d="M76.2137 121.757C74.1128 118.296 71.998 114.891 69.897 111.403C69.5638 110.742 69.0979 110.157 68.5285 109.685C67.9591 109.212 67.2984 108.862 66.5876 108.656C65.5715 108.45 64.5553 108.217 63.5117 107.915C63.14 107.76 62.8274 107.49 62.6191 107.146C59.1812 101.262 56.448 94.9935 54.476 88.4703C54.4341 88.3308 54.4222 88.184 54.4411 88.0396C54.4601 87.8953 54.5094 87.7565 54.5859 87.6326C55.2313 86.9872 55.9591 86.3967 56.6182 85.82C57.2774 85.2432 57.6207 83.9112 57.14 82.181C56.1239 78.5146 55.1489 74.8481 54.1327 71.1954C53.9361 70.1576 53.4696 69.1898 52.7802 68.3895C52.0907 67.5892 51.2027 66.9845 50.2054 66.6364C47.9909 66.0208 45.64 66.1071 43.4767 66.8836C42.6391 67.1994 42.1996 67.9547 42.1859 69.2592C42.5429 71.7722 42.7764 74.2577 43.257 76.8118C46.6442 95.231 54.7919 112.167 67.6999 127.62C68.0369 128.133 68.4896 128.559 69.0216 128.864C69.5535 129.169 70.1497 129.345 70.7622 129.378C72.8992 129.327 74.9523 128.536 76.5708 127.139C77.7929 126.041 77.6693 124.091 76.2137 121.757Z" fill="white"></path><path d="M76.0492 103.04C75.7619 99.0902 74.6732 95.2403 72.8496 91.7249C71.488 88.9787 69.7553 86.4327 67.7001 84.1586C67.1646 83.5544 66.7114 83.3621 66.4368 83.8153C66.1621 84.2684 66.4368 84.9138 66.9586 85.5043L67.4941 86.1222C71.2896 90.5035 73.6816 95.9238 74.3601 101.681C74.3534 102.1 74.3949 102.52 74.4837 102.93C74.6562 103.402 74.9331 103.83 75.2939 104.18C75.5823 104.386 75.9118 104.18 76.1453 104.18C76.0629 103.617 76.0766 103.328 76.0492 103.04Z" fill="white"></path><path d="M63.6073 91.766C65.3317 93.6626 66.3795 96.077 66.5871 98.6319C66.6776 99.0204 66.8208 99.3946 67.0128 99.7442C67.8505 100.431 68.2624 100.197 68.2624 99.3323C67.9688 96.0563 66.614 92.9658 64.4037 90.5301C63.8819 89.9945 63.4562 89.8297 63.2091 90.2829C63.1201 90.5416 63.1105 90.821 63.1815 91.0853C63.2525 91.3495 63.4007 91.5865 63.6073 91.766Z" fill="white"></path></g><path d="M379.348 30.4116L392.214 37.7307V33.1717C392.214 32.8558 392.214 32.5263 392.214 32.2104C392.214 31.8946 392.214 31.5925 392.214 31.2904V31.1256C392.681 25.0973 397.254 22.7766 402.829 26.0036C405.353 27.556 407.516 29.6301 409.173 32.0869C410.423 23.8477 417.11 20.9365 425.199 25.5916C434.179 30.7823 441.457 43.4432 441.457 53.7696V63.5193C441.444 64.2992 441.637 65.0688 442.015 65.7509C442.394 66.433 442.945 67.0036 443.613 67.4055L451.193 71.8409C452.829 72.8108 454.185 74.1888 455.129 75.8401C456.072 77.4913 456.571 79.3593 456.576 81.2611C456.576 82.0501 456.369 82.8252 455.974 83.5084C455.579 84.1917 455.012 84.7588 454.328 85.1528C453.645 85.5468 452.869 85.7538 452.08 85.7528C451.291 85.7518 450.516 85.5429 449.834 85.1472L379.54 44.5143C377.675 43.4313 376.126 41.8792 375.047 40.0123C373.968 38.1453 373.396 36.0284 373.388 33.872C373.387 33.174 373.57 32.4881 373.918 31.883C374.266 31.2779 374.767 30.7749 375.37 30.4244C375.974 30.0739 376.659 29.8882 377.357 29.8859C378.055 29.8837 378.742 30.065 379.348 30.4116Z" fill="#E6E6E6"></path><path d="M477.435 28.5028L486.786 33.872V30.5214C486.786 30.288 486.786 30.0545 486.786 29.8211C486.786 29.5876 486.786 29.3679 486.786 29.1482V29.0658C487.13 24.6853 490.453 22.9963 494.504 25.3445C496.338 26.4685 497.911 27.9713 499.118 29.7524C500.038 23.7927 504.899 21.6368 510.776 25.0286C517.313 28.8049 522.599 37.9779 522.599 45.5167V52.6162C522.604 53.1727 522.754 53.7184 523.033 54.1998C523.312 54.6813 523.712 55.0819 524.192 55.3626L529.685 58.5896C530.88 59.2925 531.871 60.2962 532.557 61.5008C533.244 62.7055 533.603 64.069 533.599 65.4556C533.598 66.0235 533.449 66.5813 533.167 67.0742C532.885 67.5671 532.479 67.9779 531.99 68.2662C531.5 68.5545 530.944 68.7103 530.376 68.7183C529.809 68.7263 529.248 68.5862 528.751 68.3118L477.572 38.7606C476.216 37.976 475.09 36.8489 474.307 35.492C473.523 34.1351 473.111 32.5962 473.109 31.0295C473.108 30.5224 473.24 30.024 473.492 29.5839C473.744 29.1439 474.107 28.7777 474.545 28.522C474.983 28.2662 475.48 28.1298 475.988 28.1265C476.495 28.1231 476.994 28.2529 477.435 28.5028Z" fill="#E6E6E6"></path></svg>